%TF.GenerationSoftware,KiCad,Pcbnew,8.0.1*%
%TF.CreationDate,2025-02-04T00:39:20-05:00*%
%TF.ProjectId,glove-v3-right,676c6f76-652d-4763-932d-72696768742e,rev?*%
%TF.SameCoordinates,Original*%
%TF.FileFunction,Copper,L2,Inr*%
%TF.FilePolarity,Positive*%
%FSLAX46Y46*%
G04 Gerber Fmt 4.6, Leading zero omitted, Abs format (unit mm)*
G04 Created by KiCad (PCBNEW 8.0.1) date 2025-02-04 00:39:20*
%MOMM*%
%LPD*%
G01*
G04 APERTURE LIST*
%TA.AperFunction,ComponentPad*%
%ADD10C,3.800000*%
%TD*%
%TA.AperFunction,ComponentPad*%
%ADD11C,1.524000*%
%TD*%
%TA.AperFunction,ViaPad*%
%ADD12C,0.450000*%
%TD*%
G04 APERTURE END LIST*
D10*
%TO.N,N/C*%
%TO.C,REF\u002A\u002A*%
X114050000Y-34550000D03*
%TD*%
%TO.N,N/C*%
%TO.C,REF\u002A\u002A*%
X178050000Y-57050000D03*
%TD*%
%TO.N,N/C*%
%TO.C,REF\u002A\u002A*%
X114050000Y-57050000D03*
%TD*%
D11*
%TO.N,unconnected-(U1-PA02_A0_D0-Pad1)*%
%TO.C,U1*%
X176150000Y-38150000D03*
%TO.N,unconnected-(U1-PA4_A1_D1-Pad2)*%
X173610000Y-38150000D03*
%TO.N,/MUX_OUT*%
X171070000Y-38150000D03*
%TO.N,unconnected-(U1-PA11_A3_D3-Pad4)*%
X168530000Y-38150000D03*
%TO.N,/S2*%
X165990000Y-38150000D03*
%TO.N,/S3*%
X163450000Y-38150000D03*
%TO.N,unconnected-(U1-PB08_A6_D6_TX-Pad7)*%
X160910000Y-38150000D03*
%TO.N,unconnected-(U1-PB09_A7_D7_RX-Pad8)*%
X160910000Y-53542400D03*
%TO.N,Net-(U1-PA7_A8_D8_SCK)*%
X163450000Y-53542400D03*
%TO.N,/S1*%
X165990000Y-53542400D03*
%TO.N,/S0*%
X168530000Y-53542400D03*
%TO.N,+3V3*%
X171070000Y-53542400D03*
%TO.N,GND*%
X173610000Y-53542400D03*
%TO.N,unconnected-(U1-5V-Pad14)*%
X176150000Y-53542400D03*
%TD*%
D10*
%TO.N,N/C*%
%TO.C,REF\u002A\u002A*%
X178050000Y-34550000D03*
%TD*%
D12*
%TO.N,GND*%
X107040000Y-49200000D03*
X105200000Y-30380000D03*
X170200000Y-30380000D03*
X131200000Y-30380000D03*
X118200000Y-30380000D03*
X107052500Y-55700000D03*
X107040000Y-36200000D03*
X157200000Y-30380000D03*
X144200000Y-30380000D03*
X107040000Y-42700000D03*
X176700000Y-30380000D03*
X124700000Y-30380000D03*
X153890000Y-37460000D03*
X150700000Y-30380000D03*
X163700000Y-30380000D03*
X140300000Y-37460000D03*
X111700000Y-30380000D03*
X137700000Y-30380000D03*
X156440000Y-46940000D03*
%TO.N,+3V3*%
X130200000Y-30380000D03*
X169200000Y-30380000D03*
X123700000Y-30380000D03*
X162700000Y-30380000D03*
X110700000Y-30380000D03*
X149700000Y-30380000D03*
X136700000Y-30380000D03*
X107040000Y-43700000D03*
X142460000Y-37460000D03*
X156200000Y-30380000D03*
X104200000Y-30380000D03*
X175700000Y-30380000D03*
X107040000Y-37200000D03*
X143200000Y-30380000D03*
X107040000Y-50200000D03*
X117200000Y-30380000D03*
X107052500Y-56700000D03*
%TD*%
%TA.AperFunction,Conductor*%
%TO.N,+3V3*%
G36*
X179892539Y-25220185D02*
G01*
X179938294Y-25272989D01*
X179949500Y-25324500D01*
X179949500Y-32754193D01*
X179929815Y-32821232D01*
X179877011Y-32866987D01*
X179807853Y-32876931D01*
X179744297Y-32847906D01*
X179740616Y-32844585D01*
X179583163Y-32696727D01*
X179583153Y-32696719D01*
X179338806Y-32519191D01*
X179338799Y-32519186D01*
X179338795Y-32519184D01*
X179074104Y-32373668D01*
X179074101Y-32373666D01*
X179074096Y-32373664D01*
X179074095Y-32373663D01*
X178793265Y-32262475D01*
X178793262Y-32262474D01*
X178500695Y-32187357D01*
X178201036Y-32149500D01*
X178201027Y-32149500D01*
X177898973Y-32149500D01*
X177898963Y-32149500D01*
X177599304Y-32187357D01*
X177306737Y-32262474D01*
X177306734Y-32262475D01*
X177025904Y-32373663D01*
X177025903Y-32373664D01*
X176761205Y-32519184D01*
X176761193Y-32519191D01*
X176516846Y-32696719D01*
X176516836Y-32696727D01*
X176296652Y-32903494D01*
X176104111Y-33136236D01*
X175942268Y-33391261D01*
X175942265Y-33391267D01*
X175813661Y-33664563D01*
X175813659Y-33664568D01*
X175720320Y-33951835D01*
X175663719Y-34248546D01*
X175663718Y-34248553D01*
X175644754Y-34549994D01*
X175644754Y-34550005D01*
X175663718Y-34851446D01*
X175663719Y-34851453D01*
X175720320Y-35148164D01*
X175813659Y-35435431D01*
X175813661Y-35435436D01*
X175942265Y-35708732D01*
X175942268Y-35708738D01*
X176104111Y-35963763D01*
X176296652Y-36196505D01*
X176516836Y-36403272D01*
X176516846Y-36403280D01*
X176761193Y-36580808D01*
X176761198Y-36580810D01*
X176761205Y-36580816D01*
X177025896Y-36726332D01*
X177025901Y-36726334D01*
X177025903Y-36726335D01*
X177025904Y-36726336D01*
X177306734Y-36837524D01*
X177306737Y-36837525D01*
X177385662Y-36857789D01*
X177599302Y-36912642D01*
X177737422Y-36930091D01*
X177898963Y-36950499D01*
X177898969Y-36950499D01*
X177898973Y-36950500D01*
X177898975Y-36950500D01*
X178201025Y-36950500D01*
X178201027Y-36950500D01*
X178201032Y-36950499D01*
X178201036Y-36950499D01*
X178280591Y-36940448D01*
X178500698Y-36912642D01*
X178793262Y-36837525D01*
X178793265Y-36837524D01*
X179074095Y-36726336D01*
X179074096Y-36726335D01*
X179074094Y-36726335D01*
X179074104Y-36726332D01*
X179338795Y-36580816D01*
X179583162Y-36403274D01*
X179740616Y-36255413D01*
X179802960Y-36223872D01*
X179872461Y-36231043D01*
X179927052Y-36274650D01*
X179949401Y-36340849D01*
X179949500Y-36345806D01*
X179949500Y-55254193D01*
X179929815Y-55321232D01*
X179877011Y-55366987D01*
X179807853Y-55376931D01*
X179744297Y-55347906D01*
X179740616Y-55344585D01*
X179583163Y-55196727D01*
X179583153Y-55196719D01*
X179338806Y-55019191D01*
X179338799Y-55019186D01*
X179338795Y-55019184D01*
X179074104Y-54873668D01*
X179074101Y-54873666D01*
X179074096Y-54873664D01*
X179074095Y-54873663D01*
X178793265Y-54762475D01*
X178793262Y-54762474D01*
X178500695Y-54687357D01*
X178201036Y-54649500D01*
X178201027Y-54649500D01*
X177898973Y-54649500D01*
X177898963Y-54649500D01*
X177599304Y-54687357D01*
X177306737Y-54762474D01*
X177306734Y-54762475D01*
X177025904Y-54873663D01*
X177025903Y-54873664D01*
X176761205Y-55019184D01*
X176761193Y-55019191D01*
X176516846Y-55196719D01*
X176516836Y-55196727D01*
X176296652Y-55403494D01*
X176104111Y-55636236D01*
X175942268Y-55891261D01*
X175942265Y-55891267D01*
X175813661Y-56164563D01*
X175813659Y-56164568D01*
X175720320Y-56451835D01*
X175663719Y-56748546D01*
X175663718Y-56748553D01*
X175644754Y-57049994D01*
X175644754Y-57050005D01*
X175663718Y-57351446D01*
X175663719Y-57351453D01*
X175720320Y-57648164D01*
X175813659Y-57935431D01*
X175813661Y-57935436D01*
X175942265Y-58208732D01*
X175942268Y-58208738D01*
X176104111Y-58463763D01*
X176296652Y-58696505D01*
X176516836Y-58903272D01*
X176516846Y-58903280D01*
X176615810Y-58975182D01*
X176658476Y-59030512D01*
X176664455Y-59100125D01*
X176631849Y-59161920D01*
X176571011Y-59196277D01*
X176542925Y-59199500D01*
X115557075Y-59199500D01*
X115490036Y-59179815D01*
X115444281Y-59127011D01*
X115434337Y-59057853D01*
X115463362Y-58994297D01*
X115484190Y-58975182D01*
X115549488Y-58927738D01*
X115583162Y-58903274D01*
X115803349Y-58696504D01*
X115995885Y-58463768D01*
X116157733Y-58208736D01*
X116286341Y-57935430D01*
X116379681Y-57648160D01*
X116436280Y-57351457D01*
X116455246Y-57050000D01*
X116436280Y-56748543D01*
X116379681Y-56451840D01*
X116286341Y-56164570D01*
X116157733Y-55891264D01*
X116129828Y-55847293D01*
X115995888Y-55636236D01*
X115803347Y-55403494D01*
X115583163Y-55196727D01*
X115583153Y-55196719D01*
X115338806Y-55019191D01*
X115338799Y-55019186D01*
X115338795Y-55019184D01*
X115074104Y-54873668D01*
X115074101Y-54873666D01*
X115074096Y-54873664D01*
X115074095Y-54873663D01*
X114793265Y-54762475D01*
X114793262Y-54762474D01*
X114500695Y-54687357D01*
X114201036Y-54649500D01*
X114201027Y-54649500D01*
X113898973Y-54649500D01*
X113898963Y-54649500D01*
X113599304Y-54687357D01*
X113306737Y-54762474D01*
X113306734Y-54762475D01*
X113025904Y-54873663D01*
X113025903Y-54873664D01*
X112761205Y-55019184D01*
X112761193Y-55019191D01*
X112516846Y-55196719D01*
X112516836Y-55196727D01*
X112296652Y-55403494D01*
X112104111Y-55636236D01*
X111942268Y-55891261D01*
X111942265Y-55891267D01*
X111813661Y-56164563D01*
X111813659Y-56164568D01*
X111720320Y-56451835D01*
X111663719Y-56748546D01*
X111663718Y-56748553D01*
X111644754Y-57049994D01*
X111644754Y-57050005D01*
X111663718Y-57351446D01*
X111663719Y-57351453D01*
X111720320Y-57648164D01*
X111813659Y-57935431D01*
X111813661Y-57935436D01*
X111942265Y-58208732D01*
X111942268Y-58208738D01*
X112104111Y-58463763D01*
X112296652Y-58696505D01*
X112516836Y-58903272D01*
X112516846Y-58903280D01*
X112615810Y-58975182D01*
X112658476Y-59030512D01*
X112664455Y-59100125D01*
X112631849Y-59161920D01*
X112571011Y-59196277D01*
X112542925Y-59199500D01*
X102074500Y-59199500D01*
X102007461Y-59179815D01*
X101961706Y-59127011D01*
X101950500Y-59075500D01*
X101950500Y-55700003D01*
X106322409Y-55700003D01*
X106340712Y-55862455D01*
X106394710Y-56016774D01*
X106394711Y-56016775D01*
X106481692Y-56155204D01*
X106597296Y-56270808D01*
X106735725Y-56357789D01*
X106890039Y-56411786D01*
X106890042Y-56411786D01*
X106890044Y-56411787D01*
X107052496Y-56430091D01*
X107052500Y-56430091D01*
X107052504Y-56430091D01*
X107214955Y-56411787D01*
X107214956Y-56411786D01*
X107214961Y-56411786D01*
X107369275Y-56357789D01*
X107507704Y-56270808D01*
X107623308Y-56155204D01*
X107710289Y-56016775D01*
X107764286Y-55862461D01*
X107782591Y-55700000D01*
X107775406Y-55636232D01*
X107764287Y-55537544D01*
X107764286Y-55537542D01*
X107764286Y-55537539D01*
X107710289Y-55383225D01*
X107623308Y-55244796D01*
X107507704Y-55129192D01*
X107369274Y-55042210D01*
X107214955Y-54988212D01*
X107052504Y-54969909D01*
X107052496Y-54969909D01*
X106890044Y-54988212D01*
X106735725Y-55042210D01*
X106597295Y-55129192D01*
X106481692Y-55244795D01*
X106394710Y-55383225D01*
X106340712Y-55537544D01*
X106322409Y-55699996D01*
X106322409Y-55700003D01*
X101950500Y-55700003D01*
X101950500Y-53542402D01*
X159642677Y-53542402D01*
X159661929Y-53762462D01*
X159661930Y-53762470D01*
X159719104Y-53975845D01*
X159719105Y-53975847D01*
X159719106Y-53975850D01*
X159750139Y-54042400D01*
X159812466Y-54176062D01*
X159812468Y-54176066D01*
X159939170Y-54357015D01*
X159939175Y-54357021D01*
X160095378Y-54513224D01*
X160095384Y-54513229D01*
X160276333Y-54639931D01*
X160276335Y-54639932D01*
X160276338Y-54639934D01*
X160476550Y-54733294D01*
X160689932Y-54790470D01*
X160847123Y-54804222D01*
X160909998Y-54809723D01*
X160910000Y-54809723D01*
X160910002Y-54809723D01*
X160965017Y-54804909D01*
X161130068Y-54790470D01*
X161343450Y-54733294D01*
X161543662Y-54639934D01*
X161724620Y-54513226D01*
X161880826Y-54357020D01*
X162007534Y-54176062D01*
X162067618Y-54047211D01*
X162113790Y-53994771D01*
X162180983Y-53975619D01*
X162247865Y-53995835D01*
X162292382Y-54047211D01*
X162352464Y-54176058D01*
X162352468Y-54176066D01*
X162479170Y-54357015D01*
X162479175Y-54357021D01*
X162635378Y-54513224D01*
X162635384Y-54513229D01*
X162816333Y-54639931D01*
X162816335Y-54639932D01*
X162816338Y-54639934D01*
X163016550Y-54733294D01*
X163229932Y-54790470D01*
X163387123Y-54804222D01*
X163449998Y-54809723D01*
X163450000Y-54809723D01*
X163450002Y-54809723D01*
X163505017Y-54804909D01*
X163670068Y-54790470D01*
X163883450Y-54733294D01*
X164083662Y-54639934D01*
X164264620Y-54513226D01*
X164420826Y-54357020D01*
X164547534Y-54176062D01*
X164607618Y-54047211D01*
X164653790Y-53994771D01*
X164720983Y-53975619D01*
X164787865Y-53995835D01*
X164832382Y-54047211D01*
X164892464Y-54176058D01*
X164892468Y-54176066D01*
X165019170Y-54357015D01*
X165019175Y-54357021D01*
X165175378Y-54513224D01*
X165175384Y-54513229D01*
X165356333Y-54639931D01*
X165356335Y-54639932D01*
X165356338Y-54639934D01*
X165556550Y-54733294D01*
X165769932Y-54790470D01*
X165927123Y-54804222D01*
X165989998Y-54809723D01*
X165990000Y-54809723D01*
X165990002Y-54809723D01*
X166045017Y-54804909D01*
X166210068Y-54790470D01*
X166423450Y-54733294D01*
X166623662Y-54639934D01*
X166804620Y-54513226D01*
X166960826Y-54357020D01*
X167087534Y-54176062D01*
X167147618Y-54047211D01*
X167193790Y-53994771D01*
X167260983Y-53975619D01*
X167327865Y-53995835D01*
X167372382Y-54047211D01*
X167432464Y-54176058D01*
X167432468Y-54176066D01*
X167559170Y-54357015D01*
X167559175Y-54357021D01*
X167715378Y-54513224D01*
X167715384Y-54513229D01*
X167896333Y-54639931D01*
X167896335Y-54639932D01*
X167896338Y-54639934D01*
X168096550Y-54733294D01*
X168309932Y-54790470D01*
X168467123Y-54804222D01*
X168529998Y-54809723D01*
X168530000Y-54809723D01*
X168530002Y-54809723D01*
X168585017Y-54804909D01*
X168750068Y-54790470D01*
X168963450Y-54733294D01*
X169163662Y-54639934D01*
X169344620Y-54513226D01*
X169500826Y-54357020D01*
X169627534Y-54176062D01*
X169687894Y-54046618D01*
X169734066Y-53994179D01*
X169801259Y-53975027D01*
X169868141Y-53995243D01*
X169912658Y-54046619D01*
X169972898Y-54175805D01*
X169972901Y-54175811D01*
X170018258Y-54240587D01*
X170018259Y-54240588D01*
X170587037Y-53671809D01*
X170604075Y-53735393D01*
X170669901Y-53849407D01*
X170762993Y-53942499D01*
X170877007Y-54008325D01*
X170940590Y-54025362D01*
X170371810Y-54594140D01*
X170436590Y-54639499D01*
X170436592Y-54639500D01*
X170636715Y-54732819D01*
X170636729Y-54732824D01*
X170850013Y-54789973D01*
X170850023Y-54789975D01*
X171069999Y-54809221D01*
X171070001Y-54809221D01*
X171289976Y-54789975D01*
X171289986Y-54789973D01*
X171503270Y-54732824D01*
X171503284Y-54732819D01*
X171703407Y-54639500D01*
X171703417Y-54639494D01*
X171768188Y-54594141D01*
X171199410Y-54025362D01*
X171262993Y-54008325D01*
X171377007Y-53942499D01*
X171470099Y-53849407D01*
X171535925Y-53735393D01*
X171552962Y-53671809D01*
X172121741Y-54240588D01*
X172167094Y-54175817D01*
X172167095Y-54175816D01*
X172227340Y-54046619D01*
X172273512Y-53994180D01*
X172340706Y-53975027D01*
X172407587Y-53995242D01*
X172452105Y-54046618D01*
X172512466Y-54176062D01*
X172512468Y-54176066D01*
X172639170Y-54357015D01*
X172639175Y-54357021D01*
X172795378Y-54513224D01*
X172795384Y-54513229D01*
X172976333Y-54639931D01*
X172976335Y-54639932D01*
X172976338Y-54639934D01*
X173176550Y-54733294D01*
X173389932Y-54790470D01*
X173547123Y-54804222D01*
X173609998Y-54809723D01*
X173610000Y-54809723D01*
X173610002Y-54809723D01*
X173665017Y-54804909D01*
X173830068Y-54790470D01*
X174043450Y-54733294D01*
X174243662Y-54639934D01*
X174424620Y-54513226D01*
X174580826Y-54357020D01*
X174707534Y-54176062D01*
X174767618Y-54047211D01*
X174813790Y-53994771D01*
X174880983Y-53975619D01*
X174947865Y-53995835D01*
X174992382Y-54047211D01*
X175052464Y-54176058D01*
X175052468Y-54176066D01*
X175179170Y-54357015D01*
X175179175Y-54357021D01*
X175335378Y-54513224D01*
X175335384Y-54513229D01*
X175516333Y-54639931D01*
X175516335Y-54639932D01*
X175516338Y-54639934D01*
X175716550Y-54733294D01*
X175929932Y-54790470D01*
X176087123Y-54804222D01*
X176149998Y-54809723D01*
X176150000Y-54809723D01*
X176150002Y-54809723D01*
X176205017Y-54804909D01*
X176370068Y-54790470D01*
X176583450Y-54733294D01*
X176783662Y-54639934D01*
X176964620Y-54513226D01*
X177120826Y-54357020D01*
X177247534Y-54176062D01*
X177340894Y-53975850D01*
X177398070Y-53762468D01*
X177417323Y-53542400D01*
X177398070Y-53322332D01*
X177340894Y-53108950D01*
X177247534Y-52908739D01*
X177120826Y-52727780D01*
X176964620Y-52571574D01*
X176964616Y-52571571D01*
X176964615Y-52571570D01*
X176783666Y-52444868D01*
X176783662Y-52444866D01*
X176783660Y-52444865D01*
X176583450Y-52351506D01*
X176583447Y-52351505D01*
X176583445Y-52351504D01*
X176370070Y-52294330D01*
X176370062Y-52294329D01*
X176150002Y-52275077D01*
X176149998Y-52275077D01*
X175929937Y-52294329D01*
X175929929Y-52294330D01*
X175716554Y-52351504D01*
X175716548Y-52351507D01*
X175516340Y-52444865D01*
X175516338Y-52444866D01*
X175335377Y-52571575D01*
X175179175Y-52727777D01*
X175052466Y-52908738D01*
X175052465Y-52908740D01*
X174992382Y-53037589D01*
X174946209Y-53090028D01*
X174879016Y-53109180D01*
X174812135Y-53088964D01*
X174767618Y-53037589D01*
X174707651Y-52908990D01*
X174707534Y-52908739D01*
X174580826Y-52727780D01*
X174424620Y-52571574D01*
X174424616Y-52571571D01*
X174424615Y-52571570D01*
X174243666Y-52444868D01*
X174243662Y-52444866D01*
X174243660Y-52444865D01*
X174043450Y-52351506D01*
X174043447Y-52351505D01*
X174043445Y-52351504D01*
X173830070Y-52294330D01*
X173830062Y-52294329D01*
X173610002Y-52275077D01*
X173609998Y-52275077D01*
X173389937Y-52294329D01*
X173389929Y-52294330D01*
X173176554Y-52351504D01*
X173176548Y-52351507D01*
X172976340Y-52444865D01*
X172976338Y-52444866D01*
X172795377Y-52571575D01*
X172639175Y-52727777D01*
X172512467Y-52908737D01*
X172452105Y-53038182D01*
X172405932Y-53090621D01*
X172338738Y-53109772D01*
X172271857Y-53089556D01*
X172227341Y-53038180D01*
X172167098Y-52908989D01*
X172167097Y-52908987D01*
X172121741Y-52844211D01*
X172121740Y-52844210D01*
X171552962Y-53412989D01*
X171535925Y-53349407D01*
X171470099Y-53235393D01*
X171377007Y-53142301D01*
X171262993Y-53076475D01*
X171199410Y-53059437D01*
X171768188Y-52490659D01*
X171768187Y-52490658D01*
X171703411Y-52445301D01*
X171703405Y-52445298D01*
X171503284Y-52351980D01*
X171503270Y-52351975D01*
X171289986Y-52294826D01*
X171289976Y-52294824D01*
X171070001Y-52275579D01*
X171069999Y-52275579D01*
X170850023Y-52294824D01*
X170850013Y-52294826D01*
X170636729Y-52351975D01*
X170636720Y-52351979D01*
X170436590Y-52445301D01*
X170371811Y-52490658D01*
X170940590Y-53059437D01*
X170877007Y-53076475D01*
X170762993Y-53142301D01*
X170669901Y-53235393D01*
X170604075Y-53349407D01*
X170587037Y-53412990D01*
X170018258Y-52844211D01*
X169972901Y-52908990D01*
X169912658Y-53038181D01*
X169866485Y-53090620D01*
X169799292Y-53109772D01*
X169732411Y-53089556D01*
X169687894Y-53038181D01*
X169627651Y-52908990D01*
X169627534Y-52908739D01*
X169500826Y-52727780D01*
X169344620Y-52571574D01*
X169344616Y-52571571D01*
X169344615Y-52571570D01*
X169163666Y-52444868D01*
X169163662Y-52444866D01*
X169163660Y-52444865D01*
X168963450Y-52351506D01*
X168963447Y-52351505D01*
X168963445Y-52351504D01*
X168750070Y-52294330D01*
X168750062Y-52294329D01*
X168530002Y-52275077D01*
X168529998Y-52275077D01*
X168309937Y-52294329D01*
X168309929Y-52294330D01*
X168096554Y-52351504D01*
X168096548Y-52351507D01*
X167896340Y-52444865D01*
X167896338Y-52444866D01*
X167715377Y-52571575D01*
X167559175Y-52727777D01*
X167432466Y-52908738D01*
X167432465Y-52908740D01*
X167372382Y-53037589D01*
X167326209Y-53090028D01*
X167259016Y-53109180D01*
X167192135Y-53088964D01*
X167147618Y-53037589D01*
X167087651Y-52908990D01*
X167087534Y-52908739D01*
X166960826Y-52727780D01*
X166804620Y-52571574D01*
X166804616Y-52571571D01*
X166804615Y-52571570D01*
X166623666Y-52444868D01*
X166623662Y-52444866D01*
X166623660Y-52444865D01*
X166423450Y-52351506D01*
X166423447Y-52351505D01*
X166423445Y-52351504D01*
X166210070Y-52294330D01*
X166210062Y-52294329D01*
X165990002Y-52275077D01*
X165989998Y-52275077D01*
X165769937Y-52294329D01*
X165769929Y-52294330D01*
X165556554Y-52351504D01*
X165556548Y-52351507D01*
X165356340Y-52444865D01*
X165356338Y-52444866D01*
X165175377Y-52571575D01*
X165019175Y-52727777D01*
X164892466Y-52908738D01*
X164892465Y-52908740D01*
X164832382Y-53037589D01*
X164786209Y-53090028D01*
X164719016Y-53109180D01*
X164652135Y-53088964D01*
X164607618Y-53037589D01*
X164547651Y-52908990D01*
X164547534Y-52908739D01*
X164420826Y-52727780D01*
X164264620Y-52571574D01*
X164264616Y-52571571D01*
X164264615Y-52571570D01*
X164083666Y-52444868D01*
X164083662Y-52444866D01*
X164083660Y-52444865D01*
X163883450Y-52351506D01*
X163883447Y-52351505D01*
X163883445Y-52351504D01*
X163670070Y-52294330D01*
X163670062Y-52294329D01*
X163450002Y-52275077D01*
X163449998Y-52275077D01*
X163229937Y-52294329D01*
X163229929Y-52294330D01*
X163016554Y-52351504D01*
X163016548Y-52351507D01*
X162816340Y-52444865D01*
X162816338Y-52444866D01*
X162635377Y-52571575D01*
X162479175Y-52727777D01*
X162352466Y-52908738D01*
X162352465Y-52908740D01*
X162292382Y-53037589D01*
X162246209Y-53090028D01*
X162179016Y-53109180D01*
X162112135Y-53088964D01*
X162067618Y-53037589D01*
X162007651Y-52908990D01*
X162007534Y-52908739D01*
X161880826Y-52727780D01*
X161724620Y-52571574D01*
X161724616Y-52571571D01*
X161724615Y-52571570D01*
X161543666Y-52444868D01*
X161543662Y-52444866D01*
X161543660Y-52444865D01*
X161343450Y-52351506D01*
X161343447Y-52351505D01*
X161343445Y-52351504D01*
X161130070Y-52294330D01*
X161130062Y-52294329D01*
X160910002Y-52275077D01*
X160909998Y-52275077D01*
X160689937Y-52294329D01*
X160689929Y-52294330D01*
X160476554Y-52351504D01*
X160476548Y-52351507D01*
X160276340Y-52444865D01*
X160276338Y-52444866D01*
X160095377Y-52571575D01*
X159939175Y-52727777D01*
X159812466Y-52908738D01*
X159812465Y-52908740D01*
X159719107Y-53108948D01*
X159719104Y-53108954D01*
X159661930Y-53322329D01*
X159661929Y-53322337D01*
X159642677Y-53542397D01*
X159642677Y-53542402D01*
X101950500Y-53542402D01*
X101950500Y-49200003D01*
X106309909Y-49200003D01*
X106328212Y-49362455D01*
X106382210Y-49516774D01*
X106382211Y-49516775D01*
X106469192Y-49655204D01*
X106584796Y-49770808D01*
X106723225Y-49857789D01*
X106877539Y-49911786D01*
X106877542Y-49911786D01*
X106877544Y-49911787D01*
X107039996Y-49930091D01*
X107040000Y-49930091D01*
X107040004Y-49930091D01*
X107202455Y-49911787D01*
X107202456Y-49911786D01*
X107202461Y-49911786D01*
X107356775Y-49857789D01*
X107495204Y-49770808D01*
X107610808Y-49655204D01*
X107697789Y-49516775D01*
X107751786Y-49362461D01*
X107770091Y-49200000D01*
X107751786Y-49037539D01*
X107697789Y-48883225D01*
X107610808Y-48744796D01*
X107495204Y-48629192D01*
X107356774Y-48542210D01*
X107202455Y-48488212D01*
X107040004Y-48469909D01*
X107039996Y-48469909D01*
X106877544Y-48488212D01*
X106723225Y-48542210D01*
X106584795Y-48629192D01*
X106469192Y-48744795D01*
X106382210Y-48883225D01*
X106328212Y-49037544D01*
X106309909Y-49199996D01*
X106309909Y-49200003D01*
X101950500Y-49200003D01*
X101950500Y-46940003D01*
X155709909Y-46940003D01*
X155728212Y-47102455D01*
X155782210Y-47256774D01*
X155782211Y-47256775D01*
X155869192Y-47395204D01*
X155984796Y-47510808D01*
X156123225Y-47597789D01*
X156277539Y-47651786D01*
X156277542Y-47651786D01*
X156277544Y-47651787D01*
X156439996Y-47670091D01*
X156440000Y-47670091D01*
X156440004Y-47670091D01*
X156602455Y-47651787D01*
X156602456Y-47651786D01*
X156602461Y-47651786D01*
X156756775Y-47597789D01*
X156895204Y-47510808D01*
X157010808Y-47395204D01*
X157097789Y-47256775D01*
X157151786Y-47102461D01*
X157170091Y-46940000D01*
X157151786Y-46777539D01*
X157097789Y-46623225D01*
X157010808Y-46484796D01*
X156895204Y-46369192D01*
X156756774Y-46282210D01*
X156602455Y-46228212D01*
X156440004Y-46209909D01*
X156439996Y-46209909D01*
X156277544Y-46228212D01*
X156123225Y-46282210D01*
X155984795Y-46369192D01*
X155869192Y-46484795D01*
X155782210Y-46623225D01*
X155728212Y-46777544D01*
X155709909Y-46939996D01*
X155709909Y-46940003D01*
X101950500Y-46940003D01*
X101950500Y-42700003D01*
X106309909Y-42700003D01*
X106328212Y-42862455D01*
X106382210Y-43016774D01*
X106382211Y-43016775D01*
X106469192Y-43155204D01*
X106584796Y-43270808D01*
X106723225Y-43357789D01*
X106877539Y-43411786D01*
X106877542Y-43411786D01*
X106877544Y-43411787D01*
X107039996Y-43430091D01*
X107040000Y-43430091D01*
X107040004Y-43430091D01*
X107202455Y-43411787D01*
X107202456Y-43411786D01*
X107202461Y-43411786D01*
X107356775Y-43357789D01*
X107495204Y-43270808D01*
X107610808Y-43155204D01*
X107697789Y-43016775D01*
X107751786Y-42862461D01*
X107770091Y-42700000D01*
X107751786Y-42537539D01*
X107697789Y-42383225D01*
X107610808Y-42244796D01*
X107495204Y-42129192D01*
X107356774Y-42042210D01*
X107202455Y-41988212D01*
X107040004Y-41969909D01*
X107039996Y-41969909D01*
X106877544Y-41988212D01*
X106723225Y-42042210D01*
X106584795Y-42129192D01*
X106469192Y-42244795D01*
X106382210Y-42383225D01*
X106328212Y-42537544D01*
X106309909Y-42699996D01*
X106309909Y-42700003D01*
X101950500Y-42700003D01*
X101950500Y-37460003D01*
X139569909Y-37460003D01*
X139588212Y-37622455D01*
X139642210Y-37776774D01*
X139642211Y-37776775D01*
X139729192Y-37915204D01*
X139844796Y-38030808D01*
X139983225Y-38117789D01*
X140137539Y-38171786D01*
X140137542Y-38171786D01*
X140137544Y-38171787D01*
X140299996Y-38190091D01*
X140300000Y-38190091D01*
X140300004Y-38190091D01*
X140462455Y-38171787D01*
X140462456Y-38171786D01*
X140462461Y-38171786D01*
X140616775Y-38117789D01*
X140755204Y-38030808D01*
X140870808Y-37915204D01*
X140957789Y-37776775D01*
X141011786Y-37622461D01*
X141023743Y-37516339D01*
X141030091Y-37460003D01*
X153159909Y-37460003D01*
X153178212Y-37622455D01*
X153232210Y-37776774D01*
X153232211Y-37776775D01*
X153319192Y-37915204D01*
X153434796Y-38030808D01*
X153573225Y-38117789D01*
X153727539Y-38171786D01*
X153727542Y-38171786D01*
X153727544Y-38171787D01*
X153889996Y-38190091D01*
X153890000Y-38190091D01*
X153890004Y-38190091D01*
X154052455Y-38171787D01*
X154052456Y-38171786D01*
X154052461Y-38171786D01*
X154114716Y-38150002D01*
X159642677Y-38150002D01*
X159661929Y-38370062D01*
X159661930Y-38370070D01*
X159719104Y-38583445D01*
X159719105Y-38583447D01*
X159719106Y-38583450D01*
X159752382Y-38654811D01*
X159812466Y-38783662D01*
X159812468Y-38783666D01*
X159939170Y-38964615D01*
X159939175Y-38964621D01*
X160095378Y-39120824D01*
X160095384Y-39120829D01*
X160276333Y-39247531D01*
X160276335Y-39247532D01*
X160276338Y-39247534D01*
X160476550Y-39340894D01*
X160689932Y-39398070D01*
X160847123Y-39411822D01*
X160909998Y-39417323D01*
X160910000Y-39417323D01*
X160910002Y-39417323D01*
X160965017Y-39412509D01*
X161130068Y-39398070D01*
X161343450Y-39340894D01*
X161543662Y-39247534D01*
X161724620Y-39120826D01*
X161880826Y-38964620D01*
X162007534Y-38783662D01*
X162067618Y-38654811D01*
X162113790Y-38602371D01*
X162180983Y-38583219D01*
X162247865Y-38603435D01*
X162292382Y-38654811D01*
X162352464Y-38783658D01*
X162352468Y-38783666D01*
X162479170Y-38964615D01*
X162479175Y-38964621D01*
X162635378Y-39120824D01*
X162635384Y-39120829D01*
X162816333Y-39247531D01*
X162816335Y-39247532D01*
X162816338Y-39247534D01*
X163016550Y-39340894D01*
X163229932Y-39398070D01*
X163387123Y-39411822D01*
X163449998Y-39417323D01*
X163450000Y-39417323D01*
X163450002Y-39417323D01*
X163505017Y-39412509D01*
X163670068Y-39398070D01*
X163883450Y-39340894D01*
X164083662Y-39247534D01*
X164264620Y-39120826D01*
X164420826Y-38964620D01*
X164547534Y-38783662D01*
X164607618Y-38654811D01*
X164653790Y-38602371D01*
X164720983Y-38583219D01*
X164787865Y-38603435D01*
X164832382Y-38654811D01*
X164892464Y-38783658D01*
X164892468Y-38783666D01*
X165019170Y-38964615D01*
X165019175Y-38964621D01*
X165175378Y-39120824D01*
X165175384Y-39120829D01*
X165356333Y-39247531D01*
X165356335Y-39247532D01*
X165356338Y-39247534D01*
X165556550Y-39340894D01*
X165769932Y-39398070D01*
X165927123Y-39411822D01*
X165989998Y-39417323D01*
X165990000Y-39417323D01*
X165990002Y-39417323D01*
X166045017Y-39412509D01*
X166210068Y-39398070D01*
X166423450Y-39340894D01*
X166623662Y-39247534D01*
X166804620Y-39120826D01*
X166960826Y-38964620D01*
X167087534Y-38783662D01*
X167147618Y-38654811D01*
X167193790Y-38602371D01*
X167260983Y-38583219D01*
X167327865Y-38603435D01*
X167372382Y-38654811D01*
X167432464Y-38783658D01*
X167432468Y-38783666D01*
X167559170Y-38964615D01*
X167559175Y-38964621D01*
X167715378Y-39120824D01*
X167715384Y-39120829D01*
X167896333Y-39247531D01*
X167896335Y-39247532D01*
X167896338Y-39247534D01*
X168096550Y-39340894D01*
X168309932Y-39398070D01*
X168467123Y-39411822D01*
X168529998Y-39417323D01*
X168530000Y-39417323D01*
X168530002Y-39417323D01*
X168585017Y-39412509D01*
X168750068Y-39398070D01*
X168963450Y-39340894D01*
X169163662Y-39247534D01*
X169344620Y-39120826D01*
X169500826Y-38964620D01*
X169627534Y-38783662D01*
X169687618Y-38654811D01*
X169733790Y-38602371D01*
X169800983Y-38583219D01*
X169867865Y-38603435D01*
X169912382Y-38654811D01*
X169972464Y-38783658D01*
X169972468Y-38783666D01*
X170099170Y-38964615D01*
X170099175Y-38964621D01*
X170255378Y-39120824D01*
X170255384Y-39120829D01*
X170436333Y-39247531D01*
X170436335Y-39247532D01*
X170436338Y-39247534D01*
X170636550Y-39340894D01*
X170849932Y-39398070D01*
X171007123Y-39411822D01*
X171069998Y-39417323D01*
X171070000Y-39417323D01*
X171070002Y-39417323D01*
X171125017Y-39412509D01*
X171290068Y-39398070D01*
X171503450Y-39340894D01*
X171703662Y-39247534D01*
X171884620Y-39120826D01*
X172040826Y-38964620D01*
X172167534Y-38783662D01*
X172227618Y-38654811D01*
X172273790Y-38602371D01*
X172340983Y-38583219D01*
X172407865Y-38603435D01*
X172452382Y-38654811D01*
X172512464Y-38783658D01*
X172512468Y-38783666D01*
X172639170Y-38964615D01*
X172639175Y-38964621D01*
X172795378Y-39120824D01*
X172795384Y-39120829D01*
X172976333Y-39247531D01*
X172976335Y-39247532D01*
X172976338Y-39247534D01*
X173176550Y-39340894D01*
X173389932Y-39398070D01*
X173547123Y-39411822D01*
X173609998Y-39417323D01*
X173610000Y-39417323D01*
X173610002Y-39417323D01*
X173665017Y-39412509D01*
X173830068Y-39398070D01*
X174043450Y-39340894D01*
X174243662Y-39247534D01*
X174424620Y-39120826D01*
X174580826Y-38964620D01*
X174707534Y-38783662D01*
X174767618Y-38654811D01*
X174813790Y-38602371D01*
X174880983Y-38583219D01*
X174947865Y-38603435D01*
X174992382Y-38654811D01*
X175052464Y-38783658D01*
X175052468Y-38783666D01*
X175179170Y-38964615D01*
X175179175Y-38964621D01*
X175335378Y-39120824D01*
X175335384Y-39120829D01*
X175516333Y-39247531D01*
X175516335Y-39247532D01*
X175516338Y-39247534D01*
X175716550Y-39340894D01*
X175929932Y-39398070D01*
X176087123Y-39411822D01*
X176149998Y-39417323D01*
X176150000Y-39417323D01*
X176150002Y-39417323D01*
X176205017Y-39412509D01*
X176370068Y-39398070D01*
X176583450Y-39340894D01*
X176783662Y-39247534D01*
X176964620Y-39120826D01*
X177120826Y-38964620D01*
X177247534Y-38783662D01*
X177340894Y-38583450D01*
X177398070Y-38370068D01*
X177417323Y-38150000D01*
X177398070Y-37929932D01*
X177340894Y-37716550D01*
X177247534Y-37516339D01*
X177120826Y-37335380D01*
X176964620Y-37179174D01*
X176964616Y-37179171D01*
X176964615Y-37179170D01*
X176783666Y-37052468D01*
X176783662Y-37052466D01*
X176783660Y-37052465D01*
X176583450Y-36959106D01*
X176583447Y-36959105D01*
X176583445Y-36959104D01*
X176370070Y-36901930D01*
X176370062Y-36901929D01*
X176150002Y-36882677D01*
X176149998Y-36882677D01*
X175929937Y-36901929D01*
X175929929Y-36901930D01*
X175716554Y-36959104D01*
X175716548Y-36959107D01*
X175516340Y-37052465D01*
X175516338Y-37052466D01*
X175335377Y-37179175D01*
X175179175Y-37335377D01*
X175052466Y-37516338D01*
X175052465Y-37516340D01*
X174992382Y-37645189D01*
X174946209Y-37697628D01*
X174879016Y-37716780D01*
X174812135Y-37696564D01*
X174767618Y-37645189D01*
X174707534Y-37516340D01*
X174707533Y-37516338D01*
X174580827Y-37335381D01*
X174542985Y-37297539D01*
X174424620Y-37179174D01*
X174424616Y-37179171D01*
X174424615Y-37179170D01*
X174243666Y-37052468D01*
X174243662Y-37052466D01*
X174243660Y-37052465D01*
X174043450Y-36959106D01*
X174043447Y-36959105D01*
X174043445Y-36959104D01*
X173830070Y-36901930D01*
X173830062Y-36901929D01*
X173610002Y-36882677D01*
X173609998Y-36882677D01*
X173389937Y-36901929D01*
X173389929Y-36901930D01*
X173176554Y-36959104D01*
X173176548Y-36959107D01*
X172976340Y-37052465D01*
X172976338Y-37052466D01*
X172795377Y-37179175D01*
X172639175Y-37335377D01*
X172512466Y-37516338D01*
X172512465Y-37516340D01*
X172452382Y-37645189D01*
X172406209Y-37697628D01*
X172339016Y-37716780D01*
X172272135Y-37696564D01*
X172227618Y-37645189D01*
X172167534Y-37516340D01*
X172167533Y-37516338D01*
X172040827Y-37335381D01*
X172002985Y-37297539D01*
X171884620Y-37179174D01*
X171884616Y-37179171D01*
X171884615Y-37179170D01*
X171703666Y-37052468D01*
X171703662Y-37052466D01*
X171703660Y-37052465D01*
X171503450Y-36959106D01*
X171503447Y-36959105D01*
X171503445Y-36959104D01*
X171290070Y-36901930D01*
X171290062Y-36901929D01*
X171070002Y-36882677D01*
X171069998Y-36882677D01*
X170849937Y-36901929D01*
X170849929Y-36901930D01*
X170636554Y-36959104D01*
X170636548Y-36959107D01*
X170436340Y-37052465D01*
X170436338Y-37052466D01*
X170255377Y-37179175D01*
X170099175Y-37335377D01*
X169972466Y-37516338D01*
X169972465Y-37516340D01*
X169912382Y-37645189D01*
X169866209Y-37697628D01*
X169799016Y-37716780D01*
X169732135Y-37696564D01*
X169687618Y-37645189D01*
X169627534Y-37516340D01*
X169627533Y-37516338D01*
X169500827Y-37335381D01*
X169462985Y-37297539D01*
X169344620Y-37179174D01*
X169344616Y-37179171D01*
X169344615Y-37179170D01*
X169163666Y-37052468D01*
X169163662Y-37052466D01*
X169163660Y-37052465D01*
X168963450Y-36959106D01*
X168963447Y-36959105D01*
X168963445Y-36959104D01*
X168750070Y-36901930D01*
X168750062Y-36901929D01*
X168530002Y-36882677D01*
X168529998Y-36882677D01*
X168309937Y-36901929D01*
X168309929Y-36901930D01*
X168096554Y-36959104D01*
X168096548Y-36959107D01*
X167896340Y-37052465D01*
X167896338Y-37052466D01*
X167715377Y-37179175D01*
X167559175Y-37335377D01*
X167432466Y-37516338D01*
X167432465Y-37516340D01*
X167372382Y-37645189D01*
X167326209Y-37697628D01*
X167259016Y-37716780D01*
X167192135Y-37696564D01*
X167147618Y-37645189D01*
X167087534Y-37516340D01*
X167087533Y-37516338D01*
X166960827Y-37335381D01*
X166922985Y-37297539D01*
X166804620Y-37179174D01*
X166804616Y-37179171D01*
X166804615Y-37179170D01*
X166623666Y-37052468D01*
X166623662Y-37052466D01*
X166623660Y-37052465D01*
X166423450Y-36959106D01*
X166423447Y-36959105D01*
X166423445Y-36959104D01*
X166210070Y-36901930D01*
X166210062Y-36901929D01*
X165990002Y-36882677D01*
X165989998Y-36882677D01*
X165769937Y-36901929D01*
X165769929Y-36901930D01*
X165556554Y-36959104D01*
X165556548Y-36959107D01*
X165356340Y-37052465D01*
X165356338Y-37052466D01*
X165175377Y-37179175D01*
X165019175Y-37335377D01*
X164892466Y-37516338D01*
X164892465Y-37516340D01*
X164832382Y-37645189D01*
X164786209Y-37697628D01*
X164719016Y-37716780D01*
X164652135Y-37696564D01*
X164607618Y-37645189D01*
X164547534Y-37516340D01*
X164547533Y-37516338D01*
X164420827Y-37335381D01*
X164382985Y-37297539D01*
X164264620Y-37179174D01*
X164264616Y-37179171D01*
X164264615Y-37179170D01*
X164083666Y-37052468D01*
X164083662Y-37052466D01*
X164083660Y-37052465D01*
X163883450Y-36959106D01*
X163883447Y-36959105D01*
X163883445Y-36959104D01*
X163670070Y-36901930D01*
X163670062Y-36901929D01*
X163450002Y-36882677D01*
X163449998Y-36882677D01*
X163229937Y-36901929D01*
X163229929Y-36901930D01*
X163016554Y-36959104D01*
X163016548Y-36959107D01*
X162816340Y-37052465D01*
X162816338Y-37052466D01*
X162635377Y-37179175D01*
X162479175Y-37335377D01*
X162352466Y-37516338D01*
X162352465Y-37516340D01*
X162292382Y-37645189D01*
X162246209Y-37697628D01*
X162179016Y-37716780D01*
X162112135Y-37696564D01*
X162067618Y-37645189D01*
X162007534Y-37516340D01*
X162007533Y-37516338D01*
X161880827Y-37335381D01*
X161842985Y-37297539D01*
X161724620Y-37179174D01*
X161724616Y-37179171D01*
X161724615Y-37179170D01*
X161543666Y-37052468D01*
X161543662Y-37052466D01*
X161543660Y-37052465D01*
X161343450Y-36959106D01*
X161343447Y-36959105D01*
X161343445Y-36959104D01*
X161130070Y-36901930D01*
X161130062Y-36901929D01*
X160910002Y-36882677D01*
X160909998Y-36882677D01*
X160689937Y-36901929D01*
X160689929Y-36901930D01*
X160476554Y-36959104D01*
X160476548Y-36959107D01*
X160276340Y-37052465D01*
X160276338Y-37052466D01*
X160095377Y-37179175D01*
X159939175Y-37335377D01*
X159812466Y-37516338D01*
X159812465Y-37516340D01*
X159719107Y-37716548D01*
X159719104Y-37716554D01*
X159661930Y-37929929D01*
X159661929Y-37929937D01*
X159642677Y-38149997D01*
X159642677Y-38150002D01*
X154114716Y-38150002D01*
X154206775Y-38117789D01*
X154345204Y-38030808D01*
X154460808Y-37915204D01*
X154547789Y-37776775D01*
X154601786Y-37622461D01*
X154613743Y-37516339D01*
X154620091Y-37460003D01*
X154620091Y-37459996D01*
X154601787Y-37297544D01*
X154601786Y-37297542D01*
X154601786Y-37297539D01*
X154547789Y-37143225D01*
X154460808Y-37004796D01*
X154345204Y-36889192D01*
X154206774Y-36802210D01*
X154052455Y-36748212D01*
X153890004Y-36729909D01*
X153889996Y-36729909D01*
X153727544Y-36748212D01*
X153573225Y-36802210D01*
X153434795Y-36889192D01*
X153319192Y-37004795D01*
X153232210Y-37143225D01*
X153178212Y-37297544D01*
X153159909Y-37459996D01*
X153159909Y-37460003D01*
X141030091Y-37460003D01*
X141030091Y-37459996D01*
X141011787Y-37297544D01*
X141011786Y-37297542D01*
X141011786Y-37297539D01*
X140957789Y-37143225D01*
X140870808Y-37004796D01*
X140755204Y-36889192D01*
X140616774Y-36802210D01*
X140462455Y-36748212D01*
X140300004Y-36729909D01*
X140299996Y-36729909D01*
X140137544Y-36748212D01*
X139983225Y-36802210D01*
X139844795Y-36889192D01*
X139729192Y-37004795D01*
X139642210Y-37143225D01*
X139588212Y-37297544D01*
X139569909Y-37459996D01*
X139569909Y-37460003D01*
X101950500Y-37460003D01*
X101950500Y-36200003D01*
X106309909Y-36200003D01*
X106328212Y-36362455D01*
X106382210Y-36516774D01*
X106382211Y-36516775D01*
X106469192Y-36655204D01*
X106584796Y-36770808D01*
X106723225Y-36857789D01*
X106877539Y-36911786D01*
X106877542Y-36911786D01*
X106877544Y-36911787D01*
X107039996Y-36930091D01*
X107040000Y-36930091D01*
X107040004Y-36930091D01*
X107202455Y-36911787D01*
X107202456Y-36911786D01*
X107202461Y-36911786D01*
X107356775Y-36857789D01*
X107495204Y-36770808D01*
X107610808Y-36655204D01*
X107697789Y-36516775D01*
X107751786Y-36362461D01*
X107761680Y-36274650D01*
X107770091Y-36200003D01*
X107770091Y-36199996D01*
X107751787Y-36037544D01*
X107751786Y-36037542D01*
X107751786Y-36037539D01*
X107697789Y-35883225D01*
X107610808Y-35744796D01*
X107495204Y-35629192D01*
X107356774Y-35542210D01*
X107202455Y-35488212D01*
X107040004Y-35469909D01*
X107039996Y-35469909D01*
X106877544Y-35488212D01*
X106723225Y-35542210D01*
X106584795Y-35629192D01*
X106469192Y-35744795D01*
X106382210Y-35883225D01*
X106328212Y-36037544D01*
X106309909Y-36199996D01*
X106309909Y-36200003D01*
X101950500Y-36200003D01*
X101950500Y-34550005D01*
X111644754Y-34550005D01*
X111663718Y-34851446D01*
X111663719Y-34851453D01*
X111720320Y-35148164D01*
X111813659Y-35435431D01*
X111813661Y-35435436D01*
X111942265Y-35708732D01*
X111942268Y-35708738D01*
X112104111Y-35963763D01*
X112296652Y-36196505D01*
X112516836Y-36403272D01*
X112516846Y-36403280D01*
X112761193Y-36580808D01*
X112761198Y-36580810D01*
X112761205Y-36580816D01*
X113025896Y-36726332D01*
X113025901Y-36726334D01*
X113025903Y-36726335D01*
X113025904Y-36726336D01*
X113306734Y-36837524D01*
X113306737Y-36837525D01*
X113385662Y-36857789D01*
X113599302Y-36912642D01*
X113737422Y-36930091D01*
X113898963Y-36950499D01*
X113898969Y-36950499D01*
X113898973Y-36950500D01*
X113898975Y-36950500D01*
X114201025Y-36950500D01*
X114201027Y-36950500D01*
X114201032Y-36950499D01*
X114201036Y-36950499D01*
X114280591Y-36940448D01*
X114500698Y-36912642D01*
X114793262Y-36837525D01*
X114793265Y-36837524D01*
X115074095Y-36726336D01*
X115074096Y-36726335D01*
X115074094Y-36726335D01*
X115074104Y-36726332D01*
X115338795Y-36580816D01*
X115583162Y-36403274D01*
X115803349Y-36196504D01*
X115995885Y-35963768D01*
X116157733Y-35708736D01*
X116286341Y-35435430D01*
X116379681Y-35148160D01*
X116436280Y-34851457D01*
X116455246Y-34550000D01*
X116436280Y-34248543D01*
X116379681Y-33951840D01*
X116286341Y-33664570D01*
X116157733Y-33391264D01*
X115995885Y-33136232D01*
X115803349Y-32903496D01*
X115583162Y-32696726D01*
X115583159Y-32696724D01*
X115583153Y-32696719D01*
X115338806Y-32519191D01*
X115338799Y-32519186D01*
X115338795Y-32519184D01*
X115074104Y-32373668D01*
X115074101Y-32373666D01*
X115074096Y-32373664D01*
X115074095Y-32373663D01*
X114793265Y-32262475D01*
X114793262Y-32262474D01*
X114500695Y-32187357D01*
X114201036Y-32149500D01*
X114201027Y-32149500D01*
X113898973Y-32149500D01*
X113898963Y-32149500D01*
X113599304Y-32187357D01*
X113306737Y-32262474D01*
X113306734Y-32262475D01*
X113025904Y-32373663D01*
X113025903Y-32373664D01*
X112761205Y-32519184D01*
X112761193Y-32519191D01*
X112516846Y-32696719D01*
X112516836Y-32696727D01*
X112296652Y-32903494D01*
X112104111Y-33136236D01*
X111942268Y-33391261D01*
X111942265Y-33391267D01*
X111813661Y-33664563D01*
X111813659Y-33664568D01*
X111720320Y-33951835D01*
X111663719Y-34248546D01*
X111663718Y-34248553D01*
X111644754Y-34549994D01*
X111644754Y-34550005D01*
X101950500Y-34550005D01*
X101950500Y-30380003D01*
X104469909Y-30380003D01*
X104488212Y-30542455D01*
X104542210Y-30696774D01*
X104542211Y-30696775D01*
X104629192Y-30835204D01*
X104744796Y-30950808D01*
X104883225Y-31037789D01*
X105037539Y-31091786D01*
X105037542Y-31091786D01*
X105037544Y-31091787D01*
X105199996Y-31110091D01*
X105200000Y-31110091D01*
X105200004Y-31110091D01*
X105362455Y-31091787D01*
X105362456Y-31091786D01*
X105362461Y-31091786D01*
X105516775Y-31037789D01*
X105655204Y-30950808D01*
X105770808Y-30835204D01*
X105857789Y-30696775D01*
X105911786Y-30542461D01*
X105930091Y-30380003D01*
X110969909Y-30380003D01*
X110988212Y-30542455D01*
X111042210Y-30696774D01*
X111042211Y-30696775D01*
X111129192Y-30835204D01*
X111244796Y-30950808D01*
X111383225Y-31037789D01*
X111537539Y-31091786D01*
X111537542Y-31091786D01*
X111537544Y-31091787D01*
X111699996Y-31110091D01*
X111700000Y-31110091D01*
X111700004Y-31110091D01*
X111862455Y-31091787D01*
X111862456Y-31091786D01*
X111862461Y-31091786D01*
X112016775Y-31037789D01*
X112155204Y-30950808D01*
X112270808Y-30835204D01*
X112357789Y-30696775D01*
X112411786Y-30542461D01*
X112430091Y-30380003D01*
X117469909Y-30380003D01*
X117488212Y-30542455D01*
X117542210Y-30696774D01*
X117542211Y-30696775D01*
X117629192Y-30835204D01*
X117744796Y-30950808D01*
X117883225Y-31037789D01*
X118037539Y-31091786D01*
X118037542Y-31091786D01*
X118037544Y-31091787D01*
X118199996Y-31110091D01*
X118200000Y-31110091D01*
X118200004Y-31110091D01*
X118362455Y-31091787D01*
X118362456Y-31091786D01*
X118362461Y-31091786D01*
X118516775Y-31037789D01*
X118655204Y-30950808D01*
X118770808Y-30835204D01*
X118857789Y-30696775D01*
X118911786Y-30542461D01*
X118930091Y-30380003D01*
X123969909Y-30380003D01*
X123988212Y-30542455D01*
X124042210Y-30696774D01*
X124042211Y-30696775D01*
X124129192Y-30835204D01*
X124244796Y-30950808D01*
X124383225Y-31037789D01*
X124537539Y-31091786D01*
X124537542Y-31091786D01*
X124537544Y-31091787D01*
X124699996Y-31110091D01*
X124700000Y-31110091D01*
X124700004Y-31110091D01*
X124862455Y-31091787D01*
X124862456Y-31091786D01*
X124862461Y-31091786D01*
X125016775Y-31037789D01*
X125155204Y-30950808D01*
X125270808Y-30835204D01*
X125357789Y-30696775D01*
X125411786Y-30542461D01*
X125430091Y-30380003D01*
X130469909Y-30380003D01*
X130488212Y-30542455D01*
X130542210Y-30696774D01*
X130542211Y-30696775D01*
X130629192Y-30835204D01*
X130744796Y-30950808D01*
X130883225Y-31037789D01*
X131037539Y-31091786D01*
X131037542Y-31091786D01*
X131037544Y-31091787D01*
X131199996Y-31110091D01*
X131200000Y-31110091D01*
X131200004Y-31110091D01*
X131362455Y-31091787D01*
X131362456Y-31091786D01*
X131362461Y-31091786D01*
X131516775Y-31037789D01*
X131655204Y-30950808D01*
X131770808Y-30835204D01*
X131857789Y-30696775D01*
X131911786Y-30542461D01*
X131930091Y-30380003D01*
X136969909Y-30380003D01*
X136988212Y-30542455D01*
X137042210Y-30696774D01*
X137042211Y-30696775D01*
X137129192Y-30835204D01*
X137244796Y-30950808D01*
X137383225Y-31037789D01*
X137537539Y-31091786D01*
X137537542Y-31091786D01*
X137537544Y-31091787D01*
X137699996Y-31110091D01*
X137700000Y-31110091D01*
X137700004Y-31110091D01*
X137862455Y-31091787D01*
X137862456Y-31091786D01*
X137862461Y-31091786D01*
X138016775Y-31037789D01*
X138155204Y-30950808D01*
X138270808Y-30835204D01*
X138357789Y-30696775D01*
X138411786Y-30542461D01*
X138430091Y-30380003D01*
X143469909Y-30380003D01*
X143488212Y-30542455D01*
X143542210Y-30696774D01*
X143542211Y-30696775D01*
X143629192Y-30835204D01*
X143744796Y-30950808D01*
X143883225Y-31037789D01*
X144037539Y-31091786D01*
X144037542Y-31091786D01*
X144037544Y-31091787D01*
X144199996Y-31110091D01*
X144200000Y-31110091D01*
X144200004Y-31110091D01*
X144362455Y-31091787D01*
X144362456Y-31091786D01*
X144362461Y-31091786D01*
X144516775Y-31037789D01*
X144655204Y-30950808D01*
X144770808Y-30835204D01*
X144857789Y-30696775D01*
X144911786Y-30542461D01*
X144930091Y-30380003D01*
X149969909Y-30380003D01*
X149988212Y-30542455D01*
X150042210Y-30696774D01*
X150042211Y-30696775D01*
X150129192Y-30835204D01*
X150244796Y-30950808D01*
X150383225Y-31037789D01*
X150537539Y-31091786D01*
X150537542Y-31091786D01*
X150537544Y-31091787D01*
X150699996Y-31110091D01*
X150700000Y-31110091D01*
X150700004Y-31110091D01*
X150862455Y-31091787D01*
X150862456Y-31091786D01*
X150862461Y-31091786D01*
X151016775Y-31037789D01*
X151155204Y-30950808D01*
X151270808Y-30835204D01*
X151357789Y-30696775D01*
X151411786Y-30542461D01*
X151430091Y-30380003D01*
X156469909Y-30380003D01*
X156488212Y-30542455D01*
X156542210Y-30696774D01*
X156542211Y-30696775D01*
X156629192Y-30835204D01*
X156744796Y-30950808D01*
X156883225Y-31037789D01*
X157037539Y-31091786D01*
X157037542Y-31091786D01*
X157037544Y-31091787D01*
X157199996Y-31110091D01*
X157200000Y-31110091D01*
X157200004Y-31110091D01*
X157362455Y-31091787D01*
X157362456Y-31091786D01*
X157362461Y-31091786D01*
X157516775Y-31037789D01*
X157655204Y-30950808D01*
X157770808Y-30835204D01*
X157857789Y-30696775D01*
X157911786Y-30542461D01*
X157930091Y-30380003D01*
X162969909Y-30380003D01*
X162988212Y-30542455D01*
X163042210Y-30696774D01*
X163042211Y-30696775D01*
X163129192Y-30835204D01*
X163244796Y-30950808D01*
X163383225Y-31037789D01*
X163537539Y-31091786D01*
X163537542Y-31091786D01*
X163537544Y-31091787D01*
X163699996Y-31110091D01*
X163700000Y-31110091D01*
X163700004Y-31110091D01*
X163862455Y-31091787D01*
X163862456Y-31091786D01*
X163862461Y-31091786D01*
X164016775Y-31037789D01*
X164155204Y-30950808D01*
X164270808Y-30835204D01*
X164357789Y-30696775D01*
X164411786Y-30542461D01*
X164430091Y-30380003D01*
X169469909Y-30380003D01*
X169488212Y-30542455D01*
X169542210Y-30696774D01*
X169542211Y-30696775D01*
X169629192Y-30835204D01*
X169744796Y-30950808D01*
X169883225Y-31037789D01*
X170037539Y-31091786D01*
X170037542Y-31091786D01*
X170037544Y-31091787D01*
X170199996Y-31110091D01*
X170200000Y-31110091D01*
X170200004Y-31110091D01*
X170362455Y-31091787D01*
X170362456Y-31091786D01*
X170362461Y-31091786D01*
X170516775Y-31037789D01*
X170655204Y-30950808D01*
X170770808Y-30835204D01*
X170857789Y-30696775D01*
X170911786Y-30542461D01*
X170930091Y-30380003D01*
X175969909Y-30380003D01*
X175988212Y-30542455D01*
X176042210Y-30696774D01*
X176042211Y-30696775D01*
X176129192Y-30835204D01*
X176244796Y-30950808D01*
X176383225Y-31037789D01*
X176537539Y-31091786D01*
X176537542Y-31091786D01*
X176537544Y-31091787D01*
X176699996Y-31110091D01*
X176700000Y-31110091D01*
X176700004Y-31110091D01*
X176862455Y-31091787D01*
X176862456Y-31091786D01*
X176862461Y-31091786D01*
X177016775Y-31037789D01*
X177155204Y-30950808D01*
X177270808Y-30835204D01*
X177357789Y-30696775D01*
X177411786Y-30542461D01*
X177430091Y-30380000D01*
X177411786Y-30217539D01*
X177357789Y-30063225D01*
X177270808Y-29924796D01*
X177155204Y-29809192D01*
X177016774Y-29722210D01*
X176862455Y-29668212D01*
X176700004Y-29649909D01*
X176699996Y-29649909D01*
X176537544Y-29668212D01*
X176383225Y-29722210D01*
X176244795Y-29809192D01*
X176129192Y-29924795D01*
X176042210Y-30063225D01*
X175988212Y-30217544D01*
X175969909Y-30379996D01*
X175969909Y-30380003D01*
X170930091Y-30380003D01*
X170930091Y-30380000D01*
X170911786Y-30217539D01*
X170857789Y-30063225D01*
X170770808Y-29924796D01*
X170655204Y-29809192D01*
X170516774Y-29722210D01*
X170362455Y-29668212D01*
X170200004Y-29649909D01*
X170199996Y-29649909D01*
X170037544Y-29668212D01*
X169883225Y-29722210D01*
X169744795Y-29809192D01*
X169629192Y-29924795D01*
X169542210Y-30063225D01*
X169488212Y-30217544D01*
X169469909Y-30379996D01*
X169469909Y-30380003D01*
X164430091Y-30380003D01*
X164430091Y-30380000D01*
X164411786Y-30217539D01*
X164357789Y-30063225D01*
X164270808Y-29924796D01*
X164155204Y-29809192D01*
X164016774Y-29722210D01*
X163862455Y-29668212D01*
X163700004Y-29649909D01*
X163699996Y-29649909D01*
X163537544Y-29668212D01*
X163383225Y-29722210D01*
X163244795Y-29809192D01*
X163129192Y-29924795D01*
X163042210Y-30063225D01*
X162988212Y-30217544D01*
X162969909Y-30379996D01*
X162969909Y-30380003D01*
X157930091Y-30380003D01*
X157930091Y-30380000D01*
X157911786Y-30217539D01*
X157857789Y-30063225D01*
X157770808Y-29924796D01*
X157655204Y-29809192D01*
X157516774Y-29722210D01*
X157362455Y-29668212D01*
X157200004Y-29649909D01*
X157199996Y-29649909D01*
X157037544Y-29668212D01*
X156883225Y-29722210D01*
X156744795Y-29809192D01*
X156629192Y-29924795D01*
X156542210Y-30063225D01*
X156488212Y-30217544D01*
X156469909Y-30379996D01*
X156469909Y-30380003D01*
X151430091Y-30380003D01*
X151430091Y-30380000D01*
X151411786Y-30217539D01*
X151357789Y-30063225D01*
X151270808Y-29924796D01*
X151155204Y-29809192D01*
X151016774Y-29722210D01*
X150862455Y-29668212D01*
X150700004Y-29649909D01*
X150699996Y-29649909D01*
X150537544Y-29668212D01*
X150383225Y-29722210D01*
X150244795Y-29809192D01*
X150129192Y-29924795D01*
X150042210Y-30063225D01*
X149988212Y-30217544D01*
X149969909Y-30379996D01*
X149969909Y-30380003D01*
X144930091Y-30380003D01*
X144930091Y-30380000D01*
X144911786Y-30217539D01*
X144857789Y-30063225D01*
X144770808Y-29924796D01*
X144655204Y-29809192D01*
X144516774Y-29722210D01*
X144362455Y-29668212D01*
X144200004Y-29649909D01*
X144199996Y-29649909D01*
X144037544Y-29668212D01*
X143883225Y-29722210D01*
X143744795Y-29809192D01*
X143629192Y-29924795D01*
X143542210Y-30063225D01*
X143488212Y-30217544D01*
X143469909Y-30379996D01*
X143469909Y-30380003D01*
X138430091Y-30380003D01*
X138430091Y-30380000D01*
X138411786Y-30217539D01*
X138357789Y-30063225D01*
X138270808Y-29924796D01*
X138155204Y-29809192D01*
X138016774Y-29722210D01*
X137862455Y-29668212D01*
X137700004Y-29649909D01*
X137699996Y-29649909D01*
X137537544Y-29668212D01*
X137383225Y-29722210D01*
X137244795Y-29809192D01*
X137129192Y-29924795D01*
X137042210Y-30063225D01*
X136988212Y-30217544D01*
X136969909Y-30379996D01*
X136969909Y-30380003D01*
X131930091Y-30380003D01*
X131930091Y-30380000D01*
X131911786Y-30217539D01*
X131857789Y-30063225D01*
X131770808Y-29924796D01*
X131655204Y-29809192D01*
X131516774Y-29722210D01*
X131362455Y-29668212D01*
X131200004Y-29649909D01*
X131199996Y-29649909D01*
X131037544Y-29668212D01*
X130883225Y-29722210D01*
X130744795Y-29809192D01*
X130629192Y-29924795D01*
X130542210Y-30063225D01*
X130488212Y-30217544D01*
X130469909Y-30379996D01*
X130469909Y-30380003D01*
X125430091Y-30380003D01*
X125430091Y-30380000D01*
X125411786Y-30217539D01*
X125357789Y-30063225D01*
X125270808Y-29924796D01*
X125155204Y-29809192D01*
X125016774Y-29722210D01*
X124862455Y-29668212D01*
X124700004Y-29649909D01*
X124699996Y-29649909D01*
X124537544Y-29668212D01*
X124383225Y-29722210D01*
X124244795Y-29809192D01*
X124129192Y-29924795D01*
X124042210Y-30063225D01*
X123988212Y-30217544D01*
X123969909Y-30379996D01*
X123969909Y-30380003D01*
X118930091Y-30380003D01*
X118930091Y-30380000D01*
X118911786Y-30217539D01*
X118857789Y-30063225D01*
X118770808Y-29924796D01*
X118655204Y-29809192D01*
X118516774Y-29722210D01*
X118362455Y-29668212D01*
X118200004Y-29649909D01*
X118199996Y-29649909D01*
X118037544Y-29668212D01*
X117883225Y-29722210D01*
X117744795Y-29809192D01*
X117629192Y-29924795D01*
X117542210Y-30063225D01*
X117488212Y-30217544D01*
X117469909Y-30379996D01*
X117469909Y-30380003D01*
X112430091Y-30380003D01*
X112430091Y-30380000D01*
X112411786Y-30217539D01*
X112357789Y-30063225D01*
X112270808Y-29924796D01*
X112155204Y-29809192D01*
X112016774Y-29722210D01*
X111862455Y-29668212D01*
X111700004Y-29649909D01*
X111699996Y-29649909D01*
X111537544Y-29668212D01*
X111383225Y-29722210D01*
X111244795Y-29809192D01*
X111129192Y-29924795D01*
X111042210Y-30063225D01*
X110988212Y-30217544D01*
X110969909Y-30379996D01*
X110969909Y-30380003D01*
X105930091Y-30380003D01*
X105930091Y-30380000D01*
X105911786Y-30217539D01*
X105857789Y-30063225D01*
X105770808Y-29924796D01*
X105655204Y-29809192D01*
X105516774Y-29722210D01*
X105362455Y-29668212D01*
X105200004Y-29649909D01*
X105199996Y-29649909D01*
X105037544Y-29668212D01*
X104883225Y-29722210D01*
X104744795Y-29809192D01*
X104629192Y-29924795D01*
X104542210Y-30063225D01*
X104488212Y-30217544D01*
X104469909Y-30379996D01*
X104469909Y-30380003D01*
X101950500Y-30380003D01*
X101950500Y-25324500D01*
X101970185Y-25257461D01*
X102022989Y-25211706D01*
X102074500Y-25200500D01*
X179825500Y-25200500D01*
X179892539Y-25220185D01*
G37*
%TD.AperFunction*%
%TD*%
M02*
