%TF.GenerationSoftware,KiCad,Pcbnew,8.0.1*%
%TF.CreationDate,2025-02-04T00:39:20-05:00*%
%TF.ProjectId,glove-v3-right,676c6f76-652d-4763-932d-72696768742e,rev?*%
%TF.SameCoordinates,Original*%
%TF.FileFunction,Legend,Top*%
%TF.FilePolarity,Positive*%
%FSLAX46Y46*%
G04 Gerber Fmt 4.6, Leading zero omitted, Abs format (unit mm)*
G04 Created by KiCad (PCBNEW 8.0.1) date 2025-02-04 00:39:20*
%MOMM*%
%LPD*%
G01*
G04 APERTURE LIST*
G04 Aperture macros list*
%AMRoundRect*
0 Rectangle with rounded corners*
0 $1 Rounding radius*
0 $2 $3 $4 $5 $6 $7 $8 $9 X,Y pos of 4 corners*
0 Add a 4 corners polygon primitive as box body*
4,1,4,$2,$3,$4,$5,$6,$7,$8,$9,$2,$3,0*
0 Add four circle primitives for the rounded corners*
1,1,$1+$1,$2,$3*
1,1,$1+$1,$4,$5*
1,1,$1+$1,$6,$7*
1,1,$1+$1,$8,$9*
0 Add four rect primitives between the rounded corners*
20,1,$1+$1,$2,$3,$4,$5,0*
20,1,$1+$1,$4,$5,$6,$7,0*
20,1,$1+$1,$6,$7,$8,$9,0*
20,1,$1+$1,$8,$9,$2,$3,0*%
G04 Aperture macros list end*
%ADD10C,0.250000*%
%ADD11C,0.150000*%
%ADD12C,0.127000*%
%ADD13C,0.300000*%
%ADD14C,0.000000*%
%ADD15R,0.600000X0.600000*%
%ADD16R,0.600000X1.550000*%
%ADD17R,1.500000X2.000000*%
%ADD18C,3.800000*%
%ADD19R,1.550000X0.600000*%
%ADD20R,2.000000X1.500000*%
%ADD21R,1.000000X1.800000*%
%ADD22RoundRect,1.000000X-0.000010X0.375000X-0.000010X-0.375000X0.000010X-0.375000X0.000010X0.375000X0*%
%ADD23C,1.524000*%
%ADD24O,0.570000X2.390000*%
G04 APERTURE END LIST*
D10*
X149150187Y-56489142D02*
X149078758Y-56417714D01*
X149078758Y-56417714D02*
X148935901Y-56346285D01*
X148935901Y-56346285D02*
X148793044Y-56346285D01*
X148793044Y-56346285D02*
X148650187Y-56417714D01*
X148650187Y-56417714D02*
X148578758Y-56489142D01*
X148578758Y-56489142D02*
X148507330Y-56632000D01*
X148507330Y-56632000D02*
X148507330Y-56774857D01*
X148507330Y-56774857D02*
X148578758Y-56917714D01*
X148578758Y-56917714D02*
X148650187Y-56989142D01*
X148650187Y-56989142D02*
X148793044Y-57060571D01*
X148793044Y-57060571D02*
X148935901Y-57060571D01*
X148935901Y-57060571D02*
X149078758Y-56989142D01*
X149078758Y-56989142D02*
X149150187Y-56917714D01*
X149150187Y-56346285D02*
X149150187Y-56917714D01*
X149150187Y-56917714D02*
X149221615Y-56989142D01*
X149221615Y-56989142D02*
X149293044Y-56989142D01*
X149293044Y-56989142D02*
X149435901Y-56917714D01*
X149435901Y-56917714D02*
X149507330Y-56774857D01*
X149507330Y-56774857D02*
X149507330Y-56417714D01*
X149507330Y-56417714D02*
X149364473Y-56203428D01*
X149364473Y-56203428D02*
X149150187Y-56060571D01*
X149150187Y-56060571D02*
X148864473Y-55989142D01*
X148864473Y-55989142D02*
X148578758Y-56060571D01*
X148578758Y-56060571D02*
X148364473Y-56203428D01*
X148364473Y-56203428D02*
X148221615Y-56417714D01*
X148221615Y-56417714D02*
X148150187Y-56703428D01*
X148150187Y-56703428D02*
X148221615Y-56989142D01*
X148221615Y-56989142D02*
X148364473Y-57203428D01*
X148364473Y-57203428D02*
X148578758Y-57346285D01*
X148578758Y-57346285D02*
X148864473Y-57417714D01*
X148864473Y-57417714D02*
X149150187Y-57346285D01*
X149150187Y-57346285D02*
X149364473Y-57203428D01*
X150150186Y-56203428D02*
X150150186Y-57203428D01*
X150150186Y-56346285D02*
X150221615Y-56274857D01*
X150221615Y-56274857D02*
X150364472Y-56203428D01*
X150364472Y-56203428D02*
X150578758Y-56203428D01*
X150578758Y-56203428D02*
X150721615Y-56274857D01*
X150721615Y-56274857D02*
X150793044Y-56417714D01*
X150793044Y-56417714D02*
X150793044Y-57203428D01*
X152078758Y-57132000D02*
X151935901Y-57203428D01*
X151935901Y-57203428D02*
X151650187Y-57203428D01*
X151650187Y-57203428D02*
X151507329Y-57132000D01*
X151507329Y-57132000D02*
X151435901Y-56989142D01*
X151435901Y-56989142D02*
X151435901Y-56417714D01*
X151435901Y-56417714D02*
X151507329Y-56274857D01*
X151507329Y-56274857D02*
X151650187Y-56203428D01*
X151650187Y-56203428D02*
X151935901Y-56203428D01*
X151935901Y-56203428D02*
X152078758Y-56274857D01*
X152078758Y-56274857D02*
X152150187Y-56417714D01*
X152150187Y-56417714D02*
X152150187Y-56560571D01*
X152150187Y-56560571D02*
X151435901Y-56703428D01*
X152793043Y-56203428D02*
X152793043Y-57703428D01*
X152793043Y-56274857D02*
X152935901Y-56203428D01*
X152935901Y-56203428D02*
X153221615Y-56203428D01*
X153221615Y-56203428D02*
X153364472Y-56274857D01*
X153364472Y-56274857D02*
X153435901Y-56346285D01*
X153435901Y-56346285D02*
X153507329Y-56489142D01*
X153507329Y-56489142D02*
X153507329Y-56917714D01*
X153507329Y-56917714D02*
X153435901Y-57060571D01*
X153435901Y-57060571D02*
X153364472Y-57132000D01*
X153364472Y-57132000D02*
X153221615Y-57203428D01*
X153221615Y-57203428D02*
X152935901Y-57203428D01*
X152935901Y-57203428D02*
X152793043Y-57132000D01*
X154007329Y-56203428D02*
X154364472Y-57203428D01*
X154721615Y-56203428D02*
X154364472Y-57203428D01*
X154364472Y-57203428D02*
X154221615Y-57560571D01*
X154221615Y-57560571D02*
X154150186Y-57632000D01*
X154150186Y-57632000D02*
X154007329Y-57703428D01*
X155507329Y-57203428D02*
X155364472Y-57132000D01*
X155364472Y-57132000D02*
X155293043Y-57060571D01*
X155293043Y-57060571D02*
X155221615Y-56917714D01*
X155221615Y-56917714D02*
X155221615Y-56489142D01*
X155221615Y-56489142D02*
X155293043Y-56346285D01*
X155293043Y-56346285D02*
X155364472Y-56274857D01*
X155364472Y-56274857D02*
X155507329Y-56203428D01*
X155507329Y-56203428D02*
X155721615Y-56203428D01*
X155721615Y-56203428D02*
X155864472Y-56274857D01*
X155864472Y-56274857D02*
X155935901Y-56346285D01*
X155935901Y-56346285D02*
X156007329Y-56489142D01*
X156007329Y-56489142D02*
X156007329Y-56917714D01*
X156007329Y-56917714D02*
X155935901Y-57060571D01*
X155935901Y-57060571D02*
X155864472Y-57132000D01*
X155864472Y-57132000D02*
X155721615Y-57203428D01*
X155721615Y-57203428D02*
X155507329Y-57203428D01*
X156650186Y-56203428D02*
X156650186Y-57703428D01*
X156650186Y-56274857D02*
X156793044Y-56203428D01*
X156793044Y-56203428D02*
X157078758Y-56203428D01*
X157078758Y-56203428D02*
X157221615Y-56274857D01*
X157221615Y-56274857D02*
X157293044Y-56346285D01*
X157293044Y-56346285D02*
X157364472Y-56489142D01*
X157364472Y-56489142D02*
X157364472Y-56917714D01*
X157364472Y-56917714D02*
X157293044Y-57060571D01*
X157293044Y-57060571D02*
X157221615Y-57132000D01*
X157221615Y-57132000D02*
X157078758Y-57203428D01*
X157078758Y-57203428D02*
X156793044Y-57203428D01*
X156793044Y-57203428D02*
X156650186Y-57132000D01*
X158578758Y-57132000D02*
X158435901Y-57203428D01*
X158435901Y-57203428D02*
X158150187Y-57203428D01*
X158150187Y-57203428D02*
X158007329Y-57132000D01*
X158007329Y-57132000D02*
X157935901Y-56989142D01*
X157935901Y-56989142D02*
X157935901Y-56417714D01*
X157935901Y-56417714D02*
X158007329Y-56274857D01*
X158007329Y-56274857D02*
X158150187Y-56203428D01*
X158150187Y-56203428D02*
X158435901Y-56203428D01*
X158435901Y-56203428D02*
X158578758Y-56274857D01*
X158578758Y-56274857D02*
X158650187Y-56417714D01*
X158650187Y-56417714D02*
X158650187Y-56560571D01*
X158650187Y-56560571D02*
X157935901Y-56703428D01*
X120114473Y-56253428D02*
X120114473Y-57467714D01*
X120114473Y-57467714D02*
X120043044Y-57610571D01*
X120043044Y-57610571D02*
X119971615Y-57682000D01*
X119971615Y-57682000D02*
X119828758Y-57753428D01*
X119828758Y-57753428D02*
X119614473Y-57753428D01*
X119614473Y-57753428D02*
X119471615Y-57682000D01*
X120114473Y-57182000D02*
X119971615Y-57253428D01*
X119971615Y-57253428D02*
X119685901Y-57253428D01*
X119685901Y-57253428D02*
X119543044Y-57182000D01*
X119543044Y-57182000D02*
X119471615Y-57110571D01*
X119471615Y-57110571D02*
X119400187Y-56967714D01*
X119400187Y-56967714D02*
X119400187Y-56539142D01*
X119400187Y-56539142D02*
X119471615Y-56396285D01*
X119471615Y-56396285D02*
X119543044Y-56324857D01*
X119543044Y-56324857D02*
X119685901Y-56253428D01*
X119685901Y-56253428D02*
X119971615Y-56253428D01*
X119971615Y-56253428D02*
X120114473Y-56324857D01*
X120828758Y-57253428D02*
X120828758Y-56253428D01*
X120828758Y-55753428D02*
X120757330Y-55824857D01*
X120757330Y-55824857D02*
X120828758Y-55896285D01*
X120828758Y-55896285D02*
X120900187Y-55824857D01*
X120900187Y-55824857D02*
X120828758Y-55753428D01*
X120828758Y-55753428D02*
X120828758Y-55896285D01*
X121328759Y-56253428D02*
X121900187Y-56253428D01*
X121543044Y-55753428D02*
X121543044Y-57039142D01*
X121543044Y-57039142D02*
X121614473Y-57182000D01*
X121614473Y-57182000D02*
X121757330Y-57253428D01*
X121757330Y-57253428D02*
X121900187Y-57253428D01*
X122400187Y-57253428D02*
X122400187Y-55753428D01*
X123043045Y-57253428D02*
X123043045Y-56467714D01*
X123043045Y-56467714D02*
X122971616Y-56324857D01*
X122971616Y-56324857D02*
X122828759Y-56253428D01*
X122828759Y-56253428D02*
X122614473Y-56253428D01*
X122614473Y-56253428D02*
X122471616Y-56324857D01*
X122471616Y-56324857D02*
X122400187Y-56396285D01*
X124400188Y-56253428D02*
X124400188Y-57253428D01*
X123757330Y-56253428D02*
X123757330Y-57039142D01*
X123757330Y-57039142D02*
X123828759Y-57182000D01*
X123828759Y-57182000D02*
X123971616Y-57253428D01*
X123971616Y-57253428D02*
X124185902Y-57253428D01*
X124185902Y-57253428D02*
X124328759Y-57182000D01*
X124328759Y-57182000D02*
X124400188Y-57110571D01*
X125114473Y-57253428D02*
X125114473Y-55753428D01*
X125114473Y-56324857D02*
X125257331Y-56253428D01*
X125257331Y-56253428D02*
X125543045Y-56253428D01*
X125543045Y-56253428D02*
X125685902Y-56324857D01*
X125685902Y-56324857D02*
X125757331Y-56396285D01*
X125757331Y-56396285D02*
X125828759Y-56539142D01*
X125828759Y-56539142D02*
X125828759Y-56967714D01*
X125828759Y-56967714D02*
X125757331Y-57110571D01*
X125757331Y-57110571D02*
X125685902Y-57182000D01*
X125685902Y-57182000D02*
X125543045Y-57253428D01*
X125543045Y-57253428D02*
X125257331Y-57253428D01*
X125257331Y-57253428D02*
X125114473Y-57182000D01*
X126471616Y-57110571D02*
X126543045Y-57182000D01*
X126543045Y-57182000D02*
X126471616Y-57253428D01*
X126471616Y-57253428D02*
X126400188Y-57182000D01*
X126400188Y-57182000D02*
X126471616Y-57110571D01*
X126471616Y-57110571D02*
X126471616Y-57253428D01*
X127828760Y-57182000D02*
X127685902Y-57253428D01*
X127685902Y-57253428D02*
X127400188Y-57253428D01*
X127400188Y-57253428D02*
X127257331Y-57182000D01*
X127257331Y-57182000D02*
X127185902Y-57110571D01*
X127185902Y-57110571D02*
X127114474Y-56967714D01*
X127114474Y-56967714D02*
X127114474Y-56539142D01*
X127114474Y-56539142D02*
X127185902Y-56396285D01*
X127185902Y-56396285D02*
X127257331Y-56324857D01*
X127257331Y-56324857D02*
X127400188Y-56253428D01*
X127400188Y-56253428D02*
X127685902Y-56253428D01*
X127685902Y-56253428D02*
X127828760Y-56324857D01*
X128685902Y-57253428D02*
X128543045Y-57182000D01*
X128543045Y-57182000D02*
X128471616Y-57110571D01*
X128471616Y-57110571D02*
X128400188Y-56967714D01*
X128400188Y-56967714D02*
X128400188Y-56539142D01*
X128400188Y-56539142D02*
X128471616Y-56396285D01*
X128471616Y-56396285D02*
X128543045Y-56324857D01*
X128543045Y-56324857D02*
X128685902Y-56253428D01*
X128685902Y-56253428D02*
X128900188Y-56253428D01*
X128900188Y-56253428D02*
X129043045Y-56324857D01*
X129043045Y-56324857D02*
X129114474Y-56396285D01*
X129114474Y-56396285D02*
X129185902Y-56539142D01*
X129185902Y-56539142D02*
X129185902Y-56967714D01*
X129185902Y-56967714D02*
X129114474Y-57110571D01*
X129114474Y-57110571D02*
X129043045Y-57182000D01*
X129043045Y-57182000D02*
X128900188Y-57253428D01*
X128900188Y-57253428D02*
X128685902Y-57253428D01*
X129828759Y-57253428D02*
X129828759Y-56253428D01*
X129828759Y-56396285D02*
X129900188Y-56324857D01*
X129900188Y-56324857D02*
X130043045Y-56253428D01*
X130043045Y-56253428D02*
X130257331Y-56253428D01*
X130257331Y-56253428D02*
X130400188Y-56324857D01*
X130400188Y-56324857D02*
X130471617Y-56467714D01*
X130471617Y-56467714D02*
X130471617Y-57253428D01*
X130471617Y-56467714D02*
X130543045Y-56324857D01*
X130543045Y-56324857D02*
X130685902Y-56253428D01*
X130685902Y-56253428D02*
X130900188Y-56253428D01*
X130900188Y-56253428D02*
X131043045Y-56324857D01*
X131043045Y-56324857D02*
X131114474Y-56467714D01*
X131114474Y-56467714D02*
X131114474Y-57253428D01*
X132900188Y-55682000D02*
X131614474Y-57610571D01*
X133400188Y-57253428D02*
X133400188Y-56253428D01*
X133400188Y-56396285D02*
X133471617Y-56324857D01*
X133471617Y-56324857D02*
X133614474Y-56253428D01*
X133614474Y-56253428D02*
X133828760Y-56253428D01*
X133828760Y-56253428D02*
X133971617Y-56324857D01*
X133971617Y-56324857D02*
X134043046Y-56467714D01*
X134043046Y-56467714D02*
X134043046Y-57253428D01*
X134043046Y-56467714D02*
X134114474Y-56324857D01*
X134114474Y-56324857D02*
X134257331Y-56253428D01*
X134257331Y-56253428D02*
X134471617Y-56253428D01*
X134471617Y-56253428D02*
X134614474Y-56324857D01*
X134614474Y-56324857D02*
X134685903Y-56467714D01*
X134685903Y-56467714D02*
X134685903Y-57253428D01*
X136043046Y-57253428D02*
X136043046Y-56467714D01*
X136043046Y-56467714D02*
X135971617Y-56324857D01*
X135971617Y-56324857D02*
X135828760Y-56253428D01*
X135828760Y-56253428D02*
X135543046Y-56253428D01*
X135543046Y-56253428D02*
X135400188Y-56324857D01*
X136043046Y-57182000D02*
X135900188Y-57253428D01*
X135900188Y-57253428D02*
X135543046Y-57253428D01*
X135543046Y-57253428D02*
X135400188Y-57182000D01*
X135400188Y-57182000D02*
X135328760Y-57039142D01*
X135328760Y-57039142D02*
X135328760Y-56896285D01*
X135328760Y-56896285D02*
X135400188Y-56753428D01*
X135400188Y-56753428D02*
X135543046Y-56682000D01*
X135543046Y-56682000D02*
X135900188Y-56682000D01*
X135900188Y-56682000D02*
X136043046Y-56610571D01*
X136614474Y-57253428D02*
X137400189Y-56253428D01*
X136614474Y-56253428D02*
X137400189Y-57253428D01*
X137971617Y-56682000D02*
X139114475Y-56682000D01*
X139614475Y-56253428D02*
X140185903Y-56253428D01*
X139828760Y-55753428D02*
X139828760Y-57039142D01*
X139828760Y-57039142D02*
X139900189Y-57182000D01*
X139900189Y-57182000D02*
X140043046Y-57253428D01*
X140043046Y-57253428D02*
X140185903Y-57253428D01*
X140685903Y-57253428D02*
X140685903Y-56253428D01*
X140685903Y-55753428D02*
X140614475Y-55824857D01*
X140614475Y-55824857D02*
X140685903Y-55896285D01*
X140685903Y-55896285D02*
X140757332Y-55824857D01*
X140757332Y-55824857D02*
X140685903Y-55753428D01*
X140685903Y-55753428D02*
X140685903Y-55896285D01*
X141185904Y-56253428D02*
X141757332Y-56253428D01*
X141400189Y-55753428D02*
X141400189Y-57039142D01*
X141400189Y-57039142D02*
X141471618Y-57182000D01*
X141471618Y-57182000D02*
X141614475Y-57253428D01*
X141614475Y-57253428D02*
X141757332Y-57253428D01*
X142471618Y-57253428D02*
X142328761Y-57182000D01*
X142328761Y-57182000D02*
X142257332Y-57110571D01*
X142257332Y-57110571D02*
X142185904Y-56967714D01*
X142185904Y-56967714D02*
X142185904Y-56539142D01*
X142185904Y-56539142D02*
X142257332Y-56396285D01*
X142257332Y-56396285D02*
X142328761Y-56324857D01*
X142328761Y-56324857D02*
X142471618Y-56253428D01*
X142471618Y-56253428D02*
X142685904Y-56253428D01*
X142685904Y-56253428D02*
X142828761Y-56324857D01*
X142828761Y-56324857D02*
X142900190Y-56396285D01*
X142900190Y-56396285D02*
X142971618Y-56539142D01*
X142971618Y-56539142D02*
X142971618Y-56967714D01*
X142971618Y-56967714D02*
X142900190Y-57110571D01*
X142900190Y-57110571D02*
X142828761Y-57182000D01*
X142828761Y-57182000D02*
X142685904Y-57253428D01*
X142685904Y-57253428D02*
X142471618Y-57253428D01*
X143471618Y-56253428D02*
X143828761Y-57253428D01*
X143828761Y-57253428D02*
X144185904Y-56253428D01*
X128064473Y-36053428D02*
X128064473Y-37267714D01*
X128064473Y-37267714D02*
X127993044Y-37410571D01*
X127993044Y-37410571D02*
X127921615Y-37482000D01*
X127921615Y-37482000D02*
X127778758Y-37553428D01*
X127778758Y-37553428D02*
X127564473Y-37553428D01*
X127564473Y-37553428D02*
X127421615Y-37482000D01*
X128064473Y-36982000D02*
X127921615Y-37053428D01*
X127921615Y-37053428D02*
X127635901Y-37053428D01*
X127635901Y-37053428D02*
X127493044Y-36982000D01*
X127493044Y-36982000D02*
X127421615Y-36910571D01*
X127421615Y-36910571D02*
X127350187Y-36767714D01*
X127350187Y-36767714D02*
X127350187Y-36339142D01*
X127350187Y-36339142D02*
X127421615Y-36196285D01*
X127421615Y-36196285D02*
X127493044Y-36124857D01*
X127493044Y-36124857D02*
X127635901Y-36053428D01*
X127635901Y-36053428D02*
X127921615Y-36053428D01*
X127921615Y-36053428D02*
X128064473Y-36124857D01*
X128993044Y-37053428D02*
X128850187Y-36982000D01*
X128850187Y-36982000D02*
X128778758Y-36839142D01*
X128778758Y-36839142D02*
X128778758Y-35553428D01*
X129778758Y-37053428D02*
X129635901Y-36982000D01*
X129635901Y-36982000D02*
X129564472Y-36910571D01*
X129564472Y-36910571D02*
X129493044Y-36767714D01*
X129493044Y-36767714D02*
X129493044Y-36339142D01*
X129493044Y-36339142D02*
X129564472Y-36196285D01*
X129564472Y-36196285D02*
X129635901Y-36124857D01*
X129635901Y-36124857D02*
X129778758Y-36053428D01*
X129778758Y-36053428D02*
X129993044Y-36053428D01*
X129993044Y-36053428D02*
X130135901Y-36124857D01*
X130135901Y-36124857D02*
X130207330Y-36196285D01*
X130207330Y-36196285D02*
X130278758Y-36339142D01*
X130278758Y-36339142D02*
X130278758Y-36767714D01*
X130278758Y-36767714D02*
X130207330Y-36910571D01*
X130207330Y-36910571D02*
X130135901Y-36982000D01*
X130135901Y-36982000D02*
X129993044Y-37053428D01*
X129993044Y-37053428D02*
X129778758Y-37053428D01*
X130778758Y-36053428D02*
X131135901Y-37053428D01*
X131135901Y-37053428D02*
X131493044Y-36053428D01*
X132635901Y-36982000D02*
X132493044Y-37053428D01*
X132493044Y-37053428D02*
X132207330Y-37053428D01*
X132207330Y-37053428D02*
X132064472Y-36982000D01*
X132064472Y-36982000D02*
X131993044Y-36839142D01*
X131993044Y-36839142D02*
X131993044Y-36267714D01*
X131993044Y-36267714D02*
X132064472Y-36124857D01*
X132064472Y-36124857D02*
X132207330Y-36053428D01*
X132207330Y-36053428D02*
X132493044Y-36053428D01*
X132493044Y-36053428D02*
X132635901Y-36124857D01*
X132635901Y-36124857D02*
X132707330Y-36267714D01*
X132707330Y-36267714D02*
X132707330Y-36410571D01*
X132707330Y-36410571D02*
X131993044Y-36553428D01*
X133350186Y-36482000D02*
X134493044Y-36482000D01*
X135064472Y-36053428D02*
X135421615Y-37053428D01*
X135421615Y-37053428D02*
X135778758Y-36053428D01*
X136207329Y-35553428D02*
X137135901Y-35553428D01*
X137135901Y-35553428D02*
X136635901Y-36124857D01*
X136635901Y-36124857D02*
X136850186Y-36124857D01*
X136850186Y-36124857D02*
X136993044Y-36196285D01*
X136993044Y-36196285D02*
X137064472Y-36267714D01*
X137064472Y-36267714D02*
X137135901Y-36410571D01*
X137135901Y-36410571D02*
X137135901Y-36767714D01*
X137135901Y-36767714D02*
X137064472Y-36910571D01*
X137064472Y-36910571D02*
X136993044Y-36982000D01*
X136993044Y-36982000D02*
X136850186Y-37053428D01*
X136850186Y-37053428D02*
X136421615Y-37053428D01*
X136421615Y-37053428D02*
X136278758Y-36982000D01*
X136278758Y-36982000D02*
X136207329Y-36910571D01*
X137778757Y-36910571D02*
X137850186Y-36982000D01*
X137850186Y-36982000D02*
X137778757Y-37053428D01*
X137778757Y-37053428D02*
X137707329Y-36982000D01*
X137707329Y-36982000D02*
X137778757Y-36910571D01*
X137778757Y-36910571D02*
X137778757Y-37053428D01*
X139278758Y-37053428D02*
X138421615Y-37053428D01*
X138850186Y-37053428D02*
X138850186Y-35553428D01*
X138850186Y-35553428D02*
X138707329Y-35767714D01*
X138707329Y-35767714D02*
X138564472Y-35910571D01*
X138564472Y-35910571D02*
X138421615Y-35982000D01*
D11*
X159711905Y-33604819D02*
X159711905Y-32604819D01*
X159711905Y-33081009D02*
X160283333Y-33081009D01*
X160283333Y-33604819D02*
X160283333Y-32604819D01*
X161283333Y-33604819D02*
X160711905Y-33604819D01*
X160997619Y-33604819D02*
X160997619Y-32604819D01*
X160997619Y-32604819D02*
X160902381Y-32747676D01*
X160902381Y-32747676D02*
X160807143Y-32842914D01*
X160807143Y-32842914D02*
X160711905Y-32890533D01*
X161616667Y-32604819D02*
X162235714Y-32604819D01*
X162235714Y-32604819D02*
X161902381Y-32985771D01*
X161902381Y-32985771D02*
X162045238Y-32985771D01*
X162045238Y-32985771D02*
X162140476Y-33033390D01*
X162140476Y-33033390D02*
X162188095Y-33081009D01*
X162188095Y-33081009D02*
X162235714Y-33176247D01*
X162235714Y-33176247D02*
X162235714Y-33414342D01*
X162235714Y-33414342D02*
X162188095Y-33509580D01*
X162188095Y-33509580D02*
X162140476Y-33557200D01*
X162140476Y-33557200D02*
X162045238Y-33604819D01*
X162045238Y-33604819D02*
X161759524Y-33604819D01*
X161759524Y-33604819D02*
X161664286Y-33557200D01*
X161664286Y-33557200D02*
X161616667Y-33509580D01*
X136338095Y-34104819D02*
X136338095Y-33104819D01*
X136338095Y-33581009D02*
X136909523Y-33581009D01*
X136909523Y-34104819D02*
X136909523Y-33104819D01*
X137433333Y-34104819D02*
X137623809Y-34104819D01*
X137623809Y-34104819D02*
X137719047Y-34057200D01*
X137719047Y-34057200D02*
X137766666Y-34009580D01*
X137766666Y-34009580D02*
X137861904Y-33866723D01*
X137861904Y-33866723D02*
X137909523Y-33676247D01*
X137909523Y-33676247D02*
X137909523Y-33295295D01*
X137909523Y-33295295D02*
X137861904Y-33200057D01*
X137861904Y-33200057D02*
X137814285Y-33152438D01*
X137814285Y-33152438D02*
X137719047Y-33104819D01*
X137719047Y-33104819D02*
X137528571Y-33104819D01*
X137528571Y-33104819D02*
X137433333Y-33152438D01*
X137433333Y-33152438D02*
X137385714Y-33200057D01*
X137385714Y-33200057D02*
X137338095Y-33295295D01*
X137338095Y-33295295D02*
X137338095Y-33533390D01*
X137338095Y-33533390D02*
X137385714Y-33628628D01*
X137385714Y-33628628D02*
X137433333Y-33676247D01*
X137433333Y-33676247D02*
X137528571Y-33723866D01*
X137528571Y-33723866D02*
X137719047Y-33723866D01*
X137719047Y-33723866D02*
X137814285Y-33676247D01*
X137814285Y-33676247D02*
X137861904Y-33628628D01*
X137861904Y-33628628D02*
X137909523Y-33533390D01*
X166411905Y-33604819D02*
X166411905Y-32604819D01*
X166411905Y-33081009D02*
X166983333Y-33081009D01*
X166983333Y-33604819D02*
X166983333Y-32604819D01*
X167983333Y-33604819D02*
X167411905Y-33604819D01*
X167697619Y-33604819D02*
X167697619Y-32604819D01*
X167697619Y-32604819D02*
X167602381Y-32747676D01*
X167602381Y-32747676D02*
X167507143Y-32842914D01*
X167507143Y-32842914D02*
X167411905Y-32890533D01*
X168840476Y-32938152D02*
X168840476Y-33604819D01*
X168602381Y-32557200D02*
X168364286Y-33271485D01*
X168364286Y-33271485D02*
X168983333Y-33271485D01*
X109488095Y-43804819D02*
X109488095Y-42804819D01*
X109488095Y-43281009D02*
X110059523Y-43281009D01*
X110059523Y-43804819D02*
X110059523Y-42804819D01*
X110488095Y-42900057D02*
X110535714Y-42852438D01*
X110535714Y-42852438D02*
X110630952Y-42804819D01*
X110630952Y-42804819D02*
X110869047Y-42804819D01*
X110869047Y-42804819D02*
X110964285Y-42852438D01*
X110964285Y-42852438D02*
X111011904Y-42900057D01*
X111011904Y-42900057D02*
X111059523Y-42995295D01*
X111059523Y-42995295D02*
X111059523Y-43090533D01*
X111059523Y-43090533D02*
X111011904Y-43233390D01*
X111011904Y-43233390D02*
X110440476Y-43804819D01*
X110440476Y-43804819D02*
X111059523Y-43804819D01*
X109488095Y-37704819D02*
X109488095Y-36704819D01*
X109488095Y-37181009D02*
X110059523Y-37181009D01*
X110059523Y-37704819D02*
X110059523Y-36704819D01*
X110440476Y-36704819D02*
X111059523Y-36704819D01*
X111059523Y-36704819D02*
X110726190Y-37085771D01*
X110726190Y-37085771D02*
X110869047Y-37085771D01*
X110869047Y-37085771D02*
X110964285Y-37133390D01*
X110964285Y-37133390D02*
X111011904Y-37181009D01*
X111011904Y-37181009D02*
X111059523Y-37276247D01*
X111059523Y-37276247D02*
X111059523Y-37514342D01*
X111059523Y-37514342D02*
X111011904Y-37609580D01*
X111011904Y-37609580D02*
X110964285Y-37657200D01*
X110964285Y-37657200D02*
X110869047Y-37704819D01*
X110869047Y-37704819D02*
X110583333Y-37704819D01*
X110583333Y-37704819D02*
X110488095Y-37657200D01*
X110488095Y-37657200D02*
X110440476Y-37609580D01*
X150938095Y-50904819D02*
X150938095Y-51714342D01*
X150938095Y-51714342D02*
X150985714Y-51809580D01*
X150985714Y-51809580D02*
X151033333Y-51857200D01*
X151033333Y-51857200D02*
X151128571Y-51904819D01*
X151128571Y-51904819D02*
X151319047Y-51904819D01*
X151319047Y-51904819D02*
X151414285Y-51857200D01*
X151414285Y-51857200D02*
X151461904Y-51809580D01*
X151461904Y-51809580D02*
X151509523Y-51714342D01*
X151509523Y-51714342D02*
X151509523Y-50904819D01*
X151890476Y-50904819D02*
X152509523Y-50904819D01*
X152509523Y-50904819D02*
X152176190Y-51285771D01*
X152176190Y-51285771D02*
X152319047Y-51285771D01*
X152319047Y-51285771D02*
X152414285Y-51333390D01*
X152414285Y-51333390D02*
X152461904Y-51381009D01*
X152461904Y-51381009D02*
X152509523Y-51476247D01*
X152509523Y-51476247D02*
X152509523Y-51714342D01*
X152509523Y-51714342D02*
X152461904Y-51809580D01*
X152461904Y-51809580D02*
X152414285Y-51857200D01*
X152414285Y-51857200D02*
X152319047Y-51904819D01*
X152319047Y-51904819D02*
X152033333Y-51904819D01*
X152033333Y-51904819D02*
X151938095Y-51857200D01*
X151938095Y-51857200D02*
X151890476Y-51809580D01*
X143411905Y-33654819D02*
X143411905Y-32654819D01*
X143411905Y-33131009D02*
X143983333Y-33131009D01*
X143983333Y-33654819D02*
X143983333Y-32654819D01*
X144983333Y-33654819D02*
X144411905Y-33654819D01*
X144697619Y-33654819D02*
X144697619Y-32654819D01*
X144697619Y-32654819D02*
X144602381Y-32797676D01*
X144602381Y-32797676D02*
X144507143Y-32892914D01*
X144507143Y-32892914D02*
X144411905Y-32940533D01*
X145602381Y-32654819D02*
X145697619Y-32654819D01*
X145697619Y-32654819D02*
X145792857Y-32702438D01*
X145792857Y-32702438D02*
X145840476Y-32750057D01*
X145840476Y-32750057D02*
X145888095Y-32845295D01*
X145888095Y-32845295D02*
X145935714Y-33035771D01*
X145935714Y-33035771D02*
X145935714Y-33273866D01*
X145935714Y-33273866D02*
X145888095Y-33464342D01*
X145888095Y-33464342D02*
X145840476Y-33559580D01*
X145840476Y-33559580D02*
X145792857Y-33607200D01*
X145792857Y-33607200D02*
X145697619Y-33654819D01*
X145697619Y-33654819D02*
X145602381Y-33654819D01*
X145602381Y-33654819D02*
X145507143Y-33607200D01*
X145507143Y-33607200D02*
X145459524Y-33559580D01*
X145459524Y-33559580D02*
X145411905Y-33464342D01*
X145411905Y-33464342D02*
X145364286Y-33273866D01*
X145364286Y-33273866D02*
X145364286Y-33035771D01*
X145364286Y-33035771D02*
X145411905Y-32845295D01*
X145411905Y-32845295D02*
X145459524Y-32750057D01*
X145459524Y-32750057D02*
X145507143Y-32702438D01*
X145507143Y-32702438D02*
X145602381Y-32654819D01*
X152811905Y-32804819D02*
X152811905Y-31804819D01*
X152811905Y-32281009D02*
X153383333Y-32281009D01*
X153383333Y-32804819D02*
X153383333Y-31804819D01*
X154383333Y-32804819D02*
X153811905Y-32804819D01*
X154097619Y-32804819D02*
X154097619Y-31804819D01*
X154097619Y-31804819D02*
X154002381Y-31947676D01*
X154002381Y-31947676D02*
X153907143Y-32042914D01*
X153907143Y-32042914D02*
X153811905Y-32090533D01*
X154764286Y-31900057D02*
X154811905Y-31852438D01*
X154811905Y-31852438D02*
X154907143Y-31804819D01*
X154907143Y-31804819D02*
X155145238Y-31804819D01*
X155145238Y-31804819D02*
X155240476Y-31852438D01*
X155240476Y-31852438D02*
X155288095Y-31900057D01*
X155288095Y-31900057D02*
X155335714Y-31995295D01*
X155335714Y-31995295D02*
X155335714Y-32090533D01*
X155335714Y-32090533D02*
X155288095Y-32233390D01*
X155288095Y-32233390D02*
X154716667Y-32804819D01*
X154716667Y-32804819D02*
X155335714Y-32804819D01*
X109488095Y-50304819D02*
X109488095Y-49304819D01*
X109488095Y-49781009D02*
X110059523Y-49781009D01*
X110059523Y-50304819D02*
X110059523Y-49304819D01*
X111059523Y-50304819D02*
X110488095Y-50304819D01*
X110773809Y-50304819D02*
X110773809Y-49304819D01*
X110773809Y-49304819D02*
X110678571Y-49447676D01*
X110678571Y-49447676D02*
X110583333Y-49542914D01*
X110583333Y-49542914D02*
X110488095Y-49590533D01*
X179410933Y-46798633D02*
X179977600Y-46798633D01*
X179977600Y-46798633D02*
X180044266Y-46765300D01*
X180044266Y-46765300D02*
X180077600Y-46731966D01*
X180077600Y-46731966D02*
X180110933Y-46665300D01*
X180110933Y-46665300D02*
X180110933Y-46531966D01*
X180110933Y-46531966D02*
X180077600Y-46465300D01*
X180077600Y-46465300D02*
X180044266Y-46431966D01*
X180044266Y-46431966D02*
X179977600Y-46398633D01*
X179977600Y-46398633D02*
X179410933Y-46398633D01*
X180110933Y-45698633D02*
X180110933Y-46098633D01*
X180110933Y-45898633D02*
X179410933Y-45898633D01*
X179410933Y-45898633D02*
X179510933Y-45965300D01*
X179510933Y-45965300D02*
X179577600Y-46031967D01*
X179577600Y-46031967D02*
X179610933Y-46098633D01*
X146361905Y-32154819D02*
X146361905Y-31154819D01*
X146361905Y-31631009D02*
X146933333Y-31631009D01*
X146933333Y-32154819D02*
X146933333Y-31154819D01*
X147933333Y-32154819D02*
X147361905Y-32154819D01*
X147647619Y-32154819D02*
X147647619Y-31154819D01*
X147647619Y-31154819D02*
X147552381Y-31297676D01*
X147552381Y-31297676D02*
X147457143Y-31392914D01*
X147457143Y-31392914D02*
X147361905Y-31440533D01*
X148885714Y-32154819D02*
X148314286Y-32154819D01*
X148600000Y-32154819D02*
X148600000Y-31154819D01*
X148600000Y-31154819D02*
X148504762Y-31297676D01*
X148504762Y-31297676D02*
X148409524Y-31392914D01*
X148409524Y-31392914D02*
X148314286Y-31440533D01*
X139658095Y-43914819D02*
X139658095Y-44724342D01*
X139658095Y-44724342D02*
X139705714Y-44819580D01*
X139705714Y-44819580D02*
X139753333Y-44867200D01*
X139753333Y-44867200D02*
X139848571Y-44914819D01*
X139848571Y-44914819D02*
X140039047Y-44914819D01*
X140039047Y-44914819D02*
X140134285Y-44867200D01*
X140134285Y-44867200D02*
X140181904Y-44819580D01*
X140181904Y-44819580D02*
X140229523Y-44724342D01*
X140229523Y-44724342D02*
X140229523Y-43914819D01*
X140658095Y-44010057D02*
X140705714Y-43962438D01*
X140705714Y-43962438D02*
X140800952Y-43914819D01*
X140800952Y-43914819D02*
X141039047Y-43914819D01*
X141039047Y-43914819D02*
X141134285Y-43962438D01*
X141134285Y-43962438D02*
X141181904Y-44010057D01*
X141181904Y-44010057D02*
X141229523Y-44105295D01*
X141229523Y-44105295D02*
X141229523Y-44200533D01*
X141229523Y-44200533D02*
X141181904Y-44343390D01*
X141181904Y-44343390D02*
X140610476Y-44914819D01*
X140610476Y-44914819D02*
X141229523Y-44914819D01*
X116988095Y-33904819D02*
X116988095Y-32904819D01*
X116988095Y-33381009D02*
X117559523Y-33381009D01*
X117559523Y-33904819D02*
X117559523Y-32904819D01*
X118464285Y-32904819D02*
X118273809Y-32904819D01*
X118273809Y-32904819D02*
X118178571Y-32952438D01*
X118178571Y-32952438D02*
X118130952Y-33000057D01*
X118130952Y-33000057D02*
X118035714Y-33142914D01*
X118035714Y-33142914D02*
X117988095Y-33333390D01*
X117988095Y-33333390D02*
X117988095Y-33714342D01*
X117988095Y-33714342D02*
X118035714Y-33809580D01*
X118035714Y-33809580D02*
X118083333Y-33857200D01*
X118083333Y-33857200D02*
X118178571Y-33904819D01*
X118178571Y-33904819D02*
X118369047Y-33904819D01*
X118369047Y-33904819D02*
X118464285Y-33857200D01*
X118464285Y-33857200D02*
X118511904Y-33809580D01*
X118511904Y-33809580D02*
X118559523Y-33714342D01*
X118559523Y-33714342D02*
X118559523Y-33476247D01*
X118559523Y-33476247D02*
X118511904Y-33381009D01*
X118511904Y-33381009D02*
X118464285Y-33333390D01*
X118464285Y-33333390D02*
X118369047Y-33285771D01*
X118369047Y-33285771D02*
X118178571Y-33285771D01*
X118178571Y-33285771D02*
X118083333Y-33333390D01*
X118083333Y-33333390D02*
X118035714Y-33381009D01*
X118035714Y-33381009D02*
X117988095Y-33476247D01*
X123188095Y-33904819D02*
X123188095Y-32904819D01*
X123188095Y-33381009D02*
X123759523Y-33381009D01*
X123759523Y-33904819D02*
X123759523Y-32904819D01*
X124140476Y-32904819D02*
X124807142Y-32904819D01*
X124807142Y-32904819D02*
X124378571Y-33904819D01*
X109888095Y-33804819D02*
X109888095Y-32804819D01*
X109888095Y-33281009D02*
X110459523Y-33281009D01*
X110459523Y-33804819D02*
X110459523Y-32804819D01*
X111411904Y-32804819D02*
X110935714Y-32804819D01*
X110935714Y-32804819D02*
X110888095Y-33281009D01*
X110888095Y-33281009D02*
X110935714Y-33233390D01*
X110935714Y-33233390D02*
X111030952Y-33185771D01*
X111030952Y-33185771D02*
X111269047Y-33185771D01*
X111269047Y-33185771D02*
X111364285Y-33233390D01*
X111364285Y-33233390D02*
X111411904Y-33281009D01*
X111411904Y-33281009D02*
X111459523Y-33376247D01*
X111459523Y-33376247D02*
X111459523Y-33614342D01*
X111459523Y-33614342D02*
X111411904Y-33709580D01*
X111411904Y-33709580D02*
X111364285Y-33757200D01*
X111364285Y-33757200D02*
X111269047Y-33804819D01*
X111269047Y-33804819D02*
X111030952Y-33804819D01*
X111030952Y-33804819D02*
X110935714Y-33757200D01*
X110935714Y-33757200D02*
X110888095Y-33709580D01*
X101988095Y-31504819D02*
X101988095Y-30504819D01*
X101988095Y-30981009D02*
X102559523Y-30981009D01*
X102559523Y-31504819D02*
X102559523Y-30504819D01*
X103464285Y-30838152D02*
X103464285Y-31504819D01*
X103226190Y-30457200D02*
X102988095Y-31171485D01*
X102988095Y-31171485D02*
X103607142Y-31171485D01*
X109488095Y-56704819D02*
X109488095Y-55704819D01*
X109488095Y-56181009D02*
X110059523Y-56181009D01*
X110059523Y-56704819D02*
X110059523Y-55704819D01*
X110726190Y-55704819D02*
X110821428Y-55704819D01*
X110821428Y-55704819D02*
X110916666Y-55752438D01*
X110916666Y-55752438D02*
X110964285Y-55800057D01*
X110964285Y-55800057D02*
X111011904Y-55895295D01*
X111011904Y-55895295D02*
X111059523Y-56085771D01*
X111059523Y-56085771D02*
X111059523Y-56323866D01*
X111059523Y-56323866D02*
X111011904Y-56514342D01*
X111011904Y-56514342D02*
X110964285Y-56609580D01*
X110964285Y-56609580D02*
X110916666Y-56657200D01*
X110916666Y-56657200D02*
X110821428Y-56704819D01*
X110821428Y-56704819D02*
X110726190Y-56704819D01*
X110726190Y-56704819D02*
X110630952Y-56657200D01*
X110630952Y-56657200D02*
X110583333Y-56609580D01*
X110583333Y-56609580D02*
X110535714Y-56514342D01*
X110535714Y-56514342D02*
X110488095Y-56323866D01*
X110488095Y-56323866D02*
X110488095Y-56085771D01*
X110488095Y-56085771D02*
X110535714Y-55895295D01*
X110535714Y-55895295D02*
X110583333Y-55800057D01*
X110583333Y-55800057D02*
X110630952Y-55752438D01*
X110630952Y-55752438D02*
X110726190Y-55704819D01*
X129588095Y-33804819D02*
X129588095Y-32804819D01*
X129588095Y-33281009D02*
X130159523Y-33281009D01*
X130159523Y-33804819D02*
X130159523Y-32804819D01*
X130778571Y-33233390D02*
X130683333Y-33185771D01*
X130683333Y-33185771D02*
X130635714Y-33138152D01*
X130635714Y-33138152D02*
X130588095Y-33042914D01*
X130588095Y-33042914D02*
X130588095Y-32995295D01*
X130588095Y-32995295D02*
X130635714Y-32900057D01*
X130635714Y-32900057D02*
X130683333Y-32852438D01*
X130683333Y-32852438D02*
X130778571Y-32804819D01*
X130778571Y-32804819D02*
X130969047Y-32804819D01*
X130969047Y-32804819D02*
X131064285Y-32852438D01*
X131064285Y-32852438D02*
X131111904Y-32900057D01*
X131111904Y-32900057D02*
X131159523Y-32995295D01*
X131159523Y-32995295D02*
X131159523Y-33042914D01*
X131159523Y-33042914D02*
X131111904Y-33138152D01*
X131111904Y-33138152D02*
X131064285Y-33185771D01*
X131064285Y-33185771D02*
X130969047Y-33233390D01*
X130969047Y-33233390D02*
X130778571Y-33233390D01*
X130778571Y-33233390D02*
X130683333Y-33281009D01*
X130683333Y-33281009D02*
X130635714Y-33328628D01*
X130635714Y-33328628D02*
X130588095Y-33423866D01*
X130588095Y-33423866D02*
X130588095Y-33614342D01*
X130588095Y-33614342D02*
X130635714Y-33709580D01*
X130635714Y-33709580D02*
X130683333Y-33757200D01*
X130683333Y-33757200D02*
X130778571Y-33804819D01*
X130778571Y-33804819D02*
X130969047Y-33804819D01*
X130969047Y-33804819D02*
X131064285Y-33757200D01*
X131064285Y-33757200D02*
X131111904Y-33709580D01*
X131111904Y-33709580D02*
X131159523Y-33614342D01*
X131159523Y-33614342D02*
X131159523Y-33423866D01*
X131159523Y-33423866D02*
X131111904Y-33328628D01*
X131111904Y-33328628D02*
X131064285Y-33281009D01*
X131064285Y-33281009D02*
X130969047Y-33233390D01*
X173311905Y-34004819D02*
X173311905Y-33004819D01*
X173311905Y-33481009D02*
X173883333Y-33481009D01*
X173883333Y-34004819D02*
X173883333Y-33004819D01*
X174883333Y-34004819D02*
X174311905Y-34004819D01*
X174597619Y-34004819D02*
X174597619Y-33004819D01*
X174597619Y-33004819D02*
X174502381Y-33147676D01*
X174502381Y-33147676D02*
X174407143Y-33242914D01*
X174407143Y-33242914D02*
X174311905Y-33290533D01*
X175788095Y-33004819D02*
X175311905Y-33004819D01*
X175311905Y-33004819D02*
X175264286Y-33481009D01*
X175264286Y-33481009D02*
X175311905Y-33433390D01*
X175311905Y-33433390D02*
X175407143Y-33385771D01*
X175407143Y-33385771D02*
X175645238Y-33385771D01*
X175645238Y-33385771D02*
X175740476Y-33433390D01*
X175740476Y-33433390D02*
X175788095Y-33481009D01*
X175788095Y-33481009D02*
X175835714Y-33576247D01*
X175835714Y-33576247D02*
X175835714Y-33814342D01*
X175835714Y-33814342D02*
X175788095Y-33909580D01*
X175788095Y-33909580D02*
X175740476Y-33957200D01*
X175740476Y-33957200D02*
X175645238Y-34004819D01*
X175645238Y-34004819D02*
X175407143Y-34004819D01*
X175407143Y-34004819D02*
X175311905Y-33957200D01*
X175311905Y-33957200D02*
X175264286Y-33909580D01*
%TO.C,C11*%
X149175000Y-32260000D02*
X149175000Y-31531066D01*
X151225000Y-32275000D02*
X151225000Y-31531066D01*
X149175000Y-31531066D02*
G75*
G02*
X149325000Y-31381070I150000J-4D01*
G01*
X149325000Y-32418934D02*
G75*
G02*
X149174996Y-32268934I-20J149984D01*
G01*
X151075000Y-31381066D02*
G75*
G02*
X151225000Y-31531066I0J-150000D01*
G01*
X151225000Y-32275000D02*
G75*
G02*
X151075000Y-32425000I-150000J0D01*
G01*
%TO.C,C14*%
X168675000Y-32260000D02*
X168675000Y-31531066D01*
X170725000Y-32275000D02*
X170725000Y-31531066D01*
X168675000Y-31531066D02*
G75*
G02*
X168825000Y-31381070I150000J-4D01*
G01*
X168825000Y-32418934D02*
G75*
G02*
X168674996Y-32268934I-20J149984D01*
G01*
X170575000Y-31381066D02*
G75*
G02*
X170725000Y-31531066I0J-150000D01*
G01*
X170725000Y-32275000D02*
G75*
G02*
X170575000Y-32425000I-150000J0D01*
G01*
%TO.C,C15*%
X175175000Y-32260000D02*
X175175000Y-31531066D01*
X177225000Y-32275000D02*
X177225000Y-31531066D01*
X175175000Y-31531066D02*
G75*
G02*
X175325000Y-31381070I150000J-4D01*
G01*
X175325000Y-32418934D02*
G75*
G02*
X175174996Y-32268934I-20J149984D01*
G01*
X177075000Y-31381066D02*
G75*
G02*
X177225000Y-31531066I0J-150000D01*
G01*
X177225000Y-32275000D02*
G75*
G02*
X177075000Y-32425000I-150000J0D01*
G01*
D10*
%TO.C,H13*%
X161200000Y-30060000D02*
X161200000Y-27840000D01*
X162100000Y-30060000D02*
X161200000Y-30060000D01*
X164900000Y-25810000D02*
X162500000Y-25810000D01*
X166070000Y-30060000D02*
X166200000Y-30060000D01*
X166200000Y-30060000D02*
X165300000Y-30060000D01*
X166200000Y-30060000D02*
X166200000Y-27840000D01*
X165640304Y-30656204D02*
G75*
G02*
X165374172Y-30656204I-133066J0D01*
G01*
X165374172Y-30656204D02*
G75*
G02*
X165640304Y-30656204I133066J0D01*
G01*
%TO.C,H9*%
X135200000Y-30060000D02*
X135200000Y-27840000D01*
X136100000Y-30060000D02*
X135200000Y-30060000D01*
X138900000Y-25810000D02*
X136500000Y-25810000D01*
X140070000Y-30060000D02*
X140200000Y-30060000D01*
X140200000Y-30060000D02*
X139300000Y-30060000D01*
X140200000Y-30060000D02*
X140200000Y-27840000D01*
X139640304Y-30656204D02*
G75*
G02*
X139374172Y-30656204I-133066J0D01*
G01*
X139374172Y-30656204D02*
G75*
G02*
X139640304Y-30656204I133066J0D01*
G01*
%TO.C,H14*%
X167700000Y-30060000D02*
X167700000Y-27840000D01*
X168600000Y-30060000D02*
X167700000Y-30060000D01*
X171400000Y-25810000D02*
X169000000Y-25810000D01*
X172570000Y-30060000D02*
X172700000Y-30060000D01*
X172700000Y-30060000D02*
X171800000Y-30060000D01*
X172700000Y-30060000D02*
X172700000Y-27840000D01*
X172140304Y-30656204D02*
G75*
G02*
X171874172Y-30656204I-133066J0D01*
G01*
X171874172Y-30656204D02*
G75*
G02*
X172140304Y-30656204I133066J0D01*
G01*
%TO.C,H2*%
X102470000Y-41500000D02*
X102470000Y-43900000D01*
X106720000Y-40200000D02*
X104500000Y-40200000D01*
X106720000Y-40200000D02*
X106720000Y-41100000D01*
X106720000Y-40330000D02*
X106720000Y-40200000D01*
X106720000Y-44300000D02*
X106720000Y-45200000D01*
X106720000Y-45200000D02*
X104500000Y-45200000D01*
X107449270Y-40892762D02*
G75*
G02*
X107183138Y-40892762I-133066J0D01*
G01*
X107183138Y-40892762D02*
G75*
G02*
X107449270Y-40892762I133066J0D01*
G01*
D11*
%TO.C,C3*%
X108960000Y-37725000D02*
X108231066Y-37725000D01*
X108975000Y-35675000D02*
X108231066Y-35675000D01*
X108081066Y-35825000D02*
G75*
G02*
X108231066Y-35675000I150000J0D01*
G01*
X108231066Y-37725000D02*
G75*
G02*
X108081070Y-37575000I4J150000D01*
G01*
X108975000Y-35675000D02*
G75*
G02*
X109125000Y-35825000I0J-150000D01*
G01*
X109118934Y-37575000D02*
G75*
G02*
X108968934Y-37725004I-149984J-20D01*
G01*
%TO.C,C5*%
X110175000Y-32260000D02*
X110175000Y-31531066D01*
X112225000Y-32275000D02*
X112225000Y-31531066D01*
X110175000Y-31531066D02*
G75*
G02*
X110325000Y-31381070I150000J-4D01*
G01*
X110325000Y-32418934D02*
G75*
G02*
X110174996Y-32268934I-20J149984D01*
G01*
X112075000Y-31381066D02*
G75*
G02*
X112225000Y-31531066I0J-150000D01*
G01*
X112225000Y-32275000D02*
G75*
G02*
X112075000Y-32425000I-150000J0D01*
G01*
D10*
%TO.C,H3*%
X102470000Y-35000000D02*
X102470000Y-37400000D01*
X106720000Y-33700000D02*
X104500000Y-33700000D01*
X106720000Y-33700000D02*
X106720000Y-34600000D01*
X106720000Y-33830000D02*
X106720000Y-33700000D01*
X106720000Y-37800000D02*
X106720000Y-38700000D01*
X106720000Y-38700000D02*
X104500000Y-38700000D01*
X107449270Y-34392762D02*
G75*
G02*
X107183138Y-34392762I-133066J0D01*
G01*
X107183138Y-34392762D02*
G75*
G02*
X107449270Y-34392762I133066J0D01*
G01*
D11*
%TO.C,C0*%
X108960000Y-57225000D02*
X108231066Y-57225000D01*
X108975000Y-55175000D02*
X108231066Y-55175000D01*
X108081066Y-55325000D02*
G75*
G02*
X108231066Y-55175000I150000J0D01*
G01*
X108231066Y-57225000D02*
G75*
G02*
X108081070Y-57075000I4J150000D01*
G01*
X108975000Y-55175000D02*
G75*
G02*
X109125000Y-55325000I0J-150000D01*
G01*
X109118934Y-57075000D02*
G75*
G02*
X108968934Y-57225004I-149984J-20D01*
G01*
D10*
%TO.C,U3*%
X150200000Y-52450000D02*
X153200000Y-52450000D01*
X153200000Y-54950000D02*
X150200000Y-54950000D01*
X152600000Y-53700000D02*
G75*
G02*
X150800000Y-53700000I-900000J0D01*
G01*
X150800000Y-53700000D02*
G75*
G02*
X152600000Y-53700000I900000J0D01*
G01*
D11*
%TO.C,C9*%
X136175000Y-32260000D02*
X136175000Y-31531066D01*
X138225000Y-32275000D02*
X138225000Y-31531066D01*
X136175000Y-31531066D02*
G75*
G02*
X136325000Y-31381070I150000J-4D01*
G01*
X136325000Y-32418934D02*
G75*
G02*
X136174996Y-32268934I-20J149984D01*
G01*
X138075000Y-31381066D02*
G75*
G02*
X138225000Y-31531066I0J-150000D01*
G01*
X138225000Y-32275000D02*
G75*
G02*
X138075000Y-32425000I-150000J0D01*
G01*
%TO.C,C4*%
X103675000Y-32260000D02*
X103675000Y-31531066D01*
X105725000Y-32275000D02*
X105725000Y-31531066D01*
X103675000Y-31531066D02*
G75*
G02*
X103825000Y-31381070I150000J-4D01*
G01*
X103825000Y-32418934D02*
G75*
G02*
X103674996Y-32268934I-20J149984D01*
G01*
X105575000Y-31381066D02*
G75*
G02*
X105725000Y-31531066I0J-150000D01*
G01*
X105725000Y-32275000D02*
G75*
G02*
X105575000Y-32425000I-150000J0D01*
G01*
D10*
%TO.C,H10*%
X141700000Y-30060000D02*
X141700000Y-27840000D01*
X142600000Y-30060000D02*
X141700000Y-30060000D01*
X145400000Y-25810000D02*
X143000000Y-25810000D01*
X146570000Y-30060000D02*
X146700000Y-30060000D01*
X146700000Y-30060000D02*
X145800000Y-30060000D01*
X146700000Y-30060000D02*
X146700000Y-27840000D01*
X146140304Y-30656204D02*
G75*
G02*
X145874172Y-30656204I-133066J0D01*
G01*
X145874172Y-30656204D02*
G75*
G02*
X146140304Y-30656204I133066J0D01*
G01*
%TO.C,H12*%
X154700000Y-30060000D02*
X154700000Y-27840000D01*
X155600000Y-30060000D02*
X154700000Y-30060000D01*
X158400000Y-25810000D02*
X156000000Y-25810000D01*
X159570000Y-30060000D02*
X159700000Y-30060000D01*
X159700000Y-30060000D02*
X158800000Y-30060000D01*
X159700000Y-30060000D02*
X159700000Y-27840000D01*
X159140304Y-30656204D02*
G75*
G02*
X158874172Y-30656204I-133066J0D01*
G01*
X158874172Y-30656204D02*
G75*
G02*
X159140304Y-30656204I133066J0D01*
G01*
D11*
%TO.C,C12*%
X155675000Y-32260000D02*
X155675000Y-31531066D01*
X157725000Y-32275000D02*
X157725000Y-31531066D01*
X155675000Y-31531066D02*
G75*
G02*
X155825000Y-31381070I150000J-4D01*
G01*
X155825000Y-32418934D02*
G75*
G02*
X155674996Y-32268934I-20J149984D01*
G01*
X157575000Y-31381066D02*
G75*
G02*
X157725000Y-31531066I0J-150000D01*
G01*
X157725000Y-32275000D02*
G75*
G02*
X157575000Y-32425000I-150000J0D01*
G01*
D10*
%TO.C,H1*%
X102470000Y-48000000D02*
X102470000Y-50400000D01*
X106720000Y-46700000D02*
X104500000Y-46700000D01*
X106720000Y-46700000D02*
X106720000Y-47600000D01*
X106720000Y-46830000D02*
X106720000Y-46700000D01*
X106720000Y-50800000D02*
X106720000Y-51700000D01*
X106720000Y-51700000D02*
X104500000Y-51700000D01*
X107449270Y-47392762D02*
G75*
G02*
X107183138Y-47392762I-133066J0D01*
G01*
X107183138Y-47392762D02*
G75*
G02*
X107449270Y-47392762I133066J0D01*
G01*
D11*
%TO.C,C8*%
X129675000Y-32260000D02*
X129675000Y-31531066D01*
X131725000Y-32275000D02*
X131725000Y-31531066D01*
X129675000Y-31531066D02*
G75*
G02*
X129825000Y-31381070I150000J-4D01*
G01*
X129825000Y-32418934D02*
G75*
G02*
X129674996Y-32268934I-20J149984D01*
G01*
X131575000Y-31381066D02*
G75*
G02*
X131725000Y-31531066I0J-150000D01*
G01*
X131725000Y-32275000D02*
G75*
G02*
X131575000Y-32425000I-150000J0D01*
G01*
%TO.C,C1*%
X108960000Y-50725000D02*
X108231066Y-50725000D01*
X108975000Y-48675000D02*
X108231066Y-48675000D01*
X108081066Y-48825000D02*
G75*
G02*
X108231066Y-48675000I150000J0D01*
G01*
X108231066Y-50725000D02*
G75*
G02*
X108081070Y-50575000I4J150000D01*
G01*
X108975000Y-48675000D02*
G75*
G02*
X109125000Y-48825000I0J-150000D01*
G01*
X109118934Y-50575000D02*
G75*
G02*
X108968934Y-50725004I-149984J-20D01*
G01*
D12*
%TO.C,U1*%
X158014400Y-36930800D02*
X158014400Y-54730800D01*
X158014400Y-54730800D02*
X179014400Y-54730800D01*
X173086400Y-41326800D02*
X180439400Y-41326800D01*
X173086400Y-50325800D02*
X173086400Y-41326800D01*
X178342900Y-36930800D02*
X158014400Y-36930800D01*
X179014400Y-37602341D02*
X178342900Y-36930800D01*
X179014400Y-54730800D02*
X179014400Y-37602341D01*
X180438400Y-41330800D02*
X180438400Y-50325800D01*
X180438400Y-50325800D02*
X173086400Y-50325800D01*
D11*
%TO.C,C2*%
X108960000Y-44225000D02*
X108231066Y-44225000D01*
X108975000Y-42175000D02*
X108231066Y-42175000D01*
X108081066Y-42325000D02*
G75*
G02*
X108231066Y-42175000I150000J0D01*
G01*
X108231066Y-44225000D02*
G75*
G02*
X108081070Y-44075000I4J150000D01*
G01*
X108975000Y-42175000D02*
G75*
G02*
X109125000Y-42325000I0J-150000D01*
G01*
X109118934Y-44075000D02*
G75*
G02*
X108968934Y-44225004I-149984J-20D01*
G01*
%TO.C,C13*%
X162175000Y-32260000D02*
X162175000Y-31531066D01*
X164225000Y-32275000D02*
X164225000Y-31531066D01*
X162175000Y-31531066D02*
G75*
G02*
X162325000Y-31381070I150000J-4D01*
G01*
X162325000Y-32418934D02*
G75*
G02*
X162174996Y-32268934I-20J149984D01*
G01*
X164075000Y-31381066D02*
G75*
G02*
X164225000Y-31531066I0J-150000D01*
G01*
X164225000Y-32275000D02*
G75*
G02*
X164075000Y-32425000I-150000J0D01*
G01*
%TO.C,C6*%
X116675000Y-32260000D02*
X116675000Y-31531066D01*
X118725000Y-32275000D02*
X118725000Y-31531066D01*
X116675000Y-31531066D02*
G75*
G02*
X116825000Y-31381070I150000J-4D01*
G01*
X116825000Y-32418934D02*
G75*
G02*
X116674996Y-32268934I-20J149984D01*
G01*
X118575000Y-31381066D02*
G75*
G02*
X118725000Y-31531066I0J-150000D01*
G01*
X118725000Y-32275000D02*
G75*
G02*
X118575000Y-32425000I-150000J0D01*
G01*
D10*
%TO.C,H11*%
X148200000Y-30060000D02*
X148200000Y-27840000D01*
X149100000Y-30060000D02*
X148200000Y-30060000D01*
X151900000Y-25810000D02*
X149500000Y-25810000D01*
X153070000Y-30060000D02*
X153200000Y-30060000D01*
X153200000Y-30060000D02*
X152300000Y-30060000D01*
X153200000Y-30060000D02*
X153200000Y-27840000D01*
X152640304Y-30656204D02*
G75*
G02*
X152374172Y-30656204I-133066J0D01*
G01*
X152374172Y-30656204D02*
G75*
G02*
X152640304Y-30656204I133066J0D01*
G01*
D11*
%TO.C,U2*%
X141670000Y-38880000D02*
X157230000Y-38880000D01*
X141670000Y-45520000D02*
X141670000Y-38880000D01*
X157230000Y-38880000D02*
X157230000Y-45520000D01*
X157230000Y-45520000D02*
X141670000Y-45520000D01*
D13*
X141800000Y-46940000D02*
G75*
G02*
X141500000Y-46940000I-150000J0D01*
G01*
X141500000Y-46940000D02*
G75*
G02*
X141800000Y-46940000I150000J0D01*
G01*
X142610000Y-44770000D02*
G75*
G02*
X142310000Y-44770000I-150000J0D01*
G01*
X142310000Y-44770000D02*
G75*
G02*
X142610000Y-44770000I150000J0D01*
G01*
D10*
%TO.C,H6*%
X115700000Y-30060000D02*
X115700000Y-27840000D01*
X116600000Y-30060000D02*
X115700000Y-30060000D01*
X119400000Y-25810000D02*
X117000000Y-25810000D01*
X120570000Y-30060000D02*
X120700000Y-30060000D01*
X120700000Y-30060000D02*
X119800000Y-30060000D01*
X120700000Y-30060000D02*
X120700000Y-27840000D01*
X120140304Y-30656204D02*
G75*
G02*
X119874172Y-30656204I-133066J0D01*
G01*
X119874172Y-30656204D02*
G75*
G02*
X120140304Y-30656204I133066J0D01*
G01*
D14*
%TO.C,G\u002A\u002A\u002A*%
G36*
X134873845Y-38564735D02*
G01*
X134970267Y-38693490D01*
X135231454Y-39329911D01*
X135492640Y-39966331D01*
X135643781Y-40756175D01*
X135668787Y-40886811D01*
X135692528Y-41010762D01*
X135714663Y-41126245D01*
X135734848Y-41231476D01*
X135752741Y-41324674D01*
X135768000Y-41404053D01*
X135780282Y-41467832D01*
X135789245Y-41514226D01*
X135794545Y-41541453D01*
X135795916Y-41548234D01*
X135807112Y-41552805D01*
X135834915Y-41560876D01*
X135873848Y-41571117D01*
X135918437Y-41582203D01*
X135963205Y-41592805D01*
X136002678Y-41601596D01*
X136031380Y-41607249D01*
X136043835Y-41608435D01*
X136043924Y-41608364D01*
X136045374Y-41596258D01*
X136047671Y-41563632D01*
X136050701Y-41512674D01*
X136054350Y-41445570D01*
X136058502Y-41364509D01*
X136063043Y-41271680D01*
X136067859Y-41169270D01*
X136072835Y-41059467D01*
X136073685Y-41040291D01*
X136098557Y-40477741D01*
X136037907Y-39970008D01*
X135977258Y-39462275D01*
X136095630Y-39325064D01*
X136214002Y-39187853D01*
X136313269Y-39187853D01*
X136412536Y-39187853D01*
X136494074Y-39311170D01*
X136575612Y-39434488D01*
X136678500Y-39933385D01*
X136781388Y-40432282D01*
X136786822Y-41045974D01*
X136792257Y-41659665D01*
X136955803Y-42517696D01*
X136989505Y-42695152D01*
X137019165Y-42852861D01*
X137045215Y-42993362D01*
X137068089Y-43119193D01*
X137088219Y-43232892D01*
X137106039Y-43336998D01*
X137121980Y-43434048D01*
X137136476Y-43526581D01*
X137149960Y-43617135D01*
X137162865Y-43708248D01*
X137175623Y-43802457D01*
X137178139Y-43821471D01*
X137236929Y-44267214D01*
X137177203Y-44594267D01*
X137161881Y-44678899D01*
X137147933Y-44757352D01*
X137135889Y-44826531D01*
X137126278Y-44883341D01*
X137119631Y-44924689D01*
X137116478Y-44947479D01*
X137116304Y-44949732D01*
X137120343Y-44960977D01*
X137133259Y-44983665D01*
X137155542Y-45018489D01*
X137187681Y-45066141D01*
X137230165Y-45127315D01*
X137283484Y-45202703D01*
X137348125Y-45292998D01*
X137424579Y-45398894D01*
X137513335Y-45521083D01*
X137614881Y-45660259D01*
X137697224Y-45772786D01*
X137784332Y-45891770D01*
X137867429Y-46005411D01*
X137945555Y-46112387D01*
X138017747Y-46211375D01*
X138083046Y-46301053D01*
X138140490Y-46380098D01*
X138189117Y-46447188D01*
X138227966Y-46501001D01*
X138256076Y-46540213D01*
X138272486Y-46563504D01*
X138276539Y-46569792D01*
X138266685Y-46575868D01*
X138238825Y-46592878D01*
X138194384Y-46619957D01*
X138134783Y-46656241D01*
X138061446Y-46700865D01*
X137975794Y-46752965D01*
X137879251Y-46811676D01*
X137773239Y-46876133D01*
X137659181Y-46945473D01*
X137538500Y-47018831D01*
X137412618Y-47095343D01*
X137282958Y-47174143D01*
X137150942Y-47254367D01*
X137017994Y-47335152D01*
X136885535Y-47415632D01*
X136754990Y-47494943D01*
X136627779Y-47572220D01*
X136505327Y-47646600D01*
X136389055Y-47717217D01*
X136280387Y-47783208D01*
X136180745Y-47843707D01*
X136091551Y-47897850D01*
X136014229Y-47944773D01*
X135950201Y-47983611D01*
X135900889Y-48013500D01*
X135867717Y-48033575D01*
X135852107Y-48042973D01*
X135851836Y-48043133D01*
X135816487Y-48064020D01*
X134986344Y-47202961D01*
X134156202Y-46341902D01*
X132556225Y-45671387D01*
X132370654Y-45593615D01*
X132188311Y-45517186D01*
X132010545Y-45442668D01*
X131838706Y-45370627D01*
X131674144Y-45301630D01*
X131518210Y-45236241D01*
X131372254Y-45175028D01*
X131237625Y-45118557D01*
X131115673Y-45067394D01*
X131007750Y-45022106D01*
X130915204Y-44983258D01*
X130839385Y-44951417D01*
X130781645Y-44927149D01*
X130743332Y-44911020D01*
X130739658Y-44909470D01*
X130523068Y-44818068D01*
X130358194Y-44520202D01*
X130193319Y-44222336D01*
X129960431Y-44067396D01*
X129896008Y-44024505D01*
X129838090Y-43985889D01*
X129789291Y-43953293D01*
X129752227Y-43928468D01*
X129729511Y-43913160D01*
X129723462Y-43908974D01*
X129725205Y-43897505D01*
X129732618Y-43867962D01*
X129744704Y-43824004D01*
X129760464Y-43769288D01*
X129773729Y-43724610D01*
X129828078Y-43543728D01*
X129947207Y-43536439D01*
X130009346Y-43533197D01*
X130074683Y-43530696D01*
X130132649Y-43529310D01*
X130153403Y-43529150D01*
X130240471Y-43529150D01*
X131018190Y-43842531D01*
X131145980Y-43894016D01*
X131268810Y-43943488D01*
X131384867Y-43990218D01*
X131492341Y-44033477D01*
X131589417Y-44072536D01*
X131674286Y-44106666D01*
X131745133Y-44135139D01*
X131800149Y-44157224D01*
X131837520Y-44172195D01*
X131854536Y-44178968D01*
X131913162Y-44202025D01*
X132274765Y-44115398D01*
X132374396Y-44091439D01*
X132454389Y-44071885D01*
X132517237Y-44055968D01*
X132565435Y-44042919D01*
X132601476Y-44031968D01*
X132627855Y-44022346D01*
X132647066Y-44013284D01*
X132661603Y-44004012D01*
X132673959Y-43993761D01*
X132676408Y-43991507D01*
X132698948Y-43970625D01*
X132734133Y-43938142D01*
X132777867Y-43897836D01*
X132826056Y-43853481D01*
X132847999Y-43833303D01*
X132979551Y-43712363D01*
X132875646Y-43140600D01*
X132771741Y-42568837D01*
X132571305Y-42084968D01*
X132517542Y-41955506D01*
X132469800Y-41841424D01*
X132426432Y-41739053D01*
X132385796Y-41644724D01*
X132346246Y-41554769D01*
X132306138Y-41465518D01*
X132263828Y-41373304D01*
X132217673Y-41274456D01*
X132166026Y-41165307D01*
X132107245Y-41042187D01*
X132057266Y-40938009D01*
X131967405Y-40749888D01*
X131887199Y-40579533D01*
X131815667Y-40424622D01*
X131751828Y-40282834D01*
X131694699Y-40151849D01*
X131643300Y-40029344D01*
X131596649Y-39913000D01*
X131553764Y-39800494D01*
X131513665Y-39689505D01*
X131475369Y-39577713D01*
X131451804Y-39506063D01*
X131424493Y-39422688D01*
X131403416Y-39357742D01*
X131388705Y-39307760D01*
X131380491Y-39269276D01*
X131378907Y-39238827D01*
X131384083Y-39212944D01*
X131396152Y-39188165D01*
X131415245Y-39161022D01*
X131441495Y-39128052D01*
X131467410Y-39095564D01*
X131566820Y-38968855D01*
X131658635Y-38976004D01*
X131712607Y-38979564D01*
X131767442Y-38982147D01*
X131811664Y-38983217D01*
X131813301Y-38983221D01*
X131876151Y-38983289D01*
X132018326Y-39156600D01*
X132060192Y-39208619D01*
X132100291Y-39260772D01*
X132140548Y-39315883D01*
X132182888Y-39376774D01*
X132229234Y-39446269D01*
X132281512Y-39527191D01*
X132341647Y-39622365D01*
X132403736Y-39721991D01*
X132646971Y-40114072D01*
X133054981Y-40949374D01*
X133118009Y-41078305D01*
X133178274Y-41201378D01*
X133235017Y-41317059D01*
X133287480Y-41423811D01*
X133334905Y-41520100D01*
X133376536Y-41604390D01*
X133411615Y-41675146D01*
X133439383Y-41730833D01*
X133459083Y-41769914D01*
X133469957Y-41790856D01*
X133471839Y-41794035D01*
X133485022Y-41793142D01*
X133513637Y-41783338D01*
X133553048Y-41766388D01*
X133585550Y-41750729D01*
X133635103Y-41724819D01*
X133666395Y-41705631D01*
X133682163Y-41691188D01*
X133685145Y-41679511D01*
X133684980Y-41678864D01*
X133680225Y-41665796D01*
X133667858Y-41632953D01*
X133648428Y-41581770D01*
X133622485Y-41513686D01*
X133590579Y-41430137D01*
X133553260Y-41332561D01*
X133511077Y-41222393D01*
X133464580Y-41101073D01*
X133414320Y-40970036D01*
X133360846Y-40830719D01*
X133304708Y-40684561D01*
X133262350Y-40574340D01*
X133167401Y-40327287D01*
X133080419Y-40100860D01*
X133001183Y-39894485D01*
X132929473Y-39707584D01*
X132865070Y-39539581D01*
X132807753Y-39389899D01*
X132757302Y-39257963D01*
X132713497Y-39143194D01*
X132676119Y-39045018D01*
X132644947Y-38962857D01*
X132619762Y-38896135D01*
X132600342Y-38844276D01*
X132586469Y-38806703D01*
X132577923Y-38782839D01*
X132574483Y-38772108D01*
X132574388Y-38771492D01*
X132581367Y-38760775D01*
X132600596Y-38736005D01*
X132629510Y-38700368D01*
X132665546Y-38657049D01*
X132685194Y-38633788D01*
X132726012Y-38585691D01*
X132763289Y-38541758D01*
X132793744Y-38505853D01*
X132814099Y-38481842D01*
X132818728Y-38476374D01*
X132841458Y-38449508D01*
X133003473Y-38481598D01*
X133061299Y-38493345D01*
X133110800Y-38503957D01*
X133147870Y-38512511D01*
X133168405Y-38518083D01*
X133171091Y-38519291D01*
X133177468Y-38529866D01*
X133194117Y-38558653D01*
X133220139Y-38604071D01*
X133254635Y-38664538D01*
X133296706Y-38738473D01*
X133345451Y-38824294D01*
X133399973Y-38920420D01*
X133459372Y-39025268D01*
X133522747Y-39137257D01*
X133577585Y-39234248D01*
X133978475Y-39943602D01*
X134266768Y-40710716D01*
X134314048Y-40836471D01*
X134358985Y-40955898D01*
X134400942Y-41067309D01*
X134439283Y-41169016D01*
X134473370Y-41259334D01*
X134502566Y-41336574D01*
X134526234Y-41399050D01*
X134543736Y-41445073D01*
X134554435Y-41472958D01*
X134557711Y-41481145D01*
X134569207Y-41480284D01*
X134597452Y-41475117D01*
X134637141Y-41466854D01*
X134682975Y-41456705D01*
X134729649Y-41445879D01*
X134771862Y-41435585D01*
X134804311Y-41427033D01*
X134821695Y-41421433D01*
X134823095Y-41420608D01*
X134822601Y-41408574D01*
X134819026Y-41376149D01*
X134812654Y-41325422D01*
X134803767Y-41258479D01*
X134792652Y-41177409D01*
X134779591Y-41084299D01*
X134764870Y-40981238D01*
X134748772Y-40870313D01*
X134740736Y-40815547D01*
X134723296Y-40697396D01*
X134707788Y-40593493D01*
X134693678Y-40501008D01*
X134680431Y-40417109D01*
X134667509Y-40338963D01*
X134654380Y-40263740D01*
X134640506Y-40188608D01*
X134625354Y-40110734D01*
X134608387Y-40027288D01*
X134589071Y-39935438D01*
X134566869Y-39832351D01*
X134541248Y-39715197D01*
X134511670Y-39581144D01*
X134482453Y-39449240D01*
X134453867Y-39320387D01*
X134426630Y-39197801D01*
X134401155Y-39083325D01*
X134377852Y-38978804D01*
X134357136Y-38886084D01*
X134339418Y-38807007D01*
X134325112Y-38743418D01*
X134314628Y-38697162D01*
X134308380Y-38670084D01*
X134306800Y-38663686D01*
X134311675Y-38648494D01*
X134332987Y-38622634D01*
X134371527Y-38585245D01*
X134412550Y-38548829D01*
X134523897Y-38452412D01*
X134650659Y-38444196D01*
X134777422Y-38435981D01*
X134873845Y-38564735D01*
G37*
D10*
%TO.C,H7*%
X122200000Y-30060000D02*
X122200000Y-27840000D01*
X123100000Y-30060000D02*
X122200000Y-30060000D01*
X125900000Y-25810000D02*
X123500000Y-25810000D01*
X127070000Y-30060000D02*
X127200000Y-30060000D01*
X127200000Y-30060000D02*
X126300000Y-30060000D01*
X127200000Y-30060000D02*
X127200000Y-27840000D01*
X126640304Y-30656204D02*
G75*
G02*
X126374172Y-30656204I-133066J0D01*
G01*
X126374172Y-30656204D02*
G75*
G02*
X126640304Y-30656204I133066J0D01*
G01*
%TO.C,H5*%
X109200000Y-30060000D02*
X109200000Y-27840000D01*
X110100000Y-30060000D02*
X109200000Y-30060000D01*
X112900000Y-25810000D02*
X110500000Y-25810000D01*
X114070000Y-30060000D02*
X114200000Y-30060000D01*
X114200000Y-30060000D02*
X113300000Y-30060000D01*
X114200000Y-30060000D02*
X114200000Y-27840000D01*
X113640304Y-30656204D02*
G75*
G02*
X113374172Y-30656204I-133066J0D01*
G01*
X113374172Y-30656204D02*
G75*
G02*
X113640304Y-30656204I133066J0D01*
G01*
%TO.C,H4*%
X102700000Y-30060000D02*
X102700000Y-27840000D01*
X103600000Y-30060000D02*
X102700000Y-30060000D01*
X106400000Y-25810000D02*
X104000000Y-25810000D01*
X107570000Y-30060000D02*
X107700000Y-30060000D01*
X107700000Y-30060000D02*
X106800000Y-30060000D01*
X107700000Y-30060000D02*
X107700000Y-27840000D01*
X107140304Y-30656204D02*
G75*
G02*
X106874172Y-30656204I-133066J0D01*
G01*
X106874172Y-30656204D02*
G75*
G02*
X107140304Y-30656204I133066J0D01*
G01*
%TO.C,H0*%
X102482500Y-54500000D02*
X102482500Y-56900000D01*
X106732500Y-53200000D02*
X104512500Y-53200000D01*
X106732500Y-53200000D02*
X106732500Y-54100000D01*
X106732500Y-53330000D02*
X106732500Y-53200000D01*
X106732500Y-57300000D02*
X106732500Y-58200000D01*
X106732500Y-58200000D02*
X104512500Y-58200000D01*
X107461770Y-53892762D02*
G75*
G02*
X107195638Y-53892762I-133066J0D01*
G01*
X107195638Y-53892762D02*
G75*
G02*
X107461770Y-53892762I133066J0D01*
G01*
%TO.C,H8*%
X128700000Y-30060000D02*
X128700000Y-27840000D01*
X129600000Y-30060000D02*
X128700000Y-30060000D01*
X132400000Y-25810000D02*
X130000000Y-25810000D01*
X133570000Y-30060000D02*
X133700000Y-30060000D01*
X133700000Y-30060000D02*
X132800000Y-30060000D01*
X133700000Y-30060000D02*
X133700000Y-27840000D01*
X133140304Y-30656204D02*
G75*
G02*
X132874172Y-30656204I-133066J0D01*
G01*
X132874172Y-30656204D02*
G75*
G02*
X133140304Y-30656204I133066J0D01*
G01*
D11*
%TO.C,C10*%
X142675000Y-32260000D02*
X142675000Y-31531066D01*
X144725000Y-32275000D02*
X144725000Y-31531066D01*
X142675000Y-31531066D02*
G75*
G02*
X142825000Y-31381070I150000J-4D01*
G01*
X142825000Y-32418934D02*
G75*
G02*
X142674996Y-32268934I-20J149984D01*
G01*
X144575000Y-31381066D02*
G75*
G02*
X144725000Y-31531066I0J-150000D01*
G01*
X144725000Y-32275000D02*
G75*
G02*
X144575000Y-32425000I-150000J0D01*
G01*
D10*
%TO.C,H15*%
X174200000Y-30060000D02*
X174200000Y-27840000D01*
X175100000Y-30060000D02*
X174200000Y-30060000D01*
X177900000Y-25810000D02*
X175500000Y-25810000D01*
X179070000Y-30060000D02*
X179200000Y-30060000D01*
X179200000Y-30060000D02*
X178300000Y-30060000D01*
X179200000Y-30060000D02*
X179200000Y-27840000D01*
X178640304Y-30656204D02*
G75*
G02*
X178374172Y-30656204I-133066J0D01*
G01*
X178374172Y-30656204D02*
G75*
G02*
X178640304Y-30656204I133066J0D01*
G01*
D11*
%TO.C,C16*%
X139775000Y-37820000D02*
X139775000Y-37091066D01*
X141825000Y-37835000D02*
X141825000Y-37091066D01*
X139775000Y-37091066D02*
G75*
G02*
X139925000Y-36941060I150010J-4D01*
G01*
X139925000Y-37978934D02*
G75*
G02*
X139775006Y-37828934I-20J149974D01*
G01*
X141675000Y-36941066D02*
G75*
G02*
X141825000Y-37091066I0J-150000D01*
G01*
X141825000Y-37835000D02*
G75*
G02*
X141675000Y-37985000I-150000J0D01*
G01*
%TO.C,C7*%
X123175000Y-32260000D02*
X123175000Y-31531066D01*
X125225000Y-32275000D02*
X125225000Y-31531066D01*
X123175000Y-31531066D02*
G75*
G02*
X123325000Y-31381070I150000J-4D01*
G01*
X123325000Y-32418934D02*
G75*
G02*
X123174996Y-32268934I-20J149984D01*
G01*
X125075000Y-31381066D02*
G75*
G02*
X125225000Y-31531066I0J-150000D01*
G01*
X125225000Y-32275000D02*
G75*
G02*
X125075000Y-32425000I-150000J0D01*
G01*
%TD*%
%LPC*%
D14*
%TO.C,G\u002A\u002A\u002A*%
G36*
X134137974Y-38143481D02*
G01*
X134168783Y-38153585D01*
X134213686Y-38168906D01*
X134269038Y-38188206D01*
X134320073Y-38206274D01*
X134387705Y-38230586D01*
X134436950Y-38249087D01*
X134470915Y-38263362D01*
X134492707Y-38274995D01*
X134505432Y-38285569D01*
X134512196Y-38296669D01*
X134515078Y-38305715D01*
X134517380Y-38320416D01*
X134522307Y-38356486D01*
X134529709Y-38412732D01*
X134539435Y-38487963D01*
X134551337Y-38580988D01*
X134565264Y-38690616D01*
X134581066Y-38815655D01*
X134598594Y-38954914D01*
X134617696Y-39107201D01*
X134638225Y-39271326D01*
X134660028Y-39446097D01*
X134682957Y-39630322D01*
X134706862Y-39822810D01*
X134731592Y-40022371D01*
X134756998Y-40227812D01*
X134758086Y-40236616D01*
X134783472Y-40441826D01*
X134808174Y-40640935D01*
X134832044Y-40832773D01*
X134854934Y-41016169D01*
X134876696Y-41189954D01*
X134897180Y-41352956D01*
X134916240Y-41504007D01*
X134933725Y-41641936D01*
X134949489Y-41765572D01*
X134963382Y-41873745D01*
X134975257Y-41965286D01*
X134984964Y-42039023D01*
X134992356Y-42093787D01*
X134997283Y-42128408D01*
X134999599Y-42141715D01*
X134999655Y-42141814D01*
X135012269Y-42144076D01*
X135044047Y-42146938D01*
X135091481Y-42150238D01*
X135151061Y-42153816D01*
X135219281Y-42157509D01*
X135292631Y-42161157D01*
X135367604Y-42164597D01*
X135440692Y-42167669D01*
X135508385Y-42170211D01*
X135567177Y-42172061D01*
X135613558Y-42173058D01*
X135644021Y-42173041D01*
X135654991Y-42171972D01*
X135655836Y-42160267D01*
X135657119Y-42127446D01*
X135658804Y-42075116D01*
X135660855Y-42004882D01*
X135663235Y-41918349D01*
X135665908Y-41817123D01*
X135668836Y-41702809D01*
X135671984Y-41577012D01*
X135675315Y-41441338D01*
X135678792Y-41297392D01*
X135682379Y-41146780D01*
X135686038Y-40991108D01*
X135689734Y-40831979D01*
X135693430Y-40671001D01*
X135697089Y-40509778D01*
X135700675Y-40349916D01*
X135704151Y-40193020D01*
X135707480Y-40040696D01*
X135710627Y-39894549D01*
X135713554Y-39756185D01*
X135716224Y-39627208D01*
X135718602Y-39509225D01*
X135720650Y-39403840D01*
X135722333Y-39312660D01*
X135723612Y-39237289D01*
X135724453Y-39179334D01*
X135724818Y-39140399D01*
X135724671Y-39122089D01*
X135724518Y-39120855D01*
X135715055Y-39126774D01*
X135689778Y-39145306D01*
X135650670Y-39174923D01*
X135599715Y-39214101D01*
X135538896Y-39261313D01*
X135470196Y-39315034D01*
X135395599Y-39373738D01*
X135389575Y-39378495D01*
X135314352Y-39437717D01*
X135244655Y-39492239D01*
X135182506Y-39540506D01*
X135129928Y-39580961D01*
X135088944Y-39612049D01*
X135061577Y-39632214D01*
X135049849Y-39639900D01*
X135049673Y-39639931D01*
X135042062Y-39630190D01*
X135026951Y-39603548D01*
X135006174Y-39563827D01*
X134981566Y-39514850D01*
X134954958Y-39460440D01*
X134928187Y-39404419D01*
X134903084Y-39350610D01*
X134881485Y-39302836D01*
X134865223Y-39264920D01*
X134856131Y-39240685D01*
X134854956Y-39234024D01*
X134857845Y-39230083D01*
X134865376Y-39222054D01*
X134878562Y-39209001D01*
X134898415Y-39189984D01*
X134925949Y-39164065D01*
X134962178Y-39130307D01*
X135008113Y-39087771D01*
X135064769Y-39035519D01*
X135133158Y-38972613D01*
X135214294Y-38898114D01*
X135309189Y-38811085D01*
X135418856Y-38710587D01*
X135542089Y-38597717D01*
X135804643Y-38357282D01*
X136019404Y-38425828D01*
X136085815Y-38447334D01*
X136144921Y-38467063D01*
X136193249Y-38483806D01*
X136227323Y-38496357D01*
X136243672Y-38503509D01*
X136244357Y-38504018D01*
X136245816Y-38516740D01*
X136246911Y-38551010D01*
X136247644Y-38605651D01*
X136248019Y-38679486D01*
X136248040Y-38771336D01*
X136247711Y-38880024D01*
X136247034Y-39004372D01*
X136246014Y-39143204D01*
X136244653Y-39295340D01*
X136242956Y-39459603D01*
X136240974Y-39630844D01*
X136238152Y-39858904D01*
X136235455Y-40067273D01*
X136232825Y-40258990D01*
X136230206Y-40437095D01*
X136227541Y-40604624D01*
X136224773Y-40764618D01*
X136221846Y-40920114D01*
X136218702Y-41074151D01*
X136215286Y-41229767D01*
X136211540Y-41390001D01*
X136207408Y-41557892D01*
X136202833Y-41736477D01*
X136198751Y-41891486D01*
X136191011Y-42182598D01*
X136517280Y-42191015D01*
X136601034Y-42193008D01*
X136677169Y-42194499D01*
X136742789Y-42195457D01*
X136795000Y-42195850D01*
X136830907Y-42195649D01*
X136847616Y-42194822D01*
X136848424Y-42194557D01*
X136849913Y-42182457D01*
X136851948Y-42150264D01*
X136854416Y-42100604D01*
X136857200Y-42036102D01*
X136860188Y-41959386D01*
X136863264Y-41873081D01*
X136865804Y-41795975D01*
X136878309Y-41402267D01*
X137188150Y-40705795D01*
X137240608Y-40587580D01*
X137290046Y-40475591D01*
X137335729Y-40371532D01*
X137376920Y-40277109D01*
X137412882Y-40194027D01*
X137442880Y-40123989D01*
X137466178Y-40068701D01*
X137482039Y-40029869D01*
X137489727Y-40009195D01*
X137490256Y-40006190D01*
X137478172Y-40009094D01*
X137446948Y-40018701D01*
X137398908Y-40034239D01*
X137336378Y-40054937D01*
X137261682Y-40080022D01*
X137177145Y-40108724D01*
X137085092Y-40140269D01*
X137052519Y-40151497D01*
X136958463Y-40183682D01*
X136871107Y-40213028D01*
X136792775Y-40238794D01*
X136725793Y-40260240D01*
X136672486Y-40276626D01*
X136635177Y-40287212D01*
X136616192Y-40291257D01*
X136614319Y-40291007D01*
X136605526Y-40275135D01*
X136591608Y-40242723D01*
X136573948Y-40197722D01*
X136553935Y-40144082D01*
X136532952Y-40085755D01*
X136512386Y-40026691D01*
X136493621Y-39970841D01*
X136478044Y-39922155D01*
X136467041Y-39884584D01*
X136461996Y-39862079D01*
X136462291Y-39857529D01*
X136474477Y-39852033D01*
X136506150Y-39839231D01*
X136555518Y-39819812D01*
X136620791Y-39794465D01*
X136700179Y-39763879D01*
X136791891Y-39728744D01*
X136894136Y-39689748D01*
X137005124Y-39647579D01*
X137123064Y-39602928D01*
X137173309Y-39583951D01*
X137873796Y-39319580D01*
X138037023Y-39418631D01*
X138091169Y-39451531D01*
X138138080Y-39480115D01*
X138174502Y-39502396D01*
X138197182Y-39516383D01*
X138203218Y-39520236D01*
X138199340Y-39530841D01*
X138187235Y-39560926D01*
X138167514Y-39609030D01*
X138140784Y-39673693D01*
X138107655Y-39753453D01*
X138068736Y-39846849D01*
X138024636Y-39952420D01*
X137975963Y-40068705D01*
X137923328Y-40194242D01*
X137867339Y-40327570D01*
X137808605Y-40467229D01*
X137797591Y-40493395D01*
X137388996Y-41463999D01*
X137381970Y-41810621D01*
X137380043Y-41898264D01*
X137377973Y-41979444D01*
X137375858Y-42051132D01*
X137373799Y-42110293D01*
X137371896Y-42153898D01*
X137370247Y-42178913D01*
X137369729Y-42182813D01*
X137368464Y-42197669D01*
X137375945Y-42205290D01*
X137397299Y-42208082D01*
X137424396Y-42208452D01*
X137465516Y-42209424D01*
X137518630Y-42211926D01*
X137573096Y-42215443D01*
X137579677Y-42215945D01*
X137675078Y-42223371D01*
X137667769Y-42599434D01*
X137665866Y-42700104D01*
X137663727Y-42817962D01*
X137661447Y-42947471D01*
X137659122Y-43083092D01*
X137656846Y-43219287D01*
X137654714Y-43350519D01*
X137653039Y-43457151D01*
X137645619Y-43938803D01*
X137422890Y-43931349D01*
X137379004Y-43929975D01*
X137314384Y-43928086D01*
X137231020Y-43925736D01*
X137130898Y-43922978D01*
X137016009Y-43919864D01*
X136888340Y-43916449D01*
X136749880Y-43912786D01*
X136602618Y-43908926D01*
X136448542Y-43904924D01*
X136289640Y-43900833D01*
X136127901Y-43896706D01*
X136097789Y-43895941D01*
X135930433Y-43891688D01*
X135761799Y-43887385D01*
X135594295Y-43883093D01*
X135430330Y-43878877D01*
X135272313Y-43874797D01*
X135122654Y-43870917D01*
X134983760Y-43867299D01*
X134858042Y-43864005D01*
X134747908Y-43861098D01*
X134655768Y-43858640D01*
X134586290Y-43856757D01*
X134475394Y-43853721D01*
X134357160Y-43850499D01*
X134237148Y-43847241D01*
X134120919Y-43844098D01*
X134014032Y-43841220D01*
X133922047Y-43838758D01*
X133890205Y-43837911D01*
X133603248Y-43830296D01*
X133601827Y-44814955D01*
X133601582Y-44962694D01*
X133601286Y-45103973D01*
X133600945Y-45237131D01*
X133600567Y-45360509D01*
X133600159Y-45472446D01*
X133599729Y-45571283D01*
X133599282Y-45655361D01*
X133598827Y-45723018D01*
X133598370Y-45772596D01*
X133597918Y-45802434D01*
X133597565Y-45810979D01*
X133597076Y-45823955D01*
X133596574Y-45857821D01*
X133596069Y-45910737D01*
X133595571Y-45980862D01*
X133595088Y-46066358D01*
X133594631Y-46165385D01*
X133594210Y-46276102D01*
X133593833Y-46396670D01*
X133593510Y-46525249D01*
X133593304Y-46629234D01*
X133591883Y-47436124D01*
X133110067Y-47436124D01*
X132628252Y-47436124D01*
X132063235Y-47184688D01*
X131498218Y-46933251D01*
X131451202Y-46947223D01*
X131431867Y-46953144D01*
X131392905Y-46965225D01*
X131336322Y-46982839D01*
X131264127Y-47005356D01*
X131178325Y-47032147D01*
X131080925Y-47062585D01*
X130973933Y-47096040D01*
X130859356Y-47131884D01*
X130739202Y-47169488D01*
X130615477Y-47208224D01*
X130490190Y-47247462D01*
X130365345Y-47286575D01*
X130242952Y-47324933D01*
X130125017Y-47361908D01*
X130013547Y-47396871D01*
X129910549Y-47429193D01*
X129818030Y-47458247D01*
X129737998Y-47483402D01*
X129672460Y-47504032D01*
X129623421Y-47519506D01*
X129592891Y-47529196D01*
X129584392Y-47531939D01*
X129537483Y-47547443D01*
X129411907Y-47369614D01*
X129367821Y-47307203D01*
X129323774Y-47244880D01*
X129283182Y-47187478D01*
X129249467Y-47139833D01*
X129229297Y-47111364D01*
X129172264Y-47030943D01*
X129803465Y-46243993D01*
X129896812Y-46127500D01*
X129985894Y-46016114D01*
X130069706Y-45911102D01*
X130147246Y-45813730D01*
X130217510Y-45725267D01*
X130279494Y-45646979D01*
X130332196Y-45580134D01*
X130374610Y-45525999D01*
X130405735Y-45485841D01*
X130424567Y-45460927D01*
X130430159Y-45452536D01*
X130419044Y-45455772D01*
X130389196Y-45466891D01*
X130342851Y-45485001D01*
X130282242Y-45509205D01*
X130209603Y-45538609D01*
X130127167Y-45572319D01*
X130037169Y-45609439D01*
X130000066Y-45624828D01*
X129906636Y-45663627D01*
X129819034Y-45699981D01*
X129739648Y-45732900D01*
X129670864Y-45761395D01*
X129615072Y-45784478D01*
X129574658Y-45801160D01*
X129552011Y-45810450D01*
X129548727Y-45811772D01*
X129537044Y-45813981D01*
X129522798Y-45810364D01*
X129503117Y-45798983D01*
X129475133Y-45777900D01*
X129435973Y-45745175D01*
X129386781Y-45702392D01*
X129340544Y-45661353D01*
X129300980Y-45625356D01*
X129270992Y-45597114D01*
X129253481Y-45579338D01*
X129250163Y-45574752D01*
X129253328Y-45561259D01*
X129262724Y-45528347D01*
X129277723Y-45478012D01*
X129297693Y-45412255D01*
X129322004Y-45333073D01*
X129350026Y-45242466D01*
X129381128Y-45142431D01*
X129414680Y-45034968D01*
X129450050Y-44922075D01*
X129486610Y-44805750D01*
X129523728Y-44687991D01*
X129560773Y-44570799D01*
X129597116Y-44456170D01*
X129632126Y-44346104D01*
X129665172Y-44242599D01*
X129695623Y-44147653D01*
X129722851Y-44063266D01*
X129746223Y-43991436D01*
X129765110Y-43934160D01*
X129778881Y-43893439D01*
X129786905Y-43871270D01*
X129788676Y-43867700D01*
X129800865Y-43873289D01*
X129829494Y-43888961D01*
X129871572Y-43913000D01*
X129924111Y-43943691D01*
X129984122Y-43979318D01*
X130006030Y-43992451D01*
X130213751Y-44117280D01*
X130049965Y-44618988D01*
X130016796Y-44720914D01*
X129986039Y-44816057D01*
X129958371Y-44902274D01*
X129934471Y-44977423D01*
X129915015Y-45039363D01*
X129900683Y-45085952D01*
X129892151Y-45115047D01*
X129890002Y-45124519D01*
X129900906Y-45120997D01*
X129930578Y-45109388D01*
X129976897Y-45090572D01*
X130037744Y-45065428D01*
X130111002Y-45034836D01*
X130194549Y-44999675D01*
X130286268Y-44960825D01*
X130358445Y-44930093D01*
X130823065Y-44731844D01*
X131082373Y-44926093D01*
X131149072Y-44976399D01*
X131209416Y-45022569D01*
X131261111Y-45062793D01*
X131301862Y-45095264D01*
X131329374Y-45118173D01*
X131341351Y-45129710D01*
X131341682Y-45130470D01*
X131334732Y-45140593D01*
X131314527Y-45167222D01*
X131282036Y-45209132D01*
X131238227Y-45265099D01*
X131184067Y-45333898D01*
X131120526Y-45414306D01*
X131048570Y-45505098D01*
X130969168Y-45605050D01*
X130883289Y-45712938D01*
X130791899Y-45827538D01*
X130695968Y-45947625D01*
X130653894Y-46000230D01*
X130556431Y-46122137D01*
X130463168Y-46238970D01*
X130375065Y-46349516D01*
X130293083Y-46452563D01*
X130218182Y-46546898D01*
X130151322Y-46631306D01*
X130093464Y-46704577D01*
X130045567Y-46765495D01*
X130008592Y-46812849D01*
X129983499Y-46845425D01*
X129971249Y-46862011D01*
X129970171Y-46863928D01*
X129981323Y-46861031D01*
X130012266Y-46851354D01*
X130061288Y-46835469D01*
X130126671Y-46813947D01*
X130206701Y-46787359D01*
X130299662Y-46756277D01*
X130403840Y-46721273D01*
X130517519Y-46682918D01*
X130638984Y-46641783D01*
X130742674Y-46606556D01*
X130869560Y-46563455D01*
X130990314Y-46522573D01*
X131103187Y-46484491D01*
X131206433Y-46449794D01*
X131298305Y-46419063D01*
X131377055Y-46392883D01*
X131440937Y-46371835D01*
X131488203Y-46356504D01*
X131517107Y-46347472D01*
X131525837Y-46345174D01*
X131538728Y-46349726D01*
X131570368Y-46362786D01*
X131618799Y-46383497D01*
X131682060Y-46411000D01*
X131758193Y-46444435D01*
X131845237Y-46482945D01*
X131941234Y-46525671D01*
X132044224Y-46571754D01*
X132096417Y-46595196D01*
X132652271Y-46845162D01*
X132836735Y-46845162D01*
X133021199Y-46845162D01*
X133027931Y-46734357D01*
X133028641Y-46711883D01*
X133029396Y-46667841D01*
X133030187Y-46603389D01*
X133031009Y-46519688D01*
X133031855Y-46417898D01*
X133032718Y-46299178D01*
X133033593Y-46164690D01*
X133034473Y-46015593D01*
X133035350Y-45853046D01*
X133036219Y-45678211D01*
X133037074Y-45492247D01*
X133037907Y-45296314D01*
X133038712Y-45091572D01*
X133039483Y-44879181D01*
X133040213Y-44660302D01*
X133040896Y-44436093D01*
X133041011Y-44396080D01*
X133041680Y-44172157D01*
X133042391Y-43953986D01*
X133043139Y-43742679D01*
X133043918Y-43539352D01*
X133044721Y-43345120D01*
X133045543Y-43161097D01*
X133046376Y-42988398D01*
X133047215Y-42828138D01*
X133048054Y-42681430D01*
X133048887Y-42549391D01*
X133049707Y-42433134D01*
X133050508Y-42333775D01*
X133051285Y-42252427D01*
X133052030Y-42190207D01*
X133052738Y-42148227D01*
X133053403Y-42127604D01*
X133053550Y-42125990D01*
X133059742Y-42083373D01*
X133173606Y-42083373D01*
X133225988Y-42082873D01*
X133259168Y-42081018D01*
X133276657Y-42077268D01*
X133281968Y-42071086D01*
X133281153Y-42066913D01*
X133276552Y-42054343D01*
X133264679Y-42021710D01*
X133246009Y-41970325D01*
X133221016Y-41901493D01*
X133190176Y-41816522D01*
X133153961Y-41716720D01*
X133112846Y-41603395D01*
X133067307Y-41477854D01*
X133017816Y-41341404D01*
X132964849Y-41195353D01*
X132908880Y-41041009D01*
X132850384Y-40879679D01*
X132795655Y-40728725D01*
X132735314Y-40562338D01*
X132677078Y-40401850D01*
X132621418Y-40248559D01*
X132568809Y-40103765D01*
X132519723Y-39968766D01*
X132474633Y-39844862D01*
X132434013Y-39733351D01*
X132398336Y-39635532D01*
X132368075Y-39552705D01*
X132343702Y-39486167D01*
X132325692Y-39437218D01*
X132314516Y-39407157D01*
X132310684Y-39397309D01*
X132304186Y-39404358D01*
X132288817Y-39429164D01*
X132265979Y-39469212D01*
X132237077Y-39521983D01*
X132203513Y-39584961D01*
X132167070Y-39654892D01*
X132130069Y-39726297D01*
X132096306Y-39790795D01*
X132067215Y-39845698D01*
X132044228Y-39888323D01*
X132028780Y-39915983D01*
X132022369Y-39925967D01*
X132010953Y-39921172D01*
X131984821Y-39905227D01*
X131947449Y-39880606D01*
X131902318Y-39849779D01*
X131852905Y-39815219D01*
X131802689Y-39779399D01*
X131755149Y-39744789D01*
X131713763Y-39713863D01*
X131682009Y-39689093D01*
X131663367Y-39672950D01*
X131659919Y-39668384D01*
X131664029Y-39656047D01*
X131675974Y-39624572D01*
X131694992Y-39575863D01*
X131720327Y-39511823D01*
X131751219Y-39434357D01*
X131786909Y-39345368D01*
X131826638Y-39246762D01*
X131869648Y-39140442D01*
X131905608Y-39051851D01*
X131958314Y-38922386D01*
X132003269Y-38812473D01*
X132041166Y-38720559D01*
X132072698Y-38645092D01*
X132098556Y-38584522D01*
X132119433Y-38537296D01*
X132136023Y-38501863D01*
X132149016Y-38476672D01*
X132159106Y-38460169D01*
X132166986Y-38450804D01*
X132173348Y-38447025D01*
X132175662Y-38446730D01*
X132199380Y-38447804D01*
X132238471Y-38450677D01*
X132288416Y-38454906D01*
X132344697Y-38460051D01*
X132402796Y-38465669D01*
X132458195Y-38471318D01*
X132506376Y-38476558D01*
X132542821Y-38480946D01*
X132563013Y-38484041D01*
X132565552Y-38484842D01*
X132569768Y-38495917D01*
X132581091Y-38527337D01*
X132599131Y-38577991D01*
X132623497Y-38646769D01*
X132653799Y-38732558D01*
X132689646Y-38834249D01*
X132730648Y-38950729D01*
X132776412Y-39080887D01*
X132826550Y-39223613D01*
X132880670Y-39377795D01*
X132938381Y-39542321D01*
X132999293Y-39716081D01*
X133063015Y-39897963D01*
X133129157Y-40086857D01*
X133197327Y-40281650D01*
X133202018Y-40295057D01*
X133270277Y-40490152D01*
X133336496Y-40679393D01*
X133400288Y-40861673D01*
X133461263Y-41035882D01*
X133519034Y-41200911D01*
X133573212Y-41355652D01*
X133623409Y-41498996D01*
X133669236Y-41629834D01*
X133710305Y-41747057D01*
X133746227Y-41849557D01*
X133776615Y-41936224D01*
X133801080Y-42005951D01*
X133819233Y-42057628D01*
X133830687Y-42090147D01*
X133835052Y-42102399D01*
X133835083Y-42102469D01*
X133846347Y-42103326D01*
X133877315Y-42104679D01*
X133924969Y-42106422D01*
X133986293Y-42108452D01*
X134058268Y-42110662D01*
X134129018Y-42112701D01*
X134219643Y-42115075D01*
X134289972Y-42116469D01*
X134342418Y-42116822D01*
X134379398Y-42116068D01*
X134403324Y-42114144D01*
X134416612Y-42110987D01*
X134421676Y-42106532D01*
X134421951Y-42104969D01*
X134420852Y-42090030D01*
X134417441Y-42054300D01*
X134411891Y-41999358D01*
X134404376Y-41926780D01*
X134395066Y-41838142D01*
X134384135Y-41735021D01*
X134371754Y-41618995D01*
X134358097Y-41491640D01*
X134343334Y-41354533D01*
X134327640Y-41209251D01*
X134311185Y-41057370D01*
X134294143Y-40900467D01*
X134276686Y-40740120D01*
X134258986Y-40577904D01*
X134241215Y-40415397D01*
X134223546Y-40254176D01*
X134206151Y-40095816D01*
X134189202Y-39941897D01*
X134172872Y-39793992D01*
X134157333Y-39653681D01*
X134142758Y-39522540D01*
X134129319Y-39402144D01*
X134117187Y-39294072D01*
X134106537Y-39199900D01*
X134097538Y-39121204D01*
X134090366Y-39059563D01*
X134085190Y-39016551D01*
X134082185Y-38993747D01*
X134081538Y-38990400D01*
X134071545Y-38995571D01*
X134046460Y-39013797D01*
X134008455Y-39043347D01*
X133959702Y-39082493D01*
X133902373Y-39129504D01*
X133838640Y-39182652D01*
X133813494Y-39203844D01*
X133743155Y-39263258D01*
X133674310Y-39321348D01*
X133610034Y-39375524D01*
X133553404Y-39423196D01*
X133507495Y-39461772D01*
X133475382Y-39488662D01*
X133471817Y-39491635D01*
X133391527Y-39558513D01*
X133286573Y-39360790D01*
X133181619Y-39163067D01*
X133648896Y-38651452D01*
X133732174Y-38560426D01*
X133810983Y-38474578D01*
X133883982Y-38395353D01*
X133949827Y-38324193D01*
X134007177Y-38262541D01*
X134054689Y-38211840D01*
X134091020Y-38173533D01*
X134114828Y-38149063D01*
X134124771Y-38139872D01*
X134124904Y-38139838D01*
X134137974Y-38143481D01*
G37*
%TD*%
D15*
%TO.C,C11*%
X150700000Y-31900000D03*
X149700000Y-31900000D03*
%TD*%
%TO.C,C14*%
X170200000Y-31900000D03*
X169200000Y-31900000D03*
%TD*%
%TO.C,C15*%
X176700000Y-31900000D03*
X175700000Y-31900000D03*
%TD*%
D16*
%TO.C,H13*%
X164700000Y-30380000D03*
X163700000Y-30380000D03*
X162700000Y-30380000D03*
D17*
X161400000Y-26500000D03*
X166000000Y-26500000D03*
%TD*%
D18*
%TO.C,REF\u002A\u002A*%
X114050000Y-34550000D03*
%TD*%
D16*
%TO.C,H9*%
X138700000Y-30380000D03*
X137700000Y-30380000D03*
X136700000Y-30380000D03*
D17*
X135400000Y-26500000D03*
X140000000Y-26500000D03*
%TD*%
D16*
%TO.C,H14*%
X171200000Y-30380000D03*
X170200000Y-30380000D03*
X169200000Y-30380000D03*
D17*
X167900000Y-26500000D03*
X172500000Y-26500000D03*
%TD*%
D19*
%TO.C,H2*%
X107040000Y-41700000D03*
X107040000Y-42700000D03*
X107040000Y-43700000D03*
D20*
X103160000Y-45000000D03*
X103160000Y-40400000D03*
%TD*%
D15*
%TO.C,C3*%
X108600000Y-36200000D03*
X108600000Y-37200000D03*
%TD*%
%TO.C,C5*%
X111700000Y-31900000D03*
X110700000Y-31900000D03*
%TD*%
D19*
%TO.C,H3*%
X107040000Y-35200000D03*
X107040000Y-36200000D03*
X107040000Y-37200000D03*
D20*
X103160000Y-38500000D03*
X103160000Y-33900000D03*
%TD*%
D15*
%TO.C,C0*%
X108600000Y-55700000D03*
X108600000Y-56700000D03*
%TD*%
D21*
%TO.C,U3*%
X153550000Y-53700000D03*
X149850000Y-53700000D03*
%TD*%
D18*
%TO.C,REF\u002A\u002A*%
X178050000Y-57050000D03*
%TD*%
D15*
%TO.C,C9*%
X137700000Y-31900000D03*
X136700000Y-31900000D03*
%TD*%
%TO.C,C4*%
X105200000Y-31900000D03*
X104200000Y-31900000D03*
%TD*%
D16*
%TO.C,H10*%
X145200000Y-30380000D03*
X144200000Y-30380000D03*
X143200000Y-30380000D03*
D17*
X141900000Y-26500000D03*
X146500000Y-26500000D03*
%TD*%
D16*
%TO.C,H12*%
X158200000Y-30380000D03*
X157200000Y-30380000D03*
X156200000Y-30380000D03*
D17*
X154900000Y-26500000D03*
X159500000Y-26500000D03*
%TD*%
D18*
%TO.C,REF\u002A\u002A*%
X114050000Y-57050000D03*
%TD*%
D15*
%TO.C,C12*%
X157200000Y-31900000D03*
X156200000Y-31900000D03*
%TD*%
D19*
%TO.C,H1*%
X107040000Y-48200000D03*
X107040000Y-49200000D03*
X107040000Y-50200000D03*
D20*
X103160000Y-51500000D03*
X103160000Y-46900000D03*
%TD*%
D15*
%TO.C,C8*%
X131200000Y-31900000D03*
X130200000Y-31900000D03*
%TD*%
%TO.C,C1*%
X108600000Y-49200000D03*
X108600000Y-50200000D03*
%TD*%
D22*
%TO.C,U1*%
X176134400Y-37765800D03*
D23*
X176150000Y-38150000D03*
D22*
X173594400Y-37765800D03*
D23*
X173610000Y-38150000D03*
D22*
X171054400Y-37765800D03*
D23*
X171070000Y-38150000D03*
D22*
X168514400Y-37765800D03*
D23*
X168530000Y-38150000D03*
D22*
X165974400Y-37765800D03*
D23*
X165990000Y-38150000D03*
D22*
X163434400Y-37765800D03*
D23*
X163450000Y-38150000D03*
D22*
X160894400Y-37765800D03*
D23*
X160910000Y-38150000D03*
X160910000Y-53542400D03*
D22*
X160894400Y-53930800D03*
D23*
X163450000Y-53542400D03*
D22*
X163434400Y-53930800D03*
D23*
X165990000Y-53542400D03*
D22*
X165974400Y-53930800D03*
D23*
X168530000Y-53542400D03*
D22*
X168514400Y-53930800D03*
D23*
X171070000Y-53542400D03*
D22*
X171054400Y-53930800D03*
D23*
X173610000Y-53542400D03*
D22*
X173594400Y-53930800D03*
D23*
X176150000Y-53542400D03*
D22*
X176134400Y-53930800D03*
%TD*%
D15*
%TO.C,C2*%
X108600000Y-42700000D03*
X108600000Y-43700000D03*
%TD*%
%TO.C,C13*%
X163700000Y-31900000D03*
X162700000Y-31900000D03*
%TD*%
%TO.C,C6*%
X118200000Y-31900000D03*
X117200000Y-31900000D03*
%TD*%
D16*
%TO.C,H11*%
X151700000Y-30380000D03*
X150700000Y-30380000D03*
X149700000Y-30380000D03*
D17*
X148400000Y-26500000D03*
X153000000Y-26500000D03*
%TD*%
D24*
%TO.C,U2*%
X142460000Y-46940000D03*
X143730000Y-46940000D03*
X145000000Y-46940000D03*
X146270000Y-46940000D03*
X147540000Y-46940000D03*
X148820000Y-46940000D03*
X150080000Y-46940000D03*
X151350000Y-46940000D03*
X152620000Y-46940000D03*
X153890000Y-46940000D03*
X155160000Y-46940000D03*
X156440000Y-46940000D03*
X156440000Y-37460000D03*
X155160000Y-37460000D03*
X153890000Y-37460000D03*
X152620000Y-37460000D03*
X151350000Y-37460000D03*
X150080000Y-37460000D03*
X148820000Y-37460000D03*
X147540000Y-37460000D03*
X146270000Y-37460000D03*
X145000000Y-37460000D03*
X143730000Y-37460000D03*
X142460000Y-37460000D03*
%TD*%
D16*
%TO.C,H6*%
X119200000Y-30380000D03*
X118200000Y-30380000D03*
X117200000Y-30380000D03*
D17*
X115900000Y-26500000D03*
X120500000Y-26500000D03*
%TD*%
D16*
%TO.C,H7*%
X125700000Y-30380000D03*
X124700000Y-30380000D03*
X123700000Y-30380000D03*
D17*
X122400000Y-26500000D03*
X127000000Y-26500000D03*
%TD*%
D16*
%TO.C,H5*%
X112700000Y-30380000D03*
X111700000Y-30380000D03*
X110700000Y-30380000D03*
D17*
X109400000Y-26500000D03*
X114000000Y-26500000D03*
%TD*%
D16*
%TO.C,H4*%
X106200000Y-30380000D03*
X105200000Y-30380000D03*
X104200000Y-30380000D03*
D17*
X102900000Y-26500000D03*
X107500000Y-26500000D03*
%TD*%
D19*
%TO.C,H0*%
X107052500Y-54700000D03*
X107052500Y-55700000D03*
X107052500Y-56700000D03*
D20*
X103172500Y-58000000D03*
X103172500Y-53400000D03*
%TD*%
D16*
%TO.C,H8*%
X132200000Y-30380000D03*
X131200000Y-30380000D03*
X130200000Y-30380000D03*
D17*
X128900000Y-26500000D03*
X133500000Y-26500000D03*
%TD*%
D15*
%TO.C,C10*%
X144200000Y-31900000D03*
X143200000Y-31900000D03*
%TD*%
D16*
%TO.C,H15*%
X177700000Y-30380000D03*
X176700000Y-30380000D03*
X175700000Y-30380000D03*
D17*
X174400000Y-26500000D03*
X179000000Y-26500000D03*
%TD*%
D15*
%TO.C,C16*%
X141300000Y-37460000D03*
X140300000Y-37460000D03*
%TD*%
%TO.C,C7*%
X124700000Y-31900000D03*
X123700000Y-31900000D03*
%TD*%
D18*
%TO.C,REF\u002A\u002A*%
X178050000Y-34550000D03*
%TD*%
%LPD*%
M02*
