%TF.GenerationSoftware,KiCad,Pcbnew,8.0.1*%
%TF.CreationDate,2025-02-03T01:20:01-05:00*%
%TF.ProjectId,glove-v3.1,676c6f76-652d-4763-932e-312e6b696361,rev?*%
%TF.SameCoordinates,Original*%
%TF.FileFunction,Paste,Top*%
%TF.FilePolarity,Positive*%
%FSLAX46Y46*%
G04 Gerber Fmt 4.6, Leading zero omitted, Abs format (unit mm)*
G04 Created by KiCad (PCBNEW 8.0.1) date 2025-02-03 01:20:01*
%MOMM*%
%LPD*%
G01*
G04 APERTURE LIST*
G04 Aperture macros list*
%AMRoundRect*
0 Rectangle with rounded corners*
0 $1 Rounding radius*
0 $2 $3 $4 $5 $6 $7 $8 $9 X,Y pos of 4 corners*
0 Add a 4 corners polygon primitive as box body*
4,1,4,$2,$3,$4,$5,$6,$7,$8,$9,$2,$3,0*
0 Add four circle primitives for the rounded corners*
1,1,$1+$1,$2,$3*
1,1,$1+$1,$4,$5*
1,1,$1+$1,$6,$7*
1,1,$1+$1,$8,$9*
0 Add four rect primitives between the rounded corners*
20,1,$1+$1,$2,$3,$4,$5,0*
20,1,$1+$1,$4,$5,$6,$7,0*
20,1,$1+$1,$6,$7,$8,$9,0*
20,1,$1+$1,$8,$9,$2,$3,0*%
G04 Aperture macros list end*
%ADD10C,0.000000*%
%ADD11RoundRect,1.000000X-0.000010X0.375000X-0.000010X-0.375000X0.000010X-0.375000X0.000010X0.375000X0*%
%ADD12R,0.600000X0.600000*%
%ADD13R,0.600000X1.550000*%
%ADD14R,1.500000X2.000000*%
%ADD15R,1.550000X0.600000*%
%ADD16R,2.000000X1.500000*%
%ADD17R,1.000000X1.800000*%
%ADD18O,0.570000X2.390000*%
G04 APERTURE END LIST*
D10*
%TO.C,G\u002A\u002A\u002A*%
G36*
X134137939Y-38143479D02*
G01*
X134168748Y-38153583D01*
X134213651Y-38168904D01*
X134269003Y-38188204D01*
X134320038Y-38206272D01*
X134387670Y-38230584D01*
X134436915Y-38249085D01*
X134470880Y-38263360D01*
X134492672Y-38274993D01*
X134505397Y-38285567D01*
X134512161Y-38296667D01*
X134515043Y-38305713D01*
X134517345Y-38320414D01*
X134522272Y-38356484D01*
X134529674Y-38412730D01*
X134539400Y-38487961D01*
X134551302Y-38580986D01*
X134565229Y-38690614D01*
X134581031Y-38815653D01*
X134598559Y-38954912D01*
X134617661Y-39107199D01*
X134638190Y-39271324D01*
X134659993Y-39446095D01*
X134682922Y-39630320D01*
X134706827Y-39822808D01*
X134731557Y-40022369D01*
X134756963Y-40227810D01*
X134758051Y-40236614D01*
X134783437Y-40441824D01*
X134808139Y-40640933D01*
X134832009Y-40832771D01*
X134854899Y-41016167D01*
X134876661Y-41189952D01*
X134897145Y-41352954D01*
X134916205Y-41504005D01*
X134933690Y-41641934D01*
X134949454Y-41765570D01*
X134963347Y-41873743D01*
X134975222Y-41965284D01*
X134984929Y-42039021D01*
X134992321Y-42093785D01*
X134997248Y-42128406D01*
X134999564Y-42141713D01*
X134999620Y-42141812D01*
X135012234Y-42144074D01*
X135044012Y-42146936D01*
X135091446Y-42150236D01*
X135151026Y-42153814D01*
X135219246Y-42157507D01*
X135292596Y-42161155D01*
X135367569Y-42164595D01*
X135440657Y-42167667D01*
X135508350Y-42170209D01*
X135567142Y-42172059D01*
X135613523Y-42173056D01*
X135643986Y-42173039D01*
X135654956Y-42171970D01*
X135655801Y-42160265D01*
X135657084Y-42127444D01*
X135658769Y-42075114D01*
X135660820Y-42004880D01*
X135663200Y-41918347D01*
X135665873Y-41817121D01*
X135668801Y-41702807D01*
X135671949Y-41577010D01*
X135675280Y-41441336D01*
X135678757Y-41297390D01*
X135682344Y-41146778D01*
X135686003Y-40991106D01*
X135689699Y-40831977D01*
X135693395Y-40670999D01*
X135697054Y-40509776D01*
X135700640Y-40349914D01*
X135704116Y-40193018D01*
X135707445Y-40040694D01*
X135710592Y-39894547D01*
X135713519Y-39756183D01*
X135716189Y-39627206D01*
X135718567Y-39509223D01*
X135720615Y-39403838D01*
X135722298Y-39312658D01*
X135723577Y-39237287D01*
X135724418Y-39179332D01*
X135724783Y-39140397D01*
X135724636Y-39122087D01*
X135724483Y-39120853D01*
X135715020Y-39126772D01*
X135689743Y-39145304D01*
X135650635Y-39174921D01*
X135599680Y-39214099D01*
X135538861Y-39261311D01*
X135470161Y-39315032D01*
X135395564Y-39373736D01*
X135389540Y-39378493D01*
X135314317Y-39437715D01*
X135244620Y-39492237D01*
X135182471Y-39540504D01*
X135129893Y-39580959D01*
X135088909Y-39612047D01*
X135061542Y-39632212D01*
X135049814Y-39639898D01*
X135049638Y-39639929D01*
X135042027Y-39630188D01*
X135026916Y-39603546D01*
X135006139Y-39563825D01*
X134981531Y-39514848D01*
X134954923Y-39460438D01*
X134928152Y-39404417D01*
X134903049Y-39350608D01*
X134881450Y-39302834D01*
X134865188Y-39264918D01*
X134856096Y-39240683D01*
X134854921Y-39234022D01*
X134857810Y-39230081D01*
X134865341Y-39222052D01*
X134878527Y-39208999D01*
X134898380Y-39189982D01*
X134925914Y-39164063D01*
X134962143Y-39130305D01*
X135008078Y-39087769D01*
X135064734Y-39035517D01*
X135133123Y-38972611D01*
X135214259Y-38898112D01*
X135309154Y-38811083D01*
X135418821Y-38710585D01*
X135542054Y-38597715D01*
X135804608Y-38357280D01*
X136019369Y-38425826D01*
X136085780Y-38447332D01*
X136144886Y-38467061D01*
X136193214Y-38483804D01*
X136227288Y-38496355D01*
X136243637Y-38503507D01*
X136244322Y-38504016D01*
X136245781Y-38516738D01*
X136246876Y-38551008D01*
X136247609Y-38605649D01*
X136247984Y-38679484D01*
X136248005Y-38771334D01*
X136247676Y-38880022D01*
X136246999Y-39004370D01*
X136245979Y-39143202D01*
X136244618Y-39295338D01*
X136242921Y-39459601D01*
X136240939Y-39630842D01*
X136238117Y-39858902D01*
X136235420Y-40067271D01*
X136232790Y-40258988D01*
X136230171Y-40437093D01*
X136227506Y-40604622D01*
X136224738Y-40764616D01*
X136221811Y-40920112D01*
X136218667Y-41074149D01*
X136215251Y-41229765D01*
X136211505Y-41389999D01*
X136207373Y-41557890D01*
X136202798Y-41736475D01*
X136198716Y-41891484D01*
X136190976Y-42182596D01*
X136517245Y-42191013D01*
X136600999Y-42193006D01*
X136677134Y-42194497D01*
X136742754Y-42195455D01*
X136794965Y-42195848D01*
X136830872Y-42195647D01*
X136847581Y-42194820D01*
X136848389Y-42194555D01*
X136849878Y-42182455D01*
X136851913Y-42150262D01*
X136854381Y-42100602D01*
X136857165Y-42036100D01*
X136860153Y-41959384D01*
X136863229Y-41873079D01*
X136865769Y-41795973D01*
X136878274Y-41402265D01*
X137188115Y-40705793D01*
X137240573Y-40587578D01*
X137290011Y-40475589D01*
X137335694Y-40371530D01*
X137376885Y-40277107D01*
X137412847Y-40194025D01*
X137442845Y-40123987D01*
X137466143Y-40068699D01*
X137482004Y-40029867D01*
X137489692Y-40009193D01*
X137490221Y-40006188D01*
X137478137Y-40009092D01*
X137446913Y-40018699D01*
X137398873Y-40034237D01*
X137336343Y-40054935D01*
X137261647Y-40080020D01*
X137177110Y-40108722D01*
X137085057Y-40140267D01*
X137052484Y-40151495D01*
X136958428Y-40183680D01*
X136871072Y-40213026D01*
X136792740Y-40238792D01*
X136725758Y-40260238D01*
X136672451Y-40276624D01*
X136635142Y-40287210D01*
X136616157Y-40291255D01*
X136614284Y-40291005D01*
X136605491Y-40275133D01*
X136591573Y-40242721D01*
X136573913Y-40197720D01*
X136553900Y-40144080D01*
X136532917Y-40085753D01*
X136512351Y-40026689D01*
X136493586Y-39970839D01*
X136478009Y-39922153D01*
X136467006Y-39884582D01*
X136461961Y-39862077D01*
X136462256Y-39857527D01*
X136474442Y-39852031D01*
X136506115Y-39839229D01*
X136555483Y-39819810D01*
X136620756Y-39794463D01*
X136700144Y-39763877D01*
X136791856Y-39728742D01*
X136894101Y-39689746D01*
X137005089Y-39647577D01*
X137123029Y-39602926D01*
X137173274Y-39583949D01*
X137873761Y-39319578D01*
X138036988Y-39418629D01*
X138091134Y-39451529D01*
X138138045Y-39480113D01*
X138174467Y-39502394D01*
X138197147Y-39516381D01*
X138203183Y-39520234D01*
X138199305Y-39530839D01*
X138187200Y-39560924D01*
X138167479Y-39609028D01*
X138140749Y-39673691D01*
X138107620Y-39753451D01*
X138068701Y-39846847D01*
X138024601Y-39952418D01*
X137975928Y-40068703D01*
X137923293Y-40194240D01*
X137867304Y-40327568D01*
X137808570Y-40467227D01*
X137797556Y-40493393D01*
X137388961Y-41463997D01*
X137381935Y-41810619D01*
X137380008Y-41898262D01*
X137377938Y-41979442D01*
X137375823Y-42051130D01*
X137373764Y-42110291D01*
X137371861Y-42153896D01*
X137370212Y-42178911D01*
X137369694Y-42182811D01*
X137368429Y-42197667D01*
X137375910Y-42205288D01*
X137397264Y-42208080D01*
X137424361Y-42208450D01*
X137465481Y-42209422D01*
X137518595Y-42211924D01*
X137573061Y-42215441D01*
X137579642Y-42215943D01*
X137675043Y-42223369D01*
X137667734Y-42599432D01*
X137665831Y-42700102D01*
X137663692Y-42817960D01*
X137661412Y-42947469D01*
X137659087Y-43083090D01*
X137656811Y-43219285D01*
X137654679Y-43350517D01*
X137653004Y-43457149D01*
X137645584Y-43938801D01*
X137422855Y-43931347D01*
X137378969Y-43929973D01*
X137314349Y-43928084D01*
X137230985Y-43925734D01*
X137130863Y-43922976D01*
X137015974Y-43919862D01*
X136888305Y-43916447D01*
X136749845Y-43912784D01*
X136602583Y-43908924D01*
X136448507Y-43904922D01*
X136289605Y-43900831D01*
X136127866Y-43896704D01*
X136097754Y-43895939D01*
X135930398Y-43891686D01*
X135761764Y-43887383D01*
X135594260Y-43883091D01*
X135430295Y-43878875D01*
X135272278Y-43874795D01*
X135122619Y-43870915D01*
X134983725Y-43867297D01*
X134858007Y-43864003D01*
X134747873Y-43861096D01*
X134655733Y-43858638D01*
X134586255Y-43856755D01*
X134475359Y-43853719D01*
X134357125Y-43850497D01*
X134237113Y-43847239D01*
X134120884Y-43844096D01*
X134013997Y-43841218D01*
X133922012Y-43838756D01*
X133890170Y-43837909D01*
X133603213Y-43830294D01*
X133601792Y-44814953D01*
X133601547Y-44962692D01*
X133601251Y-45103971D01*
X133600910Y-45237129D01*
X133600532Y-45360507D01*
X133600124Y-45472444D01*
X133599694Y-45571281D01*
X133599247Y-45655359D01*
X133598792Y-45723016D01*
X133598335Y-45772594D01*
X133597883Y-45802432D01*
X133597530Y-45810977D01*
X133597041Y-45823953D01*
X133596539Y-45857819D01*
X133596034Y-45910735D01*
X133595536Y-45980860D01*
X133595053Y-46066356D01*
X133594596Y-46165383D01*
X133594175Y-46276100D01*
X133593798Y-46396668D01*
X133593475Y-46525247D01*
X133593269Y-46629232D01*
X133591848Y-47436122D01*
X133110032Y-47436122D01*
X132628217Y-47436122D01*
X132063200Y-47184686D01*
X131498183Y-46933249D01*
X131451167Y-46947221D01*
X131431832Y-46953142D01*
X131392870Y-46965223D01*
X131336287Y-46982837D01*
X131264092Y-47005354D01*
X131178290Y-47032145D01*
X131080890Y-47062583D01*
X130973898Y-47096038D01*
X130859321Y-47131882D01*
X130739167Y-47169486D01*
X130615442Y-47208222D01*
X130490155Y-47247460D01*
X130365310Y-47286573D01*
X130242917Y-47324931D01*
X130124982Y-47361906D01*
X130013512Y-47396869D01*
X129910514Y-47429191D01*
X129817995Y-47458245D01*
X129737963Y-47483400D01*
X129672425Y-47504030D01*
X129623386Y-47519504D01*
X129592856Y-47529194D01*
X129584357Y-47531937D01*
X129537448Y-47547441D01*
X129411872Y-47369612D01*
X129367786Y-47307201D01*
X129323739Y-47244878D01*
X129283147Y-47187476D01*
X129249432Y-47139831D01*
X129229262Y-47111362D01*
X129172229Y-47030941D01*
X129803430Y-46243991D01*
X129896777Y-46127498D01*
X129985859Y-46016112D01*
X130069671Y-45911100D01*
X130147211Y-45813728D01*
X130217475Y-45725265D01*
X130279459Y-45646977D01*
X130332161Y-45580132D01*
X130374575Y-45525997D01*
X130405700Y-45485839D01*
X130424532Y-45460925D01*
X130430124Y-45452534D01*
X130419009Y-45455770D01*
X130389161Y-45466889D01*
X130342816Y-45484999D01*
X130282207Y-45509203D01*
X130209568Y-45538607D01*
X130127132Y-45572317D01*
X130037134Y-45609437D01*
X130000031Y-45624826D01*
X129906601Y-45663625D01*
X129818999Y-45699979D01*
X129739613Y-45732898D01*
X129670829Y-45761393D01*
X129615037Y-45784476D01*
X129574623Y-45801158D01*
X129551976Y-45810448D01*
X129548692Y-45811770D01*
X129537009Y-45813979D01*
X129522763Y-45810362D01*
X129503082Y-45798981D01*
X129475098Y-45777898D01*
X129435938Y-45745173D01*
X129386746Y-45702390D01*
X129340509Y-45661351D01*
X129300945Y-45625354D01*
X129270957Y-45597112D01*
X129253446Y-45579336D01*
X129250128Y-45574750D01*
X129253293Y-45561257D01*
X129262689Y-45528345D01*
X129277688Y-45478010D01*
X129297658Y-45412253D01*
X129321969Y-45333071D01*
X129349991Y-45242464D01*
X129381093Y-45142429D01*
X129414645Y-45034966D01*
X129450015Y-44922073D01*
X129486575Y-44805748D01*
X129523693Y-44687989D01*
X129560738Y-44570797D01*
X129597081Y-44456168D01*
X129632091Y-44346102D01*
X129665137Y-44242597D01*
X129695588Y-44147651D01*
X129722816Y-44063264D01*
X129746188Y-43991434D01*
X129765075Y-43934158D01*
X129778846Y-43893437D01*
X129786870Y-43871268D01*
X129788641Y-43867698D01*
X129800830Y-43873287D01*
X129829459Y-43888959D01*
X129871537Y-43912998D01*
X129924076Y-43943689D01*
X129984087Y-43979316D01*
X130005995Y-43992449D01*
X130213716Y-44117278D01*
X130049930Y-44618986D01*
X130016761Y-44720912D01*
X129986004Y-44816055D01*
X129958336Y-44902272D01*
X129934436Y-44977421D01*
X129914980Y-45039361D01*
X129900648Y-45085950D01*
X129892116Y-45115045D01*
X129889967Y-45124517D01*
X129900871Y-45120995D01*
X129930543Y-45109386D01*
X129976862Y-45090570D01*
X130037709Y-45065426D01*
X130110967Y-45034834D01*
X130194514Y-44999673D01*
X130286233Y-44960823D01*
X130358410Y-44930091D01*
X130823030Y-44731842D01*
X131082338Y-44926091D01*
X131149037Y-44976397D01*
X131209381Y-45022567D01*
X131261076Y-45062791D01*
X131301827Y-45095262D01*
X131329339Y-45118171D01*
X131341316Y-45129708D01*
X131341647Y-45130468D01*
X131334697Y-45140591D01*
X131314492Y-45167220D01*
X131282001Y-45209130D01*
X131238192Y-45265097D01*
X131184032Y-45333896D01*
X131120491Y-45414304D01*
X131048535Y-45505096D01*
X130969133Y-45605048D01*
X130883254Y-45712936D01*
X130791864Y-45827536D01*
X130695933Y-45947623D01*
X130653859Y-46000228D01*
X130556396Y-46122135D01*
X130463133Y-46238968D01*
X130375030Y-46349514D01*
X130293048Y-46452561D01*
X130218147Y-46546896D01*
X130151287Y-46631304D01*
X130093429Y-46704575D01*
X130045532Y-46765493D01*
X130008557Y-46812847D01*
X129983464Y-46845423D01*
X129971214Y-46862009D01*
X129970136Y-46863926D01*
X129981288Y-46861029D01*
X130012231Y-46851352D01*
X130061253Y-46835467D01*
X130126636Y-46813945D01*
X130206666Y-46787357D01*
X130299627Y-46756275D01*
X130403805Y-46721271D01*
X130517484Y-46682916D01*
X130638949Y-46641781D01*
X130742639Y-46606554D01*
X130869525Y-46563453D01*
X130990279Y-46522571D01*
X131103152Y-46484489D01*
X131206398Y-46449792D01*
X131298270Y-46419061D01*
X131377020Y-46392881D01*
X131440902Y-46371833D01*
X131488168Y-46356502D01*
X131517072Y-46347470D01*
X131525802Y-46345172D01*
X131538693Y-46349724D01*
X131570333Y-46362784D01*
X131618764Y-46383495D01*
X131682025Y-46410998D01*
X131758158Y-46444433D01*
X131845202Y-46482943D01*
X131941199Y-46525669D01*
X132044189Y-46571752D01*
X132096382Y-46595194D01*
X132652236Y-46845160D01*
X132836700Y-46845160D01*
X133021164Y-46845160D01*
X133027896Y-46734355D01*
X133028606Y-46711881D01*
X133029361Y-46667839D01*
X133030152Y-46603387D01*
X133030974Y-46519686D01*
X133031820Y-46417896D01*
X133032683Y-46299176D01*
X133033558Y-46164688D01*
X133034438Y-46015591D01*
X133035315Y-45853044D01*
X133036184Y-45678209D01*
X133037039Y-45492245D01*
X133037872Y-45296312D01*
X133038677Y-45091570D01*
X133039448Y-44879179D01*
X133040178Y-44660300D01*
X133040861Y-44436091D01*
X133040976Y-44396078D01*
X133041645Y-44172155D01*
X133042356Y-43953984D01*
X133043104Y-43742677D01*
X133043883Y-43539350D01*
X133044686Y-43345118D01*
X133045508Y-43161095D01*
X133046341Y-42988396D01*
X133047180Y-42828136D01*
X133048019Y-42681428D01*
X133048852Y-42549389D01*
X133049672Y-42433132D01*
X133050473Y-42333773D01*
X133051250Y-42252425D01*
X133051995Y-42190205D01*
X133052703Y-42148225D01*
X133053368Y-42127602D01*
X133053515Y-42125988D01*
X133059707Y-42083371D01*
X133173571Y-42083371D01*
X133225953Y-42082871D01*
X133259133Y-42081016D01*
X133276622Y-42077266D01*
X133281933Y-42071084D01*
X133281118Y-42066911D01*
X133276517Y-42054341D01*
X133264644Y-42021708D01*
X133245974Y-41970323D01*
X133220981Y-41901491D01*
X133190141Y-41816520D01*
X133153926Y-41716718D01*
X133112811Y-41603393D01*
X133067272Y-41477852D01*
X133017781Y-41341402D01*
X132964814Y-41195351D01*
X132908845Y-41041007D01*
X132850349Y-40879677D01*
X132795620Y-40728723D01*
X132735279Y-40562336D01*
X132677043Y-40401848D01*
X132621383Y-40248557D01*
X132568774Y-40103763D01*
X132519688Y-39968764D01*
X132474598Y-39844860D01*
X132433978Y-39733349D01*
X132398301Y-39635530D01*
X132368040Y-39552703D01*
X132343667Y-39486165D01*
X132325657Y-39437216D01*
X132314481Y-39407155D01*
X132310649Y-39397307D01*
X132304151Y-39404356D01*
X132288782Y-39429162D01*
X132265944Y-39469210D01*
X132237042Y-39521981D01*
X132203478Y-39584959D01*
X132167035Y-39654890D01*
X132130034Y-39726295D01*
X132096271Y-39790793D01*
X132067180Y-39845696D01*
X132044193Y-39888321D01*
X132028745Y-39915981D01*
X132022334Y-39925965D01*
X132010918Y-39921170D01*
X131984786Y-39905225D01*
X131947414Y-39880604D01*
X131902283Y-39849777D01*
X131852870Y-39815217D01*
X131802654Y-39779397D01*
X131755114Y-39744787D01*
X131713728Y-39713861D01*
X131681974Y-39689091D01*
X131663332Y-39672948D01*
X131659884Y-39668382D01*
X131663994Y-39656045D01*
X131675939Y-39624570D01*
X131694957Y-39575861D01*
X131720292Y-39511821D01*
X131751184Y-39434355D01*
X131786874Y-39345366D01*
X131826603Y-39246760D01*
X131869613Y-39140440D01*
X131905573Y-39051849D01*
X131958279Y-38922384D01*
X132003234Y-38812471D01*
X132041131Y-38720557D01*
X132072663Y-38645090D01*
X132098521Y-38584520D01*
X132119398Y-38537294D01*
X132135988Y-38501861D01*
X132148981Y-38476670D01*
X132159071Y-38460167D01*
X132166951Y-38450802D01*
X132173313Y-38447023D01*
X132175627Y-38446728D01*
X132199345Y-38447802D01*
X132238436Y-38450675D01*
X132288381Y-38454904D01*
X132344662Y-38460049D01*
X132402761Y-38465667D01*
X132458160Y-38471316D01*
X132506341Y-38476556D01*
X132542786Y-38480944D01*
X132562978Y-38484039D01*
X132565517Y-38484840D01*
X132569733Y-38495915D01*
X132581056Y-38527335D01*
X132599096Y-38577989D01*
X132623462Y-38646767D01*
X132653764Y-38732556D01*
X132689611Y-38834247D01*
X132730613Y-38950727D01*
X132776377Y-39080885D01*
X132826515Y-39223611D01*
X132880635Y-39377793D01*
X132938346Y-39542319D01*
X132999258Y-39716079D01*
X133062980Y-39897961D01*
X133129122Y-40086855D01*
X133197292Y-40281648D01*
X133201983Y-40295055D01*
X133270242Y-40490150D01*
X133336461Y-40679391D01*
X133400253Y-40861671D01*
X133461228Y-41035880D01*
X133518999Y-41200909D01*
X133573177Y-41355650D01*
X133623374Y-41498994D01*
X133669201Y-41629832D01*
X133710270Y-41747055D01*
X133746192Y-41849555D01*
X133776580Y-41936222D01*
X133801045Y-42005949D01*
X133819198Y-42057626D01*
X133830652Y-42090145D01*
X133835017Y-42102397D01*
X133835048Y-42102467D01*
X133846312Y-42103324D01*
X133877280Y-42104677D01*
X133924934Y-42106420D01*
X133986258Y-42108450D01*
X134058233Y-42110660D01*
X134128983Y-42112699D01*
X134219608Y-42115073D01*
X134289937Y-42116467D01*
X134342383Y-42116820D01*
X134379363Y-42116066D01*
X134403289Y-42114142D01*
X134416577Y-42110985D01*
X134421641Y-42106530D01*
X134421916Y-42104967D01*
X134420817Y-42090028D01*
X134417406Y-42054298D01*
X134411856Y-41999356D01*
X134404341Y-41926778D01*
X134395031Y-41838140D01*
X134384100Y-41735019D01*
X134371719Y-41618993D01*
X134358062Y-41491638D01*
X134343299Y-41354531D01*
X134327605Y-41209249D01*
X134311150Y-41057368D01*
X134294108Y-40900465D01*
X134276651Y-40740118D01*
X134258951Y-40577902D01*
X134241180Y-40415395D01*
X134223511Y-40254174D01*
X134206116Y-40095814D01*
X134189167Y-39941895D01*
X134172837Y-39793990D01*
X134157298Y-39653679D01*
X134142723Y-39522538D01*
X134129284Y-39402142D01*
X134117152Y-39294070D01*
X134106502Y-39199898D01*
X134097503Y-39121202D01*
X134090331Y-39059561D01*
X134085155Y-39016549D01*
X134082150Y-38993745D01*
X134081503Y-38990398D01*
X134071510Y-38995569D01*
X134046425Y-39013795D01*
X134008420Y-39043345D01*
X133959667Y-39082491D01*
X133902338Y-39129502D01*
X133838605Y-39182650D01*
X133813459Y-39203842D01*
X133743120Y-39263256D01*
X133674275Y-39321346D01*
X133609999Y-39375522D01*
X133553369Y-39423194D01*
X133507460Y-39461770D01*
X133475347Y-39488660D01*
X133471782Y-39491633D01*
X133391492Y-39558511D01*
X133286538Y-39360788D01*
X133181584Y-39163065D01*
X133648861Y-38651450D01*
X133732139Y-38560424D01*
X133810948Y-38474576D01*
X133883947Y-38395351D01*
X133949792Y-38324191D01*
X134007142Y-38262539D01*
X134054654Y-38211838D01*
X134090985Y-38173531D01*
X134114793Y-38149061D01*
X134124736Y-38139870D01*
X134124869Y-38139836D01*
X134137939Y-38143479D01*
G37*
%TD*%
D11*
%TO.C,U1*%
X176134400Y-37765800D03*
X173594400Y-37765800D03*
X171054400Y-37765800D03*
X168514400Y-37765800D03*
X165974400Y-37765800D03*
X163434400Y-37765800D03*
X160894400Y-37765800D03*
X160894400Y-53930800D03*
X163434400Y-53930800D03*
X165974400Y-53930800D03*
X168514400Y-53930800D03*
X171054400Y-53930800D03*
X173594400Y-53930800D03*
X176134400Y-53930800D03*
%TD*%
D12*
%TO.C,C16*%
X141650000Y-37450000D03*
X140650000Y-37450000D03*
%TD*%
%TO.C,C11*%
X150700000Y-31900000D03*
X149700000Y-31900000D03*
%TD*%
%TO.C,C14*%
X170200000Y-31900000D03*
X169200000Y-31900000D03*
%TD*%
%TO.C,C15*%
X176700000Y-31900000D03*
X175700000Y-31900000D03*
%TD*%
D13*
%TO.C,H13*%
X164700000Y-30380000D03*
X163700000Y-30380000D03*
X162700000Y-30380000D03*
D14*
X161400000Y-26500000D03*
X166000000Y-26500000D03*
%TD*%
D13*
%TO.C,H9*%
X138700000Y-30380000D03*
X137700000Y-30380000D03*
X136700000Y-30380000D03*
D14*
X135400000Y-26500000D03*
X140000000Y-26500000D03*
%TD*%
D13*
%TO.C,H14*%
X171200000Y-30380000D03*
X170200000Y-30380000D03*
X169200000Y-30380000D03*
D14*
X167900000Y-26500000D03*
X172500000Y-26500000D03*
%TD*%
D15*
%TO.C,H2*%
X107040000Y-41700000D03*
X107040000Y-42700000D03*
X107040000Y-43700000D03*
D16*
X103160000Y-45000000D03*
X103160000Y-40400000D03*
%TD*%
D12*
%TO.C,C3*%
X108600000Y-36200000D03*
X108600000Y-37200000D03*
%TD*%
%TO.C,C5*%
X111700000Y-31900000D03*
X110700000Y-31900000D03*
%TD*%
D15*
%TO.C,H3*%
X107040000Y-35200000D03*
X107040000Y-36200000D03*
X107040000Y-37200000D03*
D16*
X103160000Y-38500000D03*
X103160000Y-33900000D03*
%TD*%
D12*
%TO.C,C0*%
X108600000Y-55700000D03*
X108600000Y-56700000D03*
%TD*%
D17*
%TO.C,U3*%
X153550000Y-53700000D03*
X149850000Y-53700000D03*
%TD*%
D12*
%TO.C,C9*%
X137700000Y-31900000D03*
X136700000Y-31900000D03*
%TD*%
%TO.C,C4*%
X105200000Y-31900000D03*
X104200000Y-31900000D03*
%TD*%
D13*
%TO.C,H10*%
X145200000Y-30380000D03*
X144200000Y-30380000D03*
X143200000Y-30380000D03*
D14*
X141900000Y-26500000D03*
X146500000Y-26500000D03*
%TD*%
D13*
%TO.C,H12*%
X158200000Y-30380000D03*
X157200000Y-30380000D03*
X156200000Y-30380000D03*
D14*
X154900000Y-26500000D03*
X159500000Y-26500000D03*
%TD*%
D12*
%TO.C,C12*%
X157200000Y-31900000D03*
X156200000Y-31900000D03*
%TD*%
D15*
%TO.C,H1*%
X107040000Y-48200000D03*
X107040000Y-49200000D03*
X107040000Y-50200000D03*
D16*
X103160000Y-51500000D03*
X103160000Y-46900000D03*
%TD*%
D12*
%TO.C,C8*%
X131200000Y-31900000D03*
X130200000Y-31900000D03*
%TD*%
%TO.C,C1*%
X108600000Y-49200000D03*
X108600000Y-50200000D03*
%TD*%
%TO.C,C2*%
X108600000Y-42700000D03*
X108600000Y-43700000D03*
%TD*%
%TO.C,C13*%
X163700000Y-31900000D03*
X162700000Y-31900000D03*
%TD*%
%TO.C,C6*%
X118200000Y-31900000D03*
X117200000Y-31900000D03*
%TD*%
D13*
%TO.C,H11*%
X151700000Y-30380000D03*
X150700000Y-30380000D03*
X149700000Y-30380000D03*
D14*
X148400000Y-26500000D03*
X153000000Y-26500000D03*
%TD*%
D18*
%TO.C,U2*%
X142810000Y-46930000D03*
X144080000Y-46930000D03*
X145350000Y-46930000D03*
X146620000Y-46930000D03*
X147890000Y-46930000D03*
X149170000Y-46930000D03*
X150430000Y-46930000D03*
X151700000Y-46930000D03*
X152970000Y-46930000D03*
X154240000Y-46930000D03*
X155510000Y-46930000D03*
X156790000Y-46930000D03*
X156790000Y-37450000D03*
X155510000Y-37450000D03*
X154240000Y-37450000D03*
X152970000Y-37450000D03*
X151700000Y-37450000D03*
X150430000Y-37450000D03*
X149170000Y-37450000D03*
X147890000Y-37450000D03*
X146620000Y-37450000D03*
X145350000Y-37450000D03*
X144080000Y-37450000D03*
X142810000Y-37450000D03*
%TD*%
D13*
%TO.C,H6*%
X119200000Y-30380000D03*
X118200000Y-30380000D03*
X117200000Y-30380000D03*
D14*
X115900000Y-26500000D03*
X120500000Y-26500000D03*
%TD*%
D13*
%TO.C,H7*%
X125700000Y-30380000D03*
X124700000Y-30380000D03*
X123700000Y-30380000D03*
D14*
X122400000Y-26500000D03*
X127000000Y-26500000D03*
%TD*%
D13*
%TO.C,H5*%
X112700000Y-30380000D03*
X111700000Y-30380000D03*
X110700000Y-30380000D03*
D14*
X109400000Y-26500000D03*
X114000000Y-26500000D03*
%TD*%
D13*
%TO.C,H4*%
X106200000Y-30380000D03*
X105200000Y-30380000D03*
X104200000Y-30380000D03*
D14*
X102900000Y-26500000D03*
X107500000Y-26500000D03*
%TD*%
D15*
%TO.C,H0*%
X107052500Y-54700000D03*
X107052500Y-55700000D03*
X107052500Y-56700000D03*
D16*
X103172500Y-58000000D03*
X103172500Y-53400000D03*
%TD*%
D13*
%TO.C,H8*%
X132200000Y-30380000D03*
X131200000Y-30380000D03*
X130200000Y-30380000D03*
D14*
X128900000Y-26500000D03*
X133500000Y-26500000D03*
%TD*%
D12*
%TO.C,C10*%
X144200000Y-31900000D03*
X143200000Y-31900000D03*
%TD*%
D13*
%TO.C,H15*%
X177700000Y-30380000D03*
X176700000Y-30380000D03*
X175700000Y-30380000D03*
D14*
X174400000Y-26500000D03*
X179000000Y-26500000D03*
%TD*%
D12*
%TO.C,C7*%
X124700000Y-31900000D03*
X123700000Y-31900000D03*
%TD*%
M02*
