%TF.GenerationSoftware,KiCad,Pcbnew,8.0.1*%
%TF.CreationDate,2025-01-13T07:12:32-05:00*%
%TF.ProjectId,glove-v3,676c6f76-652d-4763-932e-6b696361645f,rev?*%
%TF.SameCoordinates,Original*%
%TF.FileFunction,Copper,L1,Top*%
%TF.FilePolarity,Positive*%
%FSLAX46Y46*%
G04 Gerber Fmt 4.6, Leading zero omitted, Abs format (unit mm)*
G04 Created by KiCad (PCBNEW 8.0.1) date 2025-01-13 07:12:32*
%MOMM*%
%LPD*%
G01*
G04 APERTURE LIST*
G04 Aperture macros list*
%AMRoundRect*
0 Rectangle with rounded corners*
0 $1 Rounding radius*
0 $2 $3 $4 $5 $6 $7 $8 $9 X,Y pos of 4 corners*
0 Add a 4 corners polygon primitive as box body*
4,1,4,$2,$3,$4,$5,$6,$7,$8,$9,$2,$3,0*
0 Add four circle primitives for the rounded corners*
1,1,$1+$1,$2,$3*
1,1,$1+$1,$4,$5*
1,1,$1+$1,$6,$7*
1,1,$1+$1,$8,$9*
0 Add four rect primitives between the rounded corners*
20,1,$1+$1,$2,$3,$4,$5,0*
20,1,$1+$1,$4,$5,$6,$7,0*
20,1,$1+$1,$6,$7,$8,$9,0*
20,1,$1+$1,$8,$9,$2,$3,0*%
G04 Aperture macros list end*
%TA.AperFunction,ComponentPad*%
%ADD10C,3.800000*%
%TD*%
%TA.AperFunction,SMDPad,CuDef*%
%ADD11RoundRect,1.000000X-0.000010X0.375000X-0.000010X-0.375000X0.000010X-0.375000X0.000010X0.375000X0*%
%TD*%
%TA.AperFunction,ComponentPad*%
%ADD12C,1.524000*%
%TD*%
%TA.AperFunction,SMDPad,CuDef*%
%ADD13R,1.000000X1.800000*%
%TD*%
%TA.AperFunction,SMDPad,CuDef*%
%ADD14R,0.600000X0.600000*%
%TD*%
%TA.AperFunction,SMDPad,CuDef*%
%ADD15O,0.570000X2.390000*%
%TD*%
%TA.AperFunction,SMDPad,CuDef*%
%ADD16R,0.600000X1.550000*%
%TD*%
%TA.AperFunction,SMDPad,CuDef*%
%ADD17R,1.500000X2.000000*%
%TD*%
%TA.AperFunction,SMDPad,CuDef*%
%ADD18R,1.550000X0.600000*%
%TD*%
%TA.AperFunction,SMDPad,CuDef*%
%ADD19R,2.000000X1.500000*%
%TD*%
%TA.AperFunction,ViaPad*%
%ADD20C,0.450000*%
%TD*%
%TA.AperFunction,Conductor*%
%ADD21C,0.200000*%
%TD*%
G04 APERTURE END LIST*
D10*
%TO.P,REF\u002A\u002A,1*%
%TO.N,N/C*%
X114050000Y-34550000D03*
%TD*%
D11*
%TO.P,U1,1,PA02_A0_D0*%
%TO.N,unconnected-(U1-PA02_A0_D0-Pad1)*%
X176134400Y-37765800D03*
D12*
X176150000Y-38150000D03*
D11*
%TO.P,U1,2,PA4_A1_D1*%
%TO.N,unconnected-(U1-PA4_A1_D1-Pad2)*%
X173594400Y-37765800D03*
D12*
X173610000Y-38150000D03*
D11*
%TO.P,U1,3,PA10_A2_D2*%
%TO.N,/MUX_OUT*%
X171054400Y-37765800D03*
D12*
X171070000Y-38150000D03*
D11*
%TO.P,U1,4,PA11_A3_D3*%
%TO.N,unconnected-(U1-PA11_A3_D3-Pad4)*%
X168514400Y-37765800D03*
D12*
X168530000Y-38150000D03*
D11*
%TO.P,U1,5,PA8_A4_D4_SDA*%
%TO.N,/S2*%
X165974400Y-37765800D03*
D12*
X165990000Y-38150000D03*
D11*
%TO.P,U1,6,PA9_A5_D5_SCL*%
%TO.N,/S3*%
X163434400Y-37765800D03*
D12*
X163450000Y-38150000D03*
D11*
%TO.P,U1,7,PB08_A6_D6_TX*%
%TO.N,unconnected-(U1-PB08_A6_D6_TX-Pad7)*%
X160894400Y-37765800D03*
D12*
X160910000Y-38150000D03*
%TO.P,U1,8,PB09_A7_D7_RX*%
%TO.N,unconnected-(U1-PB09_A7_D7_RX-Pad8)*%
X160910000Y-53542400D03*
D11*
X160894400Y-53930800D03*
D12*
%TO.P,U1,9,PA7_A8_D8_SCK*%
%TO.N,Net-(U1-PA7_A8_D8_SCK)*%
X163450000Y-53542400D03*
D11*
X163434400Y-53930800D03*
D12*
%TO.P,U1,10,PA5_A9_D9_MISO*%
%TO.N,/S1*%
X165990000Y-53542400D03*
D11*
X165974400Y-53930800D03*
D12*
%TO.P,U1,11,PA6_A10_D10_MOSI*%
%TO.N,/S0*%
X168530000Y-53542400D03*
D11*
X168514400Y-53930800D03*
D12*
%TO.P,U1,12,3V3*%
%TO.N,+3V3*%
X171070000Y-53542400D03*
D11*
X171054400Y-53930800D03*
D12*
%TO.P,U1,13,GND*%
%TO.N,GND*%
X173610000Y-53542400D03*
D11*
X173594400Y-53930800D03*
D12*
%TO.P,U1,14,5V*%
%TO.N,unconnected-(U1-5V-Pad14)*%
X176150000Y-53542400D03*
D11*
X176134400Y-53930800D03*
%TD*%
D13*
%TO.P,U3,1*%
%TO.N,Net-(U1-PA7_A8_D8_SCK)*%
X153050000Y-53450000D03*
%TO.P,U3,2*%
%TO.N,GND*%
X149350000Y-53450000D03*
%TD*%
D14*
%TO.P,C16,1*%
%TO.N,+3V3*%
X139650000Y-38550000D03*
%TO.P,C16,2*%
%TO.N,GND*%
X138650000Y-38550000D03*
%TD*%
D10*
%TO.P,REF\u002A\u002A,1*%
%TO.N,N/C*%
X114050000Y-57050000D03*
%TD*%
D15*
%TO.P,U2,1,COMMONINPUT/OUTPUT*%
%TO.N,/MUX_OUT*%
X140810000Y-48040000D03*
%TO.P,U2,2,I7*%
%TO.N,/HALL_7*%
X142080000Y-48040000D03*
%TO.P,U2,3,I6*%
%TO.N,/HALL_6*%
X143350000Y-48040000D03*
%TO.P,U2,4,I5*%
%TO.N,/HALL_5*%
X144620000Y-48040000D03*
%TO.P,U2,5,I4*%
%TO.N,/HALL_4*%
X145890000Y-48040000D03*
%TO.P,U2,6,I3*%
%TO.N,/HALL_3*%
X147170000Y-48040000D03*
%TO.P,U2,7,I2*%
%TO.N,/HALL_2*%
X148430000Y-48040000D03*
%TO.P,U2,8,I1*%
%TO.N,/HALL_1*%
X149700000Y-48040000D03*
%TO.P,U2,9,I0*%
%TO.N,/HALL_0*%
X150970000Y-48040000D03*
%TO.P,U2,10,S0*%
%TO.N,/S0*%
X152240000Y-48040000D03*
%TO.P,U2,11,S1*%
%TO.N,/S1*%
X153510000Y-48040000D03*
%TO.P,U2,12,GND*%
%TO.N,GND*%
X154790000Y-48040000D03*
%TO.P,U2,13,S3*%
%TO.N,/S3*%
X154790000Y-38560000D03*
%TO.P,U2,14,S2*%
%TO.N,/S2*%
X153510000Y-38560000D03*
%TO.P,U2,15,~{E}*%
%TO.N,GND*%
X152240000Y-38560000D03*
%TO.P,U2,16,I15*%
%TO.N,/HALL_15*%
X150970000Y-38560000D03*
%TO.P,U2,17,I14*%
%TO.N,/HALL_14*%
X149700000Y-38560000D03*
%TO.P,U2,18,I13*%
%TO.N,/HALL_13*%
X148430000Y-38560000D03*
%TO.P,U2,19,I12*%
%TO.N,/HALL_12*%
X147170000Y-38560000D03*
%TO.P,U2,20,I11*%
%TO.N,/HALL_11*%
X145890000Y-38560000D03*
%TO.P,U2,21,I10*%
%TO.N,/HALL_10*%
X144620000Y-38560000D03*
%TO.P,U2,22,I9*%
%TO.N,/HALL_9*%
X143350000Y-38560000D03*
%TO.P,U2,23,I8*%
%TO.N,/HALL_8*%
X142080000Y-38560000D03*
%TO.P,U2,24,VCC*%
%TO.N,+3V3*%
X140810000Y-38560000D03*
%TD*%
D10*
%TO.P,REF\u002A\u002A,1*%
%TO.N,N/C*%
X178050000Y-57050000D03*
%TD*%
%TO.P,REF\u002A\u002A,1*%
%TO.N,N/C*%
X178050000Y-34550000D03*
%TD*%
D14*
%TO.P,C11,1*%
%TO.N,GND*%
X150700000Y-31900000D03*
%TO.P,C11,2*%
%TO.N,+3V3*%
X149700000Y-31900000D03*
%TD*%
%TO.P,C14,1*%
%TO.N,GND*%
X170200000Y-31900000D03*
%TO.P,C14,2*%
%TO.N,+3V3*%
X169200000Y-31900000D03*
%TD*%
%TO.P,C15,1*%
%TO.N,GND*%
X176700000Y-31900000D03*
%TO.P,C15,2*%
%TO.N,+3V3*%
X175700000Y-31900000D03*
%TD*%
D16*
%TO.P,H13,1,1*%
%TO.N,/HALL_13*%
X164700000Y-30380000D03*
%TO.P,H13,2,2*%
%TO.N,GND*%
X163700000Y-30380000D03*
%TO.P,H13,3,3*%
%TO.N,+3V3*%
X162700000Y-30380000D03*
D17*
%TO.P,H13,4*%
%TO.N,N/C*%
X161400000Y-26500000D03*
%TO.P,H13,5*%
X166000000Y-26500000D03*
%TD*%
D16*
%TO.P,H9,1,1*%
%TO.N,/HALL_9*%
X138700000Y-30380000D03*
%TO.P,H9,2,2*%
%TO.N,GND*%
X137700000Y-30380000D03*
%TO.P,H9,3,3*%
%TO.N,+3V3*%
X136700000Y-30380000D03*
D17*
%TO.P,H9,4*%
%TO.N,N/C*%
X135400000Y-26500000D03*
%TO.P,H9,5*%
X140000000Y-26500000D03*
%TD*%
D16*
%TO.P,H14,1,1*%
%TO.N,/HALL_14*%
X171200000Y-30380000D03*
%TO.P,H14,2,2*%
%TO.N,GND*%
X170200000Y-30380000D03*
%TO.P,H14,3,3*%
%TO.N,+3V3*%
X169200000Y-30380000D03*
D17*
%TO.P,H14,4*%
%TO.N,N/C*%
X167900000Y-26500000D03*
%TO.P,H14,5*%
X172500000Y-26500000D03*
%TD*%
D18*
%TO.P,H2,1,1*%
%TO.N,/HALL_2*%
X107040000Y-41700000D03*
%TO.P,H2,2,2*%
%TO.N,GND*%
X107040000Y-42700000D03*
%TO.P,H2,3,3*%
%TO.N,+3V3*%
X107040000Y-43700000D03*
D19*
%TO.P,H2,4*%
%TO.N,N/C*%
X103160000Y-45000000D03*
%TO.P,H2,5*%
X103160000Y-40400000D03*
%TD*%
D14*
%TO.P,C3,1*%
%TO.N,GND*%
X108600000Y-36200000D03*
%TO.P,C3,2*%
%TO.N,+3V3*%
X108600000Y-37200000D03*
%TD*%
%TO.P,C5,1*%
%TO.N,GND*%
X111700000Y-31900000D03*
%TO.P,C5,2*%
%TO.N,+3V3*%
X110700000Y-31900000D03*
%TD*%
D18*
%TO.P,H3,1,1*%
%TO.N,/HALL_3*%
X107040000Y-35200000D03*
%TO.P,H3,2,2*%
%TO.N,GND*%
X107040000Y-36200000D03*
%TO.P,H3,3,3*%
%TO.N,+3V3*%
X107040000Y-37200000D03*
D19*
%TO.P,H3,4*%
%TO.N,N/C*%
X103160000Y-38500000D03*
%TO.P,H3,5*%
X103160000Y-33900000D03*
%TD*%
D14*
%TO.P,C0,1*%
%TO.N,GND*%
X108600000Y-55700000D03*
%TO.P,C0,2*%
%TO.N,+3V3*%
X108600000Y-56700000D03*
%TD*%
%TO.P,C9,1*%
%TO.N,GND*%
X137700000Y-31900000D03*
%TO.P,C9,2*%
%TO.N,+3V3*%
X136700000Y-31900000D03*
%TD*%
%TO.P,C4,1*%
%TO.N,GND*%
X105200000Y-31900000D03*
%TO.P,C4,2*%
%TO.N,+3V3*%
X104200000Y-31900000D03*
%TD*%
D16*
%TO.P,H10,1,1*%
%TO.N,/HALL_10*%
X145200000Y-30380000D03*
%TO.P,H10,2,2*%
%TO.N,GND*%
X144200000Y-30380000D03*
%TO.P,H10,3,3*%
%TO.N,+3V3*%
X143200000Y-30380000D03*
D17*
%TO.P,H10,4*%
%TO.N,N/C*%
X141900000Y-26500000D03*
%TO.P,H10,5*%
X146500000Y-26500000D03*
%TD*%
D16*
%TO.P,H12,1,1*%
%TO.N,/HALL_12*%
X158200000Y-30380000D03*
%TO.P,H12,2,2*%
%TO.N,GND*%
X157200000Y-30380000D03*
%TO.P,H12,3,3*%
%TO.N,+3V3*%
X156200000Y-30380000D03*
D17*
%TO.P,H12,4*%
%TO.N,N/C*%
X154900000Y-26500000D03*
%TO.P,H12,5*%
X159500000Y-26500000D03*
%TD*%
D14*
%TO.P,C12,1*%
%TO.N,GND*%
X157200000Y-31900000D03*
%TO.P,C12,2*%
%TO.N,+3V3*%
X156200000Y-31900000D03*
%TD*%
D18*
%TO.P,H1,1,1*%
%TO.N,/HALL_1*%
X107040000Y-48200000D03*
%TO.P,H1,2,2*%
%TO.N,GND*%
X107040000Y-49200000D03*
%TO.P,H1,3,3*%
%TO.N,+3V3*%
X107040000Y-50200000D03*
D19*
%TO.P,H1,4*%
%TO.N,N/C*%
X103160000Y-51500000D03*
%TO.P,H1,5*%
X103160000Y-46900000D03*
%TD*%
D14*
%TO.P,C8,1*%
%TO.N,GND*%
X131200000Y-31900000D03*
%TO.P,C8,2*%
%TO.N,+3V3*%
X130200000Y-31900000D03*
%TD*%
%TO.P,C1,1*%
%TO.N,GND*%
X108600000Y-49200000D03*
%TO.P,C1,2*%
%TO.N,+3V3*%
X108600000Y-50200000D03*
%TD*%
%TO.P,C2,1*%
%TO.N,GND*%
X108600000Y-42700000D03*
%TO.P,C2,2*%
%TO.N,+3V3*%
X108600000Y-43700000D03*
%TD*%
%TO.P,C13,1*%
%TO.N,GND*%
X163700000Y-31900000D03*
%TO.P,C13,2*%
%TO.N,+3V3*%
X162700000Y-31900000D03*
%TD*%
%TO.P,C6,1*%
%TO.N,GND*%
X118200000Y-31900000D03*
%TO.P,C6,2*%
%TO.N,+3V3*%
X117200000Y-31900000D03*
%TD*%
D16*
%TO.P,H11,1,1*%
%TO.N,/HALL_11*%
X151700000Y-30380000D03*
%TO.P,H11,2,2*%
%TO.N,GND*%
X150700000Y-30380000D03*
%TO.P,H11,3,3*%
%TO.N,+3V3*%
X149700000Y-30380000D03*
D17*
%TO.P,H11,4*%
%TO.N,N/C*%
X148400000Y-26500000D03*
%TO.P,H11,5*%
X153000000Y-26500000D03*
%TD*%
D16*
%TO.P,H6,1,1*%
%TO.N,/HALL_6*%
X119200000Y-30380000D03*
%TO.P,H6,2,2*%
%TO.N,GND*%
X118200000Y-30380000D03*
%TO.P,H6,3,3*%
%TO.N,+3V3*%
X117200000Y-30380000D03*
D17*
%TO.P,H6,4*%
%TO.N,N/C*%
X115900000Y-26500000D03*
%TO.P,H6,5*%
X120500000Y-26500000D03*
%TD*%
D16*
%TO.P,H7,1,1*%
%TO.N,/HALL_7*%
X125700000Y-30380000D03*
%TO.P,H7,2,2*%
%TO.N,GND*%
X124700000Y-30380000D03*
%TO.P,H7,3,3*%
%TO.N,+3V3*%
X123700000Y-30380000D03*
D17*
%TO.P,H7,4*%
%TO.N,N/C*%
X122400000Y-26500000D03*
%TO.P,H7,5*%
X127000000Y-26500000D03*
%TD*%
D16*
%TO.P,H5,1,1*%
%TO.N,/HALL_5*%
X112700000Y-30380000D03*
%TO.P,H5,2,2*%
%TO.N,GND*%
X111700000Y-30380000D03*
%TO.P,H5,3,3*%
%TO.N,+3V3*%
X110700000Y-30380000D03*
D17*
%TO.P,H5,4*%
%TO.N,N/C*%
X109400000Y-26500000D03*
%TO.P,H5,5*%
X114000000Y-26500000D03*
%TD*%
D16*
%TO.P,H4,1,1*%
%TO.N,/HALL_4*%
X106200000Y-30380000D03*
%TO.P,H4,2,2*%
%TO.N,GND*%
X105200000Y-30380000D03*
%TO.P,H4,3,3*%
%TO.N,+3V3*%
X104200000Y-30380000D03*
D17*
%TO.P,H4,4*%
%TO.N,N/C*%
X102900000Y-26500000D03*
%TO.P,H4,5*%
X107500000Y-26500000D03*
%TD*%
D18*
%TO.P,H0,1,1*%
%TO.N,/HALL_0*%
X107052500Y-54700000D03*
%TO.P,H0,2,2*%
%TO.N,GND*%
X107052500Y-55700000D03*
%TO.P,H0,3,3*%
%TO.N,+3V3*%
X107052500Y-56700000D03*
D19*
%TO.P,H0,4*%
%TO.N,N/C*%
X103172500Y-58000000D03*
%TO.P,H0,5*%
X103172500Y-53400000D03*
%TD*%
D16*
%TO.P,H8,1,1*%
%TO.N,/HALL_8*%
X132200000Y-30380000D03*
%TO.P,H8,2,2*%
%TO.N,GND*%
X131200000Y-30380000D03*
%TO.P,H8,3,3*%
%TO.N,+3V3*%
X130200000Y-30380000D03*
D17*
%TO.P,H8,4*%
%TO.N,N/C*%
X128900000Y-26500000D03*
%TO.P,H8,5*%
X133500000Y-26500000D03*
%TD*%
D14*
%TO.P,C10,1*%
%TO.N,GND*%
X144200000Y-31900000D03*
%TO.P,C10,2*%
%TO.N,+3V3*%
X143200000Y-31900000D03*
%TD*%
D16*
%TO.P,H15,1,1*%
%TO.N,/HALL_15*%
X177700000Y-30380000D03*
%TO.P,H15,2,2*%
%TO.N,GND*%
X176700000Y-30380000D03*
%TO.P,H15,3,3*%
%TO.N,+3V3*%
X175700000Y-30380000D03*
D17*
%TO.P,H15,4*%
%TO.N,N/C*%
X174400000Y-26500000D03*
%TO.P,H15,5*%
X179000000Y-26500000D03*
%TD*%
D14*
%TO.P,C7,1*%
%TO.N,GND*%
X124700000Y-31900000D03*
%TO.P,C7,2*%
%TO.N,+3V3*%
X123700000Y-31900000D03*
%TD*%
D20*
%TO.N,GND*%
X138650000Y-38550000D03*
X152240000Y-38560000D03*
X154790000Y-48040000D03*
%TO.N,+3V3*%
X140810000Y-38560000D03*
X175700000Y-30380000D03*
X169200000Y-30380000D03*
X162700000Y-30380000D03*
X156200000Y-30380000D03*
X149700000Y-30380000D03*
X143200000Y-30380000D03*
X136700000Y-30380000D03*
X130200000Y-30380000D03*
X123700000Y-30380000D03*
X117200000Y-30380000D03*
X110700000Y-30380000D03*
X104200000Y-30380000D03*
X107040000Y-37200000D03*
X107040000Y-43700000D03*
X107040000Y-50200000D03*
X107052500Y-56700000D03*
%TO.N,GND*%
X107052500Y-55700000D03*
X107040000Y-49200000D03*
X107040000Y-42700000D03*
X107040000Y-36200000D03*
X105200000Y-30380000D03*
X111700000Y-30380000D03*
X118200000Y-30380000D03*
X124700000Y-30380000D03*
X131200000Y-30380000D03*
X137700000Y-30380000D03*
X144200000Y-30380000D03*
X150700000Y-30380000D03*
X157200000Y-30380000D03*
X163700000Y-30380000D03*
X170200000Y-30380000D03*
X176700000Y-30380000D03*
%TD*%
D21*
%TO.N,Net-(U1-PA7_A8_D8_SCK)*%
X153050000Y-53450000D02*
X153050000Y-52350000D01*
X153050000Y-52350000D02*
X153750000Y-51650000D01*
X153750000Y-51650000D02*
X161557600Y-51650000D01*
X161557600Y-51650000D02*
X163450000Y-53542400D01*
%TO.N,/HALL_7*%
X125700000Y-30380000D02*
X125700000Y-48000000D01*
X125700000Y-48000000D02*
X128150000Y-50450000D01*
X142080000Y-49220000D02*
X142080000Y-48040000D01*
X128150000Y-50450000D02*
X140850000Y-50450000D01*
X140850000Y-50450000D02*
X142080000Y-49220000D01*
%TO.N,/HALL_6*%
X119200000Y-30380000D02*
X119200000Y-42200000D01*
X143350000Y-49250000D02*
X143350000Y-48040000D01*
X119200000Y-42200000D02*
X127950000Y-50950000D01*
X127950000Y-50950000D02*
X141650000Y-50950000D01*
X141650000Y-50950000D02*
X143350000Y-49250000D01*
%TO.N,/HALL_5*%
X112700000Y-30380000D02*
X112700000Y-32788730D01*
X112700000Y-32788730D02*
X111850000Y-33638730D01*
X111850000Y-33638730D02*
X111850000Y-35550000D01*
X111850000Y-35550000D02*
X127750000Y-51450000D01*
X127750000Y-51450000D02*
X142350000Y-51450000D01*
X144620000Y-49180000D02*
X144620000Y-48040000D01*
X142350000Y-51450000D02*
X144620000Y-49180000D01*
%TO.N,/HALL_4*%
X106200000Y-30380000D02*
X106200000Y-30640000D01*
X106200000Y-30640000D02*
X127510000Y-51950000D01*
X143150000Y-51950000D02*
X145890000Y-49210000D01*
X127510000Y-51950000D02*
X143150000Y-51950000D01*
X145890000Y-49210000D02*
X145890000Y-48040000D01*
%TO.N,/HALL_3*%
X107040000Y-35200000D02*
X110100000Y-35200000D01*
X110100000Y-35200000D02*
X127350000Y-52450000D01*
X143950000Y-52450000D02*
X147170000Y-49230000D01*
X127350000Y-52450000D02*
X143950000Y-52450000D01*
X147170000Y-49230000D02*
X147170000Y-48040000D01*
%TO.N,/HALL_2*%
X107040000Y-41700000D02*
X115900000Y-41700000D01*
X115900000Y-41700000D02*
X127150000Y-52950000D01*
X127150000Y-52950000D02*
X144700000Y-52950000D01*
X144700000Y-52950000D02*
X148430000Y-49220000D01*
X148430000Y-49220000D02*
X148430000Y-48040000D01*
%TO.N,/HALL_1*%
X107040000Y-48200000D02*
X121700000Y-48200000D01*
X145450000Y-53450000D02*
X149700000Y-49200000D01*
X121700000Y-48200000D02*
X126950000Y-53450000D01*
X149700000Y-49200000D02*
X149700000Y-48040000D01*
X126950000Y-53450000D02*
X145450000Y-53450000D01*
%TO.N,/HALL_0*%
X107052500Y-54700000D02*
X107800000Y-54700000D01*
X146150000Y-54050000D02*
X150970000Y-49230000D01*
X107800000Y-54700000D02*
X108450000Y-54050000D01*
X108450000Y-54050000D02*
X146150000Y-54050000D01*
X150970000Y-49230000D02*
X150970000Y-48040000D01*
%TO.N,/HALL_9*%
X138700000Y-30380000D02*
X138700000Y-31200000D01*
X138700000Y-31200000D02*
X143350000Y-35850000D01*
X143350000Y-35850000D02*
X143350000Y-38560000D01*
%TO.N,/S1*%
X153510000Y-48040000D02*
X153510000Y-47130000D01*
X153510000Y-47130000D02*
X154095000Y-46545000D01*
X159653600Y-50150000D02*
X162597600Y-50150000D01*
X154095000Y-46545000D02*
X156048600Y-46545000D01*
X156048600Y-46545000D02*
X159653600Y-50150000D01*
X162597600Y-50150000D02*
X165990000Y-53542400D01*
%TO.N,/S0*%
X165974400Y-47924378D02*
X165974400Y-49604222D01*
X165974400Y-49604222D02*
X168530000Y-52159822D01*
X168530000Y-52159822D02*
X168530000Y-53542400D01*
%TO.N,+3V3*%
X139650000Y-38550000D02*
X140800000Y-38550000D01*
X140800000Y-38550000D02*
X140810000Y-38560000D01*
%TO.N,/S0*%
X152240000Y-48040000D02*
X152240000Y-47130000D01*
X152240000Y-47130000D02*
X156220000Y-43150000D01*
X156220000Y-43150000D02*
X161200022Y-43150000D01*
X161200022Y-43150000D02*
X165974400Y-47924378D01*
%TO.N,/MUX_OUT*%
X171070000Y-38150000D02*
X169779200Y-39440800D01*
X169779200Y-39440800D02*
X168259200Y-39440800D01*
X145950000Y-41650000D02*
X140810000Y-46790000D01*
X140810000Y-46790000D02*
X140810000Y-48040000D01*
X168259200Y-39440800D02*
X166050000Y-41650000D01*
X166050000Y-41650000D02*
X145950000Y-41650000D01*
%TO.N,/HALL_15*%
X150970000Y-38560000D02*
X150970000Y-37430000D01*
X150970000Y-37430000D02*
X152650000Y-35750000D01*
X152650000Y-35750000D02*
X170150000Y-35750000D01*
X170150000Y-35750000D02*
X174150000Y-31750000D01*
X174895000Y-29305000D02*
X177600000Y-29305000D01*
X174150000Y-31750000D02*
X174150000Y-30050000D01*
X174150000Y-30050000D02*
X174895000Y-29305000D01*
X177600000Y-29305000D02*
X177700000Y-29405000D01*
X177700000Y-29405000D02*
X177700000Y-30380000D01*
%TO.N,+3V3*%
X107052500Y-56700000D02*
X108600000Y-56700000D01*
%TO.N,GND*%
X107052500Y-55700000D02*
X108600000Y-55700000D01*
%TO.N,+3V3*%
X108600000Y-50200000D02*
X107040000Y-50200000D01*
%TO.N,GND*%
X107040000Y-49200000D02*
X108600000Y-49200000D01*
%TO.N,+3V3*%
X108600000Y-43700000D02*
X107040000Y-43700000D01*
%TO.N,GND*%
X107040000Y-42700000D02*
X108600000Y-42700000D01*
%TO.N,+3V3*%
X108600000Y-37200000D02*
X107040000Y-37200000D01*
%TO.N,GND*%
X107040000Y-36200000D02*
X108600000Y-36200000D01*
%TO.N,+3V3*%
X104200000Y-31900000D02*
X104200000Y-30380000D01*
%TO.N,GND*%
X105200000Y-30380000D02*
X105200000Y-31900000D01*
%TO.N,+3V3*%
X110700000Y-31900000D02*
X110700000Y-30380000D01*
%TO.N,GND*%
X111700000Y-30380000D02*
X111700000Y-31900000D01*
%TO.N,+3V3*%
X117200000Y-31900000D02*
X117200000Y-30380000D01*
%TO.N,GND*%
X118200000Y-30380000D02*
X118200000Y-31900000D01*
%TO.N,+3V3*%
X123700000Y-31900000D02*
X123700000Y-30380000D01*
%TO.N,GND*%
X124700000Y-30380000D02*
X124700000Y-31900000D01*
%TO.N,+3V3*%
X130200000Y-31900000D02*
X130200000Y-30380000D01*
%TO.N,GND*%
X131200000Y-30380000D02*
X131200000Y-31900000D01*
%TO.N,+3V3*%
X136700000Y-31900000D02*
X136700000Y-30380000D01*
%TO.N,GND*%
X137700000Y-30380000D02*
X137700000Y-31900000D01*
%TO.N,+3V3*%
X143200000Y-31900000D02*
X143200000Y-30380000D01*
%TO.N,GND*%
X144200000Y-30380000D02*
X144200000Y-31900000D01*
%TO.N,+3V3*%
X149700000Y-31900000D02*
X149700000Y-30380000D01*
%TO.N,GND*%
X150700000Y-30380000D02*
X150700000Y-31900000D01*
%TO.N,+3V3*%
X156200000Y-31900000D02*
X156200000Y-30380000D01*
%TO.N,GND*%
X157200000Y-30380000D02*
X157200000Y-31900000D01*
%TO.N,+3V3*%
X162700000Y-31900000D02*
X162700000Y-30380000D01*
%TO.N,GND*%
X163700000Y-30380000D02*
X163700000Y-31900000D01*
%TO.N,+3V3*%
X169200000Y-30380000D02*
X169200000Y-31900000D01*
%TO.N,GND*%
X170200000Y-30380000D02*
X170200000Y-31900000D01*
%TO.N,+3V3*%
X175700000Y-30380000D02*
X175700000Y-31900000D01*
%TO.N,GND*%
X176700000Y-30380000D02*
X176700000Y-31900000D01*
%TO.N,/S2*%
X153510000Y-38560000D02*
X153510000Y-39470000D01*
X153510000Y-39470000D02*
X154095000Y-40055000D01*
X154095000Y-40055000D02*
X164085000Y-40055000D01*
X164085000Y-40055000D02*
X165990000Y-38150000D01*
%TO.N,/S3*%
X154790000Y-38560000D02*
X155670800Y-39440800D01*
X155670800Y-39440800D02*
X162159200Y-39440800D01*
X162159200Y-39440800D02*
X163450000Y-38150000D01*
%TO.N,/HALL_8*%
X132200000Y-30380000D02*
X138885000Y-37065000D01*
X138885000Y-37065000D02*
X141865000Y-37065000D01*
X141865000Y-37065000D02*
X142080000Y-37280000D01*
X142080000Y-37280000D02*
X142080000Y-38560000D01*
%TO.N,/HALL_10*%
X145200000Y-30380000D02*
X145200000Y-36800000D01*
X145200000Y-36800000D02*
X144620000Y-37380000D01*
X144620000Y-37380000D02*
X144620000Y-38560000D01*
%TO.N,/HALL_11*%
X151700000Y-30380000D02*
X151700000Y-32300000D01*
X151700000Y-32300000D02*
X151350000Y-32650000D01*
X150650000Y-32650000D02*
X145890000Y-37410000D01*
X151350000Y-32650000D02*
X150650000Y-32650000D01*
X145890000Y-37410000D02*
X145890000Y-38560000D01*
%TO.N,/HALL_12*%
X158200000Y-30380000D02*
X158200000Y-32100000D01*
X158200000Y-32100000D02*
X156650000Y-33650000D01*
X156650000Y-33650000D02*
X150950000Y-33650000D01*
X150950000Y-33650000D02*
X147170000Y-37430000D01*
X147170000Y-37430000D02*
X147170000Y-38560000D01*
%TO.N,/HALL_13*%
X164700000Y-30380000D02*
X164700000Y-32100000D01*
X164700000Y-32100000D02*
X162450000Y-34350000D01*
X162450000Y-34350000D02*
X151550000Y-34350000D01*
X151550000Y-34350000D02*
X148430000Y-37470000D01*
X148430000Y-37470000D02*
X148430000Y-38560000D01*
%TO.N,/HALL_14*%
X171200000Y-30380000D02*
X171200000Y-32100000D01*
X171200000Y-32100000D02*
X168250000Y-35050000D01*
X152100000Y-35050000D02*
X149700000Y-37450000D01*
X149700000Y-37450000D02*
X149700000Y-38560000D01*
X168250000Y-35050000D02*
X152100000Y-35050000D01*
%TD*%
%TA.AperFunction,Conductor*%
%TO.N,GND*%
G36*
X106215972Y-25220185D02*
G01*
X106261727Y-25272989D01*
X106271671Y-25342147D01*
X106265115Y-25367832D01*
X106255909Y-25392514D01*
X106255908Y-25392516D01*
X106249501Y-25452116D01*
X106249501Y-25452123D01*
X106249500Y-25452135D01*
X106249500Y-27547870D01*
X106249501Y-27547876D01*
X106255908Y-27607483D01*
X106306202Y-27742328D01*
X106306206Y-27742335D01*
X106392452Y-27857544D01*
X106392455Y-27857547D01*
X106507664Y-27943793D01*
X106507671Y-27943797D01*
X106642517Y-27994091D01*
X106642516Y-27994091D01*
X106649444Y-27994835D01*
X106702127Y-28000500D01*
X108297872Y-28000499D01*
X108357483Y-27994091D01*
X108406665Y-27975746D01*
X108476355Y-27970761D01*
X108493333Y-27975747D01*
X108542508Y-27994088D01*
X108542511Y-27994088D01*
X108542517Y-27994091D01*
X108602127Y-28000500D01*
X110197872Y-28000499D01*
X110257483Y-27994091D01*
X110392331Y-27943796D01*
X110507546Y-27857546D01*
X110593796Y-27742331D01*
X110644091Y-27607483D01*
X110650500Y-27547873D01*
X110650499Y-25452128D01*
X110644091Y-25392517D01*
X110644090Y-25392514D01*
X110634885Y-25367832D01*
X110629901Y-25298140D01*
X110663387Y-25236818D01*
X110724711Y-25203333D01*
X110751067Y-25200500D01*
X112648933Y-25200500D01*
X112715972Y-25220185D01*
X112761727Y-25272989D01*
X112771671Y-25342147D01*
X112765115Y-25367832D01*
X112755909Y-25392514D01*
X112755908Y-25392516D01*
X112749501Y-25452116D01*
X112749501Y-25452123D01*
X112749500Y-25452135D01*
X112749500Y-27547870D01*
X112749501Y-27547876D01*
X112755908Y-27607483D01*
X112806202Y-27742328D01*
X112806206Y-27742335D01*
X112892452Y-27857544D01*
X112892455Y-27857547D01*
X113007664Y-27943793D01*
X113007671Y-27943797D01*
X113142517Y-27994091D01*
X113142516Y-27994091D01*
X113149444Y-27994835D01*
X113202127Y-28000500D01*
X114797872Y-28000499D01*
X114857483Y-27994091D01*
X114906665Y-27975746D01*
X114976355Y-27970761D01*
X114993333Y-27975747D01*
X115042508Y-27994088D01*
X115042511Y-27994088D01*
X115042517Y-27994091D01*
X115102127Y-28000500D01*
X116697872Y-28000499D01*
X116757483Y-27994091D01*
X116892331Y-27943796D01*
X117007546Y-27857546D01*
X117093796Y-27742331D01*
X117144091Y-27607483D01*
X117150500Y-27547873D01*
X117150499Y-25452128D01*
X117144091Y-25392517D01*
X117144090Y-25392514D01*
X117134885Y-25367832D01*
X117129901Y-25298140D01*
X117163387Y-25236818D01*
X117224711Y-25203333D01*
X117251067Y-25200500D01*
X119148933Y-25200500D01*
X119215972Y-25220185D01*
X119261727Y-25272989D01*
X119271671Y-25342147D01*
X119265115Y-25367832D01*
X119255909Y-25392514D01*
X119255908Y-25392516D01*
X119249501Y-25452116D01*
X119249501Y-25452123D01*
X119249500Y-25452135D01*
X119249500Y-27547870D01*
X119249501Y-27547876D01*
X119255908Y-27607483D01*
X119306202Y-27742328D01*
X119306206Y-27742335D01*
X119392452Y-27857544D01*
X119392455Y-27857547D01*
X119507664Y-27943793D01*
X119507671Y-27943797D01*
X119642517Y-27994091D01*
X119642516Y-27994091D01*
X119649444Y-27994835D01*
X119702127Y-28000500D01*
X121297872Y-28000499D01*
X121357483Y-27994091D01*
X121406665Y-27975746D01*
X121476355Y-27970761D01*
X121493333Y-27975747D01*
X121542508Y-27994088D01*
X121542511Y-27994088D01*
X121542517Y-27994091D01*
X121602127Y-28000500D01*
X123197872Y-28000499D01*
X123257483Y-27994091D01*
X123392331Y-27943796D01*
X123507546Y-27857546D01*
X123593796Y-27742331D01*
X123644091Y-27607483D01*
X123650500Y-27547873D01*
X123650499Y-25452128D01*
X123644091Y-25392517D01*
X123644090Y-25392514D01*
X123634885Y-25367832D01*
X123629901Y-25298140D01*
X123663387Y-25236818D01*
X123724711Y-25203333D01*
X123751067Y-25200500D01*
X125648933Y-25200500D01*
X125715972Y-25220185D01*
X125761727Y-25272989D01*
X125771671Y-25342147D01*
X125765115Y-25367832D01*
X125755909Y-25392514D01*
X125755908Y-25392516D01*
X125749501Y-25452116D01*
X125749501Y-25452123D01*
X125749500Y-25452135D01*
X125749500Y-27547870D01*
X125749501Y-27547876D01*
X125755908Y-27607483D01*
X125806202Y-27742328D01*
X125806206Y-27742335D01*
X125892452Y-27857544D01*
X125892455Y-27857547D01*
X126007664Y-27943793D01*
X126007671Y-27943797D01*
X126142517Y-27994091D01*
X126142516Y-27994091D01*
X126149444Y-27994835D01*
X126202127Y-28000500D01*
X127797872Y-28000499D01*
X127857483Y-27994091D01*
X127906665Y-27975746D01*
X127976355Y-27970761D01*
X127993333Y-27975747D01*
X128042508Y-27994088D01*
X128042511Y-27994088D01*
X128042517Y-27994091D01*
X128102127Y-28000500D01*
X129697872Y-28000499D01*
X129757483Y-27994091D01*
X129892331Y-27943796D01*
X130007546Y-27857546D01*
X130093796Y-27742331D01*
X130144091Y-27607483D01*
X130150500Y-27547873D01*
X130150499Y-25452128D01*
X130144091Y-25392517D01*
X130144090Y-25392514D01*
X130134885Y-25367832D01*
X130129901Y-25298140D01*
X130163387Y-25236818D01*
X130224711Y-25203333D01*
X130251067Y-25200500D01*
X132148933Y-25200500D01*
X132215972Y-25220185D01*
X132261727Y-25272989D01*
X132271671Y-25342147D01*
X132265115Y-25367832D01*
X132255909Y-25392514D01*
X132255908Y-25392516D01*
X132249501Y-25452116D01*
X132249501Y-25452123D01*
X132249500Y-25452135D01*
X132249500Y-27547870D01*
X132249501Y-27547876D01*
X132255908Y-27607483D01*
X132306202Y-27742328D01*
X132306206Y-27742335D01*
X132392452Y-27857544D01*
X132392455Y-27857547D01*
X132507664Y-27943793D01*
X132507671Y-27943797D01*
X132642517Y-27994091D01*
X132642516Y-27994091D01*
X132649444Y-27994835D01*
X132702127Y-28000500D01*
X134297872Y-28000499D01*
X134357483Y-27994091D01*
X134406665Y-27975746D01*
X134476355Y-27970761D01*
X134493333Y-27975747D01*
X134542508Y-27994088D01*
X134542511Y-27994088D01*
X134542517Y-27994091D01*
X134602127Y-28000500D01*
X136197872Y-28000499D01*
X136257483Y-27994091D01*
X136392331Y-27943796D01*
X136507546Y-27857546D01*
X136593796Y-27742331D01*
X136644091Y-27607483D01*
X136650500Y-27547873D01*
X136650499Y-25452128D01*
X136644091Y-25392517D01*
X136644090Y-25392514D01*
X136634885Y-25367832D01*
X136629901Y-25298140D01*
X136663387Y-25236818D01*
X136724711Y-25203333D01*
X136751067Y-25200500D01*
X138648933Y-25200500D01*
X138715972Y-25220185D01*
X138761727Y-25272989D01*
X138771671Y-25342147D01*
X138765115Y-25367832D01*
X138755909Y-25392514D01*
X138755908Y-25392516D01*
X138749501Y-25452116D01*
X138749501Y-25452123D01*
X138749500Y-25452135D01*
X138749500Y-27547870D01*
X138749501Y-27547876D01*
X138755908Y-27607483D01*
X138806202Y-27742328D01*
X138806206Y-27742335D01*
X138892452Y-27857544D01*
X138892455Y-27857547D01*
X139007664Y-27943793D01*
X139007671Y-27943797D01*
X139142517Y-27994091D01*
X139142516Y-27994091D01*
X139149444Y-27994835D01*
X139202127Y-28000500D01*
X140797872Y-28000499D01*
X140857483Y-27994091D01*
X140906665Y-27975746D01*
X140976355Y-27970761D01*
X140993333Y-27975747D01*
X141042508Y-27994088D01*
X141042511Y-27994088D01*
X141042517Y-27994091D01*
X141102127Y-28000500D01*
X142697872Y-28000499D01*
X142757483Y-27994091D01*
X142892331Y-27943796D01*
X143007546Y-27857546D01*
X143093796Y-27742331D01*
X143144091Y-27607483D01*
X143150500Y-27547873D01*
X143150499Y-25452128D01*
X143144091Y-25392517D01*
X143144090Y-25392514D01*
X143134885Y-25367832D01*
X143129901Y-25298140D01*
X143163387Y-25236818D01*
X143224711Y-25203333D01*
X143251067Y-25200500D01*
X145148933Y-25200500D01*
X145215972Y-25220185D01*
X145261727Y-25272989D01*
X145271671Y-25342147D01*
X145265115Y-25367832D01*
X145255909Y-25392514D01*
X145255908Y-25392516D01*
X145249501Y-25452116D01*
X145249501Y-25452123D01*
X145249500Y-25452135D01*
X145249500Y-27547870D01*
X145249501Y-27547876D01*
X145255908Y-27607483D01*
X145306202Y-27742328D01*
X145306206Y-27742335D01*
X145392452Y-27857544D01*
X145392455Y-27857547D01*
X145507664Y-27943793D01*
X145507671Y-27943797D01*
X145642517Y-27994091D01*
X145642516Y-27994091D01*
X145649444Y-27994835D01*
X145702127Y-28000500D01*
X147297872Y-28000499D01*
X147357483Y-27994091D01*
X147406665Y-27975746D01*
X147476355Y-27970761D01*
X147493333Y-27975747D01*
X147542508Y-27994088D01*
X147542511Y-27994088D01*
X147542517Y-27994091D01*
X147602127Y-28000500D01*
X149197872Y-28000499D01*
X149257483Y-27994091D01*
X149392331Y-27943796D01*
X149507546Y-27857546D01*
X149593796Y-27742331D01*
X149644091Y-27607483D01*
X149650500Y-27547873D01*
X149650499Y-25452128D01*
X149644091Y-25392517D01*
X149644090Y-25392514D01*
X149634885Y-25367832D01*
X149629901Y-25298140D01*
X149663387Y-25236818D01*
X149724711Y-25203333D01*
X149751067Y-25200500D01*
X151648933Y-25200500D01*
X151715972Y-25220185D01*
X151761727Y-25272989D01*
X151771671Y-25342147D01*
X151765115Y-25367832D01*
X151755909Y-25392514D01*
X151755908Y-25392516D01*
X151749501Y-25452116D01*
X151749501Y-25452123D01*
X151749500Y-25452135D01*
X151749500Y-27547870D01*
X151749501Y-27547876D01*
X151755908Y-27607483D01*
X151806202Y-27742328D01*
X151806206Y-27742335D01*
X151892452Y-27857544D01*
X151892455Y-27857547D01*
X152007664Y-27943793D01*
X152007671Y-27943797D01*
X152142517Y-27994091D01*
X152142516Y-27994091D01*
X152149444Y-27994835D01*
X152202127Y-28000500D01*
X153797872Y-28000499D01*
X153857483Y-27994091D01*
X153906665Y-27975746D01*
X153976355Y-27970761D01*
X153993333Y-27975747D01*
X154042508Y-27994088D01*
X154042511Y-27994088D01*
X154042517Y-27994091D01*
X154102127Y-28000500D01*
X155697872Y-28000499D01*
X155757483Y-27994091D01*
X155892331Y-27943796D01*
X156007546Y-27857546D01*
X156093796Y-27742331D01*
X156144091Y-27607483D01*
X156150500Y-27547873D01*
X156150499Y-25452128D01*
X156144091Y-25392517D01*
X156144090Y-25392514D01*
X156134885Y-25367832D01*
X156129901Y-25298140D01*
X156163387Y-25236818D01*
X156224711Y-25203333D01*
X156251067Y-25200500D01*
X158148933Y-25200500D01*
X158215972Y-25220185D01*
X158261727Y-25272989D01*
X158271671Y-25342147D01*
X158265115Y-25367832D01*
X158255909Y-25392514D01*
X158255908Y-25392516D01*
X158249501Y-25452116D01*
X158249501Y-25452123D01*
X158249500Y-25452135D01*
X158249500Y-27547870D01*
X158249501Y-27547876D01*
X158255908Y-27607483D01*
X158306202Y-27742328D01*
X158306206Y-27742335D01*
X158392452Y-27857544D01*
X158392455Y-27857547D01*
X158507664Y-27943793D01*
X158507671Y-27943797D01*
X158642517Y-27994091D01*
X158642516Y-27994091D01*
X158649444Y-27994835D01*
X158702127Y-28000500D01*
X160297872Y-28000499D01*
X160357483Y-27994091D01*
X160406665Y-27975746D01*
X160476355Y-27970761D01*
X160493333Y-27975747D01*
X160542508Y-27994088D01*
X160542511Y-27994088D01*
X160542517Y-27994091D01*
X160602127Y-28000500D01*
X162197872Y-28000499D01*
X162257483Y-27994091D01*
X162392331Y-27943796D01*
X162507546Y-27857546D01*
X162593796Y-27742331D01*
X162644091Y-27607483D01*
X162650500Y-27547873D01*
X162650499Y-25452128D01*
X162644091Y-25392517D01*
X162644090Y-25392514D01*
X162634885Y-25367832D01*
X162629901Y-25298140D01*
X162663387Y-25236818D01*
X162724711Y-25203333D01*
X162751067Y-25200500D01*
X164648933Y-25200500D01*
X164715972Y-25220185D01*
X164761727Y-25272989D01*
X164771671Y-25342147D01*
X164765115Y-25367832D01*
X164755909Y-25392514D01*
X164755908Y-25392516D01*
X164749501Y-25452116D01*
X164749501Y-25452123D01*
X164749500Y-25452135D01*
X164749500Y-27547870D01*
X164749501Y-27547876D01*
X164755908Y-27607483D01*
X164806202Y-27742328D01*
X164806206Y-27742335D01*
X164892452Y-27857544D01*
X164892455Y-27857547D01*
X165007664Y-27943793D01*
X165007671Y-27943797D01*
X165142517Y-27994091D01*
X165142516Y-27994091D01*
X165149444Y-27994835D01*
X165202127Y-28000500D01*
X166797872Y-28000499D01*
X166857483Y-27994091D01*
X166906665Y-27975746D01*
X166976355Y-27970761D01*
X166993333Y-27975747D01*
X167042508Y-27994088D01*
X167042511Y-27994088D01*
X167042517Y-27994091D01*
X167102127Y-28000500D01*
X168697872Y-28000499D01*
X168757483Y-27994091D01*
X168892331Y-27943796D01*
X169007546Y-27857546D01*
X169093796Y-27742331D01*
X169144091Y-27607483D01*
X169150500Y-27547873D01*
X169150499Y-25452128D01*
X169144091Y-25392517D01*
X169144090Y-25392514D01*
X169134885Y-25367832D01*
X169129901Y-25298140D01*
X169163387Y-25236818D01*
X169224711Y-25203333D01*
X169251067Y-25200500D01*
X171148933Y-25200500D01*
X171215972Y-25220185D01*
X171261727Y-25272989D01*
X171271671Y-25342147D01*
X171265115Y-25367832D01*
X171255909Y-25392514D01*
X171255908Y-25392516D01*
X171249501Y-25452116D01*
X171249501Y-25452123D01*
X171249500Y-25452135D01*
X171249500Y-27547870D01*
X171249501Y-27547876D01*
X171255908Y-27607483D01*
X171306202Y-27742328D01*
X171306206Y-27742335D01*
X171392452Y-27857544D01*
X171392455Y-27857547D01*
X171507664Y-27943793D01*
X171507671Y-27943797D01*
X171642517Y-27994091D01*
X171642516Y-27994091D01*
X171649444Y-27994835D01*
X171702127Y-28000500D01*
X173297872Y-28000499D01*
X173357483Y-27994091D01*
X173406665Y-27975746D01*
X173476355Y-27970761D01*
X173493333Y-27975747D01*
X173542508Y-27994088D01*
X173542511Y-27994088D01*
X173542517Y-27994091D01*
X173602127Y-28000500D01*
X175197872Y-28000499D01*
X175257483Y-27994091D01*
X175392331Y-27943796D01*
X175507546Y-27857546D01*
X175593796Y-27742331D01*
X175644091Y-27607483D01*
X175650500Y-27547873D01*
X175650499Y-25452128D01*
X175644091Y-25392517D01*
X175644090Y-25392514D01*
X175634885Y-25367832D01*
X175629901Y-25298140D01*
X175663387Y-25236818D01*
X175724711Y-25203333D01*
X175751067Y-25200500D01*
X177648933Y-25200500D01*
X177715972Y-25220185D01*
X177761727Y-25272989D01*
X177771671Y-25342147D01*
X177765115Y-25367832D01*
X177755909Y-25392514D01*
X177755908Y-25392516D01*
X177749501Y-25452116D01*
X177749501Y-25452123D01*
X177749500Y-25452135D01*
X177749500Y-27547870D01*
X177749501Y-27547876D01*
X177755908Y-27607483D01*
X177806202Y-27742328D01*
X177806206Y-27742335D01*
X177892452Y-27857544D01*
X177892455Y-27857547D01*
X178007664Y-27943793D01*
X178007671Y-27943797D01*
X178142517Y-27994091D01*
X178142516Y-27994091D01*
X178149444Y-27994835D01*
X178202127Y-28000500D01*
X179797872Y-28000499D01*
X179812242Y-27998954D01*
X179881001Y-28011357D01*
X179932140Y-28058966D01*
X179949500Y-28122243D01*
X179949500Y-32754193D01*
X179929815Y-32821232D01*
X179877011Y-32866987D01*
X179807853Y-32876931D01*
X179744297Y-32847906D01*
X179740616Y-32844585D01*
X179583163Y-32696727D01*
X179583153Y-32696719D01*
X179338806Y-32519191D01*
X179338799Y-32519186D01*
X179338795Y-32519184D01*
X179074104Y-32373668D01*
X179074101Y-32373666D01*
X179074096Y-32373664D01*
X179074095Y-32373663D01*
X178793265Y-32262475D01*
X178793262Y-32262474D01*
X178500695Y-32187357D01*
X178201036Y-32149500D01*
X178201027Y-32149500D01*
X177898973Y-32149500D01*
X177898961Y-32149500D01*
X177604572Y-32186691D01*
X177535594Y-32175564D01*
X177501350Y-32151350D01*
X177500000Y-32150000D01*
X176624500Y-32150000D01*
X176557461Y-32130315D01*
X176511706Y-32077511D01*
X176500500Y-32026000D01*
X176500499Y-31552129D01*
X176500498Y-31552123D01*
X176498935Y-31537584D01*
X176494091Y-31492517D01*
X176467353Y-31420831D01*
X176462370Y-31351142D01*
X176467355Y-31334165D01*
X176494089Y-31262488D01*
X176494091Y-31262483D01*
X176500500Y-31202873D01*
X176500499Y-30253999D01*
X176520183Y-30186961D01*
X176572987Y-30141206D01*
X176624499Y-30130000D01*
X176775500Y-30130000D01*
X176842539Y-30149685D01*
X176888294Y-30202489D01*
X176899500Y-30254000D01*
X176899500Y-31202870D01*
X176899501Y-31202876D01*
X176905908Y-31262481D01*
X176905909Y-31262483D01*
X176942182Y-31359737D01*
X176950000Y-31403068D01*
X176950000Y-31650000D01*
X177294329Y-31650000D01*
X177307584Y-31650710D01*
X177352127Y-31655500D01*
X178047872Y-31655499D01*
X178107483Y-31649091D01*
X178242331Y-31598796D01*
X178357546Y-31512546D01*
X178443796Y-31397331D01*
X178494091Y-31262483D01*
X178500500Y-31202873D01*
X178500499Y-29557128D01*
X178494091Y-29497517D01*
X178443796Y-29362669D01*
X178443795Y-29362668D01*
X178443793Y-29362664D01*
X178357548Y-29247457D01*
X178357546Y-29247454D01*
X178357542Y-29247451D01*
X178357539Y-29247448D01*
X178280849Y-29190037D01*
X178247773Y-29152771D01*
X178180520Y-29036284D01*
X178068716Y-28924480D01*
X177968716Y-28824480D01*
X177881904Y-28774360D01*
X177881904Y-28774359D01*
X177881900Y-28774358D01*
X177831785Y-28745423D01*
X177679057Y-28704499D01*
X177520943Y-28704499D01*
X177513347Y-28704499D01*
X177513331Y-28704500D01*
X174974057Y-28704500D01*
X174815943Y-28704500D01*
X174663215Y-28745423D01*
X174663214Y-28745423D01*
X174663212Y-28745424D01*
X174663209Y-28745425D01*
X174613096Y-28774359D01*
X174613095Y-28774360D01*
X174569689Y-28799420D01*
X174526285Y-28824479D01*
X174526282Y-28824481D01*
X173669479Y-29681284D01*
X173649913Y-29715174D01*
X173641643Y-29729500D01*
X173590423Y-29818215D01*
X173549499Y-29970943D01*
X173549499Y-29970945D01*
X173549499Y-30139046D01*
X173549500Y-30139059D01*
X173549500Y-31449903D01*
X173529815Y-31516942D01*
X173513181Y-31537584D01*
X169937584Y-35113181D01*
X169876261Y-35146666D01*
X169849903Y-35149500D01*
X169299097Y-35149500D01*
X169232058Y-35129815D01*
X169186303Y-35077011D01*
X169176359Y-35007853D01*
X169205384Y-34944297D01*
X169211416Y-34937819D01*
X169772224Y-34377011D01*
X171558506Y-32590727D01*
X171558511Y-32590724D01*
X171568714Y-32580520D01*
X171568716Y-32580520D01*
X171680520Y-32468716D01*
X171732284Y-32379057D01*
X171759577Y-32331785D01*
X171800501Y-32179057D01*
X171800501Y-32020943D01*
X171800501Y-32020942D01*
X171800501Y-32013348D01*
X171800500Y-32013330D01*
X171800500Y-31617320D01*
X171820185Y-31550281D01*
X171850192Y-31518051D01*
X171857546Y-31512546D01*
X171943796Y-31397331D01*
X171994091Y-31262483D01*
X172000500Y-31202873D01*
X172000499Y-29557128D01*
X171994091Y-29497517D01*
X171943796Y-29362669D01*
X171943795Y-29362668D01*
X171943793Y-29362664D01*
X171857547Y-29247455D01*
X171857544Y-29247452D01*
X171742335Y-29161206D01*
X171742328Y-29161202D01*
X171607486Y-29110910D01*
X171607485Y-29110909D01*
X171607483Y-29110909D01*
X171547873Y-29104500D01*
X171547863Y-29104500D01*
X170852129Y-29104500D01*
X170852123Y-29104501D01*
X170792517Y-29110908D01*
X170742616Y-29129520D01*
X170672925Y-29134503D01*
X170655953Y-29129519D01*
X170607383Y-29111403D01*
X170607372Y-29111401D01*
X170547844Y-29105000D01*
X170450000Y-29105000D01*
X170450000Y-29356930D01*
X170442182Y-29400263D01*
X170405908Y-29497517D01*
X170399501Y-29557116D01*
X170399501Y-29557123D01*
X170399500Y-29557135D01*
X170399500Y-31202870D01*
X170399501Y-31202876D01*
X170405908Y-31262481D01*
X170405909Y-31262483D01*
X170442182Y-31359737D01*
X170450000Y-31403068D01*
X170450000Y-31949403D01*
X170430315Y-32016442D01*
X170413681Y-32037084D01*
X170337084Y-32113681D01*
X170275761Y-32147166D01*
X170249403Y-32150000D01*
X170124500Y-32150000D01*
X170057461Y-32130315D01*
X170011706Y-32077511D01*
X170000500Y-32026000D01*
X170000499Y-31552129D01*
X170000498Y-31552123D01*
X169998935Y-31537584D01*
X169994091Y-31492517D01*
X169967353Y-31420831D01*
X169962370Y-31351142D01*
X169967355Y-31334165D01*
X169994089Y-31262488D01*
X169994091Y-31262483D01*
X170000500Y-31202873D01*
X170000499Y-29557128D01*
X169994091Y-29497517D01*
X169957818Y-29400263D01*
X169950000Y-29356930D01*
X169950000Y-29105000D01*
X169852155Y-29105000D01*
X169792627Y-29111401D01*
X169792623Y-29111402D01*
X169744046Y-29129520D01*
X169674354Y-29134503D01*
X169657382Y-29129519D01*
X169607488Y-29110910D01*
X169607484Y-29110909D01*
X169607483Y-29110909D01*
X169547873Y-29104500D01*
X169547863Y-29104500D01*
X168852129Y-29104500D01*
X168852123Y-29104501D01*
X168792516Y-29110908D01*
X168657671Y-29161202D01*
X168657664Y-29161206D01*
X168542455Y-29247452D01*
X168542452Y-29247455D01*
X168456206Y-29362664D01*
X168456202Y-29362671D01*
X168405908Y-29497517D01*
X168399501Y-29557116D01*
X168399501Y-29557123D01*
X168399500Y-29557135D01*
X168399500Y-31202870D01*
X168399501Y-31202876D01*
X168405908Y-31262481D01*
X168405909Y-31262483D01*
X168432644Y-31334165D01*
X168432645Y-31334166D01*
X168437629Y-31403858D01*
X168432645Y-31420831D01*
X168405910Y-31492511D01*
X168405909Y-31492515D01*
X168405909Y-31492517D01*
X168399500Y-31552127D01*
X168399500Y-31552134D01*
X168399500Y-31552135D01*
X168399500Y-32247870D01*
X168399501Y-32247876D01*
X168405908Y-32307483D01*
X168456202Y-32442328D01*
X168456206Y-32442335D01*
X168542452Y-32557544D01*
X168542455Y-32557547D01*
X168657664Y-32643793D01*
X168657671Y-32643797D01*
X168702618Y-32660561D01*
X168792517Y-32694091D01*
X168852127Y-32700500D01*
X169450902Y-32700499D01*
X169517941Y-32720183D01*
X169563696Y-32772987D01*
X169573640Y-32842146D01*
X169544615Y-32905702D01*
X169538583Y-32912180D01*
X168037584Y-34413181D01*
X167976261Y-34446666D01*
X167949903Y-34449500D01*
X163499097Y-34449500D01*
X163432058Y-34429815D01*
X163386303Y-34377011D01*
X163376359Y-34307853D01*
X163405384Y-34244297D01*
X163411416Y-34237819D01*
X164111416Y-33537819D01*
X165180520Y-32468716D01*
X165259577Y-32331784D01*
X165300501Y-32179057D01*
X165300501Y-32020942D01*
X165300501Y-32013339D01*
X165300500Y-32013329D01*
X165300500Y-31617320D01*
X165320185Y-31550281D01*
X165350192Y-31518051D01*
X165357546Y-31512546D01*
X165443796Y-31397331D01*
X165494091Y-31262483D01*
X165500500Y-31202873D01*
X165500499Y-29557128D01*
X165494091Y-29497517D01*
X165443796Y-29362669D01*
X165443795Y-29362668D01*
X165443793Y-29362664D01*
X165357547Y-29247455D01*
X165357544Y-29247452D01*
X165242335Y-29161206D01*
X165242328Y-29161202D01*
X165107486Y-29110910D01*
X165107485Y-29110909D01*
X165107483Y-29110909D01*
X165047873Y-29104500D01*
X165047863Y-29104500D01*
X164352129Y-29104500D01*
X164352123Y-29104501D01*
X164292517Y-29110908D01*
X164242616Y-29129520D01*
X164172925Y-29134503D01*
X164155953Y-29129519D01*
X164107383Y-29111403D01*
X164107372Y-29111401D01*
X164047844Y-29105000D01*
X163950000Y-29105000D01*
X163950000Y-29356930D01*
X163942182Y-29400263D01*
X163905908Y-29497517D01*
X163899501Y-29557116D01*
X163899501Y-29557123D01*
X163899500Y-29557135D01*
X163899500Y-31202870D01*
X163899501Y-31202876D01*
X163905908Y-31262481D01*
X163905909Y-31262483D01*
X163942182Y-31359737D01*
X163950000Y-31403068D01*
X163950000Y-31949402D01*
X163930315Y-32016441D01*
X163913681Y-32037083D01*
X163837083Y-32113681D01*
X163775760Y-32147166D01*
X163749402Y-32150000D01*
X163624500Y-32150000D01*
X163557461Y-32130315D01*
X163511706Y-32077511D01*
X163500500Y-32026000D01*
X163500499Y-31552129D01*
X163500498Y-31552123D01*
X163498935Y-31537584D01*
X163494091Y-31492517D01*
X163467353Y-31420831D01*
X163462370Y-31351142D01*
X163467355Y-31334165D01*
X163494089Y-31262488D01*
X163494091Y-31262483D01*
X163500500Y-31202873D01*
X163500499Y-29557128D01*
X163494091Y-29497517D01*
X163457818Y-29400263D01*
X163450000Y-29356930D01*
X163450000Y-29105000D01*
X163352155Y-29105000D01*
X163292627Y-29111401D01*
X163292623Y-29111402D01*
X163244046Y-29129520D01*
X163174354Y-29134503D01*
X163157382Y-29129519D01*
X163107488Y-29110910D01*
X163107484Y-29110909D01*
X163107483Y-29110909D01*
X163047873Y-29104500D01*
X163047863Y-29104500D01*
X162352129Y-29104500D01*
X162352123Y-29104501D01*
X162292516Y-29110908D01*
X162157671Y-29161202D01*
X162157664Y-29161206D01*
X162042455Y-29247452D01*
X162042452Y-29247455D01*
X161956206Y-29362664D01*
X161956202Y-29362671D01*
X161905908Y-29497517D01*
X161899501Y-29557116D01*
X161899501Y-29557123D01*
X161899500Y-29557135D01*
X161899500Y-31202870D01*
X161899501Y-31202876D01*
X161905908Y-31262481D01*
X161905909Y-31262483D01*
X161932644Y-31334165D01*
X161932645Y-31334166D01*
X161937629Y-31403858D01*
X161932645Y-31420831D01*
X161905910Y-31492511D01*
X161905909Y-31492515D01*
X161905909Y-31492517D01*
X161899500Y-31552127D01*
X161899500Y-31552134D01*
X161899500Y-31552135D01*
X161899500Y-32247870D01*
X161899501Y-32247876D01*
X161905908Y-32307483D01*
X161956202Y-32442328D01*
X161956206Y-32442335D01*
X162042452Y-32557544D01*
X162042455Y-32557547D01*
X162157664Y-32643793D01*
X162157671Y-32643797D01*
X162202618Y-32660561D01*
X162292517Y-32694091D01*
X162352127Y-32700500D01*
X162950902Y-32700499D01*
X163017941Y-32720183D01*
X163063696Y-32772987D01*
X163073640Y-32842146D01*
X163044615Y-32905702D01*
X163038583Y-32912180D01*
X162237584Y-33713181D01*
X162176261Y-33746666D01*
X162149903Y-33749500D01*
X157699097Y-33749500D01*
X157632058Y-33729815D01*
X157586303Y-33677011D01*
X157576359Y-33607853D01*
X157605384Y-33544297D01*
X157611416Y-33537819D01*
X157800929Y-33348306D01*
X158558506Y-32590727D01*
X158558511Y-32590724D01*
X158568714Y-32580520D01*
X158568716Y-32580520D01*
X158680520Y-32468716D01*
X158732284Y-32379057D01*
X158759577Y-32331785D01*
X158800501Y-32179057D01*
X158800501Y-32020943D01*
X158800501Y-32020942D01*
X158800501Y-32013348D01*
X158800500Y-32013330D01*
X158800500Y-31617320D01*
X158820185Y-31550281D01*
X158850192Y-31518051D01*
X158857546Y-31512546D01*
X158943796Y-31397331D01*
X158994091Y-31262483D01*
X159000500Y-31202873D01*
X159000499Y-29557128D01*
X158994091Y-29497517D01*
X158943796Y-29362669D01*
X158943795Y-29362668D01*
X158943793Y-29362664D01*
X158857547Y-29247455D01*
X158857544Y-29247452D01*
X158742335Y-29161206D01*
X158742328Y-29161202D01*
X158607486Y-29110910D01*
X158607485Y-29110909D01*
X158607483Y-29110909D01*
X158547873Y-29104500D01*
X158547863Y-29104500D01*
X157852129Y-29104500D01*
X157852123Y-29104501D01*
X157792517Y-29110908D01*
X157742616Y-29129520D01*
X157672925Y-29134503D01*
X157655953Y-29129519D01*
X157607383Y-29111403D01*
X157607372Y-29111401D01*
X157547844Y-29105000D01*
X157450000Y-29105000D01*
X157450000Y-29356930D01*
X157442182Y-29400263D01*
X157405908Y-29497517D01*
X157399501Y-29557116D01*
X157399501Y-29557123D01*
X157399500Y-29557135D01*
X157399500Y-31202870D01*
X157399501Y-31202876D01*
X157405908Y-31262481D01*
X157405909Y-31262483D01*
X157442182Y-31359737D01*
X157450000Y-31403068D01*
X157450000Y-31949403D01*
X157430315Y-32016442D01*
X157413681Y-32037084D01*
X157337084Y-32113681D01*
X157275761Y-32147166D01*
X157249403Y-32150000D01*
X157124500Y-32150000D01*
X157057461Y-32130315D01*
X157011706Y-32077511D01*
X157000500Y-32026000D01*
X157000499Y-31552129D01*
X157000498Y-31552123D01*
X156998935Y-31537584D01*
X156994091Y-31492517D01*
X156967353Y-31420831D01*
X156962370Y-31351142D01*
X156967355Y-31334165D01*
X156994089Y-31262488D01*
X156994091Y-31262483D01*
X157000500Y-31202873D01*
X157000499Y-29557128D01*
X156994091Y-29497517D01*
X156957818Y-29400263D01*
X156950000Y-29356930D01*
X156950000Y-29105000D01*
X156852155Y-29105000D01*
X156792627Y-29111401D01*
X156792623Y-29111402D01*
X156744046Y-29129520D01*
X156674354Y-29134503D01*
X156657382Y-29129519D01*
X156607488Y-29110910D01*
X156607484Y-29110909D01*
X156607483Y-29110909D01*
X156547873Y-29104500D01*
X156547863Y-29104500D01*
X155852129Y-29104500D01*
X155852123Y-29104501D01*
X155792516Y-29110908D01*
X155657671Y-29161202D01*
X155657664Y-29161206D01*
X155542455Y-29247452D01*
X155542452Y-29247455D01*
X155456206Y-29362664D01*
X155456202Y-29362671D01*
X155405908Y-29497517D01*
X155399501Y-29557116D01*
X155399501Y-29557123D01*
X155399500Y-29557135D01*
X155399500Y-31202870D01*
X155399501Y-31202876D01*
X155405908Y-31262481D01*
X155405909Y-31262483D01*
X155432644Y-31334165D01*
X155432645Y-31334166D01*
X155437629Y-31403858D01*
X155432645Y-31420831D01*
X155405910Y-31492511D01*
X155405909Y-31492515D01*
X155405909Y-31492517D01*
X155399500Y-31552127D01*
X155399500Y-31552134D01*
X155399500Y-31552135D01*
X155399500Y-32247870D01*
X155399501Y-32247876D01*
X155405908Y-32307483D01*
X155456202Y-32442328D01*
X155456206Y-32442335D01*
X155542452Y-32557544D01*
X155542455Y-32557547D01*
X155657664Y-32643793D01*
X155657671Y-32643797D01*
X155702618Y-32660561D01*
X155792517Y-32694091D01*
X155852127Y-32700500D01*
X156450903Y-32700499D01*
X156517942Y-32720183D01*
X156563697Y-32772987D01*
X156573641Y-32842146D01*
X156544616Y-32905702D01*
X156538585Y-32912180D01*
X156437582Y-33013182D01*
X156376262Y-33046666D01*
X156349903Y-33049500D01*
X152099098Y-33049500D01*
X152032059Y-33029815D01*
X151986304Y-32977011D01*
X151976360Y-32907853D01*
X152005385Y-32844297D01*
X152011417Y-32837819D01*
X152095043Y-32754193D01*
X152180520Y-32668716D01*
X152259577Y-32531784D01*
X152300501Y-32379057D01*
X152300501Y-32220942D01*
X152300501Y-32213347D01*
X152300500Y-32213329D01*
X152300500Y-31617320D01*
X152320185Y-31550281D01*
X152350192Y-31518051D01*
X152357546Y-31512546D01*
X152443796Y-31397331D01*
X152494091Y-31262483D01*
X152500500Y-31202873D01*
X152500499Y-29557128D01*
X152494091Y-29497517D01*
X152443796Y-29362669D01*
X152443795Y-29362668D01*
X152443793Y-29362664D01*
X152357547Y-29247455D01*
X152357544Y-29247452D01*
X152242335Y-29161206D01*
X152242328Y-29161202D01*
X152107486Y-29110910D01*
X152107485Y-29110909D01*
X152107483Y-29110909D01*
X152047873Y-29104500D01*
X152047863Y-29104500D01*
X151352129Y-29104500D01*
X151352123Y-29104501D01*
X151292517Y-29110908D01*
X151242616Y-29129520D01*
X151172925Y-29134503D01*
X151155953Y-29129519D01*
X151107383Y-29111403D01*
X151107372Y-29111401D01*
X151047844Y-29105000D01*
X150950000Y-29105000D01*
X150950000Y-29356930D01*
X150942182Y-29400263D01*
X150905908Y-29497517D01*
X150899501Y-29557116D01*
X150899501Y-29557123D01*
X150899500Y-29557135D01*
X150899500Y-31202870D01*
X150899501Y-31202876D01*
X150905908Y-31262481D01*
X150905909Y-31262483D01*
X150942182Y-31359737D01*
X150950000Y-31403068D01*
X150950000Y-31925500D01*
X150930315Y-31992539D01*
X150877511Y-32038294D01*
X150826000Y-32049500D01*
X150736670Y-32049500D01*
X150736654Y-32049499D01*
X150729058Y-32049499D01*
X150624499Y-32049499D01*
X150557460Y-32029814D01*
X150511705Y-31977010D01*
X150500499Y-31925499D01*
X150500499Y-31552129D01*
X150500498Y-31552123D01*
X150498935Y-31537584D01*
X150494091Y-31492517D01*
X150467353Y-31420831D01*
X150462370Y-31351142D01*
X150467355Y-31334165D01*
X150494089Y-31262488D01*
X150494091Y-31262483D01*
X150500500Y-31202873D01*
X150500499Y-29557128D01*
X150494091Y-29497517D01*
X150457818Y-29400263D01*
X150450000Y-29356930D01*
X150450000Y-29105000D01*
X150352155Y-29105000D01*
X150292627Y-29111401D01*
X150292623Y-29111402D01*
X150244046Y-29129520D01*
X150174354Y-29134503D01*
X150157382Y-29129519D01*
X150107488Y-29110910D01*
X150107484Y-29110909D01*
X150107483Y-29110909D01*
X150047873Y-29104500D01*
X150047863Y-29104500D01*
X149352129Y-29104500D01*
X149352123Y-29104501D01*
X149292516Y-29110908D01*
X149157671Y-29161202D01*
X149157664Y-29161206D01*
X149042455Y-29247452D01*
X149042452Y-29247455D01*
X148956206Y-29362664D01*
X148956202Y-29362671D01*
X148905908Y-29497517D01*
X148899501Y-29557116D01*
X148899501Y-29557123D01*
X148899500Y-29557135D01*
X148899500Y-31202870D01*
X148899501Y-31202876D01*
X148905908Y-31262481D01*
X148905909Y-31262483D01*
X148932644Y-31334165D01*
X148932645Y-31334166D01*
X148937629Y-31403858D01*
X148932645Y-31420831D01*
X148905910Y-31492511D01*
X148905909Y-31492515D01*
X148905909Y-31492517D01*
X148899500Y-31552127D01*
X148899500Y-31552134D01*
X148899500Y-31552135D01*
X148899500Y-32247870D01*
X148899501Y-32247876D01*
X148905908Y-32307483D01*
X148956202Y-32442328D01*
X148956206Y-32442335D01*
X149042452Y-32557544D01*
X149042455Y-32557547D01*
X149157664Y-32643793D01*
X149157671Y-32643797D01*
X149202618Y-32660561D01*
X149292517Y-32694091D01*
X149352127Y-32700500D01*
X149450902Y-32700499D01*
X149517939Y-32720183D01*
X149563695Y-32772986D01*
X149573639Y-32842145D01*
X149544615Y-32905701D01*
X149538582Y-32912180D01*
X146012181Y-36438582D01*
X145950858Y-36472067D01*
X145881166Y-36467083D01*
X145825233Y-36425211D01*
X145800816Y-36359747D01*
X145800500Y-36350901D01*
X145800500Y-31617320D01*
X145820185Y-31550281D01*
X145850192Y-31518051D01*
X145857546Y-31512546D01*
X145943796Y-31397331D01*
X145994091Y-31262483D01*
X146000500Y-31202873D01*
X146000499Y-29557128D01*
X145994091Y-29497517D01*
X145943796Y-29362669D01*
X145943795Y-29362668D01*
X145943793Y-29362664D01*
X145857547Y-29247455D01*
X145857544Y-29247452D01*
X145742335Y-29161206D01*
X145742328Y-29161202D01*
X145607486Y-29110910D01*
X145607485Y-29110909D01*
X145607483Y-29110909D01*
X145547873Y-29104500D01*
X145547863Y-29104500D01*
X144852129Y-29104500D01*
X144852123Y-29104501D01*
X144792517Y-29110908D01*
X144742616Y-29129520D01*
X144672925Y-29134503D01*
X144655953Y-29129519D01*
X144607383Y-29111403D01*
X144607372Y-29111401D01*
X144547844Y-29105000D01*
X144450000Y-29105000D01*
X144450000Y-29356930D01*
X144442182Y-29400263D01*
X144405908Y-29497517D01*
X144399501Y-29557116D01*
X144399501Y-29557123D01*
X144399500Y-29557135D01*
X144399500Y-31202870D01*
X144399501Y-31202876D01*
X144405908Y-31262481D01*
X144405909Y-31262483D01*
X144442182Y-31359737D01*
X144450000Y-31403068D01*
X144450000Y-32700000D01*
X144475500Y-32700000D01*
X144542539Y-32719685D01*
X144588294Y-32772489D01*
X144599500Y-32824000D01*
X144599500Y-36499902D01*
X144579815Y-36566941D01*
X144563181Y-36587583D01*
X144425120Y-36725644D01*
X144251286Y-36899478D01*
X144251284Y-36899480D01*
X144200265Y-36950499D01*
X144162181Y-36988583D01*
X144100857Y-37022067D01*
X144031166Y-37017083D01*
X143975232Y-36975211D01*
X143950816Y-36909746D01*
X143950500Y-36900901D01*
X143950500Y-35770942D01*
X143950479Y-35770865D01*
X143943293Y-35744046D01*
X143909577Y-35618215D01*
X143858946Y-35530520D01*
X143830520Y-35481284D01*
X143718716Y-35369480D01*
X143718715Y-35369479D01*
X143714385Y-35365149D01*
X143714374Y-35365139D01*
X140597105Y-32247870D01*
X142399500Y-32247870D01*
X142399501Y-32247876D01*
X142405908Y-32307483D01*
X142456202Y-32442328D01*
X142456206Y-32442335D01*
X142542452Y-32557544D01*
X142542455Y-32557547D01*
X142657664Y-32643793D01*
X142657671Y-32643797D01*
X142702618Y-32660561D01*
X142792517Y-32694091D01*
X142852127Y-32700500D01*
X143547872Y-32700499D01*
X143607483Y-32694091D01*
X143657382Y-32675479D01*
X143727069Y-32670494D01*
X143744048Y-32675479D01*
X143792628Y-32693598D01*
X143792627Y-32693598D01*
X143852155Y-32699999D01*
X143852172Y-32700000D01*
X143950000Y-32700000D01*
X143950000Y-32448068D01*
X143957817Y-32404737D01*
X143994091Y-32307483D01*
X144000500Y-32247873D01*
X144000499Y-31552128D01*
X143994091Y-31492517D01*
X143967353Y-31420831D01*
X143962370Y-31351142D01*
X143967355Y-31334165D01*
X143994089Y-31262488D01*
X143994091Y-31262483D01*
X144000500Y-31202873D01*
X144000499Y-29557128D01*
X143994091Y-29497517D01*
X143957818Y-29400263D01*
X143950000Y-29356930D01*
X143950000Y-29105000D01*
X143852155Y-29105000D01*
X143792627Y-29111401D01*
X143792623Y-29111402D01*
X143744046Y-29129520D01*
X143674354Y-29134503D01*
X143657382Y-29129519D01*
X143607488Y-29110910D01*
X143607484Y-29110909D01*
X143607483Y-29110909D01*
X143547873Y-29104500D01*
X143547863Y-29104500D01*
X142852129Y-29104500D01*
X142852123Y-29104501D01*
X142792516Y-29110908D01*
X142657671Y-29161202D01*
X142657664Y-29161206D01*
X142542455Y-29247452D01*
X142542452Y-29247455D01*
X142456206Y-29362664D01*
X142456202Y-29362671D01*
X142405908Y-29497517D01*
X142399501Y-29557116D01*
X142399501Y-29557123D01*
X142399500Y-29557135D01*
X142399500Y-31202870D01*
X142399501Y-31202876D01*
X142405908Y-31262481D01*
X142405909Y-31262483D01*
X142432644Y-31334165D01*
X142432645Y-31334166D01*
X142437629Y-31403858D01*
X142432645Y-31420831D01*
X142405910Y-31492511D01*
X142405909Y-31492515D01*
X142405909Y-31492517D01*
X142399500Y-31552127D01*
X142399500Y-31552134D01*
X142399500Y-31552135D01*
X142399500Y-32247870D01*
X140597105Y-32247870D01*
X139536818Y-31187583D01*
X139503333Y-31126260D01*
X139500499Y-31099902D01*
X139500499Y-29557129D01*
X139500498Y-29557123D01*
X139500497Y-29557116D01*
X139494091Y-29497517D01*
X139443796Y-29362669D01*
X139443795Y-29362668D01*
X139443793Y-29362664D01*
X139357547Y-29247455D01*
X139357544Y-29247452D01*
X139242335Y-29161206D01*
X139242328Y-29161202D01*
X139107486Y-29110910D01*
X139107485Y-29110909D01*
X139107483Y-29110909D01*
X139047873Y-29104500D01*
X139047863Y-29104500D01*
X138352129Y-29104500D01*
X138352123Y-29104501D01*
X138292517Y-29110908D01*
X138242616Y-29129520D01*
X138172925Y-29134503D01*
X138155953Y-29129519D01*
X138107383Y-29111403D01*
X138107372Y-29111401D01*
X138047844Y-29105000D01*
X137950000Y-29105000D01*
X137950000Y-29356930D01*
X137942182Y-29400263D01*
X137905908Y-29497517D01*
X137899501Y-29557116D01*
X137899501Y-29557123D01*
X137899500Y-29557135D01*
X137899500Y-31202870D01*
X137899501Y-31202876D01*
X137905908Y-31262481D01*
X137905909Y-31262483D01*
X137942182Y-31359737D01*
X137950000Y-31403068D01*
X137950000Y-32700000D01*
X138047828Y-32700000D01*
X138047844Y-32699999D01*
X138107372Y-32693598D01*
X138107379Y-32693596D01*
X138242086Y-32643354D01*
X138242093Y-32643350D01*
X138357187Y-32557190D01*
X138357190Y-32557187D01*
X138443350Y-32442093D01*
X138443354Y-32442086D01*
X138493596Y-32307379D01*
X138493598Y-32307372D01*
X138499999Y-32247844D01*
X138500000Y-32247827D01*
X138500000Y-32148597D01*
X138519685Y-32081558D01*
X138572489Y-32035803D01*
X138641647Y-32025859D01*
X138705203Y-32054884D01*
X138711681Y-32060916D01*
X142713181Y-36062416D01*
X142746666Y-36123739D01*
X142749500Y-36150097D01*
X142749500Y-36800901D01*
X142729815Y-36867940D01*
X142677011Y-36913695D01*
X142607853Y-36923639D01*
X142544297Y-36894614D01*
X142537819Y-36888582D01*
X142444397Y-36795160D01*
X142444374Y-36795139D01*
X142352590Y-36703355D01*
X142352588Y-36703352D01*
X142233717Y-36584481D01*
X142233716Y-36584480D01*
X142146904Y-36534360D01*
X142146904Y-36534359D01*
X142146900Y-36534358D01*
X142096785Y-36505423D01*
X141944057Y-36464499D01*
X141785943Y-36464499D01*
X141778347Y-36464499D01*
X141778331Y-36464500D01*
X139185098Y-36464500D01*
X139118059Y-36444815D01*
X139097417Y-36428181D01*
X134917106Y-32247870D01*
X135899500Y-32247870D01*
X135899501Y-32247876D01*
X135905908Y-32307483D01*
X135956202Y-32442328D01*
X135956206Y-32442335D01*
X136042452Y-32557544D01*
X136042455Y-32557547D01*
X136157664Y-32643793D01*
X136157671Y-32643797D01*
X136202618Y-32660561D01*
X136292517Y-32694091D01*
X136352127Y-32700500D01*
X137047872Y-32700499D01*
X137107483Y-32694091D01*
X137157382Y-32675479D01*
X137227069Y-32670494D01*
X137244048Y-32675479D01*
X137292628Y-32693598D01*
X137292627Y-32693598D01*
X137352155Y-32699999D01*
X137352172Y-32700000D01*
X137450000Y-32700000D01*
X137450000Y-32448068D01*
X137457817Y-32404737D01*
X137494091Y-32307483D01*
X137500500Y-32247873D01*
X137500499Y-31552128D01*
X137494091Y-31492517D01*
X137467353Y-31420831D01*
X137462370Y-31351142D01*
X137467355Y-31334165D01*
X137494089Y-31262488D01*
X137494091Y-31262483D01*
X137500500Y-31202873D01*
X137500499Y-29557128D01*
X137494091Y-29497517D01*
X137457818Y-29400263D01*
X137450000Y-29356930D01*
X137450000Y-29105000D01*
X137352155Y-29105000D01*
X137292627Y-29111401D01*
X137292623Y-29111402D01*
X137244046Y-29129520D01*
X137174354Y-29134503D01*
X137157382Y-29129519D01*
X137107488Y-29110910D01*
X137107484Y-29110909D01*
X137107483Y-29110909D01*
X137047873Y-29104500D01*
X137047863Y-29104500D01*
X136352129Y-29104500D01*
X136352123Y-29104501D01*
X136292516Y-29110908D01*
X136157671Y-29161202D01*
X136157664Y-29161206D01*
X136042455Y-29247452D01*
X136042452Y-29247455D01*
X135956206Y-29362664D01*
X135956202Y-29362671D01*
X135905908Y-29497517D01*
X135899501Y-29557116D01*
X135899501Y-29557123D01*
X135899500Y-29557135D01*
X135899500Y-31202870D01*
X135899501Y-31202876D01*
X135905908Y-31262481D01*
X135905909Y-31262483D01*
X135932644Y-31334165D01*
X135932645Y-31334166D01*
X135937629Y-31403858D01*
X135932645Y-31420831D01*
X135905910Y-31492511D01*
X135905909Y-31492515D01*
X135905909Y-31492517D01*
X135899500Y-31552127D01*
X135899500Y-31552134D01*
X135899500Y-31552135D01*
X135899500Y-32247870D01*
X134917106Y-32247870D01*
X133036818Y-30367582D01*
X133003333Y-30306259D01*
X133000499Y-30279901D01*
X133000499Y-29557129D01*
X133000498Y-29557123D01*
X133000497Y-29557116D01*
X132994091Y-29497517D01*
X132943796Y-29362669D01*
X132943795Y-29362668D01*
X132943793Y-29362664D01*
X132857547Y-29247455D01*
X132857544Y-29247452D01*
X132742335Y-29161206D01*
X132742328Y-29161202D01*
X132607486Y-29110910D01*
X132607485Y-29110909D01*
X132607483Y-29110909D01*
X132547873Y-29104500D01*
X132547863Y-29104500D01*
X131852129Y-29104500D01*
X131852123Y-29104501D01*
X131792517Y-29110908D01*
X131742616Y-29129520D01*
X131672925Y-29134503D01*
X131655953Y-29129519D01*
X131607383Y-29111403D01*
X131607372Y-29111401D01*
X131547844Y-29105000D01*
X131450000Y-29105000D01*
X131450000Y-29356930D01*
X131442182Y-29400263D01*
X131405908Y-29497517D01*
X131399501Y-29557116D01*
X131399501Y-29557123D01*
X131399500Y-29557135D01*
X131399500Y-31202870D01*
X131399501Y-31202876D01*
X131405908Y-31262481D01*
X131405909Y-31262483D01*
X131442182Y-31359737D01*
X131450000Y-31403068D01*
X131450000Y-31650000D01*
X131794329Y-31650000D01*
X131807584Y-31650710D01*
X131852127Y-31655500D01*
X132547872Y-31655499D01*
X132559664Y-31654231D01*
X132628423Y-31666634D01*
X132660603Y-31689838D01*
X135599348Y-34628584D01*
X138509083Y-37538319D01*
X138542568Y-37599642D01*
X138537584Y-37669334D01*
X138495712Y-37725267D01*
X138430248Y-37749684D01*
X138421402Y-37750000D01*
X138302155Y-37750000D01*
X138242627Y-37756401D01*
X138242620Y-37756403D01*
X138107913Y-37806645D01*
X138107906Y-37806649D01*
X137992812Y-37892809D01*
X137992809Y-37892812D01*
X137906649Y-38007906D01*
X137906645Y-38007913D01*
X137856403Y-38142620D01*
X137856401Y-38142627D01*
X137850000Y-38202155D01*
X137850000Y-38300000D01*
X138725500Y-38300000D01*
X138792539Y-38319685D01*
X138838294Y-38372489D01*
X138849500Y-38424000D01*
X138849500Y-38897870D01*
X138849501Y-38897876D01*
X138855908Y-38957481D01*
X138855909Y-38957483D01*
X138892182Y-39054737D01*
X138900000Y-39098068D01*
X138900000Y-39350000D01*
X138997828Y-39350000D01*
X138997844Y-39349999D01*
X139057372Y-39343598D01*
X139057375Y-39343597D01*
X139105949Y-39325480D01*
X139175640Y-39320494D01*
X139192610Y-39325477D01*
X139242517Y-39344091D01*
X139302127Y-39350500D01*
X139900500Y-39350499D01*
X139967539Y-39370183D01*
X140013294Y-39422987D01*
X140024500Y-39474499D01*
X140024500Y-39547369D01*
X140054684Y-39699114D01*
X140054686Y-39699122D01*
X140113897Y-39842071D01*
X140113902Y-39842080D01*
X140199861Y-39970726D01*
X140199864Y-39970730D01*
X140309269Y-40080135D01*
X140309273Y-40080138D01*
X140437919Y-40166097D01*
X140437925Y-40166100D01*
X140437926Y-40166101D01*
X140580878Y-40225314D01*
X140712752Y-40251545D01*
X140732630Y-40255499D01*
X140732634Y-40255500D01*
X140732635Y-40255500D01*
X140887366Y-40255500D01*
X140887367Y-40255499D01*
X141039122Y-40225314D01*
X141182074Y-40166101D01*
X141310727Y-40080138D01*
X141311119Y-40079746D01*
X141357319Y-40033547D01*
X141418642Y-40000062D01*
X141488334Y-40005046D01*
X141532681Y-40033547D01*
X141579269Y-40080135D01*
X141579273Y-40080138D01*
X141707919Y-40166097D01*
X141707925Y-40166100D01*
X141707926Y-40166101D01*
X141850878Y-40225314D01*
X141982752Y-40251545D01*
X142002630Y-40255499D01*
X142002634Y-40255500D01*
X142002635Y-40255500D01*
X142157366Y-40255500D01*
X142157367Y-40255499D01*
X142309122Y-40225314D01*
X142452074Y-40166101D01*
X142580727Y-40080138D01*
X142581119Y-40079746D01*
X142627319Y-40033547D01*
X142688642Y-40000062D01*
X142758334Y-40005046D01*
X142802681Y-40033547D01*
X142849269Y-40080135D01*
X142849273Y-40080138D01*
X142977919Y-40166097D01*
X142977925Y-40166100D01*
X142977926Y-40166101D01*
X143120878Y-40225314D01*
X143252752Y-40251545D01*
X143272630Y-40255499D01*
X143272634Y-40255500D01*
X143272635Y-40255500D01*
X143427366Y-40255500D01*
X143427367Y-40255499D01*
X143579122Y-40225314D01*
X143722074Y-40166101D01*
X143850727Y-40080138D01*
X143851119Y-40079746D01*
X143897319Y-40033547D01*
X143958642Y-40000062D01*
X144028334Y-40005046D01*
X144072681Y-40033547D01*
X144119269Y-40080135D01*
X144119273Y-40080138D01*
X144247919Y-40166097D01*
X144247925Y-40166100D01*
X144247926Y-40166101D01*
X144390878Y-40225314D01*
X144522752Y-40251545D01*
X144542630Y-40255499D01*
X144542634Y-40255500D01*
X144542635Y-40255500D01*
X144697366Y-40255500D01*
X144697367Y-40255499D01*
X144849122Y-40225314D01*
X144992074Y-40166101D01*
X145120727Y-40080138D01*
X145121119Y-40079746D01*
X145167319Y-40033547D01*
X145228642Y-40000062D01*
X145298334Y-40005046D01*
X145342681Y-40033547D01*
X145389269Y-40080135D01*
X145389273Y-40080138D01*
X145517919Y-40166097D01*
X145517925Y-40166100D01*
X145517926Y-40166101D01*
X145660878Y-40225314D01*
X145792752Y-40251545D01*
X145812630Y-40255499D01*
X145812634Y-40255500D01*
X145812635Y-40255500D01*
X145967366Y-40255500D01*
X145967367Y-40255499D01*
X146119122Y-40225314D01*
X146262074Y-40166101D01*
X146390727Y-40080138D01*
X146391119Y-40079746D01*
X146442319Y-40028547D01*
X146503642Y-39995062D01*
X146573334Y-40000046D01*
X146617681Y-40028547D01*
X146669269Y-40080135D01*
X146669273Y-40080138D01*
X146797919Y-40166097D01*
X146797925Y-40166100D01*
X146797926Y-40166101D01*
X146940878Y-40225314D01*
X147072752Y-40251545D01*
X147092630Y-40255499D01*
X147092634Y-40255500D01*
X147092635Y-40255500D01*
X147247366Y-40255500D01*
X147247367Y-40255499D01*
X147399122Y-40225314D01*
X147542074Y-40166101D01*
X147670727Y-40080138D01*
X147671119Y-40079746D01*
X147712319Y-40038547D01*
X147773642Y-40005062D01*
X147843334Y-40010046D01*
X147887681Y-40038547D01*
X147929269Y-40080135D01*
X147929273Y-40080138D01*
X148057919Y-40166097D01*
X148057925Y-40166100D01*
X148057926Y-40166101D01*
X148200878Y-40225314D01*
X148332752Y-40251545D01*
X148352630Y-40255499D01*
X148352634Y-40255500D01*
X148352635Y-40255500D01*
X148507366Y-40255500D01*
X148507367Y-40255499D01*
X148659122Y-40225314D01*
X148802074Y-40166101D01*
X148930727Y-40080138D01*
X148931119Y-40079746D01*
X148977319Y-40033547D01*
X149038642Y-40000062D01*
X149108334Y-40005046D01*
X149152681Y-40033547D01*
X149199269Y-40080135D01*
X149199273Y-40080138D01*
X149327919Y-40166097D01*
X149327925Y-40166100D01*
X149327926Y-40166101D01*
X149470878Y-40225314D01*
X149602752Y-40251545D01*
X149622630Y-40255499D01*
X149622634Y-40255500D01*
X149622635Y-40255500D01*
X149777366Y-40255500D01*
X149777367Y-40255499D01*
X149929122Y-40225314D01*
X150072074Y-40166101D01*
X150200727Y-40080138D01*
X150201119Y-40079746D01*
X150247319Y-40033547D01*
X150308642Y-40000062D01*
X150378334Y-40005046D01*
X150422681Y-40033547D01*
X150469269Y-40080135D01*
X150469273Y-40080138D01*
X150597919Y-40166097D01*
X150597925Y-40166100D01*
X150597926Y-40166101D01*
X150740878Y-40225314D01*
X150872752Y-40251545D01*
X150892630Y-40255499D01*
X150892634Y-40255500D01*
X150892635Y-40255500D01*
X151047366Y-40255500D01*
X151047367Y-40255499D01*
X151199122Y-40225314D01*
X151342074Y-40166101D01*
X151470727Y-40080138D01*
X151517674Y-40033190D01*
X151578993Y-39999707D01*
X151648684Y-40004690D01*
X151693034Y-40033192D01*
X151739588Y-40079746D01*
X151739592Y-40079749D01*
X151868156Y-40165654D01*
X151868169Y-40165661D01*
X151989999Y-40216124D01*
X151990000Y-40216124D01*
X151990000Y-38434000D01*
X152009685Y-38366961D01*
X152062489Y-38321206D01*
X152114000Y-38310000D01*
X152366000Y-38310000D01*
X152433039Y-38329685D01*
X152478794Y-38382489D01*
X152490000Y-38434000D01*
X152490000Y-40216124D01*
X152611830Y-40165661D01*
X152611843Y-40165654D01*
X152740407Y-40079749D01*
X152740411Y-40079746D01*
X152786964Y-40033193D01*
X152848287Y-39999707D01*
X152917978Y-40004691D01*
X152962328Y-40033193D01*
X153009269Y-40080135D01*
X153009273Y-40080138D01*
X153137919Y-40166097D01*
X153137925Y-40166100D01*
X153137926Y-40166101D01*
X153280878Y-40225314D01*
X153412758Y-40251546D01*
X153474668Y-40283930D01*
X153476247Y-40285482D01*
X153610139Y-40419374D01*
X153610149Y-40419385D01*
X153614479Y-40423715D01*
X153614480Y-40423716D01*
X153726284Y-40535520D01*
X153813095Y-40585639D01*
X153813097Y-40585641D01*
X153851151Y-40607611D01*
X153863215Y-40614577D01*
X154015943Y-40655501D01*
X154015946Y-40655501D01*
X154181653Y-40655501D01*
X154181669Y-40655500D01*
X157926000Y-40655500D01*
X157993039Y-40675185D01*
X158038794Y-40727989D01*
X158050000Y-40779500D01*
X158050000Y-40925500D01*
X158030315Y-40992539D01*
X157977511Y-41038294D01*
X157926000Y-41049500D01*
X146036670Y-41049500D01*
X146036654Y-41049499D01*
X146029058Y-41049499D01*
X145870943Y-41049499D01*
X145794579Y-41069961D01*
X145718214Y-41090423D01*
X145718209Y-41090426D01*
X145581290Y-41169475D01*
X145581282Y-41169481D01*
X140329481Y-46421282D01*
X140329479Y-46421285D01*
X140279361Y-46508094D01*
X140279360Y-46508095D01*
X140250422Y-46558217D01*
X140247310Y-46565729D01*
X140245304Y-46564898D01*
X140219429Y-46609705D01*
X140199861Y-46629273D01*
X140199861Y-46629274D01*
X140113902Y-46757919D01*
X140113897Y-46757928D01*
X140054686Y-46900877D01*
X140054684Y-46900885D01*
X140024500Y-47052630D01*
X140024500Y-49027369D01*
X140054684Y-49179114D01*
X140054686Y-49179122D01*
X140113897Y-49322071D01*
X140113902Y-49322080D01*
X140199861Y-49450726D01*
X140199864Y-49450730D01*
X140309269Y-49560135D01*
X140309273Y-49560138D01*
X140402451Y-49622398D01*
X140447256Y-49676010D01*
X140455963Y-49745335D01*
X140425809Y-49808363D01*
X140366366Y-49845082D01*
X140333560Y-49849500D01*
X128450097Y-49849500D01*
X128383058Y-49829815D01*
X128362416Y-49813181D01*
X126336819Y-47787584D01*
X126303334Y-47726261D01*
X126300500Y-47699903D01*
X126300500Y-38800000D01*
X137850000Y-38800000D01*
X137850000Y-38897844D01*
X137856401Y-38957372D01*
X137856403Y-38957379D01*
X137906645Y-39092086D01*
X137906649Y-39092093D01*
X137992809Y-39207187D01*
X137992812Y-39207190D01*
X138107906Y-39293350D01*
X138107913Y-39293354D01*
X138242620Y-39343596D01*
X138242627Y-39343598D01*
X138302155Y-39349999D01*
X138302172Y-39350000D01*
X138400000Y-39350000D01*
X138400000Y-38800000D01*
X137850000Y-38800000D01*
X126300500Y-38800000D01*
X126300500Y-32247870D01*
X129399500Y-32247870D01*
X129399501Y-32247876D01*
X129405908Y-32307483D01*
X129456202Y-32442328D01*
X129456206Y-32442335D01*
X129542452Y-32557544D01*
X129542455Y-32557547D01*
X129657664Y-32643793D01*
X129657671Y-32643797D01*
X129702618Y-32660561D01*
X129792517Y-32694091D01*
X129852127Y-32700500D01*
X130547872Y-32700499D01*
X130607483Y-32694091D01*
X130657382Y-32675479D01*
X130727069Y-32670494D01*
X130744048Y-32675479D01*
X130792628Y-32693598D01*
X130792627Y-32693598D01*
X130852155Y-32699999D01*
X130852172Y-32700000D01*
X130950000Y-32700000D01*
X130950000Y-32448068D01*
X130957817Y-32404737D01*
X130994091Y-32307483D01*
X131000500Y-32247873D01*
X131000500Y-32150000D01*
X131450000Y-32150000D01*
X131450000Y-32700000D01*
X131547828Y-32700000D01*
X131547844Y-32699999D01*
X131607372Y-32693598D01*
X131607379Y-32693596D01*
X131742086Y-32643354D01*
X131742093Y-32643350D01*
X131857187Y-32557190D01*
X131857190Y-32557187D01*
X131943350Y-32442093D01*
X131943354Y-32442086D01*
X131993596Y-32307379D01*
X131993598Y-32307372D01*
X131999999Y-32247844D01*
X132000000Y-32247827D01*
X132000000Y-32150000D01*
X131450000Y-32150000D01*
X131000500Y-32150000D01*
X131000499Y-31552128D01*
X130994091Y-31492517D01*
X130967353Y-31420831D01*
X130962370Y-31351142D01*
X130967355Y-31334165D01*
X130994089Y-31262488D01*
X130994091Y-31262483D01*
X131000500Y-31202873D01*
X131000499Y-29557128D01*
X130994091Y-29497517D01*
X130957818Y-29400263D01*
X130950000Y-29356930D01*
X130950000Y-29105000D01*
X130852155Y-29105000D01*
X130792627Y-29111401D01*
X130792623Y-29111402D01*
X130744046Y-29129520D01*
X130674354Y-29134503D01*
X130657382Y-29129519D01*
X130607488Y-29110910D01*
X130607484Y-29110909D01*
X130607483Y-29110909D01*
X130547873Y-29104500D01*
X130547863Y-29104500D01*
X129852129Y-29104500D01*
X129852123Y-29104501D01*
X129792516Y-29110908D01*
X129657671Y-29161202D01*
X129657664Y-29161206D01*
X129542455Y-29247452D01*
X129542452Y-29247455D01*
X129456206Y-29362664D01*
X129456202Y-29362671D01*
X129405908Y-29497517D01*
X129399501Y-29557116D01*
X129399501Y-29557123D01*
X129399500Y-29557135D01*
X129399500Y-31202870D01*
X129399501Y-31202876D01*
X129405908Y-31262481D01*
X129405909Y-31262483D01*
X129432644Y-31334165D01*
X129432645Y-31334166D01*
X129437629Y-31403858D01*
X129432645Y-31420831D01*
X129405910Y-31492511D01*
X129405909Y-31492515D01*
X129405909Y-31492517D01*
X129399500Y-31552127D01*
X129399500Y-31552134D01*
X129399500Y-31552135D01*
X129399500Y-32247870D01*
X126300500Y-32247870D01*
X126300500Y-31617320D01*
X126320185Y-31550281D01*
X126350192Y-31518051D01*
X126357546Y-31512546D01*
X126443796Y-31397331D01*
X126494091Y-31262483D01*
X126500500Y-31202873D01*
X126500499Y-29557128D01*
X126494091Y-29497517D01*
X126443796Y-29362669D01*
X126443795Y-29362668D01*
X126443793Y-29362664D01*
X126357547Y-29247455D01*
X126357544Y-29247452D01*
X126242335Y-29161206D01*
X126242328Y-29161202D01*
X126107486Y-29110910D01*
X126107485Y-29110909D01*
X126107483Y-29110909D01*
X126047873Y-29104500D01*
X126047863Y-29104500D01*
X125352129Y-29104500D01*
X125352123Y-29104501D01*
X125292517Y-29110908D01*
X125242616Y-29129520D01*
X125172925Y-29134503D01*
X125155953Y-29129519D01*
X125107383Y-29111403D01*
X125107372Y-29111401D01*
X125047844Y-29105000D01*
X124950000Y-29105000D01*
X124950000Y-29356930D01*
X124942182Y-29400263D01*
X124905908Y-29497517D01*
X124899501Y-29557116D01*
X124899501Y-29557123D01*
X124899500Y-29557135D01*
X124899500Y-31202870D01*
X124899501Y-31202876D01*
X124905908Y-31262481D01*
X124905909Y-31262483D01*
X124942182Y-31359737D01*
X124950000Y-31403068D01*
X124950000Y-32700000D01*
X124975500Y-32700000D01*
X125042539Y-32719685D01*
X125088294Y-32772489D01*
X125099500Y-32824000D01*
X125099500Y-46950902D01*
X125079815Y-47017941D01*
X125027011Y-47063696D01*
X124957853Y-47073640D01*
X124894297Y-47044615D01*
X124887819Y-47038583D01*
X119836819Y-41987583D01*
X119803334Y-41926260D01*
X119800500Y-41899902D01*
X119800500Y-32247870D01*
X122899500Y-32247870D01*
X122899501Y-32247876D01*
X122905908Y-32307483D01*
X122956202Y-32442328D01*
X122956206Y-32442335D01*
X123042452Y-32557544D01*
X123042455Y-32557547D01*
X123157664Y-32643793D01*
X123157671Y-32643797D01*
X123202618Y-32660561D01*
X123292517Y-32694091D01*
X123352127Y-32700500D01*
X124047872Y-32700499D01*
X124107483Y-32694091D01*
X124157382Y-32675479D01*
X124227069Y-32670494D01*
X124244048Y-32675479D01*
X124292628Y-32693598D01*
X124292627Y-32693598D01*
X124352155Y-32699999D01*
X124352172Y-32700000D01*
X124450000Y-32700000D01*
X124450000Y-32448068D01*
X124457817Y-32404737D01*
X124494091Y-32307483D01*
X124500500Y-32247873D01*
X124500499Y-31552128D01*
X124494091Y-31492517D01*
X124467353Y-31420831D01*
X124462370Y-31351142D01*
X124467355Y-31334165D01*
X124494089Y-31262488D01*
X124494091Y-31262483D01*
X124500500Y-31202873D01*
X124500499Y-29557128D01*
X124494091Y-29497517D01*
X124457818Y-29400263D01*
X124450000Y-29356930D01*
X124450000Y-29105000D01*
X124352155Y-29105000D01*
X124292627Y-29111401D01*
X124292623Y-29111402D01*
X124244046Y-29129520D01*
X124174354Y-29134503D01*
X124157382Y-29129519D01*
X124107488Y-29110910D01*
X124107484Y-29110909D01*
X124107483Y-29110909D01*
X124047873Y-29104500D01*
X124047863Y-29104500D01*
X123352129Y-29104500D01*
X123352123Y-29104501D01*
X123292516Y-29110908D01*
X123157671Y-29161202D01*
X123157664Y-29161206D01*
X123042455Y-29247452D01*
X123042452Y-29247455D01*
X122956206Y-29362664D01*
X122956202Y-29362671D01*
X122905908Y-29497517D01*
X122899501Y-29557116D01*
X122899501Y-29557123D01*
X122899500Y-29557135D01*
X122899500Y-31202870D01*
X122899501Y-31202876D01*
X122905908Y-31262481D01*
X122905909Y-31262483D01*
X122932644Y-31334165D01*
X122932645Y-31334166D01*
X122937629Y-31403858D01*
X122932645Y-31420831D01*
X122905910Y-31492511D01*
X122905909Y-31492515D01*
X122905909Y-31492517D01*
X122899500Y-31552127D01*
X122899500Y-31552134D01*
X122899500Y-31552135D01*
X122899500Y-32247870D01*
X119800500Y-32247870D01*
X119800500Y-31617320D01*
X119820185Y-31550281D01*
X119850192Y-31518051D01*
X119857546Y-31512546D01*
X119943796Y-31397331D01*
X119994091Y-31262483D01*
X120000500Y-31202873D01*
X120000499Y-29557128D01*
X119994091Y-29497517D01*
X119943796Y-29362669D01*
X119943795Y-29362668D01*
X119943793Y-29362664D01*
X119857547Y-29247455D01*
X119857544Y-29247452D01*
X119742335Y-29161206D01*
X119742328Y-29161202D01*
X119607486Y-29110910D01*
X119607485Y-29110909D01*
X119607483Y-29110909D01*
X119547873Y-29104500D01*
X119547863Y-29104500D01*
X118852129Y-29104500D01*
X118852123Y-29104501D01*
X118792517Y-29110908D01*
X118742616Y-29129520D01*
X118672925Y-29134503D01*
X118655953Y-29129519D01*
X118607383Y-29111403D01*
X118607372Y-29111401D01*
X118547844Y-29105000D01*
X118450000Y-29105000D01*
X118450000Y-29356930D01*
X118442182Y-29400263D01*
X118405908Y-29497517D01*
X118399501Y-29557116D01*
X118399501Y-29557123D01*
X118399500Y-29557135D01*
X118399500Y-31202870D01*
X118399501Y-31202876D01*
X118405908Y-31262481D01*
X118405909Y-31262483D01*
X118442182Y-31359737D01*
X118450000Y-31403068D01*
X118450000Y-32700000D01*
X118475500Y-32700000D01*
X118542539Y-32719685D01*
X118588294Y-32772489D01*
X118599500Y-32824000D01*
X118599500Y-41150902D01*
X118579815Y-41217941D01*
X118527011Y-41263696D01*
X118457853Y-41273640D01*
X118394297Y-41244615D01*
X118387819Y-41238583D01*
X114290075Y-37140840D01*
X114256590Y-37079517D01*
X114261574Y-37009825D01*
X114303446Y-36953892D01*
X114362215Y-36930137D01*
X114500694Y-36912643D01*
X114546427Y-36900901D01*
X114793262Y-36837525D01*
X114831484Y-36822392D01*
X115074095Y-36726336D01*
X115074096Y-36726335D01*
X115074094Y-36726335D01*
X115074104Y-36726332D01*
X115338795Y-36580816D01*
X115583162Y-36403274D01*
X115803349Y-36196504D01*
X115995885Y-35963768D01*
X116157733Y-35708736D01*
X116286341Y-35435430D01*
X116379681Y-35148160D01*
X116436280Y-34851457D01*
X116439988Y-34792517D01*
X116455246Y-34550005D01*
X116455246Y-34549994D01*
X116436281Y-34248553D01*
X116436280Y-34248546D01*
X116436280Y-34248543D01*
X116379681Y-33951840D01*
X116286341Y-33664570D01*
X116157733Y-33391264D01*
X116009833Y-33158210D01*
X115995888Y-33136236D01*
X115995885Y-33136232D01*
X115803349Y-32903496D01*
X115702642Y-32808926D01*
X115583163Y-32696727D01*
X115583153Y-32696719D01*
X115338806Y-32519191D01*
X115338799Y-32519186D01*
X115338795Y-32519184D01*
X115074104Y-32373668D01*
X115074101Y-32373666D01*
X115074096Y-32373664D01*
X115074095Y-32373663D01*
X114793265Y-32262475D01*
X114793262Y-32262474D01*
X114736382Y-32247870D01*
X116399500Y-32247870D01*
X116399501Y-32247876D01*
X116405908Y-32307483D01*
X116456202Y-32442328D01*
X116456206Y-32442335D01*
X116542452Y-32557544D01*
X116542455Y-32557547D01*
X116657664Y-32643793D01*
X116657671Y-32643797D01*
X116702618Y-32660561D01*
X116792517Y-32694091D01*
X116852127Y-32700500D01*
X117547872Y-32700499D01*
X117607483Y-32694091D01*
X117657382Y-32675479D01*
X117727069Y-32670494D01*
X117744048Y-32675479D01*
X117792628Y-32693598D01*
X117792627Y-32693598D01*
X117852155Y-32699999D01*
X117852172Y-32700000D01*
X117950000Y-32700000D01*
X117950000Y-32448068D01*
X117957817Y-32404737D01*
X117994091Y-32307483D01*
X118000500Y-32247873D01*
X118000499Y-31552128D01*
X117994091Y-31492517D01*
X117967353Y-31420831D01*
X117962370Y-31351142D01*
X117967355Y-31334165D01*
X117994089Y-31262488D01*
X117994091Y-31262483D01*
X118000500Y-31202873D01*
X118000499Y-29557128D01*
X117994091Y-29497517D01*
X117957818Y-29400263D01*
X117950000Y-29356930D01*
X117950000Y-29105000D01*
X117852155Y-29105000D01*
X117792627Y-29111401D01*
X117792623Y-29111402D01*
X117744046Y-29129520D01*
X117674354Y-29134503D01*
X117657382Y-29129519D01*
X117607488Y-29110910D01*
X117607484Y-29110909D01*
X117607483Y-29110909D01*
X117547873Y-29104500D01*
X117547863Y-29104500D01*
X116852129Y-29104500D01*
X116852123Y-29104501D01*
X116792516Y-29110908D01*
X116657671Y-29161202D01*
X116657664Y-29161206D01*
X116542455Y-29247452D01*
X116542452Y-29247455D01*
X116456206Y-29362664D01*
X116456202Y-29362671D01*
X116405908Y-29497517D01*
X116399501Y-29557116D01*
X116399501Y-29557123D01*
X116399500Y-29557135D01*
X116399500Y-31202870D01*
X116399501Y-31202876D01*
X116405908Y-31262481D01*
X116405909Y-31262483D01*
X116432644Y-31334165D01*
X116432645Y-31334166D01*
X116437629Y-31403858D01*
X116432645Y-31420831D01*
X116405910Y-31492511D01*
X116405909Y-31492515D01*
X116405909Y-31492517D01*
X116399500Y-31552127D01*
X116399500Y-31552134D01*
X116399500Y-31552135D01*
X116399500Y-32247870D01*
X114736382Y-32247870D01*
X114500695Y-32187357D01*
X114201036Y-32149500D01*
X114201027Y-32149500D01*
X113898973Y-32149500D01*
X113898963Y-32149500D01*
X113599304Y-32187357D01*
X113455337Y-32224321D01*
X113385508Y-32221927D01*
X113328059Y-32182160D01*
X113301229Y-32117647D01*
X113300500Y-32104217D01*
X113300500Y-31617320D01*
X113320185Y-31550281D01*
X113350192Y-31518051D01*
X113357546Y-31512546D01*
X113443796Y-31397331D01*
X113494091Y-31262483D01*
X113500500Y-31202873D01*
X113500499Y-29557128D01*
X113494091Y-29497517D01*
X113443796Y-29362669D01*
X113443795Y-29362668D01*
X113443793Y-29362664D01*
X113357547Y-29247455D01*
X113357544Y-29247452D01*
X113242335Y-29161206D01*
X113242328Y-29161202D01*
X113107486Y-29110910D01*
X113107485Y-29110909D01*
X113107483Y-29110909D01*
X113047873Y-29104500D01*
X113047863Y-29104500D01*
X112352129Y-29104500D01*
X112352123Y-29104501D01*
X112292517Y-29110908D01*
X112242616Y-29129520D01*
X112172925Y-29134503D01*
X112155953Y-29129519D01*
X112107383Y-29111403D01*
X112107372Y-29111401D01*
X112047844Y-29105000D01*
X111950000Y-29105000D01*
X111950000Y-29356930D01*
X111942182Y-29400263D01*
X111905908Y-29497517D01*
X111899501Y-29557116D01*
X111899501Y-29557123D01*
X111899500Y-29557135D01*
X111899500Y-31202870D01*
X111899501Y-31202876D01*
X111905908Y-31262481D01*
X111905909Y-31262483D01*
X111942182Y-31359737D01*
X111950000Y-31403068D01*
X111950000Y-32638132D01*
X111930315Y-32705171D01*
X111913681Y-32725813D01*
X111369481Y-33270012D01*
X111369479Y-33270015D01*
X111324279Y-33348306D01*
X111324277Y-33348308D01*
X111290425Y-33406939D01*
X111290424Y-33406940D01*
X111290423Y-33406945D01*
X111249499Y-33559673D01*
X111249499Y-33559675D01*
X111249499Y-33727776D01*
X111249500Y-33727789D01*
X111249500Y-34540903D01*
X111229815Y-34607942D01*
X111177011Y-34653697D01*
X111107853Y-34663641D01*
X111044297Y-34634616D01*
X111037819Y-34628584D01*
X108657105Y-32247870D01*
X109899500Y-32247870D01*
X109899501Y-32247876D01*
X109905908Y-32307483D01*
X109956202Y-32442328D01*
X109956206Y-32442335D01*
X110042452Y-32557544D01*
X110042455Y-32557547D01*
X110157664Y-32643793D01*
X110157671Y-32643797D01*
X110202618Y-32660561D01*
X110292517Y-32694091D01*
X110352127Y-32700500D01*
X111047872Y-32700499D01*
X111107483Y-32694091D01*
X111157382Y-32675479D01*
X111227069Y-32670494D01*
X111244048Y-32675479D01*
X111292628Y-32693598D01*
X111292627Y-32693598D01*
X111352155Y-32699999D01*
X111352172Y-32700000D01*
X111450000Y-32700000D01*
X111450000Y-32448068D01*
X111457817Y-32404737D01*
X111494091Y-32307483D01*
X111500500Y-32247873D01*
X111500499Y-31552128D01*
X111494091Y-31492517D01*
X111467353Y-31420831D01*
X111462370Y-31351142D01*
X111467355Y-31334165D01*
X111494089Y-31262488D01*
X111494091Y-31262483D01*
X111500500Y-31202873D01*
X111500499Y-29557128D01*
X111494091Y-29497517D01*
X111457818Y-29400263D01*
X111450000Y-29356930D01*
X111450000Y-29105000D01*
X111352155Y-29105000D01*
X111292627Y-29111401D01*
X111292623Y-29111402D01*
X111244046Y-29129520D01*
X111174354Y-29134503D01*
X111157382Y-29129519D01*
X111107488Y-29110910D01*
X111107484Y-29110909D01*
X111107483Y-29110909D01*
X111047873Y-29104500D01*
X111047863Y-29104500D01*
X110352129Y-29104500D01*
X110352123Y-29104501D01*
X110292516Y-29110908D01*
X110157671Y-29161202D01*
X110157664Y-29161206D01*
X110042455Y-29247452D01*
X110042452Y-29247455D01*
X109956206Y-29362664D01*
X109956202Y-29362671D01*
X109905908Y-29497517D01*
X109899501Y-29557116D01*
X109899501Y-29557123D01*
X109899500Y-29557135D01*
X109899500Y-31202870D01*
X109899501Y-31202876D01*
X109905908Y-31262481D01*
X109905909Y-31262483D01*
X109932644Y-31334165D01*
X109932645Y-31334166D01*
X109937629Y-31403858D01*
X109932645Y-31420831D01*
X109905910Y-31492511D01*
X109905909Y-31492515D01*
X109905909Y-31492517D01*
X109899500Y-31552127D01*
X109899500Y-31552134D01*
X109899500Y-31552135D01*
X109899500Y-32247870D01*
X108657105Y-32247870D01*
X107036818Y-30627583D01*
X107003333Y-30566260D01*
X107000499Y-30539902D01*
X107000499Y-29557129D01*
X107000498Y-29557123D01*
X107000497Y-29557116D01*
X106994091Y-29497517D01*
X106943796Y-29362669D01*
X106943795Y-29362668D01*
X106943793Y-29362664D01*
X106857547Y-29247455D01*
X106857544Y-29247452D01*
X106742335Y-29161206D01*
X106742328Y-29161202D01*
X106607486Y-29110910D01*
X106607485Y-29110909D01*
X106607483Y-29110909D01*
X106547873Y-29104500D01*
X106547863Y-29104500D01*
X105852129Y-29104500D01*
X105852123Y-29104501D01*
X105792517Y-29110908D01*
X105742616Y-29129520D01*
X105672925Y-29134503D01*
X105655953Y-29129519D01*
X105607383Y-29111403D01*
X105607372Y-29111401D01*
X105547844Y-29105000D01*
X105450000Y-29105000D01*
X105450000Y-29356930D01*
X105442182Y-29400263D01*
X105405908Y-29497517D01*
X105399501Y-29557116D01*
X105399501Y-29557123D01*
X105399500Y-29557135D01*
X105399500Y-31202870D01*
X105399501Y-31202876D01*
X105405908Y-31262481D01*
X105405909Y-31262483D01*
X105442182Y-31359737D01*
X105450000Y-31403068D01*
X105450000Y-31650000D01*
X105794329Y-31650000D01*
X105807584Y-31650710D01*
X105852127Y-31655500D01*
X106314902Y-31655499D01*
X106381941Y-31675183D01*
X106402583Y-31691818D01*
X109098584Y-34387819D01*
X109132069Y-34449142D01*
X109127085Y-34518834D01*
X109085213Y-34574767D01*
X109019749Y-34599184D01*
X109010903Y-34599500D01*
X108277320Y-34599500D01*
X108210281Y-34579815D01*
X108178052Y-34549809D01*
X108172548Y-34542457D01*
X108172546Y-34542454D01*
X108140994Y-34518834D01*
X108057335Y-34456206D01*
X108057328Y-34456202D01*
X107922482Y-34405908D01*
X107922483Y-34405908D01*
X107862883Y-34399501D01*
X107862881Y-34399500D01*
X107862873Y-34399500D01*
X107862864Y-34399500D01*
X106217129Y-34399500D01*
X106217123Y-34399501D01*
X106157516Y-34405908D01*
X106022671Y-34456202D01*
X106022664Y-34456206D01*
X105907455Y-34542452D01*
X105907452Y-34542455D01*
X105821206Y-34657664D01*
X105821202Y-34657671D01*
X105770910Y-34792513D01*
X105770909Y-34792517D01*
X105764500Y-34852127D01*
X105764500Y-34852134D01*
X105764500Y-34852135D01*
X105764500Y-35547870D01*
X105764501Y-35547876D01*
X105770909Y-35607484D01*
X105789519Y-35657382D01*
X105794503Y-35727074D01*
X105789520Y-35744046D01*
X105771402Y-35792623D01*
X105771401Y-35792627D01*
X105765000Y-35852155D01*
X105765000Y-35950000D01*
X106016931Y-35950000D01*
X106060264Y-35957818D01*
X106157517Y-35994091D01*
X106157516Y-35994091D01*
X106164444Y-35994835D01*
X106217127Y-36000500D01*
X107862872Y-36000499D01*
X107922483Y-35994091D01*
X108019736Y-35957817D01*
X108063069Y-35950000D01*
X109400000Y-35950000D01*
X109400000Y-35924500D01*
X109419685Y-35857461D01*
X109472489Y-35811706D01*
X109524000Y-35800500D01*
X109799903Y-35800500D01*
X109866942Y-35820185D01*
X109887584Y-35836819D01*
X114938584Y-40887819D01*
X114972069Y-40949142D01*
X114967085Y-41018834D01*
X114925213Y-41074767D01*
X114859749Y-41099184D01*
X114850903Y-41099500D01*
X108277320Y-41099500D01*
X108210281Y-41079815D01*
X108178052Y-41049809D01*
X108172548Y-41042457D01*
X108172546Y-41042454D01*
X108140994Y-41018834D01*
X108057335Y-40956206D01*
X108057328Y-40956202D01*
X107922482Y-40905908D01*
X107922483Y-40905908D01*
X107862883Y-40899501D01*
X107862881Y-40899500D01*
X107862873Y-40899500D01*
X107862864Y-40899500D01*
X106217129Y-40899500D01*
X106217123Y-40899501D01*
X106157516Y-40905908D01*
X106022671Y-40956202D01*
X106022664Y-40956206D01*
X105907455Y-41042452D01*
X105907452Y-41042455D01*
X105821206Y-41157664D01*
X105821202Y-41157671D01*
X105770910Y-41292513D01*
X105770909Y-41292517D01*
X105764500Y-41352127D01*
X105764500Y-41352134D01*
X105764500Y-41352135D01*
X105764500Y-42047870D01*
X105764501Y-42047876D01*
X105770909Y-42107484D01*
X105789519Y-42157382D01*
X105794503Y-42227074D01*
X105789520Y-42244046D01*
X105771402Y-42292623D01*
X105771401Y-42292627D01*
X105765000Y-42352155D01*
X105765000Y-42450000D01*
X106016931Y-42450000D01*
X106060264Y-42457818D01*
X106157517Y-42494091D01*
X106157516Y-42494091D01*
X106164444Y-42494835D01*
X106217127Y-42500500D01*
X107862872Y-42500499D01*
X107922483Y-42494091D01*
X108019736Y-42457817D01*
X108063069Y-42450000D01*
X109400000Y-42450000D01*
X109400000Y-42424500D01*
X109419685Y-42357461D01*
X109472489Y-42311706D01*
X109524000Y-42300500D01*
X115599903Y-42300500D01*
X115666942Y-42320185D01*
X115687584Y-42336819D01*
X120738584Y-47387819D01*
X120772069Y-47449142D01*
X120767085Y-47518834D01*
X120725213Y-47574767D01*
X120659749Y-47599184D01*
X120650903Y-47599500D01*
X108277320Y-47599500D01*
X108210281Y-47579815D01*
X108178052Y-47549809D01*
X108172548Y-47542457D01*
X108172546Y-47542454D01*
X108104502Y-47491516D01*
X108057335Y-47456206D01*
X108057328Y-47456202D01*
X107922482Y-47405908D01*
X107922483Y-47405908D01*
X107862883Y-47399501D01*
X107862881Y-47399500D01*
X107862873Y-47399500D01*
X107862864Y-47399500D01*
X106217129Y-47399500D01*
X106217123Y-47399501D01*
X106157516Y-47405908D01*
X106022671Y-47456202D01*
X106022664Y-47456206D01*
X105907455Y-47542452D01*
X105907452Y-47542455D01*
X105821206Y-47657664D01*
X105821202Y-47657671D01*
X105770910Y-47792513D01*
X105770909Y-47792517D01*
X105764500Y-47852127D01*
X105764500Y-47852134D01*
X105764500Y-47852135D01*
X105764500Y-48547870D01*
X105764501Y-48547876D01*
X105770909Y-48607484D01*
X105789519Y-48657382D01*
X105794503Y-48727074D01*
X105789520Y-48744046D01*
X105771402Y-48792623D01*
X105771401Y-48792627D01*
X105765000Y-48852155D01*
X105765000Y-48950000D01*
X106016931Y-48950000D01*
X106060264Y-48957818D01*
X106157517Y-48994091D01*
X106157516Y-48994091D01*
X106164444Y-48994835D01*
X106217127Y-49000500D01*
X107862872Y-49000499D01*
X107922483Y-48994091D01*
X108019736Y-48957817D01*
X108063069Y-48950000D01*
X109400000Y-48950000D01*
X109400000Y-48924500D01*
X109419685Y-48857461D01*
X109472489Y-48811706D01*
X109524000Y-48800500D01*
X121399903Y-48800500D01*
X121466942Y-48820185D01*
X121487584Y-48836819D01*
X125888584Y-53237819D01*
X125922069Y-53299142D01*
X125917085Y-53368834D01*
X125875213Y-53424767D01*
X125809749Y-53449184D01*
X125800903Y-53449500D01*
X108536669Y-53449500D01*
X108536653Y-53449499D01*
X108529057Y-53449499D01*
X108370943Y-53449499D01*
X108291010Y-53470917D01*
X108218216Y-53490422D01*
X108185038Y-53509578D01*
X108185037Y-53509577D01*
X108081287Y-53569477D01*
X108081282Y-53569481D01*
X107969478Y-53681286D01*
X107787582Y-53863181D01*
X107726259Y-53896666D01*
X107699901Y-53899500D01*
X106229629Y-53899500D01*
X106229623Y-53899501D01*
X106170016Y-53905908D01*
X106035171Y-53956202D01*
X106035164Y-53956206D01*
X105919955Y-54042452D01*
X105919952Y-54042455D01*
X105833706Y-54157664D01*
X105833702Y-54157671D01*
X105783410Y-54292513D01*
X105783409Y-54292517D01*
X105777000Y-54352127D01*
X105777000Y-54352134D01*
X105777000Y-54352135D01*
X105777000Y-55047870D01*
X105777001Y-55047876D01*
X105783409Y-55107484D01*
X105802019Y-55157382D01*
X105807003Y-55227074D01*
X105802020Y-55244046D01*
X105783902Y-55292623D01*
X105783901Y-55292627D01*
X105777500Y-55352155D01*
X105777500Y-55450000D01*
X106029431Y-55450000D01*
X106072764Y-55457818D01*
X106170017Y-55494091D01*
X106170016Y-55494091D01*
X106176944Y-55494835D01*
X106229627Y-55500500D01*
X107875372Y-55500499D01*
X107934983Y-55494091D01*
X108032236Y-55457817D01*
X108075569Y-55450000D01*
X109400000Y-55450000D01*
X109400000Y-55352172D01*
X109399999Y-55352155D01*
X109393598Y-55292627D01*
X109393596Y-55292620D01*
X109343354Y-55157913D01*
X109343350Y-55157906D01*
X109257190Y-55042812D01*
X109257187Y-55042809D01*
X109142093Y-54956649D01*
X109142086Y-54956645D01*
X109007379Y-54906403D01*
X109007372Y-54906401D01*
X108947844Y-54900000D01*
X108748597Y-54900000D01*
X108681558Y-54880315D01*
X108635803Y-54827511D01*
X108625859Y-54758353D01*
X108654884Y-54694797D01*
X108660916Y-54688319D01*
X108662416Y-54686819D01*
X108723739Y-54653334D01*
X108750097Y-54650500D01*
X112948889Y-54650500D01*
X113015928Y-54670185D01*
X113061683Y-54722989D01*
X113071627Y-54792147D01*
X113042602Y-54855703D01*
X113008627Y-54883161D01*
X112874955Y-54956649D01*
X112761205Y-55019184D01*
X112761193Y-55019191D01*
X112516846Y-55196719D01*
X112516836Y-55196727D01*
X112296652Y-55403494D01*
X112104111Y-55636236D01*
X111942268Y-55891261D01*
X111942265Y-55891267D01*
X111813661Y-56164563D01*
X111813659Y-56164568D01*
X111720320Y-56451835D01*
X111663719Y-56748546D01*
X111663718Y-56748553D01*
X111644754Y-57049994D01*
X111644754Y-57050005D01*
X111663718Y-57351446D01*
X111663719Y-57351453D01*
X111720320Y-57648164D01*
X111813659Y-57935431D01*
X111813661Y-57935436D01*
X111942265Y-58208732D01*
X111942268Y-58208738D01*
X112104111Y-58463763D01*
X112296652Y-58696505D01*
X112516836Y-58903272D01*
X112516846Y-58903280D01*
X112615810Y-58975182D01*
X112658476Y-59030512D01*
X112664455Y-59100125D01*
X112631849Y-59161920D01*
X112571011Y-59196277D01*
X112542925Y-59199500D01*
X104708932Y-59199500D01*
X104641893Y-59179815D01*
X104596138Y-59127011D01*
X104586194Y-59057853D01*
X104609665Y-59001190D01*
X104614824Y-58994297D01*
X104616296Y-58992331D01*
X104666591Y-58857483D01*
X104673000Y-58797873D01*
X104672999Y-57202128D01*
X104666591Y-57142517D01*
X104653525Y-57107486D01*
X104631290Y-57047870D01*
X105777000Y-57047870D01*
X105777001Y-57047876D01*
X105783408Y-57107483D01*
X105833702Y-57242328D01*
X105833706Y-57242335D01*
X105919952Y-57357544D01*
X105919955Y-57357547D01*
X106035164Y-57443793D01*
X106035171Y-57443797D01*
X106170017Y-57494091D01*
X106170016Y-57494091D01*
X106176944Y-57494835D01*
X106229627Y-57500500D01*
X107875372Y-57500499D01*
X107934983Y-57494091D01*
X108020417Y-57462225D01*
X108090108Y-57457242D01*
X108107080Y-57462225D01*
X108192517Y-57494091D01*
X108252127Y-57500500D01*
X108947872Y-57500499D01*
X109007483Y-57494091D01*
X109142331Y-57443796D01*
X109257546Y-57357546D01*
X109343796Y-57242331D01*
X109394091Y-57107483D01*
X109400500Y-57047873D01*
X109400499Y-56352128D01*
X109394091Y-56292517D01*
X109375480Y-56242618D01*
X109370495Y-56172927D01*
X109375480Y-56155949D01*
X109393597Y-56107375D01*
X109393598Y-56107372D01*
X109399999Y-56047844D01*
X109400000Y-56047827D01*
X109400000Y-55950000D01*
X109148069Y-55950000D01*
X109104736Y-55942182D01*
X109007486Y-55905910D01*
X109007485Y-55905909D01*
X109007483Y-55905909D01*
X108947873Y-55899500D01*
X108947863Y-55899500D01*
X108252129Y-55899500D01*
X108252123Y-55899501D01*
X108192516Y-55905908D01*
X108107082Y-55937773D01*
X108037390Y-55942757D01*
X108020418Y-55937773D01*
X107934985Y-55905909D01*
X107934983Y-55905908D01*
X107875383Y-55899501D01*
X107875381Y-55899500D01*
X107875373Y-55899500D01*
X107875364Y-55899500D01*
X106229629Y-55899500D01*
X106229623Y-55899501D01*
X106170016Y-55905908D01*
X106072764Y-55942182D01*
X106029431Y-55950000D01*
X105777500Y-55950000D01*
X105777500Y-56047844D01*
X105783901Y-56107372D01*
X105783903Y-56107383D01*
X105802019Y-56155953D01*
X105807003Y-56225644D01*
X105802020Y-56242616D01*
X105783410Y-56292513D01*
X105783409Y-56292517D01*
X105777000Y-56352127D01*
X105777000Y-56352134D01*
X105777000Y-56352135D01*
X105777000Y-57047870D01*
X104631290Y-57047870D01*
X104616297Y-57007671D01*
X104616293Y-57007664D01*
X104530047Y-56892455D01*
X104530044Y-56892452D01*
X104414835Y-56806206D01*
X104414828Y-56806202D01*
X104279982Y-56755908D01*
X104279983Y-56755908D01*
X104220383Y-56749501D01*
X104220381Y-56749500D01*
X104220373Y-56749500D01*
X104220364Y-56749500D01*
X102124629Y-56749500D01*
X102124618Y-56749501D01*
X102087751Y-56753464D01*
X102018992Y-56741056D01*
X101967856Y-56693444D01*
X101950500Y-56630174D01*
X101950500Y-54769824D01*
X101970185Y-54702785D01*
X102022989Y-54657030D01*
X102087754Y-54646535D01*
X102124627Y-54650500D01*
X104220372Y-54650499D01*
X104279983Y-54644091D01*
X104414831Y-54593796D01*
X104530046Y-54507546D01*
X104616296Y-54392331D01*
X104666591Y-54257483D01*
X104673000Y-54197873D01*
X104672999Y-52602128D01*
X104666591Y-52542517D01*
X104641995Y-52476574D01*
X104637012Y-52406884D01*
X104641992Y-52389919D01*
X104654091Y-52357483D01*
X104660500Y-52297873D01*
X104660499Y-50702128D01*
X104654091Y-50642517D01*
X104649616Y-50630520D01*
X104618790Y-50547870D01*
X105764500Y-50547870D01*
X105764501Y-50547876D01*
X105770908Y-50607483D01*
X105821202Y-50742328D01*
X105821206Y-50742335D01*
X105907452Y-50857544D01*
X105907455Y-50857547D01*
X106022664Y-50943793D01*
X106022671Y-50943797D01*
X106157517Y-50994091D01*
X106157516Y-50994091D01*
X106164444Y-50994835D01*
X106217127Y-51000500D01*
X107862872Y-51000499D01*
X107922483Y-50994091D01*
X108014167Y-50959894D01*
X108083858Y-50954911D01*
X108100831Y-50959894D01*
X108192517Y-50994091D01*
X108252127Y-51000500D01*
X108947872Y-51000499D01*
X109007483Y-50994091D01*
X109142331Y-50943796D01*
X109257546Y-50857546D01*
X109343796Y-50742331D01*
X109394091Y-50607483D01*
X109400500Y-50547873D01*
X109400499Y-49852128D01*
X109394091Y-49792517D01*
X109381142Y-49757800D01*
X109375480Y-49742618D01*
X109370495Y-49672927D01*
X109375480Y-49655949D01*
X109393597Y-49607375D01*
X109393598Y-49607372D01*
X109399999Y-49547844D01*
X109400000Y-49547827D01*
X109400000Y-49450000D01*
X109148069Y-49450000D01*
X109104736Y-49442182D01*
X109007486Y-49405910D01*
X109007485Y-49405909D01*
X109007483Y-49405909D01*
X108947873Y-49399500D01*
X108947863Y-49399500D01*
X108252129Y-49399500D01*
X108252123Y-49399501D01*
X108192515Y-49405909D01*
X108100832Y-49440104D01*
X108031141Y-49445088D01*
X108014168Y-49440104D01*
X107922485Y-49405909D01*
X107922483Y-49405908D01*
X107862883Y-49399501D01*
X107862881Y-49399500D01*
X107862873Y-49399500D01*
X107862864Y-49399500D01*
X106217129Y-49399500D01*
X106217123Y-49399501D01*
X106157516Y-49405908D01*
X106060264Y-49442182D01*
X106016931Y-49450000D01*
X105765000Y-49450000D01*
X105765000Y-49547844D01*
X105771401Y-49607372D01*
X105771403Y-49607383D01*
X105789519Y-49655953D01*
X105794503Y-49725644D01*
X105789520Y-49742616D01*
X105770910Y-49792513D01*
X105770909Y-49792517D01*
X105764500Y-49852127D01*
X105764500Y-49852134D01*
X105764500Y-49852135D01*
X105764500Y-50547870D01*
X104618790Y-50547870D01*
X104603797Y-50507671D01*
X104603793Y-50507664D01*
X104517547Y-50392455D01*
X104517544Y-50392452D01*
X104402335Y-50306206D01*
X104402328Y-50306202D01*
X104267482Y-50255908D01*
X104267483Y-50255908D01*
X104207883Y-50249501D01*
X104207881Y-50249500D01*
X104207873Y-50249500D01*
X104207864Y-50249500D01*
X102112129Y-50249500D01*
X102112123Y-50249501D01*
X102087753Y-50252121D01*
X102018994Y-50239714D01*
X101967857Y-50192103D01*
X101950500Y-50128831D01*
X101950500Y-48271168D01*
X101970185Y-48204129D01*
X102022989Y-48158374D01*
X102087755Y-48147879D01*
X102112127Y-48150500D01*
X104207872Y-48150499D01*
X104267483Y-48144091D01*
X104402331Y-48093796D01*
X104517546Y-48007546D01*
X104603796Y-47892331D01*
X104654091Y-47757483D01*
X104660500Y-47697873D01*
X104660499Y-46102128D01*
X104654091Y-46042517D01*
X104635747Y-45993334D01*
X104630762Y-45923643D01*
X104635747Y-45906665D01*
X104654089Y-45857488D01*
X104654091Y-45857483D01*
X104660500Y-45797873D01*
X104660499Y-44202128D01*
X104654091Y-44142517D01*
X104641025Y-44107486D01*
X104618790Y-44047870D01*
X105764500Y-44047870D01*
X105764501Y-44047876D01*
X105770908Y-44107483D01*
X105821202Y-44242328D01*
X105821206Y-44242335D01*
X105907452Y-44357544D01*
X105907455Y-44357547D01*
X106022664Y-44443793D01*
X106022671Y-44443797D01*
X106157517Y-44494091D01*
X106157516Y-44494091D01*
X106164444Y-44494835D01*
X106217127Y-44500500D01*
X107862872Y-44500499D01*
X107922483Y-44494091D01*
X108014167Y-44459894D01*
X108083858Y-44454911D01*
X108100831Y-44459894D01*
X108192517Y-44494091D01*
X108252127Y-44500500D01*
X108947872Y-44500499D01*
X109007483Y-44494091D01*
X109142331Y-44443796D01*
X109257546Y-44357546D01*
X109343796Y-44242331D01*
X109394091Y-44107483D01*
X109400500Y-44047873D01*
X109400499Y-43352128D01*
X109394091Y-43292517D01*
X109375480Y-43242618D01*
X109370495Y-43172927D01*
X109375480Y-43155949D01*
X109393597Y-43107375D01*
X109393598Y-43107372D01*
X109399999Y-43047844D01*
X109400000Y-43047827D01*
X109400000Y-42950000D01*
X109148069Y-42950000D01*
X109104736Y-42942182D01*
X109007486Y-42905910D01*
X109007485Y-42905909D01*
X109007483Y-42905909D01*
X108947873Y-42899500D01*
X108947863Y-42899500D01*
X108252129Y-42899500D01*
X108252123Y-42899501D01*
X108192515Y-42905909D01*
X108100832Y-42940104D01*
X108031141Y-42945088D01*
X108014168Y-42940104D01*
X107922485Y-42905909D01*
X107922483Y-42905908D01*
X107862883Y-42899501D01*
X107862881Y-42899500D01*
X107862873Y-42899500D01*
X107862864Y-42899500D01*
X106217129Y-42899500D01*
X106217123Y-42899501D01*
X106157516Y-42905908D01*
X106060264Y-42942182D01*
X106016931Y-42950000D01*
X105765000Y-42950000D01*
X105765000Y-43047844D01*
X105771401Y-43107372D01*
X105771403Y-43107383D01*
X105789519Y-43155953D01*
X105794503Y-43225644D01*
X105789520Y-43242616D01*
X105775279Y-43280800D01*
X105770909Y-43292517D01*
X105764500Y-43352127D01*
X105764500Y-43352134D01*
X105764500Y-43352135D01*
X105764500Y-44047870D01*
X104618790Y-44047870D01*
X104603797Y-44007671D01*
X104603793Y-44007664D01*
X104517547Y-43892455D01*
X104517544Y-43892452D01*
X104402335Y-43806206D01*
X104402328Y-43806202D01*
X104267482Y-43755908D01*
X104267483Y-43755908D01*
X104207883Y-43749501D01*
X104207881Y-43749500D01*
X104207873Y-43749500D01*
X104207864Y-43749500D01*
X102112129Y-43749500D01*
X102112123Y-43749501D01*
X102087753Y-43752121D01*
X102018994Y-43739714D01*
X101967857Y-43692103D01*
X101950500Y-43628831D01*
X101950500Y-41771168D01*
X101970185Y-41704129D01*
X102022989Y-41658374D01*
X102087755Y-41647879D01*
X102112127Y-41650500D01*
X104207872Y-41650499D01*
X104267483Y-41644091D01*
X104402331Y-41593796D01*
X104517546Y-41507546D01*
X104603796Y-41392331D01*
X104654091Y-41257483D01*
X104660500Y-41197873D01*
X104660499Y-39602128D01*
X104654091Y-39542517D01*
X104654090Y-39542514D01*
X104635747Y-39493334D01*
X104630762Y-39423643D01*
X104635747Y-39406665D01*
X104654089Y-39357488D01*
X104654091Y-39357483D01*
X104660500Y-39297873D01*
X104660499Y-37702128D01*
X104654091Y-37642517D01*
X104641025Y-37607486D01*
X104618790Y-37547870D01*
X105764500Y-37547870D01*
X105764501Y-37547876D01*
X105770908Y-37607483D01*
X105821202Y-37742328D01*
X105821206Y-37742335D01*
X105907452Y-37857544D01*
X105907455Y-37857547D01*
X106022664Y-37943793D01*
X106022671Y-37943797D01*
X106157517Y-37994091D01*
X106157516Y-37994091D01*
X106164444Y-37994835D01*
X106217127Y-38000500D01*
X107862872Y-38000499D01*
X107922483Y-37994091D01*
X108014167Y-37959894D01*
X108083858Y-37954911D01*
X108100831Y-37959894D01*
X108192517Y-37994091D01*
X108252127Y-38000500D01*
X108947872Y-38000499D01*
X109007483Y-37994091D01*
X109142331Y-37943796D01*
X109257546Y-37857546D01*
X109343796Y-37742331D01*
X109394091Y-37607483D01*
X109400500Y-37547873D01*
X109400499Y-36852128D01*
X109394091Y-36792517D01*
X109375480Y-36742618D01*
X109370495Y-36672927D01*
X109375480Y-36655949D01*
X109393597Y-36607375D01*
X109393598Y-36607372D01*
X109399999Y-36547844D01*
X109400000Y-36547827D01*
X109400000Y-36450000D01*
X109148069Y-36450000D01*
X109104736Y-36442182D01*
X109007486Y-36405910D01*
X109007485Y-36405909D01*
X109007483Y-36405909D01*
X108947873Y-36399500D01*
X108947863Y-36399500D01*
X108252129Y-36399500D01*
X108252123Y-36399501D01*
X108192515Y-36405909D01*
X108100832Y-36440104D01*
X108031141Y-36445088D01*
X108014168Y-36440104D01*
X107922485Y-36405909D01*
X107922483Y-36405908D01*
X107862883Y-36399501D01*
X107862881Y-36399500D01*
X107862873Y-36399500D01*
X107862864Y-36399500D01*
X106217129Y-36399500D01*
X106217123Y-36399501D01*
X106157516Y-36405908D01*
X106060264Y-36442182D01*
X106016931Y-36450000D01*
X105765000Y-36450000D01*
X105765000Y-36547844D01*
X105771401Y-36607372D01*
X105771403Y-36607383D01*
X105789519Y-36655953D01*
X105794503Y-36725644D01*
X105789520Y-36742616D01*
X105785016Y-36754693D01*
X105770909Y-36792517D01*
X105764500Y-36852127D01*
X105764500Y-36852134D01*
X105764500Y-36852135D01*
X105764500Y-37547870D01*
X104618790Y-37547870D01*
X104603797Y-37507671D01*
X104603793Y-37507664D01*
X104517547Y-37392455D01*
X104517544Y-37392452D01*
X104402335Y-37306206D01*
X104402328Y-37306202D01*
X104267482Y-37255908D01*
X104267483Y-37255908D01*
X104207883Y-37249501D01*
X104207881Y-37249500D01*
X104207873Y-37249500D01*
X104207864Y-37249500D01*
X102112129Y-37249500D01*
X102112123Y-37249501D01*
X102087753Y-37252121D01*
X102018994Y-37239714D01*
X101967857Y-37192103D01*
X101950500Y-37128831D01*
X101950500Y-35271168D01*
X101970185Y-35204129D01*
X102022989Y-35158374D01*
X102087755Y-35147879D01*
X102112127Y-35150500D01*
X104207872Y-35150499D01*
X104267483Y-35144091D01*
X104402331Y-35093796D01*
X104517546Y-35007546D01*
X104603796Y-34892331D01*
X104654091Y-34757483D01*
X104660500Y-34697873D01*
X104660499Y-33102128D01*
X104654091Y-33042517D01*
X104649353Y-33029815D01*
X104603797Y-32907671D01*
X104603795Y-32907668D01*
X104578882Y-32874389D01*
X104554465Y-32808926D01*
X104569316Y-32740653D01*
X104618721Y-32691247D01*
X104634800Y-32683902D01*
X104657382Y-32675479D01*
X104727069Y-32670494D01*
X104744048Y-32675479D01*
X104792628Y-32693598D01*
X104792627Y-32693598D01*
X104852155Y-32699999D01*
X104852172Y-32700000D01*
X104950000Y-32700000D01*
X104950000Y-32448068D01*
X104957817Y-32404737D01*
X104994091Y-32307483D01*
X105000500Y-32247873D01*
X105000500Y-32150000D01*
X105450000Y-32150000D01*
X105450000Y-32700000D01*
X105547828Y-32700000D01*
X105547844Y-32699999D01*
X105607372Y-32693598D01*
X105607379Y-32693596D01*
X105742086Y-32643354D01*
X105742093Y-32643350D01*
X105857187Y-32557190D01*
X105857190Y-32557187D01*
X105943350Y-32442093D01*
X105943354Y-32442086D01*
X105993596Y-32307379D01*
X105993598Y-32307372D01*
X105999999Y-32247844D01*
X106000000Y-32247827D01*
X106000000Y-32150000D01*
X105450000Y-32150000D01*
X105000500Y-32150000D01*
X105000499Y-31552128D01*
X104994091Y-31492517D01*
X104967353Y-31420831D01*
X104962370Y-31351142D01*
X104967355Y-31334165D01*
X104994089Y-31262488D01*
X104994091Y-31262483D01*
X105000500Y-31202873D01*
X105000499Y-29557128D01*
X104994091Y-29497517D01*
X104957818Y-29400263D01*
X104950000Y-29356930D01*
X104950000Y-29105000D01*
X104852155Y-29105000D01*
X104792627Y-29111401D01*
X104792623Y-29111402D01*
X104744046Y-29129520D01*
X104674354Y-29134503D01*
X104657382Y-29129519D01*
X104607488Y-29110910D01*
X104607484Y-29110909D01*
X104607483Y-29110909D01*
X104547873Y-29104500D01*
X104547863Y-29104500D01*
X103852129Y-29104500D01*
X103852123Y-29104501D01*
X103792516Y-29110908D01*
X103657671Y-29161202D01*
X103657664Y-29161206D01*
X103542455Y-29247452D01*
X103542452Y-29247455D01*
X103456206Y-29362664D01*
X103456202Y-29362671D01*
X103405908Y-29497517D01*
X103399501Y-29557116D01*
X103399501Y-29557123D01*
X103399500Y-29557135D01*
X103399500Y-31202870D01*
X103399501Y-31202876D01*
X103405908Y-31262481D01*
X103405909Y-31262483D01*
X103432644Y-31334165D01*
X103432645Y-31334166D01*
X103437629Y-31403858D01*
X103432645Y-31420831D01*
X103405910Y-31492511D01*
X103405909Y-31492515D01*
X103405909Y-31492517D01*
X103399500Y-31552127D01*
X103399500Y-31552134D01*
X103399500Y-31552135D01*
X103399500Y-32247870D01*
X103399501Y-32247876D01*
X103405908Y-32307483D01*
X103456202Y-32442328D01*
X103456206Y-32442334D01*
X103462835Y-32451190D01*
X103487252Y-32516654D01*
X103472400Y-32584927D01*
X103422995Y-32634332D01*
X103363568Y-32649500D01*
X102112129Y-32649500D01*
X102112123Y-32649501D01*
X102087753Y-32652121D01*
X102018994Y-32639714D01*
X101967857Y-32592103D01*
X101950500Y-32528831D01*
X101950500Y-28122243D01*
X101970185Y-28055204D01*
X102022989Y-28009449D01*
X102087756Y-27998954D01*
X102102127Y-28000500D01*
X103697872Y-28000499D01*
X103757483Y-27994091D01*
X103892331Y-27943796D01*
X104007546Y-27857546D01*
X104093796Y-27742331D01*
X104144091Y-27607483D01*
X104150500Y-27547873D01*
X104150499Y-25452128D01*
X104144091Y-25392517D01*
X104144090Y-25392514D01*
X104134885Y-25367832D01*
X104129901Y-25298140D01*
X104163387Y-25236818D01*
X104224711Y-25203333D01*
X104251067Y-25200500D01*
X106148933Y-25200500D01*
X106215972Y-25220185D01*
G37*
%TD.AperFunction*%
%TA.AperFunction,Conductor*%
G36*
X155815542Y-47165185D02*
G01*
X155836184Y-47181819D01*
X158013681Y-49359316D01*
X158047166Y-49420639D01*
X158050000Y-49446997D01*
X158050000Y-50925500D01*
X158030315Y-50992539D01*
X157977511Y-51038294D01*
X157926000Y-51049500D01*
X153670940Y-51049500D01*
X153630019Y-51060464D01*
X153630019Y-51060465D01*
X153592751Y-51070451D01*
X153518214Y-51090423D01*
X153518209Y-51090426D01*
X153381290Y-51169475D01*
X153381282Y-51169481D01*
X152569482Y-51981281D01*
X152569478Y-51981287D01*
X152563441Y-51991743D01*
X152512872Y-52039957D01*
X152469309Y-52053028D01*
X152467976Y-52053172D01*
X152442516Y-52055908D01*
X152307671Y-52106202D01*
X152307664Y-52106206D01*
X152192455Y-52192452D01*
X152192452Y-52192455D01*
X152106206Y-52307664D01*
X152106202Y-52307671D01*
X152055908Y-52442517D01*
X152052247Y-52476576D01*
X152049501Y-52502123D01*
X152049500Y-52502135D01*
X152049500Y-54397870D01*
X152049501Y-54397876D01*
X152055908Y-54457483D01*
X152106202Y-54592328D01*
X152106206Y-54592335D01*
X152192452Y-54707544D01*
X152192455Y-54707547D01*
X152307664Y-54793793D01*
X152307671Y-54793797D01*
X152442517Y-54844091D01*
X152442516Y-54844091D01*
X152449444Y-54844835D01*
X152502127Y-54850500D01*
X153597872Y-54850499D01*
X153657483Y-54844091D01*
X153792331Y-54793796D01*
X153907546Y-54707546D01*
X153993796Y-54592331D01*
X154044091Y-54457483D01*
X154050500Y-54397873D01*
X154050499Y-52502128D01*
X154044091Y-52442517D01*
X154040632Y-52433242D01*
X154034885Y-52417832D01*
X154029901Y-52348140D01*
X154063387Y-52286818D01*
X154124711Y-52253333D01*
X154151067Y-52250500D01*
X158099138Y-52250500D01*
X158166177Y-52270185D01*
X158186818Y-52286818D01*
X158350000Y-52450000D01*
X159597080Y-52450000D01*
X159664119Y-52469685D01*
X159709874Y-52522489D01*
X159719818Y-52591647D01*
X159691702Y-52654141D01*
X159669040Y-52680897D01*
X159669036Y-52680903D01*
X159669034Y-52680906D01*
X159573566Y-52841121D01*
X159541742Y-52894530D01*
X159451353Y-53126174D01*
X159451350Y-53126184D01*
X159400319Y-53369561D01*
X159400318Y-53369564D01*
X159393900Y-53472949D01*
X159393900Y-54388650D01*
X159400318Y-54492035D01*
X159400319Y-54492038D01*
X159451350Y-54735415D01*
X159451353Y-54735425D01*
X159541742Y-54967069D01*
X159541744Y-54967073D01*
X159655460Y-55157913D01*
X159669039Y-55180702D01*
X159829748Y-55370449D01*
X159829750Y-55370451D01*
X160019497Y-55531160D01*
X160019503Y-55531163D01*
X160019506Y-55531166D01*
X160233127Y-55658456D01*
X160233130Y-55658457D01*
X160464774Y-55748846D01*
X160464781Y-55748848D01*
X160464786Y-55748850D01*
X160708163Y-55799881D01*
X160811558Y-55806300D01*
X160811569Y-55806300D01*
X160977231Y-55806300D01*
X160977242Y-55806300D01*
X161080637Y-55799881D01*
X161324014Y-55748850D01*
X161324021Y-55748846D01*
X161324025Y-55748846D01*
X161403380Y-55717880D01*
X161555673Y-55658456D01*
X161769294Y-55531166D01*
X161769298Y-55531161D01*
X161769302Y-55531160D01*
X161959049Y-55370451D01*
X161959050Y-55370450D01*
X162069778Y-55239715D01*
X162128126Y-55201280D01*
X162197991Y-55200493D01*
X162257192Y-55237602D01*
X162259022Y-55239715D01*
X162369749Y-55370450D01*
X162369750Y-55370451D01*
X162559497Y-55531160D01*
X162559503Y-55531163D01*
X162559506Y-55531166D01*
X162773127Y-55658456D01*
X162773130Y-55658457D01*
X163004774Y-55748846D01*
X163004781Y-55748848D01*
X163004786Y-55748850D01*
X163248163Y-55799881D01*
X163351558Y-55806300D01*
X163351569Y-55806300D01*
X163517231Y-55806300D01*
X163517242Y-55806300D01*
X163620637Y-55799881D01*
X163864014Y-55748850D01*
X163864021Y-55748846D01*
X163864025Y-55748846D01*
X163943380Y-55717880D01*
X164095673Y-55658456D01*
X164309294Y-55531166D01*
X164309298Y-55531161D01*
X164309302Y-55531160D01*
X164499049Y-55370451D01*
X164499050Y-55370450D01*
X164609778Y-55239715D01*
X164668126Y-55201280D01*
X164737991Y-55200493D01*
X164797192Y-55237602D01*
X164799022Y-55239715D01*
X164909749Y-55370450D01*
X164909750Y-55370451D01*
X165099497Y-55531160D01*
X165099503Y-55531163D01*
X165099506Y-55531166D01*
X165313127Y-55658456D01*
X165313130Y-55658457D01*
X165544774Y-55748846D01*
X165544781Y-55748848D01*
X165544786Y-55748850D01*
X165788163Y-55799881D01*
X165891558Y-55806300D01*
X165891569Y-55806300D01*
X166057231Y-55806300D01*
X166057242Y-55806300D01*
X166160637Y-55799881D01*
X166404014Y-55748850D01*
X166404021Y-55748846D01*
X166404025Y-55748846D01*
X166483380Y-55717880D01*
X166635673Y-55658456D01*
X166849294Y-55531166D01*
X166849298Y-55531161D01*
X166849302Y-55531160D01*
X167039049Y-55370451D01*
X167039050Y-55370450D01*
X167149778Y-55239715D01*
X167208126Y-55201280D01*
X167277991Y-55200493D01*
X167337192Y-55237602D01*
X167339022Y-55239715D01*
X167449749Y-55370450D01*
X167449750Y-55370451D01*
X167639497Y-55531160D01*
X167639503Y-55531163D01*
X167639506Y-55531166D01*
X167853127Y-55658456D01*
X167853130Y-55658457D01*
X168084774Y-55748846D01*
X168084781Y-55748848D01*
X168084786Y-55748850D01*
X168328163Y-55799881D01*
X168431558Y-55806300D01*
X168431569Y-55806300D01*
X168597231Y-55806300D01*
X168597242Y-55806300D01*
X168700637Y-55799881D01*
X168944014Y-55748850D01*
X168944021Y-55748846D01*
X168944025Y-55748846D01*
X169023380Y-55717880D01*
X169175673Y-55658456D01*
X169389294Y-55531166D01*
X169389298Y-55531161D01*
X169389302Y-55531160D01*
X169579049Y-55370451D01*
X169579050Y-55370450D01*
X169689778Y-55239715D01*
X169748126Y-55201280D01*
X169817991Y-55200493D01*
X169877192Y-55237602D01*
X169879022Y-55239715D01*
X169989749Y-55370450D01*
X169989750Y-55370451D01*
X170179497Y-55531160D01*
X170179503Y-55531163D01*
X170179506Y-55531166D01*
X170393127Y-55658456D01*
X170393130Y-55658457D01*
X170624774Y-55748846D01*
X170624781Y-55748848D01*
X170624786Y-55748850D01*
X170868163Y-55799881D01*
X170971558Y-55806300D01*
X170971569Y-55806300D01*
X171137231Y-55806300D01*
X171137242Y-55806300D01*
X171240637Y-55799881D01*
X171484014Y-55748850D01*
X171484021Y-55748846D01*
X171484025Y-55748846D01*
X171563380Y-55717880D01*
X171715673Y-55658456D01*
X171929294Y-55531166D01*
X171929298Y-55531161D01*
X171929302Y-55531160D01*
X172119046Y-55370453D01*
X172119050Y-55370450D01*
X172230106Y-55239326D01*
X172288453Y-55200893D01*
X172358318Y-55200106D01*
X172417518Y-55237215D01*
X172419349Y-55239327D01*
X172530107Y-55370098D01*
X172719791Y-55530753D01*
X172933350Y-55658006D01*
X173164917Y-55748364D01*
X173164927Y-55748367D01*
X173344400Y-55785998D01*
X173344400Y-55050000D01*
X173844400Y-55050000D01*
X173844400Y-55785998D01*
X174023872Y-55748367D01*
X174023882Y-55748364D01*
X174255449Y-55658006D01*
X174469008Y-55530753D01*
X174658691Y-55370098D01*
X174769448Y-55239328D01*
X174827797Y-55200893D01*
X174897662Y-55200105D01*
X174956862Y-55237215D01*
X174958693Y-55239327D01*
X175069752Y-55370453D01*
X175259497Y-55531160D01*
X175259503Y-55531163D01*
X175259506Y-55531166D01*
X175473127Y-55658456D01*
X175473130Y-55658457D01*
X175704774Y-55748846D01*
X175704781Y-55748848D01*
X175704786Y-55748850D01*
X175828385Y-55774766D01*
X175889956Y-55807788D01*
X175923901Y-55868858D01*
X175919440Y-55938585D01*
X175915136Y-55948918D01*
X175868594Y-56047827D01*
X175813658Y-56164572D01*
X175720320Y-56451835D01*
X175663719Y-56748546D01*
X175663718Y-56748553D01*
X175644754Y-57049994D01*
X175644754Y-57050005D01*
X175663718Y-57351446D01*
X175663719Y-57351453D01*
X175720320Y-57648164D01*
X175813659Y-57935431D01*
X175813661Y-57935436D01*
X175942265Y-58208732D01*
X175942268Y-58208738D01*
X176104111Y-58463763D01*
X176296652Y-58696505D01*
X176516836Y-58903272D01*
X176516846Y-58903280D01*
X176615810Y-58975182D01*
X176658476Y-59030512D01*
X176664455Y-59100125D01*
X176631849Y-59161920D01*
X176571011Y-59196277D01*
X176542925Y-59199500D01*
X115557075Y-59199500D01*
X115490036Y-59179815D01*
X115444281Y-59127011D01*
X115434337Y-59057853D01*
X115463362Y-58994297D01*
X115484190Y-58975182D01*
X115549488Y-58927738D01*
X115583162Y-58903274D01*
X115803349Y-58696504D01*
X115995885Y-58463768D01*
X116157733Y-58208736D01*
X116286341Y-57935430D01*
X116379681Y-57648160D01*
X116436280Y-57351457D01*
X116436281Y-57351446D01*
X116455246Y-57050005D01*
X116455246Y-57049994D01*
X116436281Y-56748553D01*
X116436280Y-56748546D01*
X116436280Y-56748543D01*
X116379681Y-56451840D01*
X116286341Y-56164570D01*
X116282284Y-56155949D01*
X116188291Y-55956204D01*
X116157733Y-55891264D01*
X116083801Y-55774765D01*
X115995888Y-55636236D01*
X115908625Y-55530753D01*
X115803349Y-55403496D01*
X115583162Y-55196726D01*
X115583159Y-55196724D01*
X115583153Y-55196719D01*
X115338806Y-55019191D01*
X115338799Y-55019186D01*
X115338795Y-55019184D01*
X115091372Y-54883161D01*
X115042109Y-54833616D01*
X115027453Y-54765300D01*
X115052057Y-54699906D01*
X115108110Y-54658195D01*
X115151111Y-54650500D01*
X146063331Y-54650500D01*
X146063347Y-54650501D01*
X146070943Y-54650501D01*
X146229054Y-54650501D01*
X146229057Y-54650501D01*
X146381785Y-54609577D01*
X146431904Y-54580639D01*
X146518716Y-54530520D01*
X146630520Y-54418716D01*
X146630520Y-54418714D01*
X146640728Y-54408507D01*
X146640730Y-54408504D01*
X147349234Y-53700000D01*
X148350000Y-53700000D01*
X148350000Y-54397844D01*
X148356401Y-54457372D01*
X148356403Y-54457379D01*
X148406645Y-54592086D01*
X148406649Y-54592093D01*
X148492809Y-54707187D01*
X148492812Y-54707190D01*
X148607906Y-54793350D01*
X148607913Y-54793354D01*
X148742620Y-54843596D01*
X148742627Y-54843598D01*
X148802155Y-54849999D01*
X148802172Y-54850000D01*
X149100000Y-54850000D01*
X149100000Y-53700000D01*
X149600000Y-53700000D01*
X149600000Y-54850000D01*
X149897828Y-54850000D01*
X149897844Y-54849999D01*
X149957372Y-54843598D01*
X149957379Y-54843596D01*
X150092086Y-54793354D01*
X150092093Y-54793350D01*
X150207187Y-54707190D01*
X150207190Y-54707187D01*
X150293350Y-54592093D01*
X150293354Y-54592086D01*
X150343596Y-54457379D01*
X150343598Y-54457372D01*
X150349999Y-54397844D01*
X150350000Y-54397827D01*
X150350000Y-53700000D01*
X149600000Y-53700000D01*
X149100000Y-53700000D01*
X148350000Y-53700000D01*
X147349234Y-53700000D01*
X148138319Y-52910915D01*
X148199642Y-52877430D01*
X148269334Y-52882414D01*
X148325267Y-52924286D01*
X148349684Y-52989750D01*
X148350000Y-52998596D01*
X148350000Y-53200000D01*
X149100000Y-53200000D01*
X149100000Y-52050000D01*
X149600000Y-52050000D01*
X149600000Y-53200000D01*
X150350000Y-53200000D01*
X150350000Y-52502172D01*
X150349999Y-52502155D01*
X150343598Y-52442627D01*
X150343596Y-52442620D01*
X150293354Y-52307913D01*
X150293350Y-52307906D01*
X150207190Y-52192812D01*
X150207187Y-52192809D01*
X150092093Y-52106649D01*
X150092086Y-52106645D01*
X149957379Y-52056403D01*
X149957372Y-52056401D01*
X149897844Y-52050000D01*
X149600000Y-52050000D01*
X149100000Y-52050000D01*
X149100000Y-52000596D01*
X149119685Y-51933557D01*
X149136319Y-51912915D01*
X150191690Y-50857544D01*
X151338713Y-49710521D01*
X151338716Y-49710520D01*
X151450520Y-49598716D01*
X151467451Y-49569388D01*
X151487156Y-49543708D01*
X151517318Y-49513546D01*
X151578641Y-49480061D01*
X151648333Y-49485045D01*
X151692680Y-49513546D01*
X151739269Y-49560135D01*
X151739273Y-49560138D01*
X151867919Y-49646097D01*
X151867925Y-49646100D01*
X151867926Y-49646101D01*
X152010878Y-49705314D01*
X152148146Y-49732618D01*
X152162630Y-49735499D01*
X152162634Y-49735500D01*
X152162635Y-49735500D01*
X152317366Y-49735500D01*
X152317367Y-49735499D01*
X152469122Y-49705314D01*
X152612074Y-49646101D01*
X152740727Y-49560138D01*
X152758411Y-49542454D01*
X152787319Y-49513547D01*
X152848642Y-49480062D01*
X152918334Y-49485046D01*
X152962681Y-49513547D01*
X153009269Y-49560135D01*
X153009273Y-49560138D01*
X153137919Y-49646097D01*
X153137925Y-49646100D01*
X153137926Y-49646101D01*
X153280878Y-49705314D01*
X153418146Y-49732618D01*
X153432630Y-49735499D01*
X153432634Y-49735500D01*
X153432635Y-49735500D01*
X153587366Y-49735500D01*
X153587367Y-49735499D01*
X153739122Y-49705314D01*
X153882074Y-49646101D01*
X154010727Y-49560138D01*
X154062674Y-49508190D01*
X154123993Y-49474707D01*
X154193684Y-49479690D01*
X154238034Y-49508192D01*
X154289588Y-49559746D01*
X154289592Y-49559749D01*
X154418156Y-49645654D01*
X154418169Y-49645661D01*
X154539999Y-49696124D01*
X154540000Y-49696124D01*
X154540000Y-48290000D01*
X155040000Y-48290000D01*
X155040000Y-49696124D01*
X155161830Y-49645661D01*
X155161843Y-49645654D01*
X155290407Y-49559749D01*
X155290411Y-49559746D01*
X155399746Y-49450411D01*
X155399749Y-49450407D01*
X155485659Y-49321835D01*
X155544832Y-49178976D01*
X155544834Y-49178968D01*
X155574999Y-49027320D01*
X155575000Y-49027317D01*
X155575000Y-48290000D01*
X155040000Y-48290000D01*
X154540000Y-48290000D01*
X154540000Y-47914000D01*
X154559685Y-47846961D01*
X154612489Y-47801206D01*
X154664000Y-47790000D01*
X155575000Y-47790000D01*
X155575000Y-47269500D01*
X155594685Y-47202461D01*
X155647489Y-47156706D01*
X155699000Y-47145500D01*
X155748503Y-47145500D01*
X155815542Y-47165185D01*
G37*
%TD.AperFunction*%
%TD*%
M02*
