%TF.GenerationSoftware,KiCad,Pcbnew,8.0.1*%
%TF.CreationDate,2025-02-03T01:20:01-05:00*%
%TF.ProjectId,glove-v3.1,676c6f76-652d-4763-932e-312e6b696361,rev?*%
%TF.SameCoordinates,Original*%
%TF.FileFunction,Copper,L4,Bot*%
%TF.FilePolarity,Positive*%
%FSLAX46Y46*%
G04 Gerber Fmt 4.6, Leading zero omitted, Abs format (unit mm)*
G04 Created by KiCad (PCBNEW 8.0.1) date 2025-02-03 01:20:01*
%MOMM*%
%LPD*%
G01*
G04 APERTURE LIST*
%TA.AperFunction,ComponentPad*%
%ADD10C,1.524000*%
%TD*%
%TA.AperFunction,ComponentPad*%
%ADD11C,3.800000*%
%TD*%
%TA.AperFunction,ViaPad*%
%ADD12C,0.450000*%
%TD*%
G04 APERTURE END LIST*
D10*
%TO.P,U1,1,PA02_A0_D0*%
%TO.N,unconnected-(U1-PA02_A0_D0-Pad1)*%
X176150000Y-38150000D03*
%TO.P,U1,2,PA4_A1_D1*%
%TO.N,unconnected-(U1-PA4_A1_D1-Pad2)*%
X173610000Y-38150000D03*
%TO.P,U1,3,PA10_A2_D2*%
%TO.N,/MUX_OUT*%
X171070000Y-38150000D03*
%TO.P,U1,4,PA11_A3_D3*%
%TO.N,unconnected-(U1-PA11_A3_D3-Pad4)*%
X168530000Y-38150000D03*
%TO.P,U1,5,PA8_A4_D4_SDA*%
%TO.N,/S2*%
X165990000Y-38150000D03*
%TO.P,U1,6,PA9_A5_D5_SCL*%
%TO.N,/S3*%
X163450000Y-38150000D03*
%TO.P,U1,7,PB08_A6_D6_TX*%
%TO.N,unconnected-(U1-PB08_A6_D6_TX-Pad7)*%
X160910000Y-38150000D03*
%TO.P,U1,8,PB09_A7_D7_RX*%
%TO.N,unconnected-(U1-PB09_A7_D7_RX-Pad8)*%
X160910000Y-53542400D03*
%TO.P,U1,9,PA7_A8_D8_SCK*%
%TO.N,Net-(U1-PA7_A8_D8_SCK)*%
X163450000Y-53542400D03*
%TO.P,U1,10,PA5_A9_D9_MISO*%
%TO.N,/S1*%
X165990000Y-53542400D03*
%TO.P,U1,11,PA6_A10_D10_MOSI*%
%TO.N,/S0*%
X168530000Y-53542400D03*
%TO.P,U1,12,3V3*%
%TO.N,+3V3*%
X171070000Y-53542400D03*
%TO.P,U1,13,GND*%
%TO.N,GND*%
X173610000Y-53542400D03*
%TO.P,U1,14,5V*%
%TO.N,unconnected-(U1-5V-Pad14)*%
X176150000Y-53542400D03*
%TD*%
D11*
%TO.P,REF\u002A\u002A,1*%
%TO.N,N/C*%
X114050000Y-34550000D03*
%TD*%
%TO.P,REF\u002A\u002A,1*%
%TO.N,N/C*%
X178050000Y-57050000D03*
%TD*%
%TO.P,REF\u002A\u002A,1*%
%TO.N,N/C*%
X114050000Y-57050000D03*
%TD*%
%TO.P,REF\u002A\u002A,1*%
%TO.N,N/C*%
X178050000Y-34550000D03*
%TD*%
D12*
%TO.N,GND*%
X107040000Y-49200000D03*
X105200000Y-30380000D03*
X170200000Y-30380000D03*
X131200000Y-30380000D03*
X118200000Y-30380000D03*
X107052500Y-55700000D03*
X107040000Y-36200000D03*
X157200000Y-30380000D03*
X144200000Y-30380000D03*
X107040000Y-42700000D03*
X176700000Y-30380000D03*
X124700000Y-30380000D03*
X154240000Y-37450000D03*
X150700000Y-30380000D03*
X163700000Y-30380000D03*
X140650000Y-37450000D03*
X111700000Y-30380000D03*
X137700000Y-30380000D03*
X156790000Y-46930000D03*
%TO.N,+3V3*%
X130200000Y-30380000D03*
X169200000Y-30380000D03*
X123700000Y-30380000D03*
X162700000Y-30380000D03*
X110700000Y-30380000D03*
X149700000Y-30380000D03*
X136700000Y-30380000D03*
X107040000Y-43700000D03*
X142810000Y-37450000D03*
X156200000Y-30380000D03*
X104200000Y-30380000D03*
X175700000Y-30380000D03*
X107040000Y-37200000D03*
X143200000Y-30380000D03*
X107040000Y-50200000D03*
X117200000Y-30380000D03*
X107052500Y-56700000D03*
%TD*%
M02*
