%TF.GenerationSoftware,KiCad,Pcbnew,8.0.1*%
%TF.CreationDate,2025-02-03T01:20:01-05:00*%
%TF.ProjectId,glove-v3.1,676c6f76-652d-4763-932e-312e6b696361,rev?*%
%TF.SameCoordinates,Original*%
%TF.FileFunction,Copper,L3,Inr*%
%TF.FilePolarity,Positive*%
%FSLAX46Y46*%
G04 Gerber Fmt 4.6, Leading zero omitted, Abs format (unit mm)*
G04 Created by KiCad (PCBNEW 8.0.1) date 2025-02-03 01:20:01*
%MOMM*%
%LPD*%
G01*
G04 APERTURE LIST*
%TA.AperFunction,ComponentPad*%
%ADD10C,1.524000*%
%TD*%
%TA.AperFunction,ComponentPad*%
%ADD11C,3.800000*%
%TD*%
%TA.AperFunction,ViaPad*%
%ADD12C,0.450000*%
%TD*%
G04 APERTURE END LIST*
D10*
%TO.N,unconnected-(U1-PA02_A0_D0-Pad1)*%
%TO.C,U1*%
X176150000Y-38150000D03*
%TO.N,unconnected-(U1-PA4_A1_D1-Pad2)*%
X173610000Y-38150000D03*
%TO.N,/MUX_OUT*%
X171070000Y-38150000D03*
%TO.N,unconnected-(U1-PA11_A3_D3-Pad4)*%
X168530000Y-38150000D03*
%TO.N,/S2*%
X165990000Y-38150000D03*
%TO.N,/S3*%
X163450000Y-38150000D03*
%TO.N,unconnected-(U1-PB08_A6_D6_TX-Pad7)*%
X160910000Y-38150000D03*
%TO.N,unconnected-(U1-PB09_A7_D7_RX-Pad8)*%
X160910000Y-53542400D03*
%TO.N,Net-(U1-PA7_A8_D8_SCK)*%
X163450000Y-53542400D03*
%TO.N,/S1*%
X165990000Y-53542400D03*
%TO.N,/S0*%
X168530000Y-53542400D03*
%TO.N,+3V3*%
X171070000Y-53542400D03*
%TO.N,GND*%
X173610000Y-53542400D03*
%TO.N,unconnected-(U1-5V-Pad14)*%
X176150000Y-53542400D03*
%TD*%
D11*
%TO.N,N/C*%
%TO.C,REF\u002A\u002A*%
X114050000Y-34550000D03*
%TD*%
%TO.N,N/C*%
%TO.C,REF\u002A\u002A*%
X178050000Y-57050000D03*
%TD*%
%TO.N,N/C*%
%TO.C,REF\u002A\u002A*%
X114050000Y-57050000D03*
%TD*%
%TO.N,N/C*%
%TO.C,REF\u002A\u002A*%
X178050000Y-34550000D03*
%TD*%
D12*
%TO.N,GND*%
X107040000Y-49200000D03*
X105200000Y-30380000D03*
X170200000Y-30380000D03*
X131200000Y-30380000D03*
X118200000Y-30380000D03*
X107052500Y-55700000D03*
X107040000Y-36200000D03*
X157200000Y-30380000D03*
X144200000Y-30380000D03*
X107040000Y-42700000D03*
X176700000Y-30380000D03*
X124700000Y-30380000D03*
X154240000Y-37450000D03*
X150700000Y-30380000D03*
X163700000Y-30380000D03*
X140650000Y-37450000D03*
X111700000Y-30380000D03*
X137700000Y-30380000D03*
X156790000Y-46930000D03*
%TO.N,+3V3*%
X130200000Y-30380000D03*
X169200000Y-30380000D03*
X123700000Y-30380000D03*
X162700000Y-30380000D03*
X110700000Y-30380000D03*
X149700000Y-30380000D03*
X136700000Y-30380000D03*
X107040000Y-43700000D03*
X142810000Y-37450000D03*
X156200000Y-30380000D03*
X104200000Y-30380000D03*
X175700000Y-30380000D03*
X107040000Y-37200000D03*
X143200000Y-30380000D03*
X107040000Y-50200000D03*
X117200000Y-30380000D03*
X107052500Y-56700000D03*
%TD*%
%TA.AperFunction,Conductor*%
%TO.N,GND*%
G36*
X179892539Y-25220185D02*
G01*
X179938294Y-25272989D01*
X179949500Y-25324500D01*
X179949500Y-32754193D01*
X179929815Y-32821232D01*
X179877011Y-32866987D01*
X179807853Y-32876931D01*
X179744297Y-32847906D01*
X179740616Y-32844585D01*
X179583163Y-32696727D01*
X179583153Y-32696719D01*
X179338806Y-32519191D01*
X179338799Y-32519186D01*
X179338795Y-32519184D01*
X179074104Y-32373668D01*
X179074101Y-32373666D01*
X179074096Y-32373664D01*
X179074095Y-32373663D01*
X178793265Y-32262475D01*
X178793262Y-32262474D01*
X178500695Y-32187357D01*
X178201036Y-32149500D01*
X178201027Y-32149500D01*
X177898973Y-32149500D01*
X177898963Y-32149500D01*
X177599304Y-32187357D01*
X177306737Y-32262474D01*
X177306734Y-32262475D01*
X177025904Y-32373663D01*
X177025903Y-32373664D01*
X176761205Y-32519184D01*
X176761193Y-32519191D01*
X176516846Y-32696719D01*
X176516836Y-32696727D01*
X176296652Y-32903494D01*
X176104111Y-33136236D01*
X175942268Y-33391261D01*
X175942265Y-33391267D01*
X175813661Y-33664563D01*
X175813659Y-33664568D01*
X175720320Y-33951835D01*
X175663719Y-34248546D01*
X175663718Y-34248553D01*
X175644754Y-34549994D01*
X175644754Y-34550005D01*
X175663718Y-34851446D01*
X175663719Y-34851453D01*
X175720320Y-35148164D01*
X175813659Y-35435431D01*
X175813661Y-35435436D01*
X175942265Y-35708732D01*
X175942268Y-35708738D01*
X176104111Y-35963763D01*
X176296652Y-36196505D01*
X176516836Y-36403272D01*
X176516846Y-36403280D01*
X176761193Y-36580808D01*
X176761198Y-36580810D01*
X176761205Y-36580816D01*
X177025896Y-36726332D01*
X177025901Y-36726334D01*
X177025903Y-36726335D01*
X177025904Y-36726336D01*
X177306734Y-36837524D01*
X177306737Y-36837525D01*
X177404259Y-36862564D01*
X177599302Y-36912642D01*
X177746039Y-36931179D01*
X177898963Y-36950499D01*
X177898969Y-36950499D01*
X177898973Y-36950500D01*
X177898975Y-36950500D01*
X178201025Y-36950500D01*
X178201027Y-36950500D01*
X178201032Y-36950499D01*
X178201036Y-36950499D01*
X178280591Y-36940448D01*
X178500698Y-36912642D01*
X178793262Y-36837525D01*
X178793265Y-36837524D01*
X179074095Y-36726336D01*
X179074096Y-36726335D01*
X179074094Y-36726335D01*
X179074104Y-36726332D01*
X179338795Y-36580816D01*
X179583162Y-36403274D01*
X179740616Y-36255413D01*
X179802960Y-36223872D01*
X179872461Y-36231043D01*
X179927052Y-36274650D01*
X179949401Y-36340849D01*
X179949500Y-36345806D01*
X179949500Y-55254193D01*
X179929815Y-55321232D01*
X179877011Y-55366987D01*
X179807853Y-55376931D01*
X179744297Y-55347906D01*
X179740616Y-55344585D01*
X179583163Y-55196727D01*
X179583153Y-55196719D01*
X179338806Y-55019191D01*
X179338799Y-55019186D01*
X179338795Y-55019184D01*
X179074104Y-54873668D01*
X179074101Y-54873666D01*
X179074096Y-54873664D01*
X179074095Y-54873663D01*
X178793265Y-54762475D01*
X178793262Y-54762474D01*
X178500695Y-54687357D01*
X178201036Y-54649500D01*
X178201027Y-54649500D01*
X177898973Y-54649500D01*
X177898963Y-54649500D01*
X177599304Y-54687357D01*
X177306737Y-54762474D01*
X177306734Y-54762475D01*
X177025904Y-54873663D01*
X177025903Y-54873664D01*
X176761205Y-55019184D01*
X176761193Y-55019191D01*
X176516846Y-55196719D01*
X176516836Y-55196727D01*
X176296652Y-55403494D01*
X176104111Y-55636236D01*
X175942268Y-55891261D01*
X175942265Y-55891267D01*
X175813661Y-56164563D01*
X175813659Y-56164568D01*
X175720320Y-56451835D01*
X175663719Y-56748546D01*
X175663718Y-56748553D01*
X175644754Y-57049994D01*
X175644754Y-57050005D01*
X175663718Y-57351446D01*
X175663719Y-57351453D01*
X175720320Y-57648164D01*
X175813659Y-57935431D01*
X175813661Y-57935436D01*
X175942265Y-58208732D01*
X175942268Y-58208738D01*
X176104111Y-58463763D01*
X176296652Y-58696505D01*
X176516836Y-58903272D01*
X176516846Y-58903280D01*
X176615810Y-58975182D01*
X176658476Y-59030512D01*
X176664455Y-59100125D01*
X176631849Y-59161920D01*
X176571011Y-59196277D01*
X176542925Y-59199500D01*
X115557075Y-59199500D01*
X115490036Y-59179815D01*
X115444281Y-59127011D01*
X115434337Y-59057853D01*
X115463362Y-58994297D01*
X115484190Y-58975182D01*
X115549488Y-58927738D01*
X115583162Y-58903274D01*
X115803349Y-58696504D01*
X115995885Y-58463768D01*
X116157733Y-58208736D01*
X116286341Y-57935430D01*
X116379681Y-57648160D01*
X116436280Y-57351457D01*
X116455246Y-57050000D01*
X116436280Y-56748543D01*
X116379681Y-56451840D01*
X116286341Y-56164570D01*
X116269693Y-56129192D01*
X116203353Y-55988212D01*
X116157733Y-55891264D01*
X115995885Y-55636232D01*
X115803349Y-55403496D01*
X115583162Y-55196726D01*
X115583159Y-55196724D01*
X115583153Y-55196719D01*
X115338806Y-55019191D01*
X115338799Y-55019186D01*
X115338795Y-55019184D01*
X115074104Y-54873668D01*
X115074101Y-54873666D01*
X115074096Y-54873664D01*
X115074095Y-54873663D01*
X114793265Y-54762475D01*
X114793262Y-54762474D01*
X114500695Y-54687357D01*
X114201036Y-54649500D01*
X114201027Y-54649500D01*
X113898973Y-54649500D01*
X113898963Y-54649500D01*
X113599304Y-54687357D01*
X113306737Y-54762474D01*
X113306734Y-54762475D01*
X113025904Y-54873663D01*
X113025903Y-54873664D01*
X112761205Y-55019184D01*
X112761193Y-55019191D01*
X112516846Y-55196719D01*
X112516836Y-55196727D01*
X112296652Y-55403494D01*
X112104111Y-55636236D01*
X111942268Y-55891261D01*
X111942265Y-55891267D01*
X111813661Y-56164563D01*
X111813659Y-56164568D01*
X111720320Y-56451835D01*
X111663719Y-56748546D01*
X111663718Y-56748553D01*
X111644754Y-57049994D01*
X111644754Y-57050005D01*
X111663718Y-57351446D01*
X111663719Y-57351453D01*
X111720320Y-57648164D01*
X111813659Y-57935431D01*
X111813661Y-57935436D01*
X111942265Y-58208732D01*
X111942268Y-58208738D01*
X112104111Y-58463763D01*
X112296652Y-58696505D01*
X112516836Y-58903272D01*
X112516846Y-58903280D01*
X112615810Y-58975182D01*
X112658476Y-59030512D01*
X112664455Y-59100125D01*
X112631849Y-59161920D01*
X112571011Y-59196277D01*
X112542925Y-59199500D01*
X102074500Y-59199500D01*
X102007461Y-59179815D01*
X101961706Y-59127011D01*
X101950500Y-59075500D01*
X101950500Y-56700003D01*
X106322409Y-56700003D01*
X106340712Y-56862455D01*
X106394710Y-57016774D01*
X106415591Y-57050005D01*
X106481692Y-57155204D01*
X106597296Y-57270808D01*
X106735725Y-57357789D01*
X106890039Y-57411786D01*
X106890042Y-57411786D01*
X106890044Y-57411787D01*
X107052496Y-57430091D01*
X107052500Y-57430091D01*
X107052504Y-57430091D01*
X107214955Y-57411787D01*
X107214956Y-57411786D01*
X107214961Y-57411786D01*
X107369275Y-57357789D01*
X107507704Y-57270808D01*
X107623308Y-57155204D01*
X107710289Y-57016775D01*
X107764286Y-56862461D01*
X107764287Y-56862455D01*
X107782591Y-56700003D01*
X107782591Y-56699996D01*
X107764287Y-56537544D01*
X107764286Y-56537542D01*
X107764286Y-56537539D01*
X107710289Y-56383225D01*
X107623308Y-56244796D01*
X107507704Y-56129192D01*
X107369274Y-56042210D01*
X107214955Y-55988212D01*
X107052504Y-55969909D01*
X107052496Y-55969909D01*
X106890044Y-55988212D01*
X106735725Y-56042210D01*
X106597295Y-56129192D01*
X106481692Y-56244795D01*
X106394710Y-56383225D01*
X106340712Y-56537544D01*
X106322409Y-56699996D01*
X106322409Y-56700003D01*
X101950500Y-56700003D01*
X101950500Y-53542402D01*
X159642677Y-53542402D01*
X159661929Y-53762462D01*
X159661930Y-53762470D01*
X159719104Y-53975845D01*
X159719105Y-53975847D01*
X159719106Y-53975850D01*
X159750139Y-54042400D01*
X159812466Y-54176062D01*
X159812468Y-54176066D01*
X159939170Y-54357015D01*
X159939175Y-54357021D01*
X160095378Y-54513224D01*
X160095384Y-54513229D01*
X160276333Y-54639931D01*
X160276335Y-54639932D01*
X160276338Y-54639934D01*
X160476550Y-54733294D01*
X160689932Y-54790470D01*
X160847123Y-54804222D01*
X160909998Y-54809723D01*
X160910000Y-54809723D01*
X160910002Y-54809723D01*
X160965017Y-54804909D01*
X161130068Y-54790470D01*
X161343450Y-54733294D01*
X161543662Y-54639934D01*
X161724620Y-54513226D01*
X161880826Y-54357020D01*
X162007534Y-54176062D01*
X162067618Y-54047211D01*
X162113790Y-53994771D01*
X162180983Y-53975619D01*
X162247865Y-53995835D01*
X162292382Y-54047211D01*
X162352464Y-54176058D01*
X162352468Y-54176066D01*
X162479170Y-54357015D01*
X162479175Y-54357021D01*
X162635378Y-54513224D01*
X162635384Y-54513229D01*
X162816333Y-54639931D01*
X162816335Y-54639932D01*
X162816338Y-54639934D01*
X163016550Y-54733294D01*
X163229932Y-54790470D01*
X163387123Y-54804222D01*
X163449998Y-54809723D01*
X163450000Y-54809723D01*
X163450002Y-54809723D01*
X163505017Y-54804909D01*
X163670068Y-54790470D01*
X163883450Y-54733294D01*
X164083662Y-54639934D01*
X164264620Y-54513226D01*
X164420826Y-54357020D01*
X164547534Y-54176062D01*
X164607618Y-54047211D01*
X164653790Y-53994771D01*
X164720983Y-53975619D01*
X164787865Y-53995835D01*
X164832382Y-54047211D01*
X164892464Y-54176058D01*
X164892468Y-54176066D01*
X165019170Y-54357015D01*
X165019175Y-54357021D01*
X165175378Y-54513224D01*
X165175384Y-54513229D01*
X165356333Y-54639931D01*
X165356335Y-54639932D01*
X165356338Y-54639934D01*
X165556550Y-54733294D01*
X165769932Y-54790470D01*
X165927123Y-54804222D01*
X165989998Y-54809723D01*
X165990000Y-54809723D01*
X165990002Y-54809723D01*
X166045017Y-54804909D01*
X166210068Y-54790470D01*
X166423450Y-54733294D01*
X166623662Y-54639934D01*
X166804620Y-54513226D01*
X166960826Y-54357020D01*
X167087534Y-54176062D01*
X167147618Y-54047211D01*
X167193790Y-53994771D01*
X167260983Y-53975619D01*
X167327865Y-53995835D01*
X167372382Y-54047211D01*
X167432464Y-54176058D01*
X167432468Y-54176066D01*
X167559170Y-54357015D01*
X167559175Y-54357021D01*
X167715378Y-54513224D01*
X167715384Y-54513229D01*
X167896333Y-54639931D01*
X167896335Y-54639932D01*
X167896338Y-54639934D01*
X168096550Y-54733294D01*
X168309932Y-54790470D01*
X168467123Y-54804222D01*
X168529998Y-54809723D01*
X168530000Y-54809723D01*
X168530002Y-54809723D01*
X168585017Y-54804909D01*
X168750068Y-54790470D01*
X168963450Y-54733294D01*
X169163662Y-54639934D01*
X169344620Y-54513226D01*
X169500826Y-54357020D01*
X169627534Y-54176062D01*
X169687618Y-54047211D01*
X169733790Y-53994771D01*
X169800983Y-53975619D01*
X169867865Y-53995835D01*
X169912382Y-54047211D01*
X169972464Y-54176058D01*
X169972468Y-54176066D01*
X170099170Y-54357015D01*
X170099175Y-54357021D01*
X170255378Y-54513224D01*
X170255384Y-54513229D01*
X170436333Y-54639931D01*
X170436335Y-54639932D01*
X170436338Y-54639934D01*
X170636550Y-54733294D01*
X170849932Y-54790470D01*
X171007123Y-54804222D01*
X171069998Y-54809723D01*
X171070000Y-54809723D01*
X171070002Y-54809723D01*
X171125017Y-54804909D01*
X171290068Y-54790470D01*
X171503450Y-54733294D01*
X171703662Y-54639934D01*
X171884620Y-54513226D01*
X172040826Y-54357020D01*
X172167534Y-54176062D01*
X172227894Y-54046618D01*
X172274066Y-53994179D01*
X172341259Y-53975027D01*
X172408141Y-53995243D01*
X172452658Y-54046619D01*
X172512898Y-54175805D01*
X172512901Y-54175811D01*
X172558258Y-54240587D01*
X172558259Y-54240588D01*
X173127037Y-53671809D01*
X173144075Y-53735393D01*
X173209901Y-53849407D01*
X173302993Y-53942499D01*
X173417007Y-54008325D01*
X173480590Y-54025362D01*
X172911810Y-54594140D01*
X172976590Y-54639499D01*
X172976592Y-54639500D01*
X173176715Y-54732819D01*
X173176729Y-54732824D01*
X173390013Y-54789973D01*
X173390023Y-54789975D01*
X173609999Y-54809221D01*
X173610001Y-54809221D01*
X173829976Y-54789975D01*
X173829986Y-54789973D01*
X174043270Y-54732824D01*
X174043284Y-54732819D01*
X174243407Y-54639500D01*
X174243417Y-54639494D01*
X174308188Y-54594141D01*
X173739410Y-54025362D01*
X173802993Y-54008325D01*
X173917007Y-53942499D01*
X174010099Y-53849407D01*
X174075925Y-53735393D01*
X174092962Y-53671809D01*
X174661741Y-54240588D01*
X174707094Y-54175817D01*
X174707095Y-54175816D01*
X174767340Y-54046619D01*
X174813512Y-53994180D01*
X174880706Y-53975027D01*
X174947587Y-53995242D01*
X174992105Y-54046618D01*
X175052466Y-54176062D01*
X175052468Y-54176066D01*
X175179170Y-54357015D01*
X175179175Y-54357021D01*
X175335378Y-54513224D01*
X175335384Y-54513229D01*
X175516333Y-54639931D01*
X175516335Y-54639932D01*
X175516338Y-54639934D01*
X175716550Y-54733294D01*
X175929932Y-54790470D01*
X176087123Y-54804222D01*
X176149998Y-54809723D01*
X176150000Y-54809723D01*
X176150002Y-54809723D01*
X176205017Y-54804909D01*
X176370068Y-54790470D01*
X176583450Y-54733294D01*
X176783662Y-54639934D01*
X176964620Y-54513226D01*
X177120826Y-54357020D01*
X177247534Y-54176062D01*
X177340894Y-53975850D01*
X177398070Y-53762468D01*
X177417323Y-53542400D01*
X177398070Y-53322332D01*
X177340894Y-53108950D01*
X177247534Y-52908739D01*
X177120826Y-52727780D01*
X176964620Y-52571574D01*
X176964616Y-52571571D01*
X176964615Y-52571570D01*
X176783666Y-52444868D01*
X176783662Y-52444866D01*
X176783660Y-52444865D01*
X176583450Y-52351506D01*
X176583447Y-52351505D01*
X176583445Y-52351504D01*
X176370070Y-52294330D01*
X176370062Y-52294329D01*
X176150002Y-52275077D01*
X176149998Y-52275077D01*
X175929937Y-52294329D01*
X175929929Y-52294330D01*
X175716554Y-52351504D01*
X175716548Y-52351507D01*
X175516340Y-52444865D01*
X175516338Y-52444866D01*
X175335377Y-52571575D01*
X175179175Y-52727777D01*
X175052467Y-52908737D01*
X174992105Y-53038182D01*
X174945932Y-53090621D01*
X174878738Y-53109772D01*
X174811857Y-53089556D01*
X174767341Y-53038180D01*
X174707098Y-52908989D01*
X174707097Y-52908987D01*
X174661741Y-52844211D01*
X174661740Y-52844210D01*
X174092962Y-53412989D01*
X174075925Y-53349407D01*
X174010099Y-53235393D01*
X173917007Y-53142301D01*
X173802993Y-53076475D01*
X173739410Y-53059437D01*
X174308188Y-52490659D01*
X174308187Y-52490658D01*
X174243411Y-52445301D01*
X174243405Y-52445298D01*
X174043284Y-52351980D01*
X174043270Y-52351975D01*
X173829986Y-52294826D01*
X173829976Y-52294824D01*
X173610001Y-52275579D01*
X173609999Y-52275579D01*
X173390023Y-52294824D01*
X173390013Y-52294826D01*
X173176729Y-52351975D01*
X173176720Y-52351979D01*
X172976590Y-52445301D01*
X172911811Y-52490658D01*
X173480590Y-53059437D01*
X173417007Y-53076475D01*
X173302993Y-53142301D01*
X173209901Y-53235393D01*
X173144075Y-53349407D01*
X173127037Y-53412990D01*
X172558258Y-52844211D01*
X172512901Y-52908990D01*
X172452658Y-53038181D01*
X172406485Y-53090620D01*
X172339292Y-53109772D01*
X172272411Y-53089556D01*
X172227894Y-53038181D01*
X172167651Y-52908990D01*
X172167534Y-52908739D01*
X172040826Y-52727780D01*
X171884620Y-52571574D01*
X171884616Y-52571571D01*
X171884615Y-52571570D01*
X171703666Y-52444868D01*
X171703662Y-52444866D01*
X171703660Y-52444865D01*
X171503450Y-52351506D01*
X171503447Y-52351505D01*
X171503445Y-52351504D01*
X171290070Y-52294330D01*
X171290062Y-52294329D01*
X171070002Y-52275077D01*
X171069998Y-52275077D01*
X170849937Y-52294329D01*
X170849929Y-52294330D01*
X170636554Y-52351504D01*
X170636548Y-52351507D01*
X170436340Y-52444865D01*
X170436338Y-52444866D01*
X170255377Y-52571575D01*
X170099175Y-52727777D01*
X169972466Y-52908738D01*
X169972465Y-52908740D01*
X169912382Y-53037589D01*
X169866209Y-53090028D01*
X169799016Y-53109180D01*
X169732135Y-53088964D01*
X169687618Y-53037589D01*
X169627651Y-52908990D01*
X169627534Y-52908739D01*
X169500826Y-52727780D01*
X169344620Y-52571574D01*
X169344616Y-52571571D01*
X169344615Y-52571570D01*
X169163666Y-52444868D01*
X169163662Y-52444866D01*
X169163660Y-52444865D01*
X168963450Y-52351506D01*
X168963447Y-52351505D01*
X168963445Y-52351504D01*
X168750070Y-52294330D01*
X168750062Y-52294329D01*
X168530002Y-52275077D01*
X168529998Y-52275077D01*
X168309937Y-52294329D01*
X168309929Y-52294330D01*
X168096554Y-52351504D01*
X168096548Y-52351507D01*
X167896340Y-52444865D01*
X167896338Y-52444866D01*
X167715377Y-52571575D01*
X167559175Y-52727777D01*
X167432466Y-52908738D01*
X167432465Y-52908740D01*
X167372382Y-53037589D01*
X167326209Y-53090028D01*
X167259016Y-53109180D01*
X167192135Y-53088964D01*
X167147618Y-53037589D01*
X167087651Y-52908990D01*
X167087534Y-52908739D01*
X166960826Y-52727780D01*
X166804620Y-52571574D01*
X166804616Y-52571571D01*
X166804615Y-52571570D01*
X166623666Y-52444868D01*
X166623662Y-52444866D01*
X166623660Y-52444865D01*
X166423450Y-52351506D01*
X166423447Y-52351505D01*
X166423445Y-52351504D01*
X166210070Y-52294330D01*
X166210062Y-52294329D01*
X165990002Y-52275077D01*
X165989998Y-52275077D01*
X165769937Y-52294329D01*
X165769929Y-52294330D01*
X165556554Y-52351504D01*
X165556548Y-52351507D01*
X165356340Y-52444865D01*
X165356338Y-52444866D01*
X165175377Y-52571575D01*
X165019175Y-52727777D01*
X164892466Y-52908738D01*
X164892465Y-52908740D01*
X164832382Y-53037589D01*
X164786209Y-53090028D01*
X164719016Y-53109180D01*
X164652135Y-53088964D01*
X164607618Y-53037589D01*
X164547651Y-52908990D01*
X164547534Y-52908739D01*
X164420826Y-52727780D01*
X164264620Y-52571574D01*
X164264616Y-52571571D01*
X164264615Y-52571570D01*
X164083666Y-52444868D01*
X164083662Y-52444866D01*
X164083660Y-52444865D01*
X163883450Y-52351506D01*
X163883447Y-52351505D01*
X163883445Y-52351504D01*
X163670070Y-52294330D01*
X163670062Y-52294329D01*
X163450002Y-52275077D01*
X163449998Y-52275077D01*
X163229937Y-52294329D01*
X163229929Y-52294330D01*
X163016554Y-52351504D01*
X163016548Y-52351507D01*
X162816340Y-52444865D01*
X162816338Y-52444866D01*
X162635377Y-52571575D01*
X162479175Y-52727777D01*
X162352466Y-52908738D01*
X162352465Y-52908740D01*
X162292382Y-53037589D01*
X162246209Y-53090028D01*
X162179016Y-53109180D01*
X162112135Y-53088964D01*
X162067618Y-53037589D01*
X162007651Y-52908990D01*
X162007534Y-52908739D01*
X161880826Y-52727780D01*
X161724620Y-52571574D01*
X161724616Y-52571571D01*
X161724615Y-52571570D01*
X161543666Y-52444868D01*
X161543662Y-52444866D01*
X161543660Y-52444865D01*
X161343450Y-52351506D01*
X161343447Y-52351505D01*
X161343445Y-52351504D01*
X161130070Y-52294330D01*
X161130062Y-52294329D01*
X160910002Y-52275077D01*
X160909998Y-52275077D01*
X160689937Y-52294329D01*
X160689929Y-52294330D01*
X160476554Y-52351504D01*
X160476548Y-52351507D01*
X160276340Y-52444865D01*
X160276338Y-52444866D01*
X160095377Y-52571575D01*
X159939175Y-52727777D01*
X159812466Y-52908738D01*
X159812465Y-52908740D01*
X159719107Y-53108948D01*
X159719104Y-53108954D01*
X159661930Y-53322329D01*
X159661929Y-53322337D01*
X159642677Y-53542397D01*
X159642677Y-53542402D01*
X101950500Y-53542402D01*
X101950500Y-50200003D01*
X106309909Y-50200003D01*
X106328212Y-50362455D01*
X106382210Y-50516774D01*
X106382211Y-50516775D01*
X106469192Y-50655204D01*
X106584796Y-50770808D01*
X106723225Y-50857789D01*
X106877539Y-50911786D01*
X106877542Y-50911786D01*
X106877544Y-50911787D01*
X107039996Y-50930091D01*
X107040000Y-50930091D01*
X107040004Y-50930091D01*
X107202455Y-50911787D01*
X107202456Y-50911786D01*
X107202461Y-50911786D01*
X107356775Y-50857789D01*
X107495204Y-50770808D01*
X107610808Y-50655204D01*
X107697789Y-50516775D01*
X107751786Y-50362461D01*
X107770091Y-50200000D01*
X107751786Y-50037539D01*
X107697789Y-49883225D01*
X107610808Y-49744796D01*
X107495204Y-49629192D01*
X107356774Y-49542210D01*
X107202455Y-49488212D01*
X107040004Y-49469909D01*
X107039996Y-49469909D01*
X106877544Y-49488212D01*
X106723225Y-49542210D01*
X106584795Y-49629192D01*
X106469192Y-49744795D01*
X106382210Y-49883225D01*
X106328212Y-50037544D01*
X106309909Y-50199996D01*
X106309909Y-50200003D01*
X101950500Y-50200003D01*
X101950500Y-43700003D01*
X106309909Y-43700003D01*
X106328212Y-43862455D01*
X106382210Y-44016774D01*
X106382211Y-44016775D01*
X106469192Y-44155204D01*
X106584796Y-44270808D01*
X106723225Y-44357789D01*
X106877539Y-44411786D01*
X106877542Y-44411786D01*
X106877544Y-44411787D01*
X107039996Y-44430091D01*
X107040000Y-44430091D01*
X107040004Y-44430091D01*
X107202455Y-44411787D01*
X107202456Y-44411786D01*
X107202461Y-44411786D01*
X107356775Y-44357789D01*
X107495204Y-44270808D01*
X107610808Y-44155204D01*
X107697789Y-44016775D01*
X107751786Y-43862461D01*
X107770091Y-43700000D01*
X107751786Y-43537539D01*
X107697789Y-43383225D01*
X107610808Y-43244796D01*
X107495204Y-43129192D01*
X107356774Y-43042210D01*
X107202455Y-42988212D01*
X107040004Y-42969909D01*
X107039996Y-42969909D01*
X106877544Y-42988212D01*
X106723225Y-43042210D01*
X106584795Y-43129192D01*
X106469192Y-43244795D01*
X106382210Y-43383225D01*
X106328212Y-43537544D01*
X106309909Y-43699996D01*
X106309909Y-43700003D01*
X101950500Y-43700003D01*
X101950500Y-37200003D01*
X106309909Y-37200003D01*
X106328212Y-37362455D01*
X106382210Y-37516774D01*
X106382211Y-37516775D01*
X106469192Y-37655204D01*
X106584796Y-37770808D01*
X106723225Y-37857789D01*
X106877539Y-37911786D01*
X106877542Y-37911786D01*
X106877544Y-37911787D01*
X107039996Y-37930091D01*
X107040000Y-37930091D01*
X107040004Y-37930091D01*
X107202455Y-37911787D01*
X107202456Y-37911786D01*
X107202461Y-37911786D01*
X107356775Y-37857789D01*
X107495204Y-37770808D01*
X107610808Y-37655204D01*
X107697789Y-37516775D01*
X107721154Y-37450003D01*
X142079909Y-37450003D01*
X142098212Y-37612455D01*
X142152210Y-37766774D01*
X142152211Y-37766775D01*
X142239192Y-37905204D01*
X142354796Y-38020808D01*
X142493225Y-38107789D01*
X142647539Y-38161786D01*
X142647542Y-38161786D01*
X142647544Y-38161787D01*
X142809996Y-38180091D01*
X142810000Y-38180091D01*
X142810004Y-38180091D01*
X142972455Y-38161787D01*
X142972456Y-38161786D01*
X142972461Y-38161786D01*
X143006138Y-38150002D01*
X159642677Y-38150002D01*
X159661929Y-38370062D01*
X159661930Y-38370070D01*
X159719104Y-38583445D01*
X159719105Y-38583447D01*
X159719106Y-38583450D01*
X159752382Y-38654811D01*
X159812466Y-38783662D01*
X159812468Y-38783666D01*
X159939170Y-38964615D01*
X159939175Y-38964621D01*
X160095378Y-39120824D01*
X160095384Y-39120829D01*
X160276333Y-39247531D01*
X160276335Y-39247532D01*
X160276338Y-39247534D01*
X160476550Y-39340894D01*
X160689932Y-39398070D01*
X160847123Y-39411822D01*
X160909998Y-39417323D01*
X160910000Y-39417323D01*
X160910002Y-39417323D01*
X160965017Y-39412509D01*
X161130068Y-39398070D01*
X161343450Y-39340894D01*
X161543662Y-39247534D01*
X161724620Y-39120826D01*
X161880826Y-38964620D01*
X162007534Y-38783662D01*
X162067618Y-38654811D01*
X162113790Y-38602371D01*
X162180983Y-38583219D01*
X162247865Y-38603435D01*
X162292382Y-38654811D01*
X162352464Y-38783658D01*
X162352468Y-38783666D01*
X162479170Y-38964615D01*
X162479175Y-38964621D01*
X162635378Y-39120824D01*
X162635384Y-39120829D01*
X162816333Y-39247531D01*
X162816335Y-39247532D01*
X162816338Y-39247534D01*
X163016550Y-39340894D01*
X163229932Y-39398070D01*
X163387123Y-39411822D01*
X163449998Y-39417323D01*
X163450000Y-39417323D01*
X163450002Y-39417323D01*
X163505017Y-39412509D01*
X163670068Y-39398070D01*
X163883450Y-39340894D01*
X164083662Y-39247534D01*
X164264620Y-39120826D01*
X164420826Y-38964620D01*
X164547534Y-38783662D01*
X164607618Y-38654811D01*
X164653790Y-38602371D01*
X164720983Y-38583219D01*
X164787865Y-38603435D01*
X164832382Y-38654811D01*
X164892464Y-38783658D01*
X164892468Y-38783666D01*
X165019170Y-38964615D01*
X165019175Y-38964621D01*
X165175378Y-39120824D01*
X165175384Y-39120829D01*
X165356333Y-39247531D01*
X165356335Y-39247532D01*
X165356338Y-39247534D01*
X165556550Y-39340894D01*
X165769932Y-39398070D01*
X165927123Y-39411822D01*
X165989998Y-39417323D01*
X165990000Y-39417323D01*
X165990002Y-39417323D01*
X166045017Y-39412509D01*
X166210068Y-39398070D01*
X166423450Y-39340894D01*
X166623662Y-39247534D01*
X166804620Y-39120826D01*
X166960826Y-38964620D01*
X167087534Y-38783662D01*
X167147618Y-38654811D01*
X167193790Y-38602371D01*
X167260983Y-38583219D01*
X167327865Y-38603435D01*
X167372382Y-38654811D01*
X167432464Y-38783658D01*
X167432468Y-38783666D01*
X167559170Y-38964615D01*
X167559175Y-38964621D01*
X167715378Y-39120824D01*
X167715384Y-39120829D01*
X167896333Y-39247531D01*
X167896335Y-39247532D01*
X167896338Y-39247534D01*
X168096550Y-39340894D01*
X168309932Y-39398070D01*
X168467123Y-39411822D01*
X168529998Y-39417323D01*
X168530000Y-39417323D01*
X168530002Y-39417323D01*
X168585017Y-39412509D01*
X168750068Y-39398070D01*
X168963450Y-39340894D01*
X169163662Y-39247534D01*
X169344620Y-39120826D01*
X169500826Y-38964620D01*
X169627534Y-38783662D01*
X169687618Y-38654811D01*
X169733790Y-38602371D01*
X169800983Y-38583219D01*
X169867865Y-38603435D01*
X169912382Y-38654811D01*
X169972464Y-38783658D01*
X169972468Y-38783666D01*
X170099170Y-38964615D01*
X170099175Y-38964621D01*
X170255378Y-39120824D01*
X170255384Y-39120829D01*
X170436333Y-39247531D01*
X170436335Y-39247532D01*
X170436338Y-39247534D01*
X170636550Y-39340894D01*
X170849932Y-39398070D01*
X171007123Y-39411822D01*
X171069998Y-39417323D01*
X171070000Y-39417323D01*
X171070002Y-39417323D01*
X171125017Y-39412509D01*
X171290068Y-39398070D01*
X171503450Y-39340894D01*
X171703662Y-39247534D01*
X171884620Y-39120826D01*
X172040826Y-38964620D01*
X172167534Y-38783662D01*
X172227618Y-38654811D01*
X172273790Y-38602371D01*
X172340983Y-38583219D01*
X172407865Y-38603435D01*
X172452382Y-38654811D01*
X172512464Y-38783658D01*
X172512468Y-38783666D01*
X172639170Y-38964615D01*
X172639175Y-38964621D01*
X172795378Y-39120824D01*
X172795384Y-39120829D01*
X172976333Y-39247531D01*
X172976335Y-39247532D01*
X172976338Y-39247534D01*
X173176550Y-39340894D01*
X173389932Y-39398070D01*
X173547123Y-39411822D01*
X173609998Y-39417323D01*
X173610000Y-39417323D01*
X173610002Y-39417323D01*
X173665017Y-39412509D01*
X173830068Y-39398070D01*
X174043450Y-39340894D01*
X174243662Y-39247534D01*
X174424620Y-39120826D01*
X174580826Y-38964620D01*
X174707534Y-38783662D01*
X174767618Y-38654811D01*
X174813790Y-38602371D01*
X174880983Y-38583219D01*
X174947865Y-38603435D01*
X174992382Y-38654811D01*
X175052464Y-38783658D01*
X175052468Y-38783666D01*
X175179170Y-38964615D01*
X175179175Y-38964621D01*
X175335378Y-39120824D01*
X175335384Y-39120829D01*
X175516333Y-39247531D01*
X175516335Y-39247532D01*
X175516338Y-39247534D01*
X175716550Y-39340894D01*
X175929932Y-39398070D01*
X176087123Y-39411822D01*
X176149998Y-39417323D01*
X176150000Y-39417323D01*
X176150002Y-39417323D01*
X176205017Y-39412509D01*
X176370068Y-39398070D01*
X176583450Y-39340894D01*
X176783662Y-39247534D01*
X176964620Y-39120826D01*
X177120826Y-38964620D01*
X177247534Y-38783662D01*
X177340894Y-38583450D01*
X177398070Y-38370068D01*
X177412509Y-38205017D01*
X177417323Y-38150002D01*
X177417323Y-38149997D01*
X177406020Y-38020807D01*
X177398070Y-37929932D01*
X177340894Y-37716550D01*
X177247534Y-37516339D01*
X177120826Y-37335380D01*
X176964620Y-37179174D01*
X176964616Y-37179171D01*
X176964615Y-37179170D01*
X176783666Y-37052468D01*
X176783662Y-37052466D01*
X176783660Y-37052465D01*
X176583450Y-36959106D01*
X176583447Y-36959105D01*
X176583445Y-36959104D01*
X176370070Y-36901930D01*
X176370062Y-36901929D01*
X176150002Y-36882677D01*
X176149998Y-36882677D01*
X175929937Y-36901929D01*
X175929929Y-36901930D01*
X175716554Y-36959104D01*
X175716548Y-36959107D01*
X175516340Y-37052465D01*
X175516338Y-37052466D01*
X175335377Y-37179175D01*
X175179175Y-37335377D01*
X175052466Y-37516338D01*
X175052465Y-37516340D01*
X174992382Y-37645189D01*
X174946209Y-37697628D01*
X174879016Y-37716780D01*
X174812135Y-37696564D01*
X174767618Y-37645189D01*
X174707737Y-37516775D01*
X174707534Y-37516339D01*
X174580826Y-37335380D01*
X174424620Y-37179174D01*
X174424616Y-37179171D01*
X174424615Y-37179170D01*
X174243666Y-37052468D01*
X174243662Y-37052466D01*
X174243660Y-37052465D01*
X174043450Y-36959106D01*
X174043447Y-36959105D01*
X174043445Y-36959104D01*
X173830070Y-36901930D01*
X173830062Y-36901929D01*
X173610002Y-36882677D01*
X173609998Y-36882677D01*
X173389937Y-36901929D01*
X173389929Y-36901930D01*
X173176554Y-36959104D01*
X173176548Y-36959107D01*
X172976340Y-37052465D01*
X172976338Y-37052466D01*
X172795377Y-37179175D01*
X172639175Y-37335377D01*
X172512466Y-37516338D01*
X172512465Y-37516340D01*
X172452382Y-37645189D01*
X172406209Y-37697628D01*
X172339016Y-37716780D01*
X172272135Y-37696564D01*
X172227618Y-37645189D01*
X172167737Y-37516775D01*
X172167534Y-37516339D01*
X172040826Y-37335380D01*
X171884620Y-37179174D01*
X171884616Y-37179171D01*
X171884615Y-37179170D01*
X171703666Y-37052468D01*
X171703662Y-37052466D01*
X171703660Y-37052465D01*
X171503450Y-36959106D01*
X171503447Y-36959105D01*
X171503445Y-36959104D01*
X171290070Y-36901930D01*
X171290062Y-36901929D01*
X171070002Y-36882677D01*
X171069998Y-36882677D01*
X170849937Y-36901929D01*
X170849929Y-36901930D01*
X170636554Y-36959104D01*
X170636548Y-36959107D01*
X170436340Y-37052465D01*
X170436338Y-37052466D01*
X170255377Y-37179175D01*
X170099175Y-37335377D01*
X169972466Y-37516338D01*
X169972465Y-37516340D01*
X169912382Y-37645189D01*
X169866209Y-37697628D01*
X169799016Y-37716780D01*
X169732135Y-37696564D01*
X169687618Y-37645189D01*
X169627737Y-37516775D01*
X169627534Y-37516339D01*
X169500826Y-37335380D01*
X169344620Y-37179174D01*
X169344616Y-37179171D01*
X169344615Y-37179170D01*
X169163666Y-37052468D01*
X169163662Y-37052466D01*
X169163660Y-37052465D01*
X168963450Y-36959106D01*
X168963447Y-36959105D01*
X168963445Y-36959104D01*
X168750070Y-36901930D01*
X168750062Y-36901929D01*
X168530002Y-36882677D01*
X168529998Y-36882677D01*
X168309937Y-36901929D01*
X168309929Y-36901930D01*
X168096554Y-36959104D01*
X168096548Y-36959107D01*
X167896340Y-37052465D01*
X167896338Y-37052466D01*
X167715377Y-37179175D01*
X167559175Y-37335377D01*
X167432466Y-37516338D01*
X167432465Y-37516340D01*
X167372382Y-37645189D01*
X167326209Y-37697628D01*
X167259016Y-37716780D01*
X167192135Y-37696564D01*
X167147618Y-37645189D01*
X167087737Y-37516775D01*
X167087534Y-37516339D01*
X166960826Y-37335380D01*
X166804620Y-37179174D01*
X166804616Y-37179171D01*
X166804615Y-37179170D01*
X166623666Y-37052468D01*
X166623662Y-37052466D01*
X166623660Y-37052465D01*
X166423450Y-36959106D01*
X166423447Y-36959105D01*
X166423445Y-36959104D01*
X166210070Y-36901930D01*
X166210062Y-36901929D01*
X165990002Y-36882677D01*
X165989998Y-36882677D01*
X165769937Y-36901929D01*
X165769929Y-36901930D01*
X165556554Y-36959104D01*
X165556548Y-36959107D01*
X165356340Y-37052465D01*
X165356338Y-37052466D01*
X165175377Y-37179175D01*
X165019175Y-37335377D01*
X164892466Y-37516338D01*
X164892465Y-37516340D01*
X164832382Y-37645189D01*
X164786209Y-37697628D01*
X164719016Y-37716780D01*
X164652135Y-37696564D01*
X164607618Y-37645189D01*
X164547737Y-37516775D01*
X164547534Y-37516339D01*
X164420826Y-37335380D01*
X164264620Y-37179174D01*
X164264616Y-37179171D01*
X164264615Y-37179170D01*
X164083666Y-37052468D01*
X164083662Y-37052466D01*
X164083660Y-37052465D01*
X163883450Y-36959106D01*
X163883447Y-36959105D01*
X163883445Y-36959104D01*
X163670070Y-36901930D01*
X163670062Y-36901929D01*
X163450002Y-36882677D01*
X163449998Y-36882677D01*
X163229937Y-36901929D01*
X163229929Y-36901930D01*
X163016554Y-36959104D01*
X163016548Y-36959107D01*
X162816340Y-37052465D01*
X162816338Y-37052466D01*
X162635377Y-37179175D01*
X162479175Y-37335377D01*
X162352466Y-37516338D01*
X162352465Y-37516340D01*
X162292382Y-37645189D01*
X162246209Y-37697628D01*
X162179016Y-37716780D01*
X162112135Y-37696564D01*
X162067618Y-37645189D01*
X162007737Y-37516775D01*
X162007534Y-37516339D01*
X161880826Y-37335380D01*
X161724620Y-37179174D01*
X161724616Y-37179171D01*
X161724615Y-37179170D01*
X161543666Y-37052468D01*
X161543662Y-37052466D01*
X161543660Y-37052465D01*
X161343450Y-36959106D01*
X161343447Y-36959105D01*
X161343445Y-36959104D01*
X161130070Y-36901930D01*
X161130062Y-36901929D01*
X160910002Y-36882677D01*
X160909998Y-36882677D01*
X160689937Y-36901929D01*
X160689929Y-36901930D01*
X160476554Y-36959104D01*
X160476548Y-36959107D01*
X160276340Y-37052465D01*
X160276338Y-37052466D01*
X160095377Y-37179175D01*
X159939175Y-37335377D01*
X159812466Y-37516338D01*
X159812465Y-37516340D01*
X159719107Y-37716548D01*
X159719104Y-37716554D01*
X159661930Y-37929929D01*
X159661929Y-37929937D01*
X159642677Y-38149997D01*
X159642677Y-38150002D01*
X143006138Y-38150002D01*
X143126775Y-38107789D01*
X143265204Y-38020808D01*
X143380808Y-37905204D01*
X143467789Y-37766775D01*
X143521786Y-37612461D01*
X143521787Y-37612455D01*
X143540091Y-37450003D01*
X143540091Y-37449996D01*
X143521787Y-37287544D01*
X143521786Y-37287542D01*
X143521786Y-37287539D01*
X143467789Y-37133225D01*
X143380808Y-36994796D01*
X143265204Y-36879192D01*
X143198890Y-36837524D01*
X143126774Y-36792210D01*
X142972455Y-36738212D01*
X142810004Y-36719909D01*
X142809996Y-36719909D01*
X142647544Y-36738212D01*
X142493225Y-36792210D01*
X142354795Y-36879192D01*
X142239192Y-36994795D01*
X142152210Y-37133225D01*
X142098212Y-37287544D01*
X142079909Y-37449996D01*
X142079909Y-37450003D01*
X107721154Y-37450003D01*
X107751786Y-37362461D01*
X107751787Y-37362455D01*
X107770091Y-37200003D01*
X107770091Y-37199996D01*
X107751787Y-37037544D01*
X107751786Y-37037542D01*
X107751786Y-37037539D01*
X107697789Y-36883225D01*
X107610808Y-36744796D01*
X107495204Y-36629192D01*
X107356774Y-36542210D01*
X107202455Y-36488212D01*
X107040004Y-36469909D01*
X107039996Y-36469909D01*
X106877544Y-36488212D01*
X106723225Y-36542210D01*
X106584795Y-36629192D01*
X106469192Y-36744795D01*
X106382210Y-36883225D01*
X106328212Y-37037544D01*
X106309909Y-37199996D01*
X106309909Y-37200003D01*
X101950500Y-37200003D01*
X101950500Y-34550005D01*
X111644754Y-34550005D01*
X111663718Y-34851446D01*
X111663719Y-34851453D01*
X111720320Y-35148164D01*
X111813659Y-35435431D01*
X111813661Y-35435436D01*
X111942265Y-35708732D01*
X111942268Y-35708738D01*
X112104111Y-35963763D01*
X112296652Y-36196505D01*
X112516836Y-36403272D01*
X112516846Y-36403280D01*
X112761193Y-36580808D01*
X112761198Y-36580810D01*
X112761205Y-36580816D01*
X113025896Y-36726332D01*
X113025901Y-36726334D01*
X113025903Y-36726335D01*
X113025904Y-36726336D01*
X113306734Y-36837524D01*
X113306737Y-36837525D01*
X113404259Y-36862564D01*
X113599302Y-36912642D01*
X113746039Y-36931179D01*
X113898963Y-36950499D01*
X113898969Y-36950499D01*
X113898973Y-36950500D01*
X113898975Y-36950500D01*
X114201025Y-36950500D01*
X114201027Y-36950500D01*
X114201032Y-36950499D01*
X114201036Y-36950499D01*
X114280591Y-36940448D01*
X114500698Y-36912642D01*
X114793262Y-36837525D01*
X114793265Y-36837524D01*
X115074095Y-36726336D01*
X115074096Y-36726335D01*
X115074094Y-36726335D01*
X115074104Y-36726332D01*
X115338795Y-36580816D01*
X115583162Y-36403274D01*
X115803349Y-36196504D01*
X115995885Y-35963768D01*
X116157733Y-35708736D01*
X116286341Y-35435430D01*
X116379681Y-35148160D01*
X116436280Y-34851457D01*
X116455246Y-34550000D01*
X116436280Y-34248543D01*
X116379681Y-33951840D01*
X116286341Y-33664570D01*
X116157733Y-33391264D01*
X115995885Y-33136232D01*
X115803349Y-32903496D01*
X115583162Y-32696726D01*
X115583159Y-32696724D01*
X115583153Y-32696719D01*
X115338806Y-32519191D01*
X115338799Y-32519186D01*
X115338795Y-32519184D01*
X115074104Y-32373668D01*
X115074101Y-32373666D01*
X115074096Y-32373664D01*
X115074095Y-32373663D01*
X114793265Y-32262475D01*
X114793262Y-32262474D01*
X114500695Y-32187357D01*
X114201036Y-32149500D01*
X114201027Y-32149500D01*
X113898973Y-32149500D01*
X113898963Y-32149500D01*
X113599304Y-32187357D01*
X113306737Y-32262474D01*
X113306734Y-32262475D01*
X113025904Y-32373663D01*
X113025903Y-32373664D01*
X112761205Y-32519184D01*
X112761193Y-32519191D01*
X112516846Y-32696719D01*
X112516836Y-32696727D01*
X112296652Y-32903494D01*
X112104111Y-33136236D01*
X111942268Y-33391261D01*
X111942265Y-33391267D01*
X111813661Y-33664563D01*
X111813659Y-33664568D01*
X111720320Y-33951835D01*
X111663719Y-34248546D01*
X111663718Y-34248553D01*
X111644754Y-34549994D01*
X111644754Y-34550005D01*
X101950500Y-34550005D01*
X101950500Y-30380003D01*
X103469909Y-30380003D01*
X103488212Y-30542455D01*
X103542210Y-30696774D01*
X103542211Y-30696775D01*
X103629192Y-30835204D01*
X103744796Y-30950808D01*
X103883225Y-31037789D01*
X104037539Y-31091786D01*
X104037542Y-31091786D01*
X104037544Y-31091787D01*
X104199996Y-31110091D01*
X104200000Y-31110091D01*
X104200004Y-31110091D01*
X104362455Y-31091787D01*
X104362456Y-31091786D01*
X104362461Y-31091786D01*
X104516775Y-31037789D01*
X104655204Y-30950808D01*
X104770808Y-30835204D01*
X104857789Y-30696775D01*
X104911786Y-30542461D01*
X104930091Y-30380003D01*
X109969909Y-30380003D01*
X109988212Y-30542455D01*
X110042210Y-30696774D01*
X110042211Y-30696775D01*
X110129192Y-30835204D01*
X110244796Y-30950808D01*
X110383225Y-31037789D01*
X110537539Y-31091786D01*
X110537542Y-31091786D01*
X110537544Y-31091787D01*
X110699996Y-31110091D01*
X110700000Y-31110091D01*
X110700004Y-31110091D01*
X110862455Y-31091787D01*
X110862456Y-31091786D01*
X110862461Y-31091786D01*
X111016775Y-31037789D01*
X111155204Y-30950808D01*
X111270808Y-30835204D01*
X111357789Y-30696775D01*
X111411786Y-30542461D01*
X111430091Y-30380003D01*
X116469909Y-30380003D01*
X116488212Y-30542455D01*
X116542210Y-30696774D01*
X116542211Y-30696775D01*
X116629192Y-30835204D01*
X116744796Y-30950808D01*
X116883225Y-31037789D01*
X117037539Y-31091786D01*
X117037542Y-31091786D01*
X117037544Y-31091787D01*
X117199996Y-31110091D01*
X117200000Y-31110091D01*
X117200004Y-31110091D01*
X117362455Y-31091787D01*
X117362456Y-31091786D01*
X117362461Y-31091786D01*
X117516775Y-31037789D01*
X117655204Y-30950808D01*
X117770808Y-30835204D01*
X117857789Y-30696775D01*
X117911786Y-30542461D01*
X117930091Y-30380003D01*
X122969909Y-30380003D01*
X122988212Y-30542455D01*
X123042210Y-30696774D01*
X123042211Y-30696775D01*
X123129192Y-30835204D01*
X123244796Y-30950808D01*
X123383225Y-31037789D01*
X123537539Y-31091786D01*
X123537542Y-31091786D01*
X123537544Y-31091787D01*
X123699996Y-31110091D01*
X123700000Y-31110091D01*
X123700004Y-31110091D01*
X123862455Y-31091787D01*
X123862456Y-31091786D01*
X123862461Y-31091786D01*
X124016775Y-31037789D01*
X124155204Y-30950808D01*
X124270808Y-30835204D01*
X124357789Y-30696775D01*
X124411786Y-30542461D01*
X124430091Y-30380003D01*
X129469909Y-30380003D01*
X129488212Y-30542455D01*
X129542210Y-30696774D01*
X129542211Y-30696775D01*
X129629192Y-30835204D01*
X129744796Y-30950808D01*
X129883225Y-31037789D01*
X130037539Y-31091786D01*
X130037542Y-31091786D01*
X130037544Y-31091787D01*
X130199996Y-31110091D01*
X130200000Y-31110091D01*
X130200004Y-31110091D01*
X130362455Y-31091787D01*
X130362456Y-31091786D01*
X130362461Y-31091786D01*
X130516775Y-31037789D01*
X130655204Y-30950808D01*
X130770808Y-30835204D01*
X130857789Y-30696775D01*
X130911786Y-30542461D01*
X130930091Y-30380003D01*
X135969909Y-30380003D01*
X135988212Y-30542455D01*
X136042210Y-30696774D01*
X136042211Y-30696775D01*
X136129192Y-30835204D01*
X136244796Y-30950808D01*
X136383225Y-31037789D01*
X136537539Y-31091786D01*
X136537542Y-31091786D01*
X136537544Y-31091787D01*
X136699996Y-31110091D01*
X136700000Y-31110091D01*
X136700004Y-31110091D01*
X136862455Y-31091787D01*
X136862456Y-31091786D01*
X136862461Y-31091786D01*
X137016775Y-31037789D01*
X137155204Y-30950808D01*
X137270808Y-30835204D01*
X137357789Y-30696775D01*
X137411786Y-30542461D01*
X137430091Y-30380003D01*
X142469909Y-30380003D01*
X142488212Y-30542455D01*
X142542210Y-30696774D01*
X142542211Y-30696775D01*
X142629192Y-30835204D01*
X142744796Y-30950808D01*
X142883225Y-31037789D01*
X143037539Y-31091786D01*
X143037542Y-31091786D01*
X143037544Y-31091787D01*
X143199996Y-31110091D01*
X143200000Y-31110091D01*
X143200004Y-31110091D01*
X143362455Y-31091787D01*
X143362456Y-31091786D01*
X143362461Y-31091786D01*
X143516775Y-31037789D01*
X143655204Y-30950808D01*
X143770808Y-30835204D01*
X143857789Y-30696775D01*
X143911786Y-30542461D01*
X143930091Y-30380003D01*
X148969909Y-30380003D01*
X148988212Y-30542455D01*
X149042210Y-30696774D01*
X149042211Y-30696775D01*
X149129192Y-30835204D01*
X149244796Y-30950808D01*
X149383225Y-31037789D01*
X149537539Y-31091786D01*
X149537542Y-31091786D01*
X149537544Y-31091787D01*
X149699996Y-31110091D01*
X149700000Y-31110091D01*
X149700004Y-31110091D01*
X149862455Y-31091787D01*
X149862456Y-31091786D01*
X149862461Y-31091786D01*
X150016775Y-31037789D01*
X150155204Y-30950808D01*
X150270808Y-30835204D01*
X150357789Y-30696775D01*
X150411786Y-30542461D01*
X150430091Y-30380003D01*
X155469909Y-30380003D01*
X155488212Y-30542455D01*
X155542210Y-30696774D01*
X155542211Y-30696775D01*
X155629192Y-30835204D01*
X155744796Y-30950808D01*
X155883225Y-31037789D01*
X156037539Y-31091786D01*
X156037542Y-31091786D01*
X156037544Y-31091787D01*
X156199996Y-31110091D01*
X156200000Y-31110091D01*
X156200004Y-31110091D01*
X156362455Y-31091787D01*
X156362456Y-31091786D01*
X156362461Y-31091786D01*
X156516775Y-31037789D01*
X156655204Y-30950808D01*
X156770808Y-30835204D01*
X156857789Y-30696775D01*
X156911786Y-30542461D01*
X156930091Y-30380003D01*
X161969909Y-30380003D01*
X161988212Y-30542455D01*
X162042210Y-30696774D01*
X162042211Y-30696775D01*
X162129192Y-30835204D01*
X162244796Y-30950808D01*
X162383225Y-31037789D01*
X162537539Y-31091786D01*
X162537542Y-31091786D01*
X162537544Y-31091787D01*
X162699996Y-31110091D01*
X162700000Y-31110091D01*
X162700004Y-31110091D01*
X162862455Y-31091787D01*
X162862456Y-31091786D01*
X162862461Y-31091786D01*
X163016775Y-31037789D01*
X163155204Y-30950808D01*
X163270808Y-30835204D01*
X163357789Y-30696775D01*
X163411786Y-30542461D01*
X163430091Y-30380003D01*
X168469909Y-30380003D01*
X168488212Y-30542455D01*
X168542210Y-30696774D01*
X168542211Y-30696775D01*
X168629192Y-30835204D01*
X168744796Y-30950808D01*
X168883225Y-31037789D01*
X169037539Y-31091786D01*
X169037542Y-31091786D01*
X169037544Y-31091787D01*
X169199996Y-31110091D01*
X169200000Y-31110091D01*
X169200004Y-31110091D01*
X169362455Y-31091787D01*
X169362456Y-31091786D01*
X169362461Y-31091786D01*
X169516775Y-31037789D01*
X169655204Y-30950808D01*
X169770808Y-30835204D01*
X169857789Y-30696775D01*
X169911786Y-30542461D01*
X169930091Y-30380003D01*
X174969909Y-30380003D01*
X174988212Y-30542455D01*
X175042210Y-30696774D01*
X175042211Y-30696775D01*
X175129192Y-30835204D01*
X175244796Y-30950808D01*
X175383225Y-31037789D01*
X175537539Y-31091786D01*
X175537542Y-31091786D01*
X175537544Y-31091787D01*
X175699996Y-31110091D01*
X175700000Y-31110091D01*
X175700004Y-31110091D01*
X175862455Y-31091787D01*
X175862456Y-31091786D01*
X175862461Y-31091786D01*
X176016775Y-31037789D01*
X176155204Y-30950808D01*
X176270808Y-30835204D01*
X176357789Y-30696775D01*
X176411786Y-30542461D01*
X176430091Y-30380000D01*
X176411786Y-30217539D01*
X176357789Y-30063225D01*
X176270808Y-29924796D01*
X176155204Y-29809192D01*
X176016774Y-29722210D01*
X175862455Y-29668212D01*
X175700004Y-29649909D01*
X175699996Y-29649909D01*
X175537544Y-29668212D01*
X175383225Y-29722210D01*
X175244795Y-29809192D01*
X175129192Y-29924795D01*
X175042210Y-30063225D01*
X174988212Y-30217544D01*
X174969909Y-30379996D01*
X174969909Y-30380003D01*
X169930091Y-30380003D01*
X169930091Y-30380000D01*
X169911786Y-30217539D01*
X169857789Y-30063225D01*
X169770808Y-29924796D01*
X169655204Y-29809192D01*
X169516774Y-29722210D01*
X169362455Y-29668212D01*
X169200004Y-29649909D01*
X169199996Y-29649909D01*
X169037544Y-29668212D01*
X168883225Y-29722210D01*
X168744795Y-29809192D01*
X168629192Y-29924795D01*
X168542210Y-30063225D01*
X168488212Y-30217544D01*
X168469909Y-30379996D01*
X168469909Y-30380003D01*
X163430091Y-30380003D01*
X163430091Y-30380000D01*
X163411786Y-30217539D01*
X163357789Y-30063225D01*
X163270808Y-29924796D01*
X163155204Y-29809192D01*
X163016774Y-29722210D01*
X162862455Y-29668212D01*
X162700004Y-29649909D01*
X162699996Y-29649909D01*
X162537544Y-29668212D01*
X162383225Y-29722210D01*
X162244795Y-29809192D01*
X162129192Y-29924795D01*
X162042210Y-30063225D01*
X161988212Y-30217544D01*
X161969909Y-30379996D01*
X161969909Y-30380003D01*
X156930091Y-30380003D01*
X156930091Y-30380000D01*
X156911786Y-30217539D01*
X156857789Y-30063225D01*
X156770808Y-29924796D01*
X156655204Y-29809192D01*
X156516774Y-29722210D01*
X156362455Y-29668212D01*
X156200004Y-29649909D01*
X156199996Y-29649909D01*
X156037544Y-29668212D01*
X155883225Y-29722210D01*
X155744795Y-29809192D01*
X155629192Y-29924795D01*
X155542210Y-30063225D01*
X155488212Y-30217544D01*
X155469909Y-30379996D01*
X155469909Y-30380003D01*
X150430091Y-30380003D01*
X150430091Y-30380000D01*
X150411786Y-30217539D01*
X150357789Y-30063225D01*
X150270808Y-29924796D01*
X150155204Y-29809192D01*
X150016774Y-29722210D01*
X149862455Y-29668212D01*
X149700004Y-29649909D01*
X149699996Y-29649909D01*
X149537544Y-29668212D01*
X149383225Y-29722210D01*
X149244795Y-29809192D01*
X149129192Y-29924795D01*
X149042210Y-30063225D01*
X148988212Y-30217544D01*
X148969909Y-30379996D01*
X148969909Y-30380003D01*
X143930091Y-30380003D01*
X143930091Y-30380000D01*
X143911786Y-30217539D01*
X143857789Y-30063225D01*
X143770808Y-29924796D01*
X143655204Y-29809192D01*
X143516774Y-29722210D01*
X143362455Y-29668212D01*
X143200004Y-29649909D01*
X143199996Y-29649909D01*
X143037544Y-29668212D01*
X142883225Y-29722210D01*
X142744795Y-29809192D01*
X142629192Y-29924795D01*
X142542210Y-30063225D01*
X142488212Y-30217544D01*
X142469909Y-30379996D01*
X142469909Y-30380003D01*
X137430091Y-30380003D01*
X137430091Y-30380000D01*
X137411786Y-30217539D01*
X137357789Y-30063225D01*
X137270808Y-29924796D01*
X137155204Y-29809192D01*
X137016774Y-29722210D01*
X136862455Y-29668212D01*
X136700004Y-29649909D01*
X136699996Y-29649909D01*
X136537544Y-29668212D01*
X136383225Y-29722210D01*
X136244795Y-29809192D01*
X136129192Y-29924795D01*
X136042210Y-30063225D01*
X135988212Y-30217544D01*
X135969909Y-30379996D01*
X135969909Y-30380003D01*
X130930091Y-30380003D01*
X130930091Y-30380000D01*
X130911786Y-30217539D01*
X130857789Y-30063225D01*
X130770808Y-29924796D01*
X130655204Y-29809192D01*
X130516774Y-29722210D01*
X130362455Y-29668212D01*
X130200004Y-29649909D01*
X130199996Y-29649909D01*
X130037544Y-29668212D01*
X129883225Y-29722210D01*
X129744795Y-29809192D01*
X129629192Y-29924795D01*
X129542210Y-30063225D01*
X129488212Y-30217544D01*
X129469909Y-30379996D01*
X129469909Y-30380003D01*
X124430091Y-30380003D01*
X124430091Y-30380000D01*
X124411786Y-30217539D01*
X124357789Y-30063225D01*
X124270808Y-29924796D01*
X124155204Y-29809192D01*
X124016774Y-29722210D01*
X123862455Y-29668212D01*
X123700004Y-29649909D01*
X123699996Y-29649909D01*
X123537544Y-29668212D01*
X123383225Y-29722210D01*
X123244795Y-29809192D01*
X123129192Y-29924795D01*
X123042210Y-30063225D01*
X122988212Y-30217544D01*
X122969909Y-30379996D01*
X122969909Y-30380003D01*
X117930091Y-30380003D01*
X117930091Y-30380000D01*
X117911786Y-30217539D01*
X117857789Y-30063225D01*
X117770808Y-29924796D01*
X117655204Y-29809192D01*
X117516774Y-29722210D01*
X117362455Y-29668212D01*
X117200004Y-29649909D01*
X117199996Y-29649909D01*
X117037544Y-29668212D01*
X116883225Y-29722210D01*
X116744795Y-29809192D01*
X116629192Y-29924795D01*
X116542210Y-30063225D01*
X116488212Y-30217544D01*
X116469909Y-30379996D01*
X116469909Y-30380003D01*
X111430091Y-30380003D01*
X111430091Y-30380000D01*
X111411786Y-30217539D01*
X111357789Y-30063225D01*
X111270808Y-29924796D01*
X111155204Y-29809192D01*
X111016774Y-29722210D01*
X110862455Y-29668212D01*
X110700004Y-29649909D01*
X110699996Y-29649909D01*
X110537544Y-29668212D01*
X110383225Y-29722210D01*
X110244795Y-29809192D01*
X110129192Y-29924795D01*
X110042210Y-30063225D01*
X109988212Y-30217544D01*
X109969909Y-30379996D01*
X109969909Y-30380003D01*
X104930091Y-30380003D01*
X104930091Y-30380000D01*
X104911786Y-30217539D01*
X104857789Y-30063225D01*
X104770808Y-29924796D01*
X104655204Y-29809192D01*
X104516774Y-29722210D01*
X104362455Y-29668212D01*
X104200004Y-29649909D01*
X104199996Y-29649909D01*
X104037544Y-29668212D01*
X103883225Y-29722210D01*
X103744795Y-29809192D01*
X103629192Y-29924795D01*
X103542210Y-30063225D01*
X103488212Y-30217544D01*
X103469909Y-30379996D01*
X103469909Y-30380003D01*
X101950500Y-30380003D01*
X101950500Y-25324500D01*
X101970185Y-25257461D01*
X102022989Y-25211706D01*
X102074500Y-25200500D01*
X179825500Y-25200500D01*
X179892539Y-25220185D01*
G37*
%TD.AperFunction*%
%TD*%
M02*
