%TF.GenerationSoftware,KiCad,Pcbnew,8.0.1*%
%TF.CreationDate,2025-01-13T07:12:32-05:00*%
%TF.ProjectId,glove-v3,676c6f76-652d-4763-932e-6b696361645f,rev?*%
%TF.SameCoordinates,Original*%
%TF.FileFunction,Soldermask,Bot*%
%TF.FilePolarity,Negative*%
%FSLAX46Y46*%
G04 Gerber Fmt 4.6, Leading zero omitted, Abs format (unit mm)*
G04 Created by KiCad (PCBNEW 8.0.1) date 2025-01-13 07:12:32*
%MOMM*%
%LPD*%
G01*
G04 APERTURE LIST*
%ADD10C,0.000000*%
%ADD11C,3.800000*%
%ADD12C,1.524000*%
G04 APERTURE END LIST*
D10*
%TO.C,G\u002A\u002A\u002A*%
G36*
X125771818Y-35870050D02*
G01*
X125798502Y-35893454D01*
X125852872Y-35944668D01*
X125931786Y-36020576D01*
X126032102Y-36118057D01*
X126150677Y-36233993D01*
X126284371Y-36365265D01*
X126430040Y-36508753D01*
X126584542Y-36661340D01*
X126744736Y-36819905D01*
X126907479Y-36981331D01*
X127069630Y-37142497D01*
X127228046Y-37300286D01*
X127379585Y-37451577D01*
X127521105Y-37593253D01*
X127649464Y-37722194D01*
X127761520Y-37835281D01*
X127854131Y-37929395D01*
X127924154Y-38001418D01*
X127968448Y-38048230D01*
X127983870Y-38066712D01*
X127978562Y-38076974D01*
X127948940Y-38116356D01*
X127898181Y-38178144D01*
X127831864Y-38256050D01*
X127755566Y-38343785D01*
X127674866Y-38435060D01*
X127595340Y-38523587D01*
X127522567Y-38603075D01*
X127462124Y-38667237D01*
X127419589Y-38709783D01*
X127400540Y-38724424D01*
X127399434Y-38723947D01*
X127372304Y-38706112D01*
X127313805Y-38664923D01*
X127228003Y-38603329D01*
X127118963Y-38524274D01*
X126990754Y-38430706D01*
X126847442Y-38325571D01*
X126693093Y-38211817D01*
X126667101Y-38192632D01*
X126514948Y-38080892D01*
X126374880Y-37978964D01*
X126250880Y-37889680D01*
X126146933Y-37815874D01*
X126067023Y-37760377D01*
X126015134Y-37726023D01*
X125995250Y-37715645D01*
X125994263Y-37719641D01*
X125988140Y-37759496D01*
X125977138Y-37839480D01*
X125961645Y-37956458D01*
X125942048Y-38107295D01*
X125918736Y-38288855D01*
X125892098Y-38498002D01*
X125862521Y-38731602D01*
X125830393Y-38986519D01*
X125796104Y-39259618D01*
X125760041Y-39547763D01*
X125722592Y-39847819D01*
X125684145Y-40156651D01*
X125645090Y-40471123D01*
X125605813Y-40788100D01*
X125566704Y-41104447D01*
X125528151Y-41417028D01*
X125490541Y-41722707D01*
X125454263Y-42018351D01*
X125419706Y-42300823D01*
X125387257Y-42566988D01*
X125357304Y-42813710D01*
X125330237Y-43037854D01*
X125306443Y-43236286D01*
X125286310Y-43405868D01*
X125270226Y-43543467D01*
X125258581Y-43645947D01*
X125251762Y-43710172D01*
X125250157Y-43733008D01*
X125270555Y-43734064D01*
X125328771Y-43733544D01*
X125417255Y-43731578D01*
X125528495Y-43728439D01*
X125654977Y-43724399D01*
X125789189Y-43719728D01*
X125923619Y-43714701D01*
X126050753Y-43709587D01*
X126163080Y-43704659D01*
X126253086Y-43700189D01*
X126313259Y-43696449D01*
X126336087Y-43693710D01*
X126336154Y-43693565D01*
X126344879Y-43669284D01*
X126367597Y-43604987D01*
X126403540Y-43502864D01*
X126451941Y-43365106D01*
X126512033Y-43193901D01*
X126583047Y-42991440D01*
X126664216Y-42759913D01*
X126754773Y-42501511D01*
X126853950Y-42218422D01*
X126960980Y-41912838D01*
X127075095Y-41586948D01*
X127195528Y-41242942D01*
X127321511Y-40883010D01*
X127452277Y-40509342D01*
X127587058Y-40124129D01*
X127596289Y-40097742D01*
X127730888Y-39713135D01*
X127861486Y-39340173D01*
X127987312Y-38981050D01*
X128107592Y-38637959D01*
X128221557Y-38313096D01*
X128328434Y-38008654D01*
X128427452Y-37726828D01*
X128517838Y-37469812D01*
X128598822Y-37239800D01*
X128669632Y-37038987D01*
X128729496Y-36869567D01*
X128777642Y-36733734D01*
X128813299Y-36633682D01*
X128835695Y-36571605D01*
X128844058Y-36549699D01*
X128845784Y-36548794D01*
X128878658Y-36542628D01*
X128945546Y-36534264D01*
X129037710Y-36524461D01*
X129146410Y-36513976D01*
X129262907Y-36503568D01*
X129378463Y-36493996D01*
X129484338Y-36486016D01*
X129571792Y-36480388D01*
X129632088Y-36477869D01*
X129656486Y-36479218D01*
X129664473Y-36492615D01*
X129690783Y-36542697D01*
X129733064Y-36625781D01*
X129789325Y-36737799D01*
X129857570Y-36874684D01*
X129935806Y-37032368D01*
X130022039Y-37206784D01*
X130114276Y-37393864D01*
X130210522Y-37589540D01*
X130308784Y-37789745D01*
X130407068Y-37990412D01*
X130503381Y-38187471D01*
X130595728Y-38376857D01*
X130682115Y-38554501D01*
X130760550Y-38716335D01*
X130829037Y-38858293D01*
X130885584Y-38976306D01*
X130928196Y-39066307D01*
X130954880Y-39124228D01*
X130963643Y-39146002D01*
X130963617Y-39146069D01*
X130947164Y-39168145D01*
X130905891Y-39218293D01*
X130844522Y-39290920D01*
X130767785Y-39380432D01*
X130680407Y-39481233D01*
X130403659Y-39798853D01*
X129884166Y-39068786D01*
X129844055Y-39012525D01*
X129732780Y-38857617D01*
X129630356Y-38716719D01*
X129539614Y-38593613D01*
X129463381Y-38492080D01*
X129404487Y-38415902D01*
X129365760Y-38368861D01*
X129350030Y-38354739D01*
X129349357Y-38356108D01*
X129337668Y-38387294D01*
X129312636Y-38457095D01*
X129275341Y-38562399D01*
X129226865Y-38700091D01*
X129168289Y-38867058D01*
X129100694Y-39060187D01*
X129025162Y-39276363D01*
X128942774Y-39512473D01*
X128854612Y-39765404D01*
X128761756Y-40032041D01*
X128665288Y-40309271D01*
X128566290Y-40593981D01*
X128465841Y-40883056D01*
X128365025Y-41173384D01*
X128264922Y-41461850D01*
X128166613Y-41745340D01*
X128071180Y-42020742D01*
X127979704Y-42284941D01*
X127893266Y-42534824D01*
X127812948Y-42767277D01*
X127739830Y-42979186D01*
X127674995Y-43167439D01*
X127619523Y-43328920D01*
X127574497Y-43460518D01*
X127540996Y-43559116D01*
X127520102Y-43621604D01*
X127512898Y-43644865D01*
X127525858Y-43648142D01*
X127575393Y-43651662D01*
X127653360Y-43654060D01*
X127750529Y-43654947D01*
X127988161Y-43654947D01*
X127974572Y-44322482D01*
X127974262Y-44338682D01*
X127972772Y-44442146D01*
X127971270Y-44587120D01*
X127969767Y-44770823D01*
X127968273Y-44990472D01*
X127966800Y-45243287D01*
X127965360Y-45526485D01*
X127963964Y-45837285D01*
X127962622Y-46172904D01*
X127961346Y-46530563D01*
X127960148Y-46907478D01*
X127959039Y-47300868D01*
X127958029Y-47707951D01*
X127957131Y-48125946D01*
X127956355Y-48552071D01*
X127955712Y-48983544D01*
X127950442Y-52977070D01*
X128230919Y-53015102D01*
X128345742Y-53029949D01*
X128452447Y-53042434D01*
X128538525Y-53051165D01*
X128592079Y-53054836D01*
X128618252Y-53051031D01*
X128666312Y-53036465D01*
X128736992Y-53009956D01*
X128832823Y-52970401D01*
X128956338Y-52916697D01*
X129110067Y-52847741D01*
X129296542Y-52762432D01*
X129518294Y-52659666D01*
X129777854Y-52538340D01*
X129959194Y-52453322D01*
X130171126Y-52354110D01*
X130348435Y-52271482D01*
X130494571Y-52204017D01*
X130612981Y-52150293D01*
X130707117Y-52108888D01*
X130780428Y-52078383D01*
X130836364Y-52057354D01*
X130878373Y-52044382D01*
X130909907Y-52038044D01*
X130934414Y-52036919D01*
X130955344Y-52039587D01*
X130976146Y-52044625D01*
X130982223Y-52046319D01*
X131030436Y-52060969D01*
X131116391Y-52087916D01*
X131236206Y-52125918D01*
X131386001Y-52173733D01*
X131561898Y-52230116D01*
X131760016Y-52293825D01*
X131976475Y-52363616D01*
X132207394Y-52438247D01*
X132448895Y-52516474D01*
X132530795Y-52543019D01*
X132765349Y-52618878D01*
X132985820Y-52689945D01*
X133188634Y-52755084D01*
X133370217Y-52813154D01*
X133526996Y-52863020D01*
X133655399Y-52903544D01*
X133751850Y-52933587D01*
X133812777Y-52952011D01*
X133834605Y-52957680D01*
X133833321Y-52955429D01*
X133811305Y-52926367D01*
X133763555Y-52865695D01*
X133692003Y-52775811D01*
X133598580Y-52659117D01*
X133485220Y-52518011D01*
X133353853Y-52354894D01*
X133206411Y-52172164D01*
X133044827Y-51972222D01*
X132871032Y-51757467D01*
X132686958Y-51530299D01*
X132494538Y-51293117D01*
X131148308Y-49634717D01*
X131886994Y-49270128D01*
X132625680Y-48905539D01*
X133378918Y-49288788D01*
X133402543Y-49300802D01*
X133569997Y-49385595D01*
X133723631Y-49462769D01*
X133859093Y-49530184D01*
X133972029Y-49585697D01*
X134058086Y-49627166D01*
X134112913Y-49652450D01*
X134132155Y-49659407D01*
X134126713Y-49640427D01*
X134108617Y-49582579D01*
X134079165Y-49490173D01*
X134039734Y-49367475D01*
X133991699Y-49218752D01*
X133936435Y-49048271D01*
X133875318Y-48860299D01*
X133809722Y-48659103D01*
X133487289Y-47671429D01*
X133557293Y-47629451D01*
X133575183Y-47618803D01*
X133652885Y-47573596D01*
X133752108Y-47516987D01*
X133866791Y-47452322D01*
X133990873Y-47382946D01*
X134118294Y-47312204D01*
X134242993Y-47243441D01*
X134358911Y-47180003D01*
X134459985Y-47125236D01*
X134540156Y-47082484D01*
X134593364Y-47055093D01*
X134613548Y-47046408D01*
X134614651Y-47049092D01*
X134625999Y-47084521D01*
X134648439Y-47157940D01*
X134680837Y-47265497D01*
X134722058Y-47403339D01*
X134770970Y-47567615D01*
X134826438Y-47754470D01*
X134887328Y-47960054D01*
X134952507Y-48180513D01*
X135020841Y-48411994D01*
X135091196Y-48650646D01*
X135162438Y-48892616D01*
X135233433Y-49134050D01*
X135303048Y-49371097D01*
X135370149Y-49599904D01*
X135433602Y-49816618D01*
X135492273Y-50017388D01*
X135545029Y-50198359D01*
X135590735Y-50355681D01*
X135628258Y-50485499D01*
X135656463Y-50583962D01*
X135674218Y-50647218D01*
X135680389Y-50671413D01*
X135679053Y-50674001D01*
X135651526Y-50697169D01*
X135592733Y-50738671D01*
X135508355Y-50794712D01*
X135404072Y-50861498D01*
X135285564Y-50935231D01*
X134890740Y-51177571D01*
X134808753Y-51132354D01*
X134794887Y-51124738D01*
X134738752Y-51094044D01*
X134651282Y-51046309D01*
X134537999Y-50984546D01*
X134404426Y-50911762D01*
X134256085Y-50830970D01*
X134098498Y-50745179D01*
X134014108Y-50699241D01*
X133866494Y-50618862D01*
X133734089Y-50546730D01*
X133621736Y-50485487D01*
X133534275Y-50437772D01*
X133476549Y-50406224D01*
X133453401Y-50393484D01*
X133450612Y-50392008D01*
X133436572Y-50393689D01*
X133447587Y-50408577D01*
X133484943Y-50456007D01*
X133546786Y-50533516D01*
X133631093Y-50638597D01*
X133735844Y-50768744D01*
X133859016Y-50921451D01*
X133998587Y-51094212D01*
X134152537Y-51284520D01*
X134318843Y-51489869D01*
X134495484Y-51707753D01*
X134680437Y-51935666D01*
X135924302Y-53467701D01*
X135677878Y-53940873D01*
X135646245Y-54001655D01*
X135570079Y-54148304D01*
X135496781Y-54289821D01*
X135430827Y-54417543D01*
X135376691Y-54522809D01*
X135338851Y-54596957D01*
X135316840Y-54638930D01*
X135275581Y-54709620D01*
X135242106Y-54756792D01*
X135222108Y-54771915D01*
X135191813Y-54762617D01*
X135120609Y-54741586D01*
X135014155Y-54710550D01*
X134876012Y-54670527D01*
X134709745Y-54622534D01*
X134518915Y-54567589D01*
X134307086Y-54506710D01*
X134077821Y-54440915D01*
X133834682Y-54371222D01*
X133581233Y-54298648D01*
X133321036Y-54224212D01*
X133057654Y-54148931D01*
X132794651Y-54073823D01*
X132535588Y-53999907D01*
X132284029Y-53928199D01*
X132043537Y-53859718D01*
X131817674Y-53795482D01*
X131610005Y-53736508D01*
X131424090Y-53683815D01*
X131263494Y-53638419D01*
X131131779Y-53601340D01*
X131032508Y-53573594D01*
X130969244Y-53556201D01*
X130945550Y-53550177D01*
X130939495Y-53551864D01*
X130897963Y-53568561D01*
X130821279Y-53601705D01*
X130713322Y-53649549D01*
X130577974Y-53710344D01*
X130419117Y-53782342D01*
X130240632Y-53863793D01*
X130046400Y-53952950D01*
X129840303Y-54048065D01*
X128764281Y-54545953D01*
X127641840Y-54452582D01*
X127592081Y-54448432D01*
X127374986Y-54430084D01*
X127172634Y-54412592D01*
X126989307Y-54396353D01*
X126829290Y-54381764D01*
X126696867Y-54369218D01*
X126596321Y-54359114D01*
X126531937Y-54351846D01*
X126507998Y-54347810D01*
X126507283Y-54338125D01*
X126506545Y-54287662D01*
X126506274Y-54196233D01*
X126506452Y-54066234D01*
X126507063Y-53900060D01*
X126508089Y-53700104D01*
X126509514Y-53468762D01*
X126511321Y-53208428D01*
X126513492Y-52921497D01*
X126516012Y-52610363D01*
X126518863Y-52277421D01*
X126522028Y-51925066D01*
X126525490Y-51555691D01*
X126529232Y-51171692D01*
X126533238Y-50775464D01*
X126535799Y-50523671D01*
X126539635Y-50134886D01*
X126543192Y-49759841D01*
X126546455Y-49400930D01*
X126549406Y-49060549D01*
X126552028Y-48741093D01*
X126554306Y-48444955D01*
X126556222Y-48174532D01*
X126557759Y-47932219D01*
X126558901Y-47720409D01*
X126559632Y-47541498D01*
X126559934Y-47397881D01*
X126559791Y-47291954D01*
X126559186Y-47226109D01*
X126558103Y-47202744D01*
X126544807Y-47202346D01*
X126489871Y-47202750D01*
X126394955Y-47204158D01*
X126262841Y-47206503D01*
X126096311Y-47209719D01*
X125898148Y-47213742D01*
X125671132Y-47218505D01*
X125418047Y-47223943D01*
X125141673Y-47229991D01*
X124844794Y-47236582D01*
X124530192Y-47243652D01*
X124200648Y-47251135D01*
X123858944Y-47258965D01*
X123507863Y-47267077D01*
X123150186Y-47275405D01*
X122788696Y-47283884D01*
X122426175Y-47292448D01*
X122065405Y-47301032D01*
X121709167Y-47309569D01*
X121360245Y-47317995D01*
X121021419Y-47326244D01*
X120695472Y-47334250D01*
X120385187Y-47341949D01*
X120093344Y-47349273D01*
X119822727Y-47356158D01*
X119576117Y-47362539D01*
X119356296Y-47368349D01*
X119166047Y-47373523D01*
X119008151Y-47377996D01*
X118885391Y-47381702D01*
X118800548Y-47384575D01*
X118756405Y-47386551D01*
X118672261Y-47392087D01*
X118672427Y-47167112D01*
X118672614Y-47149974D01*
X118674918Y-47073620D01*
X118679664Y-46958493D01*
X118686624Y-46809020D01*
X118695567Y-46629627D01*
X118706266Y-46424741D01*
X118718489Y-46198786D01*
X118732007Y-45956191D01*
X118746592Y-45701380D01*
X118762014Y-45438781D01*
X118769828Y-45307361D01*
X118784631Y-45058166D01*
X118798515Y-44824111D01*
X118811262Y-44608904D01*
X118822652Y-44416251D01*
X118832467Y-44249859D01*
X118840488Y-44113436D01*
X118846497Y-44010688D01*
X118850274Y-43945323D01*
X118851601Y-43921048D01*
X118867490Y-43914973D01*
X118919984Y-43906709D01*
X119000454Y-43898169D01*
X119099878Y-43890463D01*
X119347989Y-43874255D01*
X119332991Y-43153161D01*
X119317993Y-42432067D01*
X118512456Y-40515725D01*
X118490887Y-40464406D01*
X118375075Y-40188623D01*
X118264675Y-39925337D01*
X118160888Y-39677436D01*
X118064915Y-39447804D01*
X117977956Y-39239327D01*
X117901214Y-39054892D01*
X117835888Y-38897384D01*
X117783181Y-38769688D01*
X117744293Y-38674692D01*
X117720425Y-38615279D01*
X117712779Y-38594338D01*
X117724689Y-38586735D01*
X117769459Y-38559125D01*
X117841361Y-38515139D01*
X117933973Y-38458707D01*
X118040872Y-38393754D01*
X118363105Y-38198214D01*
X119756698Y-38725559D01*
X119867036Y-38767372D01*
X120099671Y-38855931D01*
X120318109Y-38939626D01*
X120518873Y-39017093D01*
X120698486Y-39086969D01*
X120853470Y-39147891D01*
X120980349Y-39198495D01*
X121075645Y-39237419D01*
X121135881Y-39263298D01*
X121157580Y-39274771D01*
X121156970Y-39281618D01*
X121144580Y-39324333D01*
X121118750Y-39399622D01*
X121081755Y-39501181D01*
X121035868Y-39622708D01*
X120983361Y-39757896D01*
X120801853Y-40219154D01*
X120013701Y-39950681D01*
X120001556Y-39946546D01*
X119823377Y-39886186D01*
X119658944Y-39831052D01*
X119513041Y-39782705D01*
X119390448Y-39742707D01*
X119295947Y-39712617D01*
X119234321Y-39693998D01*
X119210350Y-39688410D01*
X119210283Y-39690269D01*
X119221012Y-39722102D01*
X119247836Y-39790638D01*
X119289297Y-39892408D01*
X119343940Y-40023944D01*
X119410308Y-40181777D01*
X119486944Y-40362440D01*
X119572391Y-40562462D01*
X119665195Y-40778376D01*
X119763898Y-41006714D01*
X120332644Y-42318816D01*
X120296759Y-43078126D01*
X120290462Y-43214886D01*
X120283155Y-43384256D01*
X120277208Y-43535019D01*
X120272800Y-43661932D01*
X120270108Y-43759753D01*
X120269311Y-43823239D01*
X120270587Y-43847148D01*
X120281458Y-43848320D01*
X120330975Y-43848724D01*
X120414466Y-43847649D01*
X120525369Y-43845310D01*
X120657118Y-43841923D01*
X120803151Y-43837706D01*
X120956904Y-43832875D01*
X121111812Y-43827647D01*
X121261312Y-43822238D01*
X121398840Y-43816864D01*
X121517832Y-43811742D01*
X121611725Y-43807090D01*
X121673955Y-43803122D01*
X121697957Y-43800056D01*
X121698040Y-43799926D01*
X121698785Y-43774648D01*
X121697682Y-43709776D01*
X121694899Y-43610312D01*
X121690601Y-43481256D01*
X121684955Y-43327611D01*
X121678127Y-43154379D01*
X121670282Y-42966560D01*
X121666228Y-42865765D01*
X121660314Y-42700200D01*
X121653978Y-42504087D01*
X121647281Y-42280443D01*
X121640285Y-42032283D01*
X121633052Y-41762624D01*
X121625645Y-41474482D01*
X121618125Y-41170875D01*
X121610555Y-40854818D01*
X121602997Y-40529327D01*
X121595513Y-40197419D01*
X121588165Y-39862111D01*
X121581015Y-39526419D01*
X121574126Y-39193359D01*
X121567560Y-38865948D01*
X121561378Y-38547202D01*
X121555644Y-38240138D01*
X121550418Y-37947772D01*
X121545764Y-37673120D01*
X121541743Y-37419198D01*
X121538417Y-37189024D01*
X121535849Y-36985614D01*
X121534101Y-36811984D01*
X121533235Y-36671150D01*
X121533313Y-36566129D01*
X121534397Y-36499937D01*
X121536550Y-36475591D01*
X121541258Y-36473372D01*
X121582104Y-36463087D01*
X121658209Y-36447940D01*
X121762798Y-36429165D01*
X121889097Y-36407994D01*
X122030331Y-36385663D01*
X122505097Y-36312715D01*
X123567345Y-37126632D01*
X123750343Y-37266877D01*
X123931980Y-37406138D01*
X124100128Y-37535117D01*
X124251624Y-37651385D01*
X124383306Y-37752512D01*
X124492010Y-37836071D01*
X124574574Y-37899631D01*
X124627835Y-37940764D01*
X124648630Y-37957040D01*
X124650267Y-37965222D01*
X124646470Y-38010969D01*
X124634393Y-38090743D01*
X124615150Y-38198119D01*
X124589855Y-38326675D01*
X124559623Y-38469986D01*
X124530692Y-38600962D01*
X124498143Y-38741166D01*
X124472007Y-38843245D01*
X124451311Y-38910648D01*
X124435077Y-38946822D01*
X124422331Y-38955216D01*
X124400065Y-38942308D01*
X124343532Y-38907240D01*
X124256818Y-38852539D01*
X124143756Y-38780649D01*
X124008178Y-38694015D01*
X123853919Y-38595082D01*
X123684811Y-38486292D01*
X123504688Y-38370092D01*
X123329864Y-38257417D01*
X123162106Y-38149819D01*
X123009716Y-38052606D01*
X122876405Y-37968121D01*
X122765884Y-37898705D01*
X122681867Y-37846701D01*
X122628063Y-37814452D01*
X122608185Y-37804300D01*
X122608035Y-37806178D01*
X122608449Y-37840558D01*
X122610295Y-37915748D01*
X122613466Y-38028577D01*
X122617854Y-38175871D01*
X122623353Y-38354462D01*
X122629856Y-38561176D01*
X122637256Y-38792842D01*
X122645446Y-39046290D01*
X122654319Y-39318347D01*
X122663769Y-39605843D01*
X122673688Y-39905605D01*
X122683969Y-40214463D01*
X122694505Y-40529245D01*
X122705190Y-40846779D01*
X122715917Y-41163895D01*
X122726579Y-41477420D01*
X122737068Y-41784184D01*
X122747278Y-42081015D01*
X122757102Y-42364741D01*
X122766433Y-42632192D01*
X122775164Y-42880196D01*
X122783188Y-43105580D01*
X122790399Y-43305175D01*
X122796689Y-43475808D01*
X122801951Y-43614309D01*
X122806079Y-43717505D01*
X122808965Y-43782225D01*
X122810503Y-43805299D01*
X122829956Y-43806424D01*
X122887839Y-43804949D01*
X122977242Y-43801064D01*
X123091241Y-43795204D01*
X123222917Y-43787806D01*
X123365347Y-43779303D01*
X123511610Y-43770130D01*
X123654785Y-43760723D01*
X123787949Y-43751516D01*
X123904181Y-43742945D01*
X123996560Y-43735444D01*
X124058165Y-43729448D01*
X124082072Y-43725393D01*
X124082132Y-43725302D01*
X124086377Y-43700188D01*
X124095581Y-43632911D01*
X124109461Y-43525784D01*
X124127736Y-43381125D01*
X124150125Y-43201250D01*
X124176345Y-42988473D01*
X124206115Y-42745112D01*
X124239152Y-42473483D01*
X124275176Y-42175900D01*
X124313905Y-41854681D01*
X124355057Y-41512140D01*
X124398350Y-41150595D01*
X124443502Y-40772360D01*
X124490232Y-40379753D01*
X124538259Y-39975088D01*
X124539232Y-39966872D01*
X124587309Y-39561709D01*
X124634113Y-39168228D01*
X124679360Y-38788778D01*
X124722765Y-38425708D01*
X124764044Y-38081367D01*
X124802912Y-37758104D01*
X124839085Y-37458267D01*
X124872279Y-37184206D01*
X124902208Y-36938270D01*
X124928588Y-36722808D01*
X124951136Y-36540168D01*
X124969566Y-36392699D01*
X124983594Y-36282752D01*
X124992935Y-36212674D01*
X124997305Y-36184814D01*
X124997561Y-36183981D01*
X125009240Y-36162093D01*
X125033875Y-36140495D01*
X125077399Y-36116323D01*
X125145746Y-36086709D01*
X125244850Y-36048790D01*
X125380644Y-35999699D01*
X125480005Y-35964582D01*
X125590107Y-35926419D01*
X125679987Y-35896109D01*
X125742317Y-35876116D01*
X125769769Y-35868905D01*
X125771818Y-35870050D01*
G37*
%TD*%
D11*
%TO.C,REF\u002A\u002A*%
X114050000Y-34550000D03*
%TD*%
D12*
%TO.C,U1*%
X176150000Y-38150000D03*
X173610000Y-38150000D03*
X171070000Y-38150000D03*
X168530000Y-38150000D03*
X165990000Y-38150000D03*
X163450000Y-38150000D03*
X160910000Y-38150000D03*
X160910000Y-53542400D03*
X163450000Y-53542400D03*
X165990000Y-53542400D03*
X168530000Y-53542400D03*
X171070000Y-53542400D03*
X173610000Y-53542400D03*
X176150000Y-53542400D03*
%TD*%
D11*
%TO.C,REF\u002A\u002A*%
X114050000Y-57050000D03*
%TD*%
%TO.C,REF\u002A\u002A*%
X178050000Y-57050000D03*
%TD*%
%TO.C,REF\u002A\u002A*%
X178050000Y-34550000D03*
%TD*%
M02*
