999
"DXF R12 Output" (www.mydxf.blogspot.com)
 0 
SECTION
 2 
HEADER
 9 
$ACADVER
 1 
AC1009
 9 
$EXTMIN
 10 
 0 
 20 
 0 
 9 
$EXTMAX
 10 
 8.5 
 20 
 11 
 0 
ENDSEC
 0 
SECTION
 2 
ENTITIES
0
LINE
8
Layer 1
10
131.390000
20
24.685900
11
131.935766
21
22.397825
0
LINE
8
Layer 1
10
131.935766
20
22.397825
11
132.007625
21
20.093925
0
LINE
8
Layer 1
10
132.007625
20
20.093925
11
131.619922
21
17.831837
0
LINE
8
Layer 1
10
131.619922
20
17.831837
11
130.787000
21
15.669200
0
LINE
8
Layer 1
10
130.787000
20
15.669200
11
129.951203
21
14.222633
0
LINE
8
Layer 1
10
129.951203
20
14.222633
11
128.962875
21
12.921312
0
LINE
8
Layer 1
10
128.962875
20
12.921312
11
127.832609
21
11.737761
0
LINE
8
Layer 1
10
127.832609
20
11.737761
11
126.571000
21
10.644500
0
LINE
8
Layer 1
10
126.571000
20
10.644500
11
124.876516
21
9.432427
0
LINE
8
Layer 1
10
124.876516
20
9.432427
11
122.984875
21
8.296202
0
LINE
8
Layer 1
10
122.984875
20
8.296202
11
118.600000
21
6.178080
0
LINE
8
Layer 1
10
118.600000
20
6.178080
11
112.674625
21
3.930781
0
LINE
8
Layer 1
10
112.674625
20
3.930781
11
108.010000
21
2.479210
0
LINE
8
Layer 1
10
108.010000
20
2.479210
11
103.957713
21
1.524007
0
LINE
8
Layer 1
10
103.957713
20
1.524007
11
99.958225
21
0.793854
0
LINE
8
Layer 1
10
99.958225
20
0.793854
11
95.985100
21
0.320130
0
LINE
8
Layer 1
10
95.985100
20
0.320130
11
92.011900
21
0.134215
0
LINE
8
Layer 1
10
92.011900
20
0.134215
11
89.215596
21
0.196923
0
LINE
8
Layer 1
10
89.215596
20
0.196923
11
86.527628
21
0.444438
0
LINE
8
Layer 1
10
86.527628
20
0.444438
11
83.957846
21
0.887562
0
LINE
8
Layer 1
10
83.957846
20
0.887562
11
81.516100
21
1.537099
0
LINE
8
Layer 1
10
81.516100
20
1.537099
11
79.212242
21
2.403851
0
LINE
8
Layer 1
10
79.212242
20
2.403851
11
77.056122
21
3.498620
0
LINE
8
Layer 1
10
77.056122
20
3.498620
11
75.057591
21
4.832208
0
LINE
8
Layer 1
10
75.057591
20
4.832208
11
73.226500
21
6.415420
0
LINE
8
Layer 1
10
73.226500
20
6.415420
11
69.593150
21
6.075165
0
LINE
8
Layer 1
10
69.593150
20
6.075165
11
65.928300
21
5.954780
0
LINE
8
Layer 1
10
65.928300
20
5.954780
11
62.459412
21
6.059388
0
LINE
8
Layer 1
10
62.459412
20
6.059388
11
59.022100
21
6.373350
0
LINE
8
Layer 1
10
59.022100
20
6.373350
11
57.187674
21
4.800000
0
LINE
8
Layer 1
10
57.187674
20
4.800000
11
55.189236
21
3.474957
0
LINE
8
Layer 1
10
55.189236
20
3.474957
11
53.036146
21
2.387418
0
LINE
8
Layer 1
10
53.036146
20
2.387418
11
50.737763
21
1.526583
0
LINE
8
Layer 1
10
50.737763
20
1.526583
11
48.303447
21
0.881647
0
LINE
8
Layer 1
10
48.303447
20
0.881647
11
45.742558
21
0.441809
0
LINE
8
Layer 1
10
45.742558
20
0.441809
11
43.064456
21
0.196266
0
LINE
8
Layer 1
10
43.064456
20
0.196266
11
40.278500
21
0.134215
0
LINE
8
Layer 1
10
40.278500
20
0.134215
11
36.305173
21
0.320130
0
LINE
8
Layer 1
10
36.305173
20
0.320130
11
32.330488
21
0.793854
0
LINE
8
Layer 1
10
32.330488
20
0.793854
11
28.326908
21
1.524007
0
LINE
8
Layer 1
10
28.326908
20
1.524007
11
24.266900
21
2.479210
0
LINE
8
Layer 1
10
24.266900
20
2.479210
11
19.614375
21
3.930781
0
LINE
8
Layer 1
10
19.614375
20
3.930781
11
13.690600
21
6.178080
0
LINE
8
Layer 1
10
13.690600
20
6.178080
11
9.307645
21
8.296202
0
LINE
8
Layer 1
10
9.307645
20
8.296202
11
7.420218
21
9.432427
0
LINE
8
Layer 1
10
7.420218
20
9.432427
11
5.733730
21
10.644500
0
LINE
8
Layer 1
10
5.733730
20
10.644500
11
4.463987
21
11.737761
0
LINE
8
Layer 1
10
4.463987
20
11.737761
11
3.329520
21
12.921312
0
LINE
8
Layer 1
10
3.329520
20
12.921312
11
2.339518
21
14.222633
0
LINE
8
Layer 1
10
2.339518
20
14.222633
11
1.503170
21
15.669200
0
LINE
8
Layer 1
10
1.503170
20
15.669200
11
0.676449
21
17.831837
0
LINE
8
Layer 1
10
0.676449
20
17.831837
11
0.289682
21
20.093925
0
LINE
8
Layer 1
10
0.289682
20
20.093925
11
0.362569
21
22.397825
0
LINE
8
Layer 1
10
0.362569
20
22.397825
11
0.914809
21
24.685900
0
LINE
8
Layer 1
10
0.914809
20
24.685900
11
0.320544
21
26.475192
0
LINE
8
Layer 1
10
0.320544
20
26.475192
11
0.027023
21
28.384813
0
LINE
8
Layer 1
10
0.027023
20
28.384813
11
0.061825
21
30.409577
0
LINE
8
Layer 1
10
0.061825
20
30.409577
11
0.452530
21
32.544300
0
LINE
8
Layer 1
10
0.452530
20
32.544300
11
1.137195
21
34.454725
0
LINE
8
Layer 1
10
1.137195
20
34.454725
11
2.105530
21
36.187400
0
LINE
8
Layer 1
10
2.105530
20
36.187400
11
1.741310
21
37.987800
0
LINE
8
Layer 1
10
1.741310
20
37.987800
11
1.627683
21
39.405350
0
LINE
8
Layer 1
10
1.627683
20
39.405350
11
1.680680
21
40.786283
0
LINE
8
Layer 1
10
1.680680
20
40.786283
11
1.892257
21
42.125358
0
LINE
8
Layer 1
10
1.892257
20
42.125358
11
2.254371
21
43.417338
0
LINE
8
Layer 1
10
2.254371
20
43.417338
11
3.398034
21
45.839048
0
LINE
8
Layer 1
10
3.398034
20
45.839048
11
5.047320
21
48.009500
0
LINE
8
Layer 1
10
5.047320
20
48.009500
11
6.964722
21
49.736738
0
LINE
8
Layer 1
10
6.964722
20
49.736738
11
8.997700
21
50.898700
0
LINE
8
Layer 1
10
8.997700
20
50.898700
11
8.323329
21
54.167033
0
LINE
8
Layer 1
10
8.323329
20
54.167033
11
7.836756
21
57.479813
0
LINE
8
Layer 1
10
7.836756
20
57.479813
11
7.541923
21
60.834461
0
LINE
8
Layer 1
10
7.541923
20
60.834461
11
7.442770
21
64.228400
0
LINE
8
Layer 1
10
7.442770
20
64.228400
11
7.518862
21
67.227405
0
LINE
8
Layer 1
10
7.518862
20
67.227405
11
7.744690
21
70.187012
0
LINE
8
Layer 1
10
7.744690
20
70.187012
11
8.630860
21
75.973390
0
LINE
8
Layer 1
10
8.630860
20
75.973390
11
10.071895
21
81.558255
0
LINE
8
Layer 1
10
10.071895
20
81.558255
11
12.038412
21
86.912330
0
LINE
8
Layer 1
10
12.038412
20
86.912330
11
14.501026
21
92.006334
0
LINE
8
Layer 1
10
14.501026
20
92.006334
11
17.430354
21
96.810989
0
LINE
8
Layer 1
10
17.430354
20
96.810989
11
20.797010
21
101.297017
0
LINE
8
Layer 1
10
20.797010
20
101.297017
11
24.571610
21
105.435137
0
LINE
8
Layer 1
10
24.571610
20
105.435137
11
28.724771
21
109.196073
0
LINE
8
Layer 1
10
28.724771
20
109.196073
11
33.227107
21
112.550544
0
LINE
8
Layer 1
10
33.227107
20
112.550544
11
38.049235
21
115.469271
0
LINE
8
Layer 1
10
38.049235
20
115.469271
11
43.161770
21
117.922977
0
LINE
8
Layer 1
10
43.161770
20
117.922977
11
48.535329
21
119.882381
0
LINE
8
Layer 1
10
48.535329
20
119.882381
11
54.140526
21
121.318206
0
LINE
8
Layer 1
10
54.140526
20
121.318206
11
59.947978
21
122.201172
0
LINE
8
Layer 1
10
59.947978
20
122.201172
11
62.918367
21
122.426183
0
LINE
8
Layer 1
10
62.918367
20
122.426183
11
65.928300
21
122.502000
0
LINE
8
Layer 1
10
65.928300
20
122.502000
11
70.053730
21
122.359576
0
LINE
8
Layer 1
10
70.053730
20
122.359576
11
74.102650
21
121.938422
0
LINE
8
Layer 1
10
74.102650
20
121.938422
11
78.065545
21
121.247713
0
LINE
8
Layer 1
10
78.065545
20
121.247713
11
81.932900
21
120.296625
0
LINE
8
Layer 1
10
81.932900
20
120.296625
11
85.695198
21
119.094334
0
LINE
8
Layer 1
10
85.695198
20
119.094334
11
89.342925
21
117.650016
0
LINE
8
Layer 1
10
89.342925
20
117.650016
11
92.866564
21
115.972846
0
LINE
8
Layer 1
10
92.866564
20
115.972846
11
96.256600
21
114.072000
0
LINE
8
Layer 1
10
96.256600
20
114.072000
11
100.921000
21
110.931000
0
LINE
8
Layer 1
10
100.921000
20
110.931000
11
103.121000
21
109.200000
0
LINE
8
Layer 1
10
103.121000
20
109.200000
11
105.250000
21
107.372000
0
LINE
8
Layer 1
10
105.250000
20
107.372000
11
108.259750
21
104.440625
0
LINE
8
Layer 1
10
108.259750
20
104.440625
11
111.049000
21
101.300000
0
LINE
8
Layer 1
10
111.049000
20
101.300000
11
112.786000
21
99.094800
0
LINE
8
Layer 1
10
112.786000
20
99.094800
11
114.425375
21
96.812737
0
LINE
8
Layer 1
10
114.425375
20
96.812737
11
115.938000
21
94.446900
0
LINE
8
Layer 1
10
115.938000
20
94.446900
11
118.009750
21
90.763837
0
LINE
8
Layer 1
10
118.009750
20
90.763837
11
119.819000
21
86.923800
0
LINE
8
Layer 1
10
119.819000
20
86.923800
11
121.780000
21
81.563900
0
LINE
8
Layer 1
10
121.780000
20
81.563900
11
122.912750
21
77.397463
0
LINE
8
Layer 1
10
122.912750
20
77.397463
11
123.741000
21
73.105400
0
LINE
8
Layer 1
10
123.741000
20
73.105400
11
124.105000
21
70.188400
0
LINE
8
Layer 1
10
124.105000
20
70.188400
11
124.333375
21
67.234500
0
LINE
8
Layer 1
10
124.333375
20
67.234500
11
124.414000
21
64.228400
0
LINE
8
Layer 1
10
124.414000
20
64.228400
11
124.315188
21
60.874344
0
LINE
8
Layer 1
10
124.315188
20
60.874344
11
124.023250
21
57.558275
0
LINE
8
Layer 1
10
124.023250
20
57.558275
11
123.544938
21
54.286719
0
LINE
8
Layer 1
10
123.544938
20
54.286719
11
122.887000
21
51.066200
0
LINE
8
Layer 1
10
122.887000
20
51.066200
11
124.026625
21
50.543478
0
LINE
8
Layer 1
10
124.026625
20
50.543478
11
125.133250
21
49.867625
0
LINE
8
Layer 1
10
125.133250
20
49.867625
11
126.205750
21
49.026884
0
LINE
8
Layer 1
10
126.205750
20
49.026884
11
127.243000
21
48.009500
0
LINE
8
Layer 1
10
127.243000
20
48.009500
11
128.892578
21
45.836903
0
LINE
8
Layer 1
10
128.892578
20
45.836903
11
130.036375
21
43.410450
0
LINE
8
Layer 1
10
130.036375
20
43.410450
11
130.398479
21
42.115920
0
LINE
8
Layer 1
10
130.398479
20
42.115920
11
130.609984
21
40.774597
0
LINE
8
Layer 1
10
130.609984
20
40.774597
11
130.662842
21
39.392038
0
LINE
8
Layer 1
10
130.662842
20
39.392038
11
130.549000
21
37.973800
0
LINE
8
Layer 1
10
130.549000
20
37.973800
11
130.185000
21
36.187400
0
LINE
8
Layer 1
10
130.185000
20
36.187400
11
131.153625
21
34.454725
0
LINE
8
Layer 1
10
131.153625
20
34.454725
11
131.838000
21
32.544300
0
LINE
8
Layer 1
10
131.838000
20
32.544300
11
132.228688
21
30.409577
0
LINE
8
Layer 1
10
132.228688
20
30.409577
11
132.265000
21
28.384813
0
LINE
8
Layer 1
10
132.265000
20
28.384813
11
131.975812
21
26.475192
0
LINE
8
Layer 1
10
131.975812
20
26.475192
11
131.390000
21
24.685900
0
LINE
8
Layer 1
10
131.390000
20
24.685900
11
131.390000
21
24.685900
0
LINE
8
Layer 1
10
114.786000
20
63.830700
11
114.534877
21
68.773588
0
LINE
8
Layer 1
10
114.534877
20
68.773588
11
113.797806
21
73.573700
0
LINE
8
Layer 1
10
113.797806
20
73.573700
11
112.599238
21
78.206734
0
LINE
8
Layer 1
10
112.599238
20
78.206734
11
110.963620
21
82.648391
0
LINE
8
Layer 1
10
110.963620
20
82.648391
11
108.915402
21
86.874367
0
LINE
8
Layer 1
10
108.915402
20
86.874367
11
106.479033
21
90.860361
0
LINE
8
Layer 1
10
106.479033
20
90.860361
11
103.678962
21
94.582073
0
LINE
8
Layer 1
10
103.678962
20
94.582073
11
100.539637
21
98.015200
0
LINE
8
Layer 1
10
100.539637
20
98.015200
11
97.085509
21
101.135441
0
LINE
8
Layer 1
10
97.085509
20
101.135441
11
93.341024
21
103.918495
0
LINE
8
Layer 1
10
93.341024
20
103.918495
11
89.330634
21
106.340060
0
LINE
8
Layer 1
10
89.330634
20
106.340060
11
85.078786
21
108.375834
0
LINE
8
Layer 1
10
85.078786
20
108.375834
11
80.609930
21
110.001517
0
LINE
8
Layer 1
10
80.609930
20
110.001517
11
75.948514
21
111.192807
0
LINE
8
Layer 1
10
75.948514
20
111.192807
11
71.118988
21
111.925401
0
LINE
8
Layer 1
10
71.118988
20
111.925401
11
66.145800
21
112.175000
0
LINE
8
Layer 1
10
66.145800
20
112.175000
11
61.172591
21
111.925401
0
LINE
8
Layer 1
10
61.172591
20
111.925401
11
56.343040
21
111.192807
0
LINE
8
Layer 1
10
56.343040
20
111.192807
11
51.681596
21
110.001517
0
LINE
8
Layer 1
10
51.681596
20
110.001517
11
47.212709
21
108.375834
0
LINE
8
Layer 1
10
47.212709
20
108.375834
11
42.960829
21
106.340060
0
LINE
8
Layer 1
10
42.960829
20
106.340060
11
38.950405
21
103.918495
0
LINE
8
Layer 1
10
38.950405
20
103.918495
11
35.205887
21
101.135441
0
LINE
8
Layer 1
10
35.205887
20
101.135441
11
31.751725
21
98.015200
0
LINE
8
Layer 1
10
31.751725
20
98.015200
11
28.612368
21
94.582073
0
LINE
8
Layer 1
10
28.612368
20
94.582073
11
25.812267
21
90.860361
0
LINE
8
Layer 1
10
25.812267
20
90.860361
11
23.375870
21
86.874367
0
LINE
8
Layer 1
10
23.375870
20
86.874367
11
21.327628
21
82.648391
0
LINE
8
Layer 1
10
21.327628
20
82.648391
11
19.691990
21
78.206734
0
LINE
8
Layer 1
10
19.691990
20
78.206734
11
18.493407
21
73.573700
0
LINE
8
Layer 1
10
18.493407
20
73.573700
11
17.756327
21
68.773588
0
LINE
8
Layer 1
10
17.756327
20
68.773588
11
17.505200
21
63.830700
0
LINE
8
Layer 1
10
17.505200
20
63.830700
11
17.756327
21
58.887815
0
LINE
8
Layer 1
10
17.756327
20
58.887815
11
18.493407
21
54.087709
0
LINE
8
Layer 1
10
18.493407
20
54.087709
11
19.691990
21
49.454684
0
LINE
8
Layer 1
10
19.691990
20
49.454684
11
21.327628
21
45.013041
0
LINE
8
Layer 1
10
21.327628
20
45.013041
11
23.375870
21
40.787080
0
LINE
8
Layer 1
10
23.375870
20
40.787080
11
25.812267
21
36.801102
0
LINE
8
Layer 1
10
25.812267
20
36.801102
11
28.612368
21
33.079408
0
LINE
8
Layer 1
10
28.612368
20
33.079408
11
31.751725
21
29.646300
0
LINE
8
Layer 1
10
31.751725
20
29.646300
11
35.205887
21
26.526077
0
LINE
8
Layer 1
10
35.205887
20
26.526077
11
38.950405
21
23.743042
0
LINE
8
Layer 1
10
38.950405
20
23.743042
11
42.960829
21
21.321494
0
LINE
8
Layer 1
10
42.960829
20
21.321494
11
47.212709
21
19.285734
0
LINE
8
Layer 1
10
47.212709
20
19.285734
11
51.681596
21
17.660064
0
LINE
8
Layer 1
10
51.681596
20
17.660064
11
56.343040
21
16.468785
0
LINE
8
Layer 1
10
56.343040
20
16.468785
11
61.172591
21
15.736196
0
LINE
8
Layer 1
10
61.172591
20
15.736196
11
66.145800
21
15.486600
0
LINE
8
Layer 1
10
66.145800
20
15.486600
11
71.118988
21
15.736196
0
LINE
8
Layer 1
10
71.118988
20
15.736196
11
75.948514
21
16.468785
0
LINE
8
Layer 1
10
75.948514
20
16.468785
11
80.609930
21
17.660064
0
LINE
8
Layer 1
10
80.609930
20
17.660064
11
85.078786
21
19.285734
0
LINE
8
Layer 1
10
85.078786
20
19.285734
11
89.330634
21
21.321494
0
LINE
8
Layer 1
10
89.330634
20
21.321494
11
93.341024
21
23.743042
0
LINE
8
Layer 1
10
93.341024
20
23.743042
11
97.085509
21
26.526077
0
LINE
8
Layer 1
10
97.085509
20
26.526077
11
100.539637
21
29.646300
0
LINE
8
Layer 1
10
100.539637
20
29.646300
11
103.678962
21
33.079408
0
LINE
8
Layer 1
10
103.678962
20
33.079408
11
106.479033
21
36.801102
0
LINE
8
Layer 1
10
106.479033
20
36.801102
11
108.915402
21
40.787080
0
LINE
8
Layer 1
10
108.915402
20
40.787080
11
110.963620
21
45.013041
0
LINE
8
Layer 1
10
110.963620
20
45.013041
11
112.599238
21
49.454684
0
LINE
8
Layer 1
10
112.599238
20
49.454684
11
113.797806
21
54.087709
0
LINE
8
Layer 1
10
113.797806
20
54.087709
11
114.534877
21
58.887815
0
LINE
8
Layer 1
10
114.534877
20
58.887815
11
114.786000
21
63.830700
0
LINE
8
Layer 1
10
114.786000
20
63.830700
11
114.786000
21
63.830700
0
LINE
8
Layer 1
10
11.906200
20
63.830700
11
12.186234
21
69.342566
0
LINE
8
Layer 1
10
12.186234
20
69.342566
11
13.008160
21
74.695223
0
LINE
8
Layer 1
10
13.008160
20
74.695223
11
14.344714
21
79.861571
0
LINE
8
Layer 1
10
14.344714
20
79.861571
11
16.168631
21
84.814512
0
LINE
8
Layer 1
10
16.168631
20
84.814512
11
18.452648
21
89.526948
0
LINE
8
Layer 1
10
18.452648
20
89.526948
11
21.169499
21
93.971777
0
LINE
8
Layer 1
10
21.169499
20
93.971777
11
24.291921
21
98.121903
0
LINE
8
Layer 1
10
24.291921
20
98.121903
11
27.792650
21
101.950225
0
LINE
8
Layer 1
10
27.792650
20
101.950225
11
31.644421
21
105.429645
0
LINE
8
Layer 1
10
31.644421
20
105.429645
11
35.819970
21
108.533063
0
LINE
8
Layer 1
10
35.819970
20
108.533063
11
40.292032
21
111.233381
0
LINE
8
Layer 1
10
40.292032
20
111.233381
11
45.033344
21
113.503500
0
LINE
8
Layer 1
10
45.033344
20
113.503500
11
50.016641
21
115.316320
0
LINE
8
Layer 1
10
50.016641
20
115.316320
11
55.214659
21
116.644743
0
LINE
8
Layer 1
10
55.214659
20
116.644743
11
60.600133
21
117.461669
0
LINE
8
Layer 1
10
60.600133
20
117.461669
11
66.145800
21
117.740000
0
LINE
8
Layer 1
10
66.145800
20
117.740000
11
71.691446
21
117.461669
0
LINE
8
Layer 1
10
71.691446
20
117.461669
11
77.076896
21
116.644743
0
LINE
8
Layer 1
10
77.076896
20
116.644743
11
82.274885
21
115.316320
0
LINE
8
Layer 1
10
82.274885
20
115.316320
11
87.258152
21
113.503500
0
LINE
8
Layer 1
10
87.258152
20
113.503500
11
91.999431
21
111.233381
0
LINE
8
Layer 1
10
91.999431
20
111.233381
11
96.471460
21
108.533063
0
LINE
8
Layer 1
10
96.471460
20
108.533063
11
100.646975
21
105.429645
0
LINE
8
Layer 1
10
100.646975
20
105.429645
11
104.498712
21
101.950225
0
LINE
8
Layer 1
10
104.498712
20
101.950225
11
107.999409
21
98.121903
0
LINE
8
Layer 1
10
107.999409
20
98.121903
11
111.121801
21
93.971777
0
LINE
8
Layer 1
10
111.121801
20
93.971777
11
113.838625
21
89.526948
0
LINE
8
Layer 1
10
113.838625
20
89.526948
11
116.122617
21
84.814512
0
LINE
8
Layer 1
10
116.122617
20
84.814512
11
117.946514
21
79.861571
0
LINE
8
Layer 1
10
117.946514
20
79.861571
11
119.283053
21
74.695223
0
LINE
8
Layer 1
10
119.283053
20
74.695223
11
120.104969
21
69.342566
0
LINE
8
Layer 1
10
120.104969
20
69.342566
11
120.385000
21
63.830700
0
LINE
8
Layer 1
10
120.385000
20
63.830700
11
120.104969
21
58.318840
0
LINE
8
Layer 1
10
120.104969
20
58.318840
11
119.283053
21
52.966200
0
LINE
8
Layer 1
10
119.283053
20
52.966200
11
117.946514
21
47.799878
0
LINE
8
Layer 1
10
117.946514
20
47.799878
11
116.122617
21
42.846970
0
LINE
8
Layer 1
10
116.122617
20
42.846970
11
113.838625
21
38.134575
0
LINE
8
Layer 1
10
113.838625
20
38.134575
11
111.121801
21
33.689790
0
LINE
8
Layer 1
10
111.121801
20
33.689790
11
107.999409
21
29.539713
0
LINE
8
Layer 1
10
107.999409
20
29.539713
11
104.498712
21
25.711440
0
LINE
8
Layer 1
10
104.498712
20
25.711440
11
100.646975
21
22.232070
0
LINE
8
Layer 1
10
100.646975
20
22.232070
11
96.471460
21
19.128699
0
LINE
8
Layer 1
10
96.471460
20
19.128699
11
91.999431
21
16.428426
0
LINE
8
Layer 1
10
91.999431
20
16.428426
11
87.258152
21
14.158347
0
LINE
8
Layer 1
10
87.258152
20
14.158347
11
82.274885
21
12.345561
0
LINE
8
Layer 1
10
82.274885
20
12.345561
11
77.076896
21
11.017164
0
LINE
8
Layer 1
10
77.076896
20
11.017164
11
71.691446
21
10.200255
0
LINE
8
Layer 1
10
71.691446
20
10.200255
11
66.145800
21
9.921930
0
LINE
8
Layer 1
10
66.145800
20
9.921930
11
60.600133
21
10.200255
0
LINE
8
Layer 1
10
60.600133
20
10.200255
11
55.214659
21
11.017164
0
LINE
8
Layer 1
10
55.214659
20
11.017164
11
50.016641
21
12.345561
0
LINE
8
Layer 1
10
50.016641
20
12.345561
11
45.033344
21
14.158347
0
LINE
8
Layer 1
10
45.033344
20
14.158347
11
40.292032
21
16.428426
0
LINE
8
Layer 1
10
40.292032
20
16.428426
11
35.819970
21
19.128699
0
LINE
8
Layer 1
10
35.819970
20
19.128699
11
31.644421
21
22.232070
0
LINE
8
Layer 1
10
31.644421
20
22.232070
11
27.792650
21
25.711440
0
LINE
8
Layer 1
10
27.792650
20
25.711440
11
24.291921
21
29.539713
0
LINE
8
Layer 1
10
24.291921
20
29.539713
11
21.169499
21
33.689790
0
LINE
8
Layer 1
10
21.169499
20
33.689790
11
18.452648
21
38.134575
0
LINE
8
Layer 1
10
18.452648
20
38.134575
11
16.168631
21
42.846970
0
LINE
8
Layer 1
10
16.168631
20
42.846970
11
14.344714
21
47.799878
0
LINE
8
Layer 1
10
14.344714
20
47.799878
11
13.008160
21
52.966200
0
LINE
8
Layer 1
10
13.008160
20
52.966200
11
12.186234
21
58.318840
0
LINE
8
Layer 1
10
12.186234
20
58.318840
11
11.906200
21
63.830700
0
LINE
8
Layer 1
10
11.906200
20
63.830700
11
11.906200
21
63.830700
0
LINE
8
Layer 1
10
66.145800
20
15.213600
11
71.150445
21
15.464606
0
LINE
8
Layer 1
10
71.150445
20
15.464606
11
76.010528
21
16.201330
0
LINE
8
Layer 1
10
76.010528
20
16.201330
11
80.701444
21
17.399336
0
LINE
8
Layer 1
10
80.701444
20
17.399336
11
85.198588
21
19.034184
0
LINE
8
Layer 1
10
85.198588
20
19.034184
11
89.477355
21
21.081438
0
LINE
8
Layer 1
10
89.477355
20
21.081438
11
93.513141
21
23.516659
0
LINE
8
Layer 1
10
93.513141
20
23.516659
11
97.281341
21
26.315409
0
LINE
8
Layer 1
10
97.281341
20
26.315409
11
100.757350
21
29.453250
0
LINE
8
Layer 1
10
100.757350
20
29.453250
11
103.916564
21
32.905744
0
LINE
8
Layer 1
10
103.916564
20
32.905744
11
106.734378
21
36.648454
0
LINE
8
Layer 1
10
106.734378
20
36.648454
11
109.186188
21
40.656940
0
LINE
8
Layer 1
10
109.186188
20
40.656940
11
111.247388
21
44.906766
0
LINE
8
Layer 1
10
111.247388
20
44.906766
11
112.893373
21
49.373492
0
LINE
8
Layer 1
10
112.893373
20
49.373492
11
114.099541
21
54.032682
0
LINE
8
Layer 1
10
114.099541
20
54.032682
11
114.841284
21
58.859898
0
LINE
8
Layer 1
10
114.841284
20
58.859898
11
115.094000
21
63.830700
0
LINE
8
Layer 1
10
115.094000
20
63.830700
11
114.841284
21
68.801505
0
LINE
8
Layer 1
10
114.841284
20
68.801505
11
114.099541
21
73.628726
0
LINE
8
Layer 1
10
114.099541
20
73.628726
11
112.893373
21
78.287926
0
LINE
8
Layer 1
10
112.893373
20
78.287926
11
111.247388
21
82.754666
0
LINE
8
Layer 1
10
111.247388
20
82.754666
11
109.186188
21
87.004506
0
LINE
8
Layer 1
10
109.186188
20
87.004506
11
106.734378
21
91.013010
0
LINE
8
Layer 1
10
106.734378
20
91.013010
11
103.916564
21
94.755737
0
LINE
8
Layer 1
10
103.916564
20
94.755737
11
100.757350
21
98.208250
0
LINE
8
Layer 1
10
100.757350
20
98.208250
11
97.281341
21
101.346110
0
LINE
8
Layer 1
10
97.281341
20
101.346110
11
93.513141
21
104.144878
0
LINE
8
Layer 1
10
93.513141
20
104.144878
11
89.477355
21
106.580115
0
LINE
8
Layer 1
10
89.477355
20
106.580115
11
85.198588
21
108.627384
0
LINE
8
Layer 1
10
85.198588
20
108.627384
11
80.701444
21
110.262246
0
LINE
8
Layer 1
10
80.701444
20
110.262246
11
76.010528
21
111.460261
0
LINE
8
Layer 1
10
76.010528
20
111.460261
11
71.150445
21
112.196992
0
LINE
8
Layer 1
10
71.150445
20
112.196992
11
66.145800
21
112.448000
0
LINE
8
Layer 1
10
66.145800
20
112.448000
11
61.141142
21
112.196992
0
LINE
8
Layer 1
10
61.141142
20
112.196992
11
56.281056
21
111.460261
0
LINE
8
Layer 1
10
56.281056
20
111.460261
11
51.590147
21
110.262246
0
LINE
8
Layer 1
10
51.590147
20
110.262246
11
47.093017
21
108.627384
0
LINE
8
Layer 1
10
47.093017
20
108.627384
11
42.814271
21
106.580115
0
LINE
8
Layer 1
10
42.814271
20
106.580115
11
38.778510
21
104.144878
0
LINE
8
Layer 1
10
38.778510
20
104.144878
11
35.010340
21
101.346110
0
LINE
8
Layer 1
10
35.010340
20
101.346110
11
31.534362
21
98.208250
0
LINE
8
Layer 1
10
31.534362
20
98.208250
11
28.375182
21
94.755737
0
LINE
8
Layer 1
10
28.375182
20
94.755737
11
25.557401
21
91.013010
0
LINE
8
Layer 1
10
25.557401
20
91.013010
11
23.105623
21
87.004506
0
LINE
8
Layer 1
10
23.105623
20
87.004506
11
21.044452
21
82.754666
0
LINE
8
Layer 1
10
21.044452
20
82.754666
11
19.398490
21
78.287926
0
LINE
8
Layer 1
10
19.398490
20
78.287926
11
18.192342
21
73.628726
0
LINE
8
Layer 1
10
18.192342
20
73.628726
11
17.450611
21
68.801505
0
LINE
8
Layer 1
10
17.450611
20
68.801505
11
17.197900
21
63.830700
0
LINE
8
Layer 1
10
17.197900
20
63.830700
11
17.450611
21
58.859898
0
LINE
8
Layer 1
10
17.450611
20
58.859898
11
18.192342
21
54.032682
0
LINE
8
Layer 1
10
18.192342
20
54.032682
11
19.398490
21
49.373492
0
LINE
8
Layer 1
10
19.398490
20
49.373492
11
21.044452
21
44.906766
0
LINE
8
Layer 1
10
21.044452
20
44.906766
11
23.105623
21
40.656940
0
LINE
8
Layer 1
10
23.105623
20
40.656940
11
25.557401
21
36.648454
0
LINE
8
Layer 1
10
25.557401
20
36.648454
11
28.375182
21
32.905744
0
LINE
8
Layer 1
10
28.375182
20
32.905744
11
31.534362
21
29.453250
0
LINE
8
Layer 1
10
31.534362
20
29.453250
11
35.010340
21
26.315409
0
LINE
8
Layer 1
10
35.010340
20
26.315409
11
38.778510
21
23.516659
0
LINE
8
Layer 1
10
38.778510
20
23.516659
11
42.814271
21
21.081438
0
LINE
8
Layer 1
10
42.814271
20
21.081438
11
47.093017
21
19.034184
0
LINE
8
Layer 1
10
47.093017
20
19.034184
11
51.590147
21
17.399336
0
LINE
8
Layer 1
10
51.590147
20
17.399336
11
56.281056
21
16.201330
0
LINE
8
Layer 1
10
56.281056
20
16.201330
11
61.141142
21
15.464606
0
LINE
8
Layer 1
10
61.141142
20
15.464606
11
66.145800
21
15.213600
0
LINE
8
Layer 1
10
66.145800
20
15.213600
11
66.145800
21
15.213600
0
LINE
8
Layer 1
10
53.498200
20
15.564400
11
54.750365
21
17.593121
0
LINE
8
Layer 1
10
54.750365
20
17.593121
11
55.604537
21
19.519855
0
LINE
8
Layer 1
10
55.604537
20
19.519855
11
56.050298
21
21.372946
0
LINE
8
Layer 1
10
56.050298
20
21.372946
11
56.077225
21
23.180738
0
LINE
8
Layer 1
10
56.077225
20
23.180738
11
55.674899
21
24.971575
0
LINE
8
Layer 1
10
55.674899
20
24.971575
11
54.832900
21
26.773802
0
LINE
8
Layer 1
10
54.832900
20
26.773802
11
53.540807
21
28.615762
0
LINE
8
Layer 1
10
53.540807
20
28.615762
11
51.788200
21
30.525800
0
LINE
8
Layer 1
10
51.788200
20
30.525800
11
49.907295
21
32.572276
0
LINE
8
Layer 1
10
49.907295
20
32.572276
11
48.244122
21
34.727264
0
LINE
8
Layer 1
10
48.244122
20
34.727264
11
46.808869
21
36.873217
0
LINE
8
Layer 1
10
46.808869
20
36.873217
11
45.611725
21
38.892587
0
LINE
8
Layer 1
10
45.611725
20
38.892587
11
43.972516
21
42.081392
0
LINE
8
Layer 1
10
43.972516
20
42.081392
11
43.408000
21
43.353300
0
LINE
8
Layer 1
10
43.408000
20
43.353300
11
43.187056
21
44.038406
0
LINE
8
Layer 1
10
43.187056
20
44.038406
11
42.504225
21
45.515100
0
LINE
8
Layer 1
10
42.504225
20
45.515100
11
41.980227
21
46.279062
0
LINE
8
Layer 1
10
41.980227
20
46.279062
11
41.329506
21
46.915444
0
LINE
8
Layer 1
10
41.329506
20
46.915444
11
40.548314
21
47.315754
0
LINE
8
Layer 1
10
40.548314
20
47.315754
11
39.632900
21
47.371500
0
LINE
8
Layer 1
10
39.632900
20
47.371500
11
38.695071
21
46.945029
0
LINE
8
Layer 1
10
38.695071
20
46.945029
11
37.901367
21
46.039561
0
LINE
8
Layer 1
10
37.901367
20
46.039561
11
37.330589
21
44.757909
0
LINE
8
Layer 1
10
37.330589
20
44.757909
11
37.061538
21
43.202888
0
LINE
8
Layer 1
10
37.061538
20
43.202888
11
37.173012
21
41.477312
0
LINE
8
Layer 1
10
37.173012
20
41.477312
11
37.743814
21
39.683995
0
LINE
8
Layer 1
10
37.743814
20
39.683995
11
38.852743
21
37.925753
0
LINE
8
Layer 1
10
38.852743
20
37.925753
11
39.633631
21
37.091915
0
LINE
8
Layer 1
10
39.633631
20
37.091915
11
40.578600
21
36.305400
0
LINE
8
Layer 1
10
40.578600
20
36.305400
11
41.471277
21
35.563529
0
LINE
8
Layer 1
10
41.471277
20
35.563529
11
42.105001
21
34.859731
0
LINE
8
Layer 1
10
42.105001
20
34.859731
11
42.504030
21
34.201698
0
LINE
8
Layer 1
10
42.504030
20
34.201698
11
42.692617
21
33.597120
0
LINE
8
Layer 1
10
42.692617
20
33.597120
11
42.695019
21
33.053689
0
LINE
8
Layer 1
10
42.695019
20
33.053689
11
42.535490
21
32.579096
0
LINE
8
Layer 1
10
42.535490
20
32.579096
11
41.827663
21
31.867188
0
LINE
8
Layer 1
10
41.827663
20
31.867188
11
40.763177
21
31.522924
0
LINE
8
Layer 1
10
40.763177
20
31.522924
11
39.536077
21
31.607836
0
LINE
8
Layer 1
10
39.536077
20
31.607836
11
38.340403
21
32.183451
0
LINE
8
Layer 1
10
38.340403
20
32.183451
11
37.814990
21
32.674501
0
LINE
8
Layer 1
10
37.814990
20
32.674501
11
37.370200
21
33.311300
0
LINE
8
Layer 1
10
37.370200
20
33.311300
11
35.199333
21
37.062628
0
LINE
8
Layer 1
10
35.199333
20
37.062628
11
32.260063
21
41.751700
0
LINE
8
Layer 1
10
32.260063
20
41.751700
11
29.155886
21
46.078672
0
LINE
8
Layer 1
10
29.155886
20
46.078672
11
27.730551
21
47.700169
0
LINE
8
Layer 1
10
27.730551
20
47.700169
11
26.490300
21
48.743700
0
LINE
8
Layer 1
10
26.490300
20
48.743700
11
25.413483
21
49.307701
0
LINE
8
Layer 1
10
25.413483
20
49.307701
11
24.442241
21
49.599798
0
LINE
8
Layer 1
10
24.442241
20
49.599798
11
23.599159
21
49.621293
0
LINE
8
Layer 1
10
23.599159
20
49.621293
11
22.906825
21
49.373487
0
LINE
8
Layer 1
10
22.906825
20
49.373487
11
22.387825
21
48.857683
0
LINE
8
Layer 1
10
22.387825
20
48.857683
11
22.064747
21
48.075183
0
LINE
8
Layer 1
10
22.064747
20
48.075183
11
21.960176
21
47.027288
0
LINE
8
Layer 1
10
21.960176
20
47.027288
11
22.096700
21
45.715300
0
LINE
8
Layer 1
10
22.096700
20
45.715300
11
22.361147
21
44.932318
0
LINE
8
Layer 1
10
22.361147
20
44.932318
11
22.864945
21
44.039614
0
LINE
8
Layer 1
10
22.864945
20
44.039614
11
24.440944
21
41.999998
0
LINE
8
Layer 1
10
24.440944
20
41.999998
11
28.819000
21
37.428637
0
LINE
8
Layer 1
10
28.819000
20
37.428637
11
31.022454
21
35.196721
0
LINE
8
Layer 1
10
31.022454
20
35.196721
11
32.836456
21
33.200533
0
LINE
8
Layer 1
10
32.836456
20
33.200533
11
33.961705
21
31.589988
0
LINE
8
Layer 1
10
33.961705
20
31.589988
11
34.172516
21
30.976180
0
LINE
8
Layer 1
10
34.172516
20
30.976180
11
34.098900
21
30.515000
0
LINE
8
Layer 1
10
34.098900
20
30.515000
11
33.512618
21
30.037479
0
LINE
8
Layer 1
10
33.512618
20
30.037479
11
32.724506
21
30.034264
0
LINE
8
Layer 1
10
32.724506
20
30.034264
11
31.820866
21
30.378789
0
LINE
8
Layer 1
10
31.820866
20
30.378789
11
30.888000
21
30.944488
0
LINE
8
Layer 1
10
30.888000
20
30.944488
11
29.279794
21
32.233142
0
LINE
8
Layer 1
10
29.279794
20
32.233142
11
28.590300
21
32.887700
0
LINE
8
Layer 1
10
28.590300
20
32.887700
11
26.446559
21
34.717494
0
LINE
8
Layer 1
10
26.446559
20
34.717494
11
21.511075
21
38.508050
0
LINE
8
Layer 1
10
21.511075
20
38.508050
11
18.697556
21
40.342290
0
LINE
8
Layer 1
10
18.697556
20
40.342290
11
16.027453
21
41.711131
0
LINE
8
Layer 1
10
16.027453
20
41.711131
11
14.833824
21
42.121487
0
LINE
8
Layer 1
10
14.833824
20
42.121487
11
13.781218
21
42.296045
0
LINE
8
Layer 1
10
13.781218
20
42.296045
11
12.904691
21
42.194988
0
LINE
8
Layer 1
10
12.904691
20
42.194988
11
12.239300
21
41.778500
0
LINE
8
Layer 1
10
12.239300
20
41.778500
11
11.509559
21
40.622894
0
LINE
8
Layer 1
10
11.509559
20
40.622894
11
11.406683
21
40.054718
0
LINE
8
Layer 1
10
11.406683
20
40.054718
11
11.466986
21
39.488572
0
LINE
8
Layer 1
10
11.466986
20
39.488572
11
12.042685
21
38.349201
0
LINE
8
Layer 1
10
12.042685
20
38.349201
11
13.167760
21
37.178450
0
LINE
8
Layer 1
10
13.167760
20
37.178450
11
14.773315
21
35.949986
0
LINE
8
Layer 1
10
14.773315
20
35.949986
11
16.790454
21
34.637478
0
LINE
8
Layer 1
10
16.790454
20
34.637478
11
21.783900
21
31.655000
0
LINE
8
Layer 1
10
21.783900
20
31.655000
11
26.093023
21
28.926650
0
LINE
8
Layer 1
10
26.093023
20
28.926650
11
27.447890
21
27.905312
0
LINE
8
Layer 1
10
27.447890
20
27.905312
11
28.350137
21
27.054575
0
LINE
8
Layer 1
10
28.350137
20
27.054575
11
28.860149
21
26.330973
0
LINE
8
Layer 1
10
28.860149
20
26.330973
11
29.038308
21
25.691038
0
LINE
8
Layer 1
10
29.038308
20
25.691038
11
28.944997
21
25.091302
0
LINE
8
Layer 1
10
28.944997
20
25.091302
11
28.640600
21
24.488300
0
LINE
8
Layer 1
10
28.640600
20
24.488300
11
28.275362
21
24.347037
0
LINE
8
Layer 1
10
28.275362
20
24.347037
11
27.599074
21
24.508885
0
LINE
8
Layer 1
10
27.599074
20
24.508885
11
25.487890
21
25.541672
0
LINE
8
Layer 1
10
25.487890
20
25.541672
11
19.452867
21
29.041900
0
LINE
8
Layer 1
10
19.452867
20
29.041900
11
16.227189
21
30.708364
0
LINE
8
Layer 1
10
16.227189
20
30.708364
11
14.715030
21
31.345471
0
LINE
8
Layer 1
10
14.715030
20
31.345471
11
13.328172
21
31.785078
0
LINE
8
Layer 1
10
13.328172
20
31.785078
11
12.110248
21
31.977126
0
LINE
8
Layer 1
10
12.110248
20
31.977126
11
11.104895
21
31.871553
0
LINE
8
Layer 1
10
11.104895
20
31.871553
11
10.355748
21
31.418298
0
LINE
8
Layer 1
10
10.355748
20
31.418298
11
9.906440
21
30.567300
0
LINE
8
Layer 1
10
9.906440
20
30.567300
11
9.841414
21
29.546532
0
LINE
8
Layer 1
10
9.841414
20
29.546532
11
10.177752
21
28.611138
0
LINE
8
Layer 1
10
10.177752
20
28.611138
11
10.858795
21
27.751871
0
LINE
8
Layer 1
10
10.858795
20
27.751871
11
11.827886
21
26.959481
0
LINE
8
Layer 1
10
11.827886
20
26.959481
11
14.403569
21
25.538346
0
LINE
8
Layer 1
10
14.403569
20
25.538346
11
17.451530
21
24.273750
0
LINE
8
Layer 1
10
17.451530
20
24.273750
11
20.518496
21
23.091710
0
LINE
8
Layer 1
10
20.518496
20
23.091710
11
23.151194
21
21.918244
0
LINE
8
Layer 1
10
23.151194
20
21.918244
11
24.163046
21
21.311606
0
LINE
8
Layer 1
10
24.163046
20
21.311606
11
24.896353
21
20.679368
0
LINE
8
Layer 1
10
24.896353
20
20.679368
11
25.294458
21
20.012282
0
LINE
8
Layer 1
10
25.294458
20
20.012282
11
25.300700
21
19.301100
0
LINE
8
Layer 1
10
25.300700
20
19.301100
11
24.974214
21
18.736098
0
LINE
8
Layer 1
10
24.974214
20
18.736098
11
24.431131
21
18.483931
0
LINE
8
Layer 1
10
24.431131
20
18.483931
11
23.700289
21
18.499074
0
LINE
8
Layer 1
10
23.700289
20
18.499074
11
22.810527
21
18.736002
0
LINE
8
Layer 1
10
22.810527
20
18.736002
11
20.669594
21
19.693112
0
LINE
8
Layer 1
10
20.669594
20
19.693112
11
18.239038
21
20.991063
0
LINE
8
Layer 1
10
18.239038
20
20.991063
11
15.749564
21
22.265656
0
LINE
8
Layer 1
10
15.749564
20
22.265656
11
13.431880
21
23.152692
0
LINE
8
Layer 1
10
13.431880
20
23.152692
11
12.409554
21
23.337065
0
LINE
8
Layer 1
10
12.409554
20
23.337065
11
11.516690
21
23.287973
0
LINE
8
Layer 1
10
11.516690
20
23.287973
11
10.782126
21
22.959893
0
LINE
8
Layer 1
10
10.782126
20
22.959893
11
10.234700
21
22.307300
0
LINE
8
Layer 1
10
10.234700
20
22.307300
11
10.027631
21
21.469424
0
LINE
8
Layer 1
10
10.027631
20
21.469424
11
10.256727
21
20.622094
0
LINE
8
Layer 1
10
10.256727
20
20.622094
11
10.863902
21
19.774009
0
LINE
8
Layer 1
10
10.863902
20
19.774009
11
11.791069
21
18.933867
0
LINE
8
Layer 1
10
11.791069
20
18.933867
11
14.373032
21
17.312210
0
LINE
8
Layer 1
10
14.373032
20
17.312210
11
17.537923
21
15.826712
0
LINE
8
Layer 1
10
17.537923
20
15.826712
11
20.821048
21
14.546963
0
LINE
8
Layer 1
10
20.821048
20
14.546963
11
23.757715
21
13.542552
0
LINE
8
Layer 1
10
23.757715
20
13.542552
11
26.732900
21
12.638100
0
LINE
8
Layer 1
10
26.732900
20
12.638100
11
29.398819
21
12.003301
0
LINE
8
Layer 1
10
29.398819
20
12.003301
11
32.711294
21
11.355880
0
LINE
8
Layer 1
10
32.711294
20
11.355880
11
36.444153
21
10.845090
0
LINE
8
Layer 1
10
36.444153
20
10.845090
11
40.371225
21
10.620181
0
LINE
8
Layer 1
10
40.371225
20
10.620181
11
44.266337
21
10.830406
0
LINE
8
Layer 1
10
44.266337
20
10.830406
11
46.131230
21
11.145335
0
LINE
8
Layer 1
10
46.131230
20
11.145335
11
47.903319
21
11.625016
0
LINE
8
Layer 1
10
47.903319
20
11.625016
11
49.554331
21
12.288107
0
LINE
8
Layer 1
10
49.554331
20
12.288107
11
51.055997
21
13.153264
0
LINE
8
Layer 1
10
51.055997
20
13.153264
11
52.380044
21
14.239143
0
LINE
8
Layer 1
10
52.380044
20
14.239143
11
53.498200
21
15.564400
0
LINE
8
Layer 1
10
53.498200
20
15.564400
11
53.498200
21
15.564400
0
LINE
8
Layer 1
10
24.075300
20
55.033300
11
22.435491
21
54.863492
0
LINE
8
Layer 1
10
22.435491
20
54.863492
11
20.920200
21
54.364762
0
LINE
8
Layer 1
10
20.920200
20
54.364762
11
19.564134
21
53.553152
0
LINE
8
Layer 1
10
19.564134
20
53.553152
11
18.402000
21
52.444700
0
LINE
8
Layer 1
10
18.402000
20
52.444700
11
17.756786
21
51.547950
0
LINE
8
Layer 1
10
17.756786
20
51.547950
11
17.178762
21
50.395675
0
LINE
8
Layer 1
10
17.178762
20
50.395675
11
16.749783
21
48.969462
0
LINE
8
Layer 1
10
16.749783
20
48.969462
11
16.551700
21
47.250900
0
LINE
8
Layer 1
10
16.551700
20
47.250900
11
15.163850
21
47.562462
0
LINE
8
Layer 1
10
15.163850
20
47.562462
11
13.848000
21
47.671600
0
LINE
8
Layer 1
10
13.848000
20
47.671600
11
12.274376
21
47.519864
0
LINE
8
Layer 1
10
12.274376
20
47.519864
11
10.812983
21
47.074062
0
LINE
8
Layer 1
10
10.812983
20
47.074062
11
9.497760
21
46.348305
0
LINE
8
Layer 1
10
9.497760
20
46.348305
11
8.362650
21
45.356700
0
LINE
8
Layer 1
10
8.362650
20
45.356700
11
7.221287
21
43.844203
0
LINE
8
Layer 1
10
7.221287
20
43.844203
11
6.462612
21
42.208200
0
LINE
8
Layer 1
10
6.462612
20
42.208200
11
6.100196
21
40.489697
0
LINE
8
Layer 1
10
6.100196
20
40.489697
11
6.147610
21
38.729700
0
LINE
8
Layer 1
10
6.147610
20
38.729700
11
6.549283
21
37.128525
0
LINE
8
Layer 1
10
6.549283
20
37.128525
11
7.251660
21
35.670600
0
LINE
8
Layer 1
10
7.251660
20
35.670600
11
6.420854
21
34.884973
0
LINE
8
Layer 1
10
6.420854
20
34.884973
11
5.720562
21
33.968537
0
LINE
8
Layer 1
10
5.720562
20
33.968537
11
5.163840
21
32.931183
0
LINE
8
Layer 1
10
5.163840
20
32.931183
11
4.763740
21
31.782800
0
LINE
8
Layer 1
10
4.763740
20
31.782800
11
4.546820
21
30.606883
0
LINE
8
Layer 1
10
4.546820
20
30.606883
11
4.525679
21
29.041463
0
LINE
8
Layer 1
10
4.525679
20
29.041463
11
4.899231
21
27.206511
0
LINE
8
Layer 1
10
4.899231
20
27.206511
11
5.296177
21
26.225452
0
LINE
8
Layer 1
10
5.296177
20
26.225452
11
5.866390
21
25.222000
0
LINE
8
Layer 1
10
5.866390
20
25.222000
11
5.548970
21
24.676900
0
LINE
8
Layer 1
10
5.548970
20
24.676900
11
4.936470
21
23.125709
0
LINE
8
Layer 1
10
4.936470
20
23.125709
11
4.699356
21
21.515625
0
LINE
8
Layer 1
10
4.699356
20
21.515625
11
4.838669
21
19.885778
0
LINE
8
Layer 1
10
4.838669
20
19.885778
11
5.355450
21
18.275300
0
LINE
8
Layer 1
10
5.355450
20
18.275300
11
5.992298
21
17.102395
0
LINE
8
Layer 1
10
5.992298
20
17.102395
11
6.842110
21
15.983137
0
LINE
8
Layer 1
10
6.842110
20
15.983137
11
7.919191
21
14.907380
0
LINE
8
Layer 1
10
7.919191
20
14.907380
11
9.237849
21
13.864974
0
LINE
8
Layer 1
10
9.237849
20
13.864974
11
12.657126
21
11.839621
0
LINE
8
Layer 1
10
12.657126
20
11.839621
11
17.214400
21
9.825890
0
LINE
8
Layer 1
10
17.214400
20
9.825890
11
22.926750
21
7.808277
0
LINE
8
Layer 1
10
22.926750
20
7.808277
11
25.452200
21
7.049360
0
LINE
8
Layer 1
10
25.452200
20
7.049360
11
29.596066
21
6.089587
0
LINE
8
Layer 1
10
29.596066
20
6.089587
11
33.523125
21
5.401304
0
LINE
8
Layer 1
10
33.523125
20
5.401304
11
37.219672
21
4.986716
0
LINE
8
Layer 1
10
37.219672
20
4.986716
11
40.672000
21
4.848030
0
LINE
8
Layer 1
10
40.672000
20
4.848030
11
43.619476
21
4.964179
0
LINE
8
Layer 1
10
43.619476
20
4.964179
11
46.347992
21
5.312084
0
LINE
8
Layer 1
10
46.347992
20
5.312084
11
48.855660
21
5.890932
0
LINE
8
Layer 1
10
48.855660
20
5.890932
11
51.140587
21
6.699912
0
LINE
8
Layer 1
10
51.140587
20
6.699912
11
53.200886
21
7.738212
0
LINE
8
Layer 1
10
53.200886
20
7.738212
11
55.034664
21
9.005018
0
LINE
8
Layer 1
10
55.034664
20
9.005018
11
56.640032
21
10.499518
0
LINE
8
Layer 1
10
56.640032
20
10.499518
11
58.015100
21
12.220900
0
LINE
8
Layer 1
10
58.015100
20
12.220900
11
59.752205
21
15.144424
0
LINE
8
Layer 1
10
59.752205
20
15.144424
11
60.909662
21
18.009722
0
LINE
8
Layer 1
10
60.909662
20
18.009722
11
61.486977
21
20.821634
0
LINE
8
Layer 1
10
61.486977
20
20.821634
11
61.483650
21
23.585000
0
LINE
8
Layer 1
10
61.483650
20
23.585000
11
60.899186
21
26.304660
0
LINE
8
Layer 1
10
60.899186
20
26.304660
11
59.733088
21
28.985453
0
LINE
8
Layer 1
10
59.733088
20
28.985453
11
57.984858
21
31.632220
0
LINE
8
Layer 1
10
57.984858
20
31.632220
11
55.654000
21
34.249800
0
LINE
8
Layer 1
10
55.654000
20
34.249800
11
54.264803
21
35.764327
0
LINE
8
Layer 1
10
54.264803
20
35.764327
11
53.005933
21
37.376628
0
LINE
8
Layer 1
10
53.005933
20
37.376628
11
50.913812
21
40.601725
0
LINE
8
Layer 1
10
50.913812
20
40.601725
11
49.446911
21
43.339434
0
LINE
8
Layer 1
10
49.446911
20
43.339434
11
48.674500
21
45.004100
0
LINE
8
Layer 1
10
48.674500
20
45.004100
11
48.185884
21
46.395654
0
LINE
8
Layer 1
10
48.185884
20
46.395654
11
47.529361
21
47.772948
0
LINE
8
Layer 1
10
47.529361
20
47.772948
11
46.703579
21
49.083190
0
LINE
8
Layer 1
10
46.703579
20
49.083190
11
45.707188
21
50.273587
0
LINE
8
Layer 1
10
45.707188
20
50.273587
11
44.538835
21
51.291349
0
LINE
8
Layer 1
10
44.538835
20
51.291349
11
43.197170
21
52.083683
0
LINE
8
Layer 1
10
43.197170
20
52.083683
11
41.680842
21
52.597797
0
LINE
8
Layer 1
10
41.680842
20
52.597797
11
39.988500
21
52.780900
0
LINE
8
Layer 1
10
39.988500
20
52.780900
11
39.987200
21
52.780900
0
LINE
8
Layer 1
10
39.987200
20
52.780900
11
38.785800
21
52.686700
0
LINE
8
Layer 1
10
38.785800
20
52.686700
11
37.278795
21
52.284944
0
LINE
8
Layer 1
10
37.278795
20
52.284944
11
35.894162
21
51.583600
0
LINE
8
Layer 1
10
35.894162
20
51.583600
11
34.656023
21
50.607531
0
LINE
8
Layer 1
10
34.656023
20
50.607531
11
33.588500
21
49.381600
0
LINE
8
Layer 1
10
33.588500
20
49.381600
11
31.526975
21
51.683475
0
LINE
8
Layer 1
10
31.526975
20
51.683475
11
29.592800
21
53.269400
0
LINE
8
Layer 1
10
29.592800
20
53.269400
11
28.200844
21
54.038814
0
LINE
8
Layer 1
10
28.200844
20
54.038814
11
26.814175
21
54.590288
0
LINE
8
Layer 1
10
26.814175
20
54.590288
11
25.437444
21
54.922292
0
LINE
8
Layer 1
10
25.437444
20
54.922292
11
24.075300
21
55.033300
0
LINE
8
Layer 1
10
24.075300
20
55.033300
11
24.075300
21
55.033300
0
LINE
8
Layer 1
10
24.075300
20
49.499100
11
25.249837
21
49.273650
0
LINE
8
Layer 1
10
25.249837
20
49.273650
11
26.609100
21
48.595800
0
LINE
8
Layer 1
10
26.609100
20
48.595800
11
27.839655
21
47.549849
0
LINE
8
Layer 1
10
27.839655
20
47.549849
11
29.254102
21
45.924575
0
LINE
8
Layer 1
10
29.254102
20
45.924575
11
32.335012
21
41.587525
0
LINE
8
Layer 1
10
32.335012
20
41.587525
11
35.252517
21
36.887588
0
LINE
8
Layer 1
10
35.252517
20
36.887588
11
37.407300
21
33.127700
0
LINE
8
Layer 1
10
37.407300
20
33.127700
11
38.018388
21
32.305958
0
LINE
8
Layer 1
10
38.018388
20
32.305958
11
38.758475
21
31.741737
0
LINE
8
Layer 1
10
38.758475
20
31.741737
11
39.569550
21
31.416673
0
LINE
8
Layer 1
10
39.569550
20
31.416673
11
40.393600
21
31.312400
0
LINE
8
Layer 1
10
40.393600
20
31.312400
11
41.167153
21
31.408797
0
LINE
8
Layer 1
10
41.167153
20
31.408797
11
41.839958
21
31.685905
0
LINE
8
Layer 1
10
41.839958
20
31.685905
11
42.355387
21
32.125601
0
LINE
8
Layer 1
10
42.355387
20
32.125601
11
42.656813
21
32.709762
0
LINE
8
Layer 1
10
42.656813
20
32.709762
11
42.687605
21
33.420266
0
LINE
8
Layer 1
10
42.687605
20
33.420266
11
42.391136
21
34.238989
0
LINE
8
Layer 1
10
42.391136
20
34.238989
11
41.710777
21
35.147808
0
LINE
8
Layer 1
10
41.710777
20
35.147808
11
40.589900
21
36.128600
0
LINE
8
Layer 1
10
40.589900
20
36.128600
11
39.652100
21
36.916974
0
LINE
8
Layer 1
10
39.652100
20
36.916974
11
38.877169
21
37.752773
0
LINE
8
Layer 1
10
38.877169
20
37.752773
11
37.776797
21
39.515122
0
LINE
8
Layer 1
10
37.776797
20
39.515122
11
37.210551
21
41.312604
0
LINE
8
Layer 1
10
37.210551
20
41.312604
11
37.100200
21
43.042175
0
LINE
8
Layer 1
10
37.100200
20
43.042175
11
37.367511
21
44.600793
0
LINE
8
Layer 1
10
37.367511
20
44.600793
11
37.934253
21
45.885416
0
LINE
8
Layer 1
10
37.934253
20
45.885416
11
38.722193
21
46.792999
0
LINE
8
Layer 1
10
38.722193
20
46.792999
11
39.653100
21
47.220500
0
LINE
8
Layer 1
10
39.653100
20
47.220500
11
39.988500
21
47.246700
0
LINE
8
Layer 1
10
39.988500
20
47.246700
11
40.814568
21
47.072518
0
LINE
8
Layer 1
10
40.814568
20
47.072518
11
41.519920
21
46.613309
0
LINE
8
Layer 1
10
41.519920
20
46.613309
11
42.107815
21
45.964084
0
LINE
8
Layer 1
10
42.107815
20
45.964084
11
42.581513
21
45.219850
0
LINE
8
Layer 1
10
42.581513
20
45.219850
11
43.199348
21
43.826391
0
LINE
8
Layer 1
10
43.199348
20
43.826391
11
43.399500
21
43.193000
0
LINE
8
Layer 1
10
43.399500
20
43.193000
11
43.959769
21
41.918122
0
LINE
8
Layer 1
10
43.959769
20
41.918122
11
45.586650
21
38.721875
0
LINE
8
Layer 1
10
45.586650
20
38.721875
11
46.774793
21
36.697795
0
LINE
8
Layer 1
10
46.774793
20
36.697795
11
48.199256
21
34.546841
0
LINE
8
Layer 1
10
48.199256
20
34.546841
11
49.849929
21
32.386835
0
LINE
8
Layer 1
10
49.849929
20
32.386835
11
51.716700
21
30.335600
0
LINE
8
Layer 1
10
51.716700
20
30.335600
11
53.456104
21
28.421188
0
LINE
8
Layer 1
10
53.456104
20
28.421188
11
54.738459
21
26.574987
0
LINE
8
Layer 1
10
54.738459
20
26.574987
11
55.574111
21
24.768594
0
LINE
8
Layer 1
10
55.574111
20
24.768594
11
55.973400
21
22.973600
0
LINE
8
Layer 1
10
55.973400
20
22.973600
11
55.946671
21
21.161600
0
LINE
8
Layer 1
10
55.946671
20
21.161600
11
55.504266
21
19.304188
0
LINE
8
Layer 1
10
55.504266
20
19.304188
11
54.656528
21
17.372956
0
LINE
8
Layer 1
10
54.656528
20
17.372956
11
53.413800
21
15.339500
0
LINE
8
Layer 1
10
53.413800
20
15.339500
11
52.326256
21
14.061356
0
LINE
8
Layer 1
10
52.326256
20
14.061356
11
51.041294
21
13.060637
0
LINE
8
Layer 1
10
51.041294
20
13.060637
11
49.585453
21
12.304362
0
LINE
8
Layer 1
10
49.585453
20
12.304362
11
47.985275
21
11.759550
0
LINE
8
Layer 1
10
47.985275
20
11.759550
11
46.267300
21
11.393219
0
LINE
8
Layer 1
10
46.267300
20
11.393219
11
44.458069
21
11.172387
0
LINE
8
Layer 1
10
44.458069
20
11.172387
11
40.672000
21
11.035300
0
LINE
8
Layer 1
10
40.672000
20
11.035300
11
36.697372
21
11.193119
0
LINE
8
Layer 1
10
36.697372
20
11.193119
11
32.907975
21
11.599375
0
LINE
8
Layer 1
10
32.907975
20
11.599375
11
29.542741
21
12.153269
0
LINE
8
Layer 1
10
29.542741
20
12.153269
11
26.840600
21
12.754000
0
LINE
8
Layer 1
10
26.840600
20
12.754000
11
23.889363
21
13.606191
0
LINE
8
Layer 1
10
23.889363
20
13.606191
11
20.976327
21
14.557252
0
LINE
8
Layer 1
10
20.976327
20
14.557252
11
17.719650
21
15.776150
0
LINE
8
Layer 1
10
17.719650
20
15.776150
11
14.580311
21
17.201279
0
LINE
8
Layer 1
10
14.580311
20
17.201279
11
12.019288
21
18.771034
0
LINE
8
Layer 1
10
12.019288
20
18.771034
11
11.099700
21
19.590895
0
LINE
8
Layer 1
10
11.099700
20
19.590895
11
10.497558
21
20.423810
0
LINE
8
Layer 1
10
10.497558
20
20.423810
11
10.270484
21
21.262078
0
LINE
8
Layer 1
10
10.270484
20
21.262078
11
10.476100
21
22.098000
0
LINE
8
Layer 1
10
10.476100
20
22.098000
11
10.819300
21
22.575895
0
LINE
8
Layer 1
10
10.819300
20
22.575895
11
11.250325
21
22.900013
0
LINE
8
Layer 1
10
11.250325
20
22.900013
11
12.343000
21
23.142600
0
LINE
8
Layer 1
10
12.343000
20
23.142600
11
13.700747
21
22.932027
0
LINE
8
Layer 1
10
13.700747
20
22.932027
11
15.240819
21
22.376881
0
LINE
8
Layer 1
10
15.240819
20
22.376881
11
18.579675
21
20.692300
0
LINE
8
Layer 1
10
18.579675
20
20.692300
11
21.783044
21
19.007719
0
LINE
8
Layer 1
10
21.783044
20
19.007719
11
23.153756
21
18.452573
0
LINE
8
Layer 1
10
23.153756
20
18.452573
11
24.274400
21
18.242000
0
LINE
8
Layer 1
10
24.274400
20
18.242000
11
24.679297
21
18.320917
0
LINE
8
Layer 1
10
24.679297
20
18.320917
11
25.017875
21
18.539362
0
LINE
8
Layer 1
10
25.017875
20
18.539362
11
25.452200
21
19.285000
0
LINE
8
Layer 1
10
25.452200
20
19.285000
11
25.453779
21
20.026677
0
LINE
8
Layer 1
10
25.453779
20
20.026677
11
25.063862
21
20.712032
0
LINE
8
Layer 1
10
25.063862
20
20.712032
11
24.338969
21
21.351750
0
LINE
8
Layer 1
10
24.338969
20
21.351750
11
23.335623
21
21.956517
0
LINE
8
Layer 1
10
23.335623
20
21.956517
11
20.719664
21
23.103941
0
LINE
8
Layer 1
10
20.719664
20
23.103941
11
17.668163
21
24.239788
0
LINE
8
Layer 1
10
17.668163
20
24.239788
11
14.633297
21
25.449542
0
LINE
8
Layer 1
10
14.633297
20
25.449542
11
12.067245
21
26.818689
0
LINE
8
Layer 1
10
12.067245
20
26.818689
11
11.101331
21
27.589749
0
LINE
8
Layer 1
10
11.101331
20
27.589749
11
10.422187
21
28.432713
0
LINE
8
Layer 1
10
10.422187
20
28.432713
11
10.086336
21
29.358269
0
LINE
8
Layer 1
10
10.086336
20
29.358269
11
10.150300
21
30.377100
0
LINE
8
Layer 1
10
10.150300
20
30.377100
11
10.432547
21
31.024177
0
LINE
8
Layer 1
10
10.432547
20
31.024177
11
10.870250
21
31.464262
0
LINE
8
Layer 1
10
10.870250
20
31.464262
11
11.448128
21
31.714992
0
LINE
8
Layer 1
10
11.448128
20
31.714992
11
12.150900
21
31.794000
0
LINE
8
Layer 1
10
12.150900
20
31.794000
11
14.022305
21
31.465190
0
LINE
8
Layer 1
10
14.022305
20
31.465190
11
16.249375
21
30.598328
0
LINE
8
Layer 1
10
16.249375
20
30.598328
11
18.677313
21
29.372764
0
LINE
8
Layer 1
10
18.677313
20
29.372764
11
21.151325
21
27.967850
0
LINE
8
Layer 1
10
21.151325
20
27.967850
11
25.618388
21
25.337372
0
LINE
8
Layer 1
10
25.618388
20
25.337372
11
27.301848
21
24.470510
0
LINE
8
Layer 1
10
27.301848
20
24.470510
11
28.412200
21
24.141700
0
LINE
8
Layer 1
10
28.412200
20
24.141700
11
28.743500
21
24.284000
0
LINE
8
Layer 1
10
28.743500
20
24.284000
11
29.049388
21
24.896614
0
LINE
8
Layer 1
10
29.049388
20
24.896614
11
29.152027
21
25.519472
0
LINE
8
Layer 1
10
29.152027
20
25.519472
11
28.989430
21
26.191638
0
LINE
8
Layer 1
10
28.989430
20
26.191638
11
28.499613
21
26.952175
0
LINE
8
Layer 1
10
28.499613
20
26.952175
11
27.620587
21
27.840146
0
LINE
8
Layer 1
10
27.620587
20
27.840146
11
26.290367
21
28.894616
0
LINE
8
Layer 1
10
26.290367
20
28.894616
11
22.028400
21
31.659300
0
LINE
8
Layer 1
10
22.028400
20
31.659300
11
17.058296
21
34.618767
0
LINE
8
Layer 1
10
17.058296
20
34.618767
11
15.041748
21
35.903568
0
LINE
8
Layer 1
10
15.041748
20
35.903568
11
13.431589
21
37.099612
0
LINE
8
Layer 1
10
13.431589
20
37.099612
11
12.298356
21
38.237799
0
LINE
8
Layer 1
10
12.298356
20
38.237799
11
11.712587
21
39.349027
0
LINE
8
Layer 1
10
11.712587
20
39.349027
11
11.647046
21
39.904187
0
LINE
8
Layer 1
10
11.647046
20
39.904187
11
11.744823
21
40.464194
0
LINE
8
Layer 1
10
11.744823
20
40.464194
11
12.465600
21
41.614200
0
LINE
8
Layer 1
10
12.465600
20
41.614200
11
13.066463
21
42.011800
0
LINE
8
Layer 1
10
13.066463
20
42.011800
11
13.848000
21
42.137300
0
LINE
8
Layer 1
10
13.848000
20
42.137300
11
14.742255
21
42.031135
0
LINE
8
Layer 1
10
14.742255
20
42.031135
11
15.753410
21
41.731551
0
LINE
8
Layer 1
10
15.753410
20
41.731551
11
18.030056
21
40.662658
0
LINE
8
Layer 1
10
18.030056
20
40.662658
11
20.485212
21
39.151689
0
LINE
8
Layer 1
10
20.485212
20
39.151689
11
22.926150
21
37.419713
0
LINE
8
Layer 1
10
22.926150
20
37.419713
11
26.994469
21
34.177011
0
LINE
8
Layer 1
10
26.994469
20
34.177011
11
28.693200
21
32.703100
0
LINE
8
Layer 1
10
28.693200
20
32.703100
11
30.313662
21
31.248250
0
LINE
8
Layer 1
10
30.313662
20
31.248250
11
31.786936
21
30.248041
0
LINE
8
Layer 1
10
31.786936
20
30.248041
11
32.528244
21
29.918426
0
LINE
8
Layer 1
10
32.528244
20
29.918426
11
33.211300
21
29.793400
0
LINE
8
Layer 1
10
33.211300
20
29.793400
11
33.748050
21
29.917538
0
LINE
8
Layer 1
10
33.748050
20
29.917538
11
34.160600
21
30.326000
0
LINE
8
Layer 1
10
34.160600
20
30.326000
11
34.233425
21
30.788041
0
LINE
8
Layer 1
10
34.233425
20
30.788041
11
34.024025
21
31.403092
0
LINE
8
Layer 1
10
34.024025
20
31.403092
11
32.907048
21
33.017083
0
LINE
8
Layer 1
10
32.907048
20
33.017083
11
31.106670
21
35.017691
0
LINE
8
Layer 1
10
31.106670
20
35.017691
11
28.919888
21
37.254638
0
LINE
8
Layer 1
10
28.919888
20
37.254638
11
24.575108
21
41.836423
0
LINE
8
Layer 1
10
24.575108
20
41.836423
11
23.011108
21
43.880703
0
LINE
8
Layer 1
10
23.011108
20
43.880703
11
22.511143
21
44.775442
0
LINE
8
Layer 1
10
22.511143
20
44.775442
11
22.248700
21
45.560200
0
LINE
8
Layer 1
10
22.248700
20
45.560200
11
22.123777
21
47.278814
0
LINE
8
Layer 1
10
22.123777
20
47.278814
11
22.423812
21
48.510237
0
LINE
8
Layer 1
10
22.423812
20
48.510237
11
23.092942
21
49.251367
0
LINE
8
Layer 1
10
23.092942
20
49.251367
11
24.075300
21
49.499100
0
LINE
8
Layer 1
10
24.075300
20
49.499100
11
24.075300
21
49.499100
0
LINE
8
Layer 1
10
78.554700
20
15.564400
11
77.302588
21
17.593121
0
LINE
8
Layer 1
10
77.302588
20
17.593121
11
76.448433
21
19.519855
0
LINE
8
Layer 1
10
76.448433
20
19.519855
11
76.002664
21
21.372946
0
LINE
8
Layer 1
10
76.002664
20
21.372946
11
75.975713
21
23.180738
0
LINE
8
Layer 1
10
75.975713
20
23.180738
11
76.378010
21
24.971575
0
LINE
8
Layer 1
10
76.378010
20
24.971575
11
77.219986
21
26.773802
0
LINE
8
Layer 1
10
77.219986
20
26.773802
11
78.512072
21
28.615762
0
LINE
8
Layer 1
10
78.512072
20
28.615762
11
80.264700
21
30.525800
0
LINE
8
Layer 1
10
80.264700
20
30.525800
11
82.145585
21
32.572276
0
LINE
8
Layer 1
10
82.145585
20
32.572276
11
83.808767
21
34.727264
0
LINE
8
Layer 1
10
83.808767
20
34.727264
11
85.244050
21
36.873217
0
LINE
8
Layer 1
10
85.244050
20
36.873217
11
86.441237
21
38.892587
0
LINE
8
Layer 1
10
86.441237
20
38.892587
11
88.080539
21
42.081392
0
LINE
8
Layer 1
10
88.080539
20
42.081392
11
88.645100
21
43.353300
0
LINE
8
Layer 1
10
88.645100
20
43.353300
11
88.866039
21
44.038406
0
LINE
8
Layer 1
10
88.866039
20
44.038406
11
89.548837
21
45.515100
0
LINE
8
Layer 1
10
89.548837
20
45.515100
11
90.072800
21
46.279062
0
LINE
8
Layer 1
10
90.072800
20
46.279062
11
90.723467
21
46.915444
0
LINE
8
Layer 1
10
90.723467
20
46.915444
11
91.504585
21
47.315754
0
LINE
8
Layer 1
10
91.504585
20
47.315754
11
92.419900
21
47.371500
0
LINE
8
Layer 1
10
92.419900
20
47.371500
11
93.357816
21
46.945029
0
LINE
8
Layer 1
10
93.357816
20
46.945029
11
94.151564
21
46.039561
0
LINE
8
Layer 1
10
94.151564
20
46.039561
11
94.722358
21
44.757909
0
LINE
8
Layer 1
10
94.722358
20
44.757909
11
94.991412
21
43.202888
0
LINE
8
Layer 1
10
94.991412
20
43.202888
11
94.879940
21
41.477312
0
LINE
8
Layer 1
10
94.879940
20
41.477312
11
94.309155
21
39.683995
0
LINE
8
Layer 1
10
94.309155
20
39.683995
11
93.200270
21
37.925753
0
LINE
8
Layer 1
10
93.200270
20
37.925753
11
92.419420
21
37.091915
0
LINE
8
Layer 1
10
92.419420
20
37.091915
11
91.474500
21
36.305400
0
LINE
8
Layer 1
10
91.474500
20
36.305400
11
90.581788
21
35.563529
0
LINE
8
Layer 1
10
90.581788
20
35.563529
11
89.948032
21
34.859731
0
LINE
8
Layer 1
10
89.948032
20
34.859731
11
89.548977
21
34.201698
0
LINE
8
Layer 1
10
89.548977
20
34.201698
11
89.360366
21
33.597120
0
LINE
8
Layer 1
10
89.360366
20
33.597120
11
89.357943
21
33.053689
0
LINE
8
Layer 1
10
89.357943
20
33.053689
11
89.517454
21
32.579096
0
LINE
8
Layer 1
10
89.517454
20
32.579096
11
90.225250
21
31.867188
0
LINE
8
Layer 1
10
90.225250
20
31.867188
11
91.289709
21
31.522924
0
LINE
8
Layer 1
10
91.289709
20
31.522924
11
92.516784
21
31.607836
0
LINE
8
Layer 1
10
92.516784
20
31.607836
11
93.712430
21
32.183451
0
LINE
8
Layer 1
10
93.712430
20
32.183451
11
94.237827
21
32.674501
0
LINE
8
Layer 1
10
94.237827
20
32.674501
11
94.682600
21
33.311300
0
LINE
8
Layer 1
10
94.682600
20
33.311300
11
96.853475
21
37.062628
0
LINE
8
Layer 1
10
96.853475
20
37.062628
11
99.792800
21
41.751700
0
LINE
8
Layer 1
10
99.792800
20
41.751700
11
102.897125
21
46.078672
0
LINE
8
Layer 1
10
102.897125
20
46.078672
11
104.322584
21
47.700169
0
LINE
8
Layer 1
10
104.322584
20
47.700169
11
105.563000
21
48.743700
0
LINE
8
Layer 1
10
105.563000
20
48.743700
11
106.639750
21
49.307701
0
LINE
8
Layer 1
10
106.639750
20
49.307701
11
107.610938
21
49.599798
0
LINE
8
Layer 1
10
107.610938
20
49.599798
11
108.453969
21
49.621293
0
LINE
8
Layer 1
10
108.453969
20
49.621293
11
109.146250
21
49.373487
0
LINE
8
Layer 1
10
109.146250
20
49.373487
11
109.665188
21
48.857683
0
LINE
8
Layer 1
10
109.665188
20
48.857683
11
109.988187
21
48.075183
0
LINE
8
Layer 1
10
109.988187
20
48.075183
11
110.092656
21
47.027288
0
LINE
8
Layer 1
10
110.092656
20
47.027288
11
109.956000
21
45.715300
0
LINE
8
Layer 1
10
109.956000
20
45.715300
11
109.691653
21
44.932318
0
LINE
8
Layer 1
10
109.691653
20
44.932318
11
109.187932
21
44.039614
0
LINE
8
Layer 1
10
109.187932
20
44.039614
11
107.612025
21
41.999998
0
LINE
8
Layer 1
10
107.612025
20
41.999998
11
103.233975
21
37.428637
0
LINE
8
Layer 1
10
103.233975
20
37.428637
11
101.030473
21
35.196721
0
LINE
8
Layer 1
10
101.030473
20
35.196721
11
99.216413
21
33.200533
0
LINE
8
Layer 1
10
99.216413
20
33.200533
11
98.091115
21
31.589988
0
LINE
8
Layer 1
10
98.091115
20
31.589988
11
97.880290
21
30.976180
0
LINE
8
Layer 1
10
97.880290
20
30.976180
11
97.953900
21
30.515000
0
LINE
8
Layer 1
10
97.953900
20
30.515000
11
98.540204
21
30.037479
0
LINE
8
Layer 1
10
98.540204
20
30.037479
11
99.328372
21
30.034264
0
LINE
8
Layer 1
10
99.328372
20
30.034264
11
100.232092
21
30.378789
0
LINE
8
Layer 1
10
100.232092
20
30.378789
11
101.165050
21
30.944488
0
LINE
8
Layer 1
10
101.165050
20
30.944488
11
102.773428
21
32.233142
0
LINE
8
Layer 1
10
102.773428
20
32.233142
11
103.463000
21
32.887700
0
LINE
8
Layer 1
10
103.463000
20
32.887700
11
105.606656
21
34.717494
0
LINE
8
Layer 1
10
105.606656
20
34.717494
11
110.542000
21
38.508050
0
LINE
8
Layer 1
10
110.542000
20
38.508050
11
113.355480
21
40.342290
0
LINE
8
Layer 1
10
113.355480
20
40.342290
11
116.025594
21
41.711131
0
LINE
8
Layer 1
10
116.025594
20
41.711131
11
117.219253
21
42.121487
0
LINE
8
Layer 1
10
117.219253
20
42.121487
11
118.271910
21
42.296045
0
LINE
8
Layer 1
10
118.271910
20
42.296045
11
119.148510
21
42.194988
0
LINE
8
Layer 1
10
119.148510
20
42.194988
11
119.814000
21
41.778500
0
LINE
8
Layer 1
10
119.814000
20
41.778500
11
120.543605
21
40.622894
0
LINE
8
Layer 1
10
120.543605
20
40.622894
11
120.646434
21
40.054718
0
LINE
8
Layer 1
10
120.646434
20
40.054718
11
120.586094
21
39.488572
0
LINE
8
Layer 1
10
120.586094
20
39.488572
11
120.010348
21
38.349201
0
LINE
8
Layer 1
10
120.010348
20
38.349201
11
118.885250
21
37.178450
0
LINE
8
Layer 1
10
118.885250
20
37.178450
11
117.279684
21
35.949986
0
LINE
8
Layer 1
10
117.279684
20
35.949986
11
115.262531
21
34.637478
0
LINE
8
Layer 1
10
115.262531
20
34.637478
11
110.269000
21
31.655000
0
LINE
8
Layer 1
10
110.269000
20
31.655000
11
105.959984
21
28.926650
0
LINE
8
Layer 1
10
105.959984
20
28.926650
11
104.605135
21
27.905312
0
LINE
8
Layer 1
10
104.605135
20
27.905312
11
103.702875
21
27.054575
0
LINE
8
Layer 1
10
103.702875
20
27.054575
11
103.192818
21
26.330973
0
LINE
8
Layer 1
10
103.192818
20
26.330973
11
103.014578
21
25.691038
0
LINE
8
Layer 1
10
103.014578
20
25.691038
11
103.107768
21
25.091302
0
LINE
8
Layer 1
10
103.107768
20
25.091302
11
103.412000
21
24.488300
0
LINE
8
Layer 1
10
103.412000
20
24.488300
11
103.777255
21
24.347037
0
LINE
8
Layer 1
10
103.777255
20
24.347037
11
104.453557
21
24.508885
0
LINE
8
Layer 1
10
104.453557
20
24.508885
11
106.564766
21
25.541672
0
LINE
8
Layer 1
10
106.564766
20
25.541672
11
112.599875
21
29.041900
0
LINE
8
Layer 1
10
112.599875
20
29.041900
11
115.825643
21
30.708364
0
LINE
8
Layer 1
10
115.825643
20
30.708364
11
117.337863
21
31.345471
0
LINE
8
Layer 1
10
117.337863
20
31.345471
11
118.724797
21
31.785078
0
LINE
8
Layer 1
10
118.724797
20
31.785078
11
119.942811
21
31.977126
0
LINE
8
Layer 1
10
119.942811
20
31.977126
11
120.948271
21
31.871553
0
LINE
8
Layer 1
10
120.948271
20
31.871553
11
121.697546
21
31.418298
0
LINE
8
Layer 1
10
121.697546
20
31.418298
11
122.147000
21
30.567300
0
LINE
8
Layer 1
10
122.147000
20
30.567300
11
122.211884
21
29.546532
0
LINE
8
Layer 1
10
122.211884
20
29.546532
11
121.875432
21
28.611138
0
LINE
8
Layer 1
10
121.875432
20
28.611138
11
121.194299
21
27.751871
0
LINE
8
Layer 1
10
121.194299
20
27.751871
11
120.225141
21
26.959481
0
LINE
8
Layer 1
10
120.225141
20
26.959481
11
117.649373
21
25.538346
0
LINE
8
Layer 1
10
117.649373
20
25.538346
11
114.601375
21
24.273750
0
LINE
8
Layer 1
10
114.601375
20
24.273750
11
111.534393
21
23.091710
0
LINE
8
Layer 1
10
111.534393
20
23.091710
11
108.901672
21
21.918244
0
LINE
8
Layer 1
10
108.901672
20
21.918244
11
107.889799
21
21.311606
0
LINE
8
Layer 1
10
107.889799
20
21.311606
11
107.156459
21
20.679368
0
LINE
8
Layer 1
10
107.156459
20
20.679368
11
106.758307
21
20.012282
0
LINE
8
Layer 1
10
106.758307
20
20.012282
11
106.752000
21
19.301100
0
LINE
8
Layer 1
10
106.752000
20
19.301100
11
107.078588
21
18.736098
0
LINE
8
Layer 1
10
107.078588
20
18.736098
11
107.621754
21
18.483931
0
LINE
8
Layer 1
10
107.621754
20
18.483931
11
108.352660
21
18.499074
0
LINE
8
Layer 1
10
108.352660
20
18.499074
11
109.242469
21
18.736002
0
LINE
8
Layer 1
10
109.242469
20
18.736002
11
111.383449
21
19.693112
0
LINE
8
Layer 1
10
111.383449
20
19.693112
11
113.814000
21
20.991063
0
LINE
8
Layer 1
10
113.814000
20
20.991063
11
116.303426
21
22.265656
0
LINE
8
Layer 1
10
116.303426
20
22.265656
11
118.621031
21
23.152692
0
LINE
8
Layer 1
10
118.621031
20
23.152692
11
119.643309
21
23.337065
0
LINE
8
Layer 1
10
119.643309
20
23.337065
11
120.536121
21
23.287973
0
LINE
8
Layer 1
10
120.536121
20
23.287973
11
121.270630
21
22.959893
0
LINE
8
Layer 1
10
121.270630
20
22.959893
11
121.818000
21
22.307300
0
LINE
8
Layer 1
10
121.818000
20
22.307300
11
122.025118
21
21.469424
0
LINE
8
Layer 1
10
122.025118
20
21.469424
11
121.796072
21
20.622094
0
LINE
8
Layer 1
10
121.796072
20
20.622094
11
121.188947
21
19.774009
0
LINE
8
Layer 1
10
121.188947
20
19.774009
11
120.261828
21
18.933867
0
LINE
8
Layer 1
10
120.261828
20
18.933867
11
117.679951
21
17.312210
0
LINE
8
Layer 1
10
117.679951
20
17.312210
11
114.515125
21
15.826712
0
LINE
8
Layer 1
10
114.515125
20
15.826712
11
111.232033
21
14.546963
0
LINE
8
Layer 1
10
111.232033
20
14.546963
11
108.295359
21
13.542552
0
LINE
8
Layer 1
10
108.295359
20
13.542552
11
105.320000
21
12.638100
0
LINE
8
Layer 1
10
105.320000
20
12.638100
11
102.654061
21
12.003301
0
LINE
8
Layer 1
10
102.654061
20
12.003301
11
99.341592
21
11.355880
0
LINE
8
Layer 1
10
99.341592
20
11.355880
11
95.608756
21
10.845090
0
LINE
8
Layer 1
10
95.608756
20
10.845090
11
91.681712
21
10.620181
0
LINE
8
Layer 1
10
91.681712
20
10.620181
11
87.786624
21
10.830406
0
LINE
8
Layer 1
10
87.786624
20
10.830406
11
85.921738
21
11.145335
0
LINE
8
Layer 1
10
85.921738
20
11.145335
11
84.149652
21
11.625016
0
LINE
8
Layer 1
10
84.149652
20
11.625016
11
82.498634
21
12.288107
0
LINE
8
Layer 1
10
82.498634
20
12.288107
11
80.996956
21
13.153264
0
LINE
8
Layer 1
10
80.996956
20
13.153264
11
79.672888
21
14.239143
0
LINE
8
Layer 1
10
79.672888
20
14.239143
11
78.554700
21
15.564400
0
LINE
8
Layer 1
10
78.554700
20
15.564400
11
78.554700
21
15.564400
0
LINE
8
Layer 1
10
107.978000
20
55.033300
11
109.617734
21
54.863492
0
LINE
8
Layer 1
10
109.617734
20
54.863492
11
111.132875
21
54.364762
0
LINE
8
Layer 1
10
111.132875
20
54.364762
11
112.488828
21
53.553152
0
LINE
8
Layer 1
10
112.488828
20
53.553152
11
113.651000
21
52.444700
0
LINE
8
Layer 1
10
113.651000
20
52.444700
11
114.296406
21
51.547950
0
LINE
8
Layer 1
10
114.296406
20
51.547950
11
114.874500
21
50.395675
0
LINE
8
Layer 1
10
114.874500
20
50.395675
11
115.303344
21
48.969462
0
LINE
8
Layer 1
10
115.303344
20
48.969462
11
115.501000
21
47.250900
0
LINE
8
Layer 1
10
115.501000
20
47.250900
11
116.889000
21
47.562462
0
LINE
8
Layer 1
10
116.889000
20
47.562462
11
118.205000
21
47.671600
0
LINE
8
Layer 1
10
118.205000
20
47.671600
11
119.778656
21
47.519864
0
LINE
8
Layer 1
10
119.778656
20
47.519864
11
121.240000
21
47.074062
0
LINE
8
Layer 1
10
121.240000
20
47.074062
11
122.555094
21
46.348305
0
LINE
8
Layer 1
10
122.555094
20
46.348305
11
123.690000
21
45.356700
0
LINE
8
Layer 1
10
123.690000
20
45.356700
11
124.831469
21
43.844203
0
LINE
8
Layer 1
10
124.831469
20
43.844203
11
125.590250
21
42.208200
0
LINE
8
Layer 1
10
125.590250
20
42.208200
11
125.952656
21
40.489697
0
LINE
8
Layer 1
10
125.952656
20
40.489697
11
125.905000
21
38.729700
0
LINE
8
Layer 1
10
125.905000
20
38.729700
11
125.503750
21
37.128525
0
LINE
8
Layer 1
10
125.503750
20
37.128525
11
124.801000
21
35.670600
0
LINE
8
Layer 1
10
124.801000
20
35.670600
11
125.631875
21
34.884973
0
LINE
8
Layer 1
10
125.631875
20
34.884973
11
126.332250
21
33.968537
0
LINE
8
Layer 1
10
126.332250
20
33.968537
11
126.889000
21
32.931183
0
LINE
8
Layer 1
10
126.889000
20
32.931183
11
127.289000
21
31.782800
0
LINE
8
Layer 1
10
127.289000
20
31.782800
11
127.506203
21
30.606883
0
LINE
8
Layer 1
10
127.506203
20
30.606883
11
127.527375
21
29.041463
0
LINE
8
Layer 1
10
127.527375
20
29.041463
11
127.153859
21
27.206511
0
LINE
8
Layer 1
10
127.153859
20
27.206511
11
126.757014
21
26.225452
0
LINE
8
Layer 1
10
126.757014
20
26.225452
11
126.187000
21
25.222000
0
LINE
8
Layer 1
10
126.187000
20
25.222000
11
126.504000
21
24.676900
0
LINE
8
Layer 1
10
126.504000
20
24.676900
11
127.116766
21
23.125709
0
LINE
8
Layer 1
10
127.116766
20
23.125709
11
127.353875
21
21.515625
0
LINE
8
Layer 1
10
127.353875
20
21.515625
11
127.214297
21
19.885778
0
LINE
8
Layer 1
10
127.214297
20
19.885778
11
126.697000
21
18.275300
0
LINE
8
Layer 1
10
126.697000
20
18.275300
11
126.060492
21
17.102395
0
LINE
8
Layer 1
10
126.060492
20
17.102395
11
125.210938
21
15.983137
0
LINE
8
Layer 1
10
125.210938
20
15.983137
11
124.134039
21
14.907380
0
LINE
8
Layer 1
10
124.134039
20
14.907380
11
122.815500
21
13.864974
0
LINE
8
Layer 1
10
122.815500
20
13.864974
11
119.396312
21
11.839621
0
LINE
8
Layer 1
10
119.396312
20
11.839621
11
114.839000
21
9.825890
0
LINE
8
Layer 1
10
114.839000
20
9.825890
11
109.126250
21
7.808277
0
LINE
8
Layer 1
10
109.126250
20
7.808277
11
106.601000
21
7.049360
0
LINE
8
Layer 1
10
106.601000
20
7.049360
11
102.456905
21
6.089587
0
LINE
8
Layer 1
10
102.456905
20
6.089587
11
98.529738
21
5.401304
0
LINE
8
Layer 1
10
98.529738
20
5.401304
11
94.833177
21
4.986716
0
LINE
8
Layer 1
10
94.833177
20
4.986716
11
91.380900
21
4.848030
0
LINE
8
Layer 1
10
91.380900
20
4.848030
11
88.433421
21
4.964179
0
LINE
8
Layer 1
10
88.433421
20
4.964179
11
85.704897
21
5.312084
0
LINE
8
Layer 1
10
85.704897
20
5.312084
11
83.197225
21
5.890932
0
LINE
8
Layer 1
10
83.197225
20
5.890932
11
80.912300
21
6.699912
0
LINE
8
Layer 1
10
80.912300
20
6.699912
11
78.852019
21
7.738212
0
LINE
8
Layer 1
10
78.852019
20
7.738212
11
77.018278
21
9.005018
0
LINE
8
Layer 1
10
77.018278
20
9.005018
11
75.412973
21
10.499518
0
LINE
8
Layer 1
10
75.412973
20
10.499518
11
74.038000
21
12.220900
0
LINE
8
Layer 1
10
74.038000
20
12.220900
11
72.300912
21
15.144424
0
LINE
8
Layer 1
10
72.300912
20
15.144424
11
71.143438
21
18.009722
0
LINE
8
Layer 1
10
71.143438
20
18.009722
11
70.566088
21
20.821634
0
LINE
8
Layer 1
10
70.566088
20
20.821634
11
70.569375
21
23.585000
0
LINE
8
Layer 1
10
70.569375
20
23.585000
11
71.153809
21
26.304660
0
LINE
8
Layer 1
10
71.153809
20
26.304660
11
72.319900
21
28.985453
0
LINE
8
Layer 1
10
72.319900
20
28.985453
11
74.068160
21
31.632220
0
LINE
8
Layer 1
10
74.068160
20
31.632220
11
76.399100
21
34.249800
0
LINE
8
Layer 1
10
76.399100
20
34.249800
11
77.788231
21
35.764327
0
LINE
8
Layer 1
10
77.788231
20
35.764327
11
79.047050
21
37.376628
0
LINE
8
Layer 1
10
79.047050
20
37.376628
11
81.139100
21
40.601725
0
LINE
8
Layer 1
10
81.139100
20
40.601725
11
82.605950
21
43.339434
0
LINE
8
Layer 1
10
82.605950
20
43.339434
11
83.378300
21
45.004100
0
LINE
8
Layer 1
10
83.378300
20
45.004100
11
83.866921
21
46.395654
0
LINE
8
Layer 1
10
83.866921
20
46.395654
11
84.523458
21
47.772948
0
LINE
8
Layer 1
10
84.523458
20
47.772948
11
85.349263
21
49.083190
0
LINE
8
Layer 1
10
85.349263
20
49.083190
11
86.345687
21
50.273587
0
LINE
8
Layer 1
10
86.345687
20
50.273587
11
87.514082
21
51.291349
0
LINE
8
Layer 1
10
87.514082
20
51.291349
11
88.855798
21
52.083683
0
LINE
8
Layer 1
10
88.855798
20
52.083683
11
90.372187
21
52.597797
0
LINE
8
Layer 1
10
90.372187
20
52.597797
11
92.064600
21
52.780900
0
LINE
8
Layer 1
10
92.064600
20
52.780900
11
92.065900
21
52.780900
0
LINE
8
Layer 1
10
92.065900
20
52.780900
11
93.267400
21
52.686700
0
LINE
8
Layer 1
10
93.267400
20
52.686700
11
94.774192
21
52.284944
0
LINE
8
Layer 1
10
94.774192
20
52.284944
11
96.158762
21
51.583600
0
LINE
8
Layer 1
10
96.158762
20
51.583600
11
97.396952
21
50.607531
0
LINE
8
Layer 1
10
97.396952
20
50.607531
11
98.464600
21
49.381600
0
LINE
8
Layer 1
10
98.464600
20
49.381600
11
100.526050
21
51.683475
0
LINE
8
Layer 1
10
100.526050
20
51.683475
11
102.460000
21
53.269400
0
LINE
8
Layer 1
10
102.460000
20
53.269400
11
103.851781
21
54.038814
0
LINE
8
Layer 1
10
103.851781
20
54.038814
11
105.238500
21
54.590288
0
LINE
8
Layer 1
10
105.238500
20
54.590288
11
106.615469
21
54.922292
0
LINE
8
Layer 1
10
106.615469
20
54.922292
11
107.978000
21
55.033300
0
LINE
8
Layer 1
10
107.978000
20
55.033300
11
107.978000
21
55.033300
0
LINE
8
Layer 1
10
107.978000
20
49.499100
11
106.803250
21
49.273650
0
LINE
8
Layer 1
10
106.803250
20
49.273650
11
105.444000
21
48.595800
0
LINE
8
Layer 1
10
105.444000
20
48.595800
11
104.213346
21
47.549849
0
LINE
8
Layer 1
10
104.213346
20
47.549849
11
102.798827
21
45.924575
0
LINE
8
Layer 1
10
102.798827
20
45.924575
11
99.717838
21
41.587525
0
LINE
8
Layer 1
10
99.717838
20
41.587525
11
96.800330
21
36.887588
0
LINE
8
Layer 1
10
96.800330
20
36.887588
11
94.645600
21
33.127700
0
LINE
8
Layer 1
10
94.645600
20
33.127700
11
94.034539
21
32.305958
0
LINE
8
Layer 1
10
94.034539
20
32.305958
11
93.294488
21
31.741737
0
LINE
8
Layer 1
10
93.294488
20
31.741737
11
92.483392
21
31.416673
0
LINE
8
Layer 1
10
92.483392
20
31.416673
11
91.659200
21
31.312400
0
LINE
8
Layer 1
10
91.659200
20
31.312400
11
90.885652
21
31.408797
0
LINE
8
Layer 1
10
90.885652
20
31.408797
11
90.212856
21
31.685905
0
LINE
8
Layer 1
10
90.212856
20
31.685905
11
89.697439
21
32.125601
0
LINE
8
Layer 1
10
89.697439
20
32.125601
11
89.396025
21
32.709762
0
LINE
8
Layer 1
10
89.396025
20
32.709762
11
89.365239
21
33.420266
0
LINE
8
Layer 1
10
89.365239
20
33.420266
11
89.661706
21
34.238989
0
LINE
8
Layer 1
10
89.661706
20
34.238989
11
90.342052
21
35.147808
0
LINE
8
Layer 1
10
90.342052
20
35.147808
11
91.462900
21
36.128600
0
LINE
8
Layer 1
10
91.462900
20
36.128600
11
92.400754
21
36.916974
0
LINE
8
Layer 1
10
92.400754
20
36.916974
11
93.175734
21
37.752773
0
LINE
8
Layer 1
10
93.175734
20
37.752773
11
94.276192
21
39.515122
0
LINE
8
Layer 1
10
94.276192
20
39.515122
11
94.842507
21
41.312604
0
LINE
8
Layer 1
10
94.842507
20
41.312604
11
94.952912
21
43.042175
0
LINE
8
Layer 1
10
94.952912
20
43.042175
11
94.685641
21
44.600793
0
LINE
8
Layer 1
10
94.685641
20
44.600793
11
94.118927
21
45.885416
0
LINE
8
Layer 1
10
94.118927
20
45.885416
11
93.331002
21
46.792999
0
LINE
8
Layer 1
10
93.331002
20
46.792999
11
92.400100
21
47.220500
0
LINE
8
Layer 1
10
92.400100
20
47.220500
11
92.064600
21
47.246700
0
LINE
8
Layer 1
10
92.064600
20
47.246700
11
91.238446
21
47.072518
0
LINE
8
Layer 1
10
91.238446
20
47.072518
11
90.533053
21
46.613309
0
LINE
8
Layer 1
10
90.533053
20
46.613309
11
89.945153
21
45.964084
0
LINE
8
Layer 1
10
89.945153
20
45.964084
11
89.471475
21
45.219850
0
LINE
8
Layer 1
10
89.471475
20
45.219850
11
88.853709
21
43.826391
0
LINE
8
Layer 1
10
88.853709
20
43.826391
11
88.653600
21
43.193000
0
LINE
8
Layer 1
10
88.653600
20
43.193000
11
88.093303
21
41.918122
0
LINE
8
Layer 1
10
88.093303
20
41.918122
11
86.466375
21
38.721875
0
LINE
8
Layer 1
10
86.466375
20
38.721875
11
85.278219
21
36.697795
0
LINE
8
Layer 1
10
85.278219
20
36.697795
11
83.853759
21
34.546841
0
LINE
8
Layer 1
10
83.853759
20
34.546841
11
82.203114
21
32.386835
0
LINE
8
Layer 1
10
82.203114
20
32.386835
11
80.336400
21
30.335600
0
LINE
8
Layer 1
10
80.336400
20
30.335600
11
78.596902
21
28.421188
0
LINE
8
Layer 1
10
78.596902
20
28.421188
11
77.314483
21
26.574987
0
LINE
8
Layer 1
10
77.314483
20
26.574987
11
76.478794
21
24.768594
0
LINE
8
Layer 1
10
76.478794
20
24.768594
11
76.079487
21
22.973600
0
LINE
8
Layer 1
10
76.079487
20
22.973600
11
76.106213
21
21.161600
0
LINE
8
Layer 1
10
76.106213
20
21.161600
11
76.548623
21
19.304188
0
LINE
8
Layer 1
10
76.548623
20
19.304188
11
77.396369
21
17.372956
0
LINE
8
Layer 1
10
77.396369
20
17.372956
11
78.639100
21
15.339500
0
LINE
8
Layer 1
10
78.639100
20
15.339500
11
79.726644
21
14.061356
0
LINE
8
Layer 1
10
79.726644
20
14.061356
11
81.011606
21
13.060637
0
LINE
8
Layer 1
10
81.011606
20
13.060637
11
82.467447
21
12.304362
0
LINE
8
Layer 1
10
82.467447
20
12.304362
11
84.067625
21
11.759550
0
LINE
8
Layer 1
10
84.067625
20
11.759550
11
85.785600
21
11.393219
0
LINE
8
Layer 1
10
85.785600
20
11.393219
11
87.594831
21
11.172387
0
LINE
8
Layer 1
10
87.594831
20
11.172387
11
91.380900
21
11.035300
0
LINE
8
Layer 1
10
91.380900
20
11.035300
11
95.355566
21
11.193119
0
LINE
8
Layer 1
10
95.355566
20
11.193119
11
99.145000
21
11.599375
0
LINE
8
Layer 1
10
99.145000
20
11.599375
11
102.510159
21
12.153269
0
LINE
8
Layer 1
10
102.510159
20
12.153269
11
105.212000
21
12.754000
0
LINE
8
Layer 1
10
105.212000
20
12.754000
11
108.163625
21
13.606191
0
LINE
8
Layer 1
10
108.163625
20
13.606191
11
111.076766
21
14.557252
0
LINE
8
Layer 1
10
111.076766
20
14.557252
11
114.333500
21
15.776150
0
LINE
8
Layer 1
10
114.333500
20
15.776150
11
117.472859
21
17.201279
0
LINE
8
Layer 1
10
117.472859
20
17.201279
11
120.033875
21
18.771034
0
LINE
8
Layer 1
10
120.033875
20
18.771034
11
120.953451
21
19.590895
0
LINE
8
Layer 1
10
120.953451
20
19.590895
11
121.555578
21
20.423810
0
LINE
8
Layer 1
10
121.555578
20
20.423810
11
121.782635
21
21.262078
0
LINE
8
Layer 1
10
121.782635
20
21.262078
11
121.577000
21
22.098000
0
LINE
8
Layer 1
10
121.577000
20
22.098000
11
121.233531
21
22.575895
0
LINE
8
Layer 1
10
121.233531
20
22.575895
11
120.802500
21
22.900013
0
LINE
8
Layer 1
10
120.802500
20
22.900013
11
119.710000
21
23.142600
0
LINE
8
Layer 1
10
119.710000
20
23.142600
11
118.352088
21
22.932027
0
LINE
8
Layer 1
10
118.352088
20
22.932027
11
116.811891
21
22.376881
0
LINE
8
Layer 1
10
116.811891
20
22.376881
11
113.472875
21
20.692300
0
LINE
8
Layer 1
10
113.472875
20
20.692300
11
110.269422
21
19.007719
0
LINE
8
Layer 1
10
110.269422
20
19.007719
11
108.898678
21
18.452573
0
LINE
8
Layer 1
10
108.898678
20
18.452573
11
107.778000
21
18.242000
0
LINE
8
Layer 1
10
107.778000
20
18.242000
11
107.373312
21
18.320917
0
LINE
8
Layer 1
10
107.373312
20
18.320917
11
107.035000
21
18.539362
0
LINE
8
Layer 1
10
107.035000
20
18.539362
11
106.601000
21
19.285000
0
LINE
8
Layer 1
10
106.601000
20
19.285000
11
106.599407
21
20.026677
0
LINE
8
Layer 1
10
106.599407
20
20.026677
11
106.989322
21
20.712032
0
LINE
8
Layer 1
10
106.989322
20
20.712032
11
107.714220
21
21.351750
0
LINE
8
Layer 1
10
107.714220
20
21.351750
11
108.717578
21
21.956517
0
LINE
8
Layer 1
10
108.717578
20
21.956517
11
111.333576
21
23.103941
0
LINE
8
Layer 1
10
111.333576
20
23.103941
11
114.385125
21
24.239788
0
LINE
8
Layer 1
10
114.385125
20
24.239788
11
117.420033
21
25.449542
0
LINE
8
Layer 1
10
117.420033
20
25.449542
11
119.986109
21
26.818689
0
LINE
8
Layer 1
10
119.986109
20
26.818689
11
120.952026
21
27.589749
0
LINE
8
Layer 1
10
120.952026
20
27.589749
11
121.631162
21
28.432713
0
LINE
8
Layer 1
10
121.631162
20
28.432713
11
121.966995
21
29.358269
0
LINE
8
Layer 1
10
121.966995
20
29.358269
11
121.903000
21
30.377100
0
LINE
8
Layer 1
10
121.903000
20
30.377100
11
121.620578
21
31.024177
0
LINE
8
Layer 1
10
121.620578
20
31.024177
11
121.182625
21
31.464262
0
LINE
8
Layer 1
10
121.182625
20
31.464262
11
120.604609
21
31.714992
0
LINE
8
Layer 1
10
120.604609
20
31.714992
11
119.902000
21
31.794000
0
LINE
8
Layer 1
10
119.902000
20
31.794000
11
118.030771
21
31.465190
0
LINE
8
Layer 1
10
118.030771
20
31.465190
11
115.803797
21
30.598328
0
LINE
8
Layer 1
10
115.803797
20
30.598328
11
113.375893
21
29.372764
0
LINE
8
Layer 1
10
113.375893
20
29.372764
11
110.901875
21
27.967850
0
LINE
8
Layer 1
10
110.901875
20
27.967850
11
106.434766
21
25.337372
0
LINE
8
Layer 1
10
106.434766
20
25.337372
11
104.751307
21
24.470510
0
LINE
8
Layer 1
10
104.751307
20
24.470510
11
103.641000
21
24.141700
0
LINE
8
Layer 1
10
103.641000
20
24.141700
11
103.309000
21
24.284000
0
LINE
8
Layer 1
10
103.309000
20
24.284000
11
103.003301
21
24.896614
0
LINE
8
Layer 1
10
103.003301
20
24.896614
11
102.900781
21
25.519472
0
LINE
8
Layer 1
10
102.900781
20
25.519472
11
103.063434
21
26.191638
0
LINE
8
Layer 1
10
103.063434
20
26.191638
11
103.553250
21
26.952175
0
LINE
8
Layer 1
10
103.553250
20
26.952175
11
104.432223
21
27.840146
0
LINE
8
Layer 1
10
104.432223
20
27.840146
11
105.762344
21
28.894616
0
LINE
8
Layer 1
10
105.762344
20
28.894616
11
110.024000
21
31.659300
0
LINE
8
Layer 1
10
110.024000
20
31.659300
11
114.994328
21
34.618767
0
LINE
8
Layer 1
10
114.994328
20
34.618767
11
117.010936
21
35.903568
0
LINE
8
Layer 1
10
117.010936
20
35.903568
11
118.621125
21
37.099612
0
LINE
8
Layer 1
10
118.621125
20
37.099612
11
119.754361
21
38.237799
0
LINE
8
Layer 1
10
119.754361
20
38.237799
11
120.340109
21
39.349027
0
LINE
8
Layer 1
10
120.340109
20
39.349027
11
120.405633
21
39.904187
0
LINE
8
Layer 1
10
120.405633
20
39.904187
11
120.307834
21
40.464194
0
LINE
8
Layer 1
10
120.307834
20
40.464194
11
119.587000
21
41.614200
0
LINE
8
Layer 1
10
119.587000
20
41.614200
11
118.986375
21
42.011800
0
LINE
8
Layer 1
10
118.986375
20
42.011800
11
118.205000
21
42.137300
0
LINE
8
Layer 1
10
118.205000
20
42.137300
11
117.310714
21
42.031135
0
LINE
8
Layer 1
10
117.310714
20
42.031135
11
116.299541
21
41.731551
0
LINE
8
Layer 1
10
116.299541
20
41.731551
11
114.022891
21
40.662658
0
LINE
8
Layer 1
10
114.022891
20
40.662658
11
111.567764
21
39.151689
0
LINE
8
Layer 1
10
111.567764
20
39.151689
11
109.126875
21
37.419713
0
LINE
8
Layer 1
10
109.126875
20
37.419713
11
105.058672
21
34.177011
0
LINE
8
Layer 1
10
105.058672
20
34.177011
11
103.360000
21
32.703100
0
LINE
8
Layer 1
10
103.360000
20
32.703100
11
101.739238
21
31.248250
0
LINE
8
Layer 1
10
101.739238
20
31.248250
11
100.265927
21
30.248041
0
LINE
8
Layer 1
10
100.265927
20
30.248041
11
99.524726
21
29.918426
0
LINE
8
Layer 1
10
99.524726
20
29.918426
11
98.841900
21
29.793400
0
LINE
8
Layer 1
10
98.841900
20
29.793400
11
98.304963
21
29.917538
0
LINE
8
Layer 1
10
98.304963
20
29.917538
11
97.892300
21
30.326000
0
LINE
8
Layer 1
10
97.892300
20
30.326000
11
97.819460
21
30.788041
0
LINE
8
Layer 1
10
97.819460
20
30.788041
11
98.028850
21
31.403092
0
LINE
8
Layer 1
10
98.028850
20
31.403092
11
99.145820
21
33.017083
0
LINE
8
Layer 1
10
99.145820
20
33.017083
11
100.946202
21
35.017691
0
LINE
8
Layer 1
10
100.946202
20
35.017691
11
103.132987
21
37.254638
0
LINE
8
Layer 1
10
103.132987
20
37.254638
11
107.477736
21
41.836423
0
LINE
8
Layer 1
10
107.477736
20
41.836423
11
109.041683
21
43.880703
0
LINE
8
Layer 1
10
109.041683
20
43.880703
11
109.541608
21
44.775442
0
LINE
8
Layer 1
10
109.541608
20
44.775442
11
109.804000
21
45.560200
0
LINE
8
Layer 1
10
109.804000
20
45.560200
11
109.929031
21
47.278814
0
LINE
8
Layer 1
10
109.929031
20
47.278814
11
109.629000
21
48.510237
0
LINE
8
Layer 1
10
109.629000
20
48.510237
11
108.959969
21
49.251367
0
LINE
8
Layer 1
10
108.959969
20
49.251367
11
107.978000
21
49.499100
0
LINE
8
Layer 1
10
107.978000
20
49.499100
11
107.978000
21
49.499100
0
LINE
8
Layer 1
10
84.475300
20
61.938700
11
84.381651
21
62.933666
0
LINE
8
Layer 1
10
84.381651
20
62.933666
11
84.106758
21
63.595288
0
LINE
8
Layer 1
10
84.106758
20
63.595288
11
83.659705
21
63.960634
0
LINE
8
Layer 1
10
83.659705
20
63.960634
11
83.049575
21
64.066770
0
LINE
8
Layer 1
10
83.049575
20
64.066770
11
82.285451
21
63.950764
0
LINE
8
Layer 1
10
82.285451
20
63.950764
11
81.376417
21
63.649683
0
LINE
8
Layer 1
10
81.376417
20
63.649683
11
79.159950
21
62.640563
0
LINE
8
Layer 1
10
79.159950
20
62.640563
11
76.472839
21
61.335947
0
LINE
8
Layer 1
10
76.472839
20
61.335947
11
73.387750
21
60.032373
0
LINE
8
Layer 1
10
73.387750
20
60.032373
11
69.977348
21
59.026379
0
LINE
8
Layer 1
10
69.977348
20
59.026379
11
68.172863
21
58.727641
0
LINE
8
Layer 1
10
68.172863
20
58.727641
11
66.314300
21
58.614500
0
LINE
8
Layer 1
10
66.314300
20
58.614500
11
64.455877
21
58.727537
0
LINE
8
Layer 1
10
64.455877
20
58.727537
11
62.651516
21
59.026186
0
LINE
8
Layer 1
10
62.651516
20
59.026186
11
59.241312
21
60.032050
0
LINE
8
Layer 1
10
59.241312
20
60.032050
11
56.156366
21
61.335552
0
LINE
8
Layer 1
10
56.156366
20
61.335552
11
53.469350
21
62.640150
0
LINE
8
Layer 1
10
53.469350
20
62.640150
11
51.252941
21
63.649305
0
LINE
8
Layer 1
10
51.252941
20
63.649305
11
50.343924
21
63.950422
0
LINE
8
Layer 1
10
50.343924
20
63.950422
11
49.579812
21
64.066475
0
LINE
8
Layer 1
10
49.579812
20
64.066475
11
48.969690
21
63.960397
0
LINE
8
Layer 1
10
48.969690
20
63.960397
11
48.522641
21
63.595120
0
LINE
8
Layer 1
10
48.522641
20
63.595120
11
48.247749
21
62.933577
0
LINE
8
Layer 1
10
48.247749
20
62.933577
11
48.154100
21
61.938700
0
LINE
8
Layer 1
10
48.154100
20
61.938700
11
48.249864
21
60.270338
0
LINE
8
Layer 1
10
48.249864
20
60.270338
11
48.547797
21
58.419787
0
LINE
8
Layer 1
10
48.547797
20
58.419787
11
49.063863
21
56.448637
0
LINE
8
Layer 1
10
49.063863
20
56.448637
11
49.814025
21
54.418475
0
LINE
8
Layer 1
10
49.814025
20
54.418475
11
50.814246
21
52.390891
0
LINE
8
Layer 1
10
50.814246
20
52.390891
11
52.080491
21
50.427475
0
LINE
8
Layer 1
10
52.080491
20
50.427475
11
53.628721
21
48.589815
0
LINE
8
Layer 1
10
53.628721
20
48.589815
11
55.474900
21
46.939500
0
LINE
8
Layer 1
10
55.474900
20
46.939500
11
56.077530
21
48.269937
0
LINE
8
Layer 1
10
56.077530
20
48.269937
11
57.012966
21
49.501563
0
LINE
8
Layer 1
10
57.012966
20
49.501563
11
58.166712
21
50.603681
0
LINE
8
Layer 1
10
58.166712
20
50.603681
11
59.424275
21
51.545600
0
LINE
8
Layer 1
10
59.424275
20
51.545600
11
61.792872
21
52.826062
0
LINE
8
Layer 1
10
61.792872
20
52.826062
11
62.674917
21
53.103219
0
LINE
8
Layer 1
10
62.674917
20
53.103219
11
63.202800
21
53.097400
0
LINE
8
Layer 1
10
63.202800
20
53.097400
11
63.909838
21
52.469694
0
LINE
8
Layer 1
10
63.909838
20
52.469694
11
64.457125
21
51.562425
0
LINE
8
Layer 1
10
64.457125
20
51.562425
11
65.155125
21
50.493419
0
LINE
8
Layer 1
10
65.155125
20
50.493419
11
66.314300
21
49.380500
0
LINE
8
Layer 1
10
66.314300
20
49.380500
11
67.473606
21
50.493334
0
LINE
8
Layer 1
10
67.473606
20
50.493334
11
68.171700
21
51.562200
0
LINE
8
Layer 1
10
68.171700
20
51.562200
11
68.719044
21
52.469441
0
LINE
8
Layer 1
10
68.719044
20
52.469441
11
69.426100
21
53.097400
0
LINE
8
Layer 1
10
69.426100
20
53.097400
11
69.954126
21
53.103219
0
LINE
8
Layer 1
10
69.954126
20
53.103219
11
70.836234
21
52.826062
0
LINE
8
Layer 1
10
70.836234
20
52.826062
11
73.204775
21
51.545600
0
LINE
8
Layer 1
10
73.204775
20
51.545600
11
74.462246
21
50.603681
0
LINE
8
Layer 1
10
74.462246
20
50.603681
11
75.615878
21
49.501563
0
LINE
8
Layer 1
10
75.615878
20
49.501563
11
76.551189
21
48.269937
0
LINE
8
Layer 1
10
76.551189
20
48.269937
11
77.153700
21
46.939500
0
LINE
8
Layer 1
10
77.153700
20
46.939500
11
78.999859
21
48.589814
0
LINE
8
Layer 1
10
78.999859
20
48.589814
11
80.548098
21
50.427467
0
LINE
8
Layer 1
10
80.548098
20
50.427467
11
81.814373
21
52.390865
0
LINE
8
Layer 1
10
81.814373
20
52.390865
11
82.814638
21
54.418413
0
LINE
8
Layer 1
10
82.814638
20
54.418413
11
83.564847
21
56.448515
0
LINE
8
Layer 1
10
83.564847
20
56.448515
11
84.080958
21
58.419577
0
LINE
8
Layer 1
10
84.080958
20
58.419577
11
84.378924
21
60.270003
0
LINE
8
Layer 1
10
84.378924
20
60.270003
11
84.474700
21
61.938200
0
LINE
8
Layer 1
10
84.474700
20
61.938200
11
84.475300
21
61.938700
0
LINE
8
Layer 1
10
84.475300
20
61.938700
11
84.475300
21
61.938700
0
LINE
8
Layer 1
10
69.426600
20
53.097900
11
68.719558
21
52.470194
0
LINE
8
Layer 1
10
68.719558
20
52.470194
11
68.172237
21
51.562925
0
LINE
8
Layer 1
10
68.172237
20
51.562925
11
67.474148
21
50.493919
0
LINE
8
Layer 1
10
67.474148
20
50.493919
11
66.314800
21
49.381000
0
LINE
8
Layer 1
10
66.314800
20
49.381000
11
65.155625
21
50.493848
0
LINE
8
Layer 1
10
65.155625
20
50.493848
11
64.457625
21
51.562738
0
LINE
8
Layer 1
10
64.457625
20
51.562738
11
63.910338
21
52.469983
0
LINE
8
Layer 1
10
63.910338
20
52.469983
11
63.203300
21
53.097900
0
LINE
8
Layer 1
10
63.203300
20
53.097900
11
62.675274
21
53.103747
0
LINE
8
Layer 1
10
62.675274
20
53.103747
11
61.793164
21
52.826605
0
LINE
8
Layer 1
10
61.793164
20
52.826605
11
59.424613
21
51.546138
0
LINE
8
Layer 1
10
59.424613
20
51.546138
11
58.167129
21
50.604208
0
LINE
8
Layer 1
10
58.167129
20
50.604208
11
57.013480
21
49.502077
0
LINE
8
Layer 1
10
57.013480
20
49.502077
11
56.078144
21
48.270442
0
LINE
8
Layer 1
10
56.078144
20
48.270442
11
55.475600
21
46.940000
0
LINE
8
Layer 1
10
55.475600
20
46.940000
11
57.661813
21
45.524573
0
LINE
8
Layer 1
10
57.661813
20
45.524573
11
60.185600
21
44.427512
0
LINE
8
Layer 1
10
60.185600
20
44.427512
11
63.063388
21
43.712445
0
LINE
8
Layer 1
10
63.063388
20
43.712445
11
66.311600
21
43.443000
0
LINE
8
Layer 1
10
66.311600
20
43.443000
11
66.315300
21
43.443000
0
LINE
8
Layer 1
10
66.315300
20
43.443000
11
66.319300
21
43.443000
0
LINE
8
Layer 1
10
66.319300
20
43.443000
11
69.567527
21
43.712192
0
LINE
8
Layer 1
10
69.567527
20
43.712192
11
72.445337
21
44.427287
0
LINE
8
Layer 1
10
72.445337
20
44.427287
11
74.969130
21
45.524489
0
LINE
8
Layer 1
10
74.969130
20
45.524489
11
77.155300
21
46.940000
0
LINE
8
Layer 1
10
77.155300
20
46.940000
11
76.552765
21
48.270442
0
LINE
8
Layer 1
10
76.552765
20
48.270442
11
75.617392
21
49.502077
0
LINE
8
Layer 1
10
75.617392
20
49.502077
11
74.463683
21
50.604208
0
LINE
8
Layer 1
10
74.463683
20
50.604208
11
73.206137
21
51.546138
0
LINE
8
Layer 1
10
73.206137
20
51.546138
11
70.837539
21
52.826605
0
LINE
8
Layer 1
10
70.837539
20
52.826605
11
69.955487
21
53.103747
0
LINE
8
Layer 1
10
69.955487
20
53.103747
11
69.427600
21
53.097900
0
LINE
8
Layer 1
10
69.427600
20
53.097900
11
69.426600
21
53.097900
0
LINE
8
Layer 1
10
69.426600
20
53.097900
11
69.426600
21
53.097900
0
LINE
8
Layer 1
10
98.689500
20
70.643700
11
99.596075
21
70.735082
0
LINE
8
Layer 1
10
99.596075
20
70.735082
11
100.440383
21
70.997170
0
LINE
8
Layer 1
10
100.440383
20
70.997170
11
101.204358
21
71.411876
0
LINE
8
Layer 1
10
101.204358
20
71.411876
11
101.869937
21
71.961112
0
LINE
8
Layer 1
10
101.869937
20
71.961112
11
102.419056
21
72.626791
0
LINE
8
Layer 1
10
102.419056
20
72.626791
11
102.833648
21
73.390823
0
LINE
8
Layer 1
10
102.833648
20
73.390823
11
103.095651
21
74.235122
0
LINE
8
Layer 1
10
103.095651
20
74.235122
11
103.187000
21
75.141600
0
LINE
8
Layer 1
10
103.187000
20
75.141600
11
103.095651
21
76.048111
0
LINE
8
Layer 1
10
103.095651
20
76.048111
11
102.833648
21
76.892434
0
LINE
8
Layer 1
10
102.833648
20
76.892434
11
102.419056
21
77.656485
0
LINE
8
Layer 1
10
102.419056
20
77.656485
11
101.869937
21
78.322175
0
LINE
8
Layer 1
10
101.869937
20
78.322175
11
101.204358
21
78.871418
0
LINE
8
Layer 1
10
101.204358
20
78.871418
11
100.440383
21
79.286128
0
LINE
8
Layer 1
10
100.440383
20
79.286128
11
99.596075
21
79.548218
0
LINE
8
Layer 1
10
99.596075
20
79.548218
11
98.689500
21
79.639600
0
LINE
8
Layer 1
10
98.689500
20
79.639600
11
97.782989
21
79.548218
0
LINE
8
Layer 1
10
97.782989
20
79.548218
11
96.938666
21
79.286128
0
LINE
8
Layer 1
10
96.938666
20
79.286128
11
96.174615
21
78.871418
0
LINE
8
Layer 1
10
96.174615
20
78.871418
11
95.508925
21
78.322175
0
LINE
8
Layer 1
10
95.508925
20
78.322175
11
94.959682
21
77.656485
0
LINE
8
Layer 1
10
94.959682
20
77.656485
11
94.544972
21
76.892434
0
LINE
8
Layer 1
10
94.544972
20
76.892434
11
94.282882
21
76.048111
0
LINE
8
Layer 1
10
94.282882
20
76.048111
11
94.191500
21
75.141600
0
LINE
8
Layer 1
10
94.191500
20
75.141600
11
94.282882
21
74.235122
0
LINE
8
Layer 1
10
94.282882
20
74.235122
11
94.544972
21
73.390823
0
LINE
8
Layer 1
10
94.544972
20
73.390823
11
94.959682
21
72.626791
0
LINE
8
Layer 1
10
94.959682
20
72.626791
11
95.508925
21
71.961112
0
LINE
8
Layer 1
10
95.508925
20
71.961112
11
96.174615
21
71.411876
0
LINE
8
Layer 1
10
96.174615
20
71.411876
11
96.938666
21
70.997170
0
LINE
8
Layer 1
10
96.938666
20
70.997170
11
97.782989
21
70.735082
0
LINE
8
Layer 1
10
97.782989
20
70.735082
11
98.689500
21
70.643700
0
LINE
8
Layer 1
10
98.689500
20
70.643700
11
98.689500
21
70.643700
0
LINE
8
Layer 1
10
33.866600
20
70.643700
11
34.773106
21
70.735082
0
LINE
8
Layer 1
10
34.773106
20
70.735082
11
35.617419
21
70.997170
0
LINE
8
Layer 1
10
35.617419
20
70.997170
11
36.381453
21
71.411876
0
LINE
8
Layer 1
10
36.381453
20
71.411876
11
37.047125
21
71.961112
0
LINE
8
Layer 1
10
37.047125
20
71.961112
11
37.596350
21
72.626791
0
LINE
8
Layer 1
10
37.596350
20
72.626791
11
38.011044
21
73.390823
0
LINE
8
Layer 1
10
38.011044
20
73.390823
11
38.273122
21
74.235122
0
LINE
8
Layer 1
10
38.273122
20
74.235122
11
38.364500
21
75.141600
0
LINE
8
Layer 1
10
38.364500
20
75.141600
11
38.273122
21
76.048111
0
LINE
8
Layer 1
10
38.273122
20
76.048111
11
38.011044
21
76.892434
0
LINE
8
Layer 1
10
38.011044
20
76.892434
11
37.596350
21
77.656485
0
LINE
8
Layer 1
10
37.596350
20
77.656485
11
37.047125
21
78.322175
0
LINE
8
Layer 1
10
37.047125
20
78.322175
11
36.381453
21
78.871418
0
LINE
8
Layer 1
10
36.381453
20
78.871418
11
35.617419
21
79.286128
0
LINE
8
Layer 1
10
35.617419
20
79.286128
11
34.773106
21
79.548218
0
LINE
8
Layer 1
10
34.773106
20
79.548218
11
33.866600
21
79.639600
0
LINE
8
Layer 1
10
33.866600
20
79.639600
11
32.960122
21
79.548218
0
LINE
8
Layer 1
10
32.960122
20
79.548218
11
32.115823
21
79.286128
0
LINE
8
Layer 1
10
32.115823
20
79.286128
11
31.351791
21
78.871418
0
LINE
8
Layer 1
10
31.351791
20
78.871418
11
30.686113
21
78.322175
0
LINE
8
Layer 1
10
30.686113
20
78.322175
11
30.136876
21
77.656485
0
LINE
8
Layer 1
10
30.136876
20
77.656485
11
29.722170
21
76.892434
0
LINE
8
Layer 1
10
29.722170
20
76.892434
11
29.460082
21
76.048111
0
LINE
8
Layer 1
10
29.460082
20
76.048111
11
29.368700
21
75.141600
0
LINE
8
Layer 1
10
29.368700
20
75.141600
11
29.460082
21
74.235122
0
LINE
8
Layer 1
10
29.460082
20
74.235122
11
29.722170
21
73.390823
0
LINE
8
Layer 1
10
29.722170
20
73.390823
11
30.136876
21
72.626791
0
LINE
8
Layer 1
10
30.136876
20
72.626791
11
30.686113
21
71.961112
0
LINE
8
Layer 1
10
30.686113
20
71.961112
11
31.351791
21
71.411876
0
LINE
8
Layer 1
10
31.351791
20
71.411876
11
32.115823
21
70.997170
0
LINE
8
Layer 1
10
32.115823
20
70.997170
11
32.960122
21
70.735082
0
LINE
8
Layer 1
10
32.960122
20
70.735082
11
33.866600
21
70.643700
0
LINE
8
Layer 1
10
33.866600
20
70.643700
11
33.866600
21
70.643700
0
LINE
8
Layer 1
10
82.830400
20
77.100600
11
83.452651
21
76.738295
0
LINE
8
Layer 1
10
83.452651
20
76.738295
11
83.999664
21
76.181731
0
LINE
8
Layer 1
10
83.999664
20
76.181731
11
84.969437
21
74.843725
0
LINE
8
Layer 1
10
84.969437
20
74.843725
11
85.442928
21
74.241233
0
LINE
8
Layer 1
10
85.442928
20
74.241233
11
85.942642
21
73.802381
0
LINE
8
Layer 1
10
85.942642
20
73.802381
11
86.493944
21
73.616645
0
LINE
8
Layer 1
10
86.493944
20
73.616645
11
87.122200
21
73.773500
0
LINE
8
Layer 1
10
87.122200
20
73.773500
11
88.299655
21
74.558405
0
LINE
8
Layer 1
10
88.299655
20
74.558405
11
89.267214
21
75.531756
0
LINE
8
Layer 1
10
89.267214
20
75.531756
11
90.013244
21
76.655623
0
LINE
8
Layer 1
10
90.013244
20
76.655623
11
90.526112
21
77.892075
0
LINE
8
Layer 1
10
90.526112
20
77.892075
11
90.794185
21
79.203180
0
LINE
8
Layer 1
10
90.794185
20
79.203180
11
90.805830
21
80.551006
0
LINE
8
Layer 1
10
90.805830
20
80.551006
11
90.549412
21
81.897623
0
LINE
8
Layer 1
10
90.549412
20
81.897623
11
90.013300
21
83.205100
0
LINE
8
Layer 1
10
90.013300
20
83.205100
11
89.226288
21
84.379533
0
LINE
8
Layer 1
10
89.226288
20
84.379533
11
88.250352
21
85.344580
0
LINE
8
Layer 1
10
88.250352
20
85.344580
11
87.123518
21
86.088646
0
LINE
8
Layer 1
10
87.123518
20
86.088646
11
85.883813
21
86.600138
0
LINE
8
Layer 1
10
85.883813
20
86.600138
11
84.569262
21
86.867462
0
LINE
8
Layer 1
10
84.569262
20
86.867462
11
83.217892
21
86.879027
0
LINE
8
Layer 1
10
83.217892
20
86.879027
11
81.867729
21
86.623237
0
LINE
8
Layer 1
10
81.867729
20
86.623237
11
80.556800
21
86.088500
0
LINE
8
Layer 1
10
80.556800
20
86.088500
11
79.379259
21
85.303579
0
LINE
8
Layer 1
10
79.379259
20
85.303579
11
78.411659
21
84.330248
0
LINE
8
Layer 1
10
78.411659
20
84.330248
11
77.665624
21
83.206428
0
LINE
8
Layer 1
10
77.665624
20
83.206428
11
77.152775
21
81.970038
0
LINE
8
Layer 1
10
77.152775
20
81.970038
11
76.884736
21
80.658999
0
LINE
8
Layer 1
10
76.884736
20
80.658999
11
76.873128
21
79.311233
0
LINE
8
Layer 1
10
76.873128
20
79.311233
11
77.129575
21
77.964660
0
LINE
8
Layer 1
10
77.129575
20
77.964660
11
77.665700
21
76.657200
0
LINE
8
Layer 1
10
77.665700
20
76.657200
11
78.067958
21
76.238374
0
LINE
8
Layer 1
10
78.067958
20
76.238374
11
78.609653
21
76.128164
0
LINE
8
Layer 1
10
78.609653
20
76.128164
11
79.971525
21
76.487363
0
LINE
8
Layer 1
10
79.971525
20
76.487363
11
81.471659
21
77.042330
0
LINE
8
Layer 1
10
81.471659
20
77.042330
11
82.186182
21
77.176831
0
LINE
8
Layer 1
10
82.186182
20
77.176831
11
82.830400
21
77.100600
0
LINE
8
Layer 1
10
82.830400
20
77.100600
11
82.830400
21
77.100600
0
LINE
8
Layer 1
10
49.888200
20
77.100600
11
49.265949
21
76.738295
0
LINE
8
Layer 1
10
49.265949
20
76.738295
11
48.718939
21
76.181731
0
LINE
8
Layer 1
10
48.718939
20
76.181731
11
47.749188
21
74.843725
0
LINE
8
Layer 1
10
47.749188
20
74.843725
11
47.275721
21
74.241233
0
LINE
8
Layer 1
10
47.275721
20
74.241233
11
46.776042
21
73.802381
0
LINE
8
Layer 1
10
46.776042
20
73.802381
11
46.224790
21
73.616645
0
LINE
8
Layer 1
10
46.224790
20
73.616645
11
45.596600
21
73.773500
0
LINE
8
Layer 1
10
45.596600
20
73.773500
11
44.419088
21
74.558405
0
LINE
8
Layer 1
10
44.419088
20
74.558405
11
43.451502
21
75.531756
0
LINE
8
Layer 1
10
43.451502
20
75.531756
11
42.705468
21
76.655623
0
LINE
8
Layer 1
10
42.705468
20
76.655623
11
42.192613
21
77.892075
0
LINE
8
Layer 1
10
42.192613
20
77.892075
11
41.924562
21
79.203180
0
LINE
8
Layer 1
10
41.924562
20
79.203180
11
41.912942
21
80.551006
0
LINE
8
Layer 1
10
41.912942
20
80.551006
11
42.169379
21
81.897623
0
LINE
8
Layer 1
10
42.169379
20
81.897623
11
42.705500
21
83.205100
0
LINE
8
Layer 1
10
42.705500
20
83.205100
11
43.492504
21
84.379533
0
LINE
8
Layer 1
10
43.492504
20
84.379533
11
44.468416
21
85.344580
0
LINE
8
Layer 1
10
44.468416
20
85.344580
11
45.595214
21
86.088646
0
LINE
8
Layer 1
10
45.595214
20
86.088646
11
46.834875
21
86.600138
0
LINE
8
Layer 1
10
46.834875
20
86.600138
11
48.149377
21
86.867462
0
LINE
8
Layer 1
10
48.149377
20
86.867462
11
49.500697
21
86.879027
0
LINE
8
Layer 1
10
49.500697
20
86.879027
11
50.850812
21
86.623237
0
LINE
8
Layer 1
10
50.850812
20
86.623237
11
52.161700
21
86.088500
0
LINE
8
Layer 1
10
52.161700
20
86.088500
11
53.339245
21
85.303579
0
LINE
8
Layer 1
10
53.339245
20
85.303579
11
54.306855
21
84.330248
0
LINE
8
Layer 1
10
54.306855
20
84.330248
11
55.052903
21
83.206428
0
LINE
8
Layer 1
10
55.052903
20
83.206428
11
55.565762
21
81.970038
0
LINE
8
Layer 1
10
55.565762
20
81.970038
11
55.833808
21
80.658999
0
LINE
8
Layer 1
10
55.833808
20
80.658999
11
55.845414
21
79.311233
0
LINE
8
Layer 1
10
55.845414
20
79.311233
11
55.588953
21
77.964660
0
LINE
8
Layer 1
10
55.588953
20
77.964660
11
55.052800
21
76.657200
0
LINE
8
Layer 1
10
55.052800
20
76.657200
11
54.650571
21
76.238374
0
LINE
8
Layer 1
10
54.650571
20
76.238374
11
54.108891
21
76.128164
0
LINE
8
Layer 1
10
54.108891
20
76.128164
11
52.747025
21
76.487363
0
LINE
8
Layer 1
10
52.747025
20
76.487363
11
51.246897
21
77.042330
0
LINE
8
Layer 1
10
51.246897
20
77.042330
11
50.532389
21
77.176831
0
LINE
8
Layer 1
10
50.532389
20
77.176831
11
49.888200
21
77.100600
0
LINE
8
Layer 1
10
49.888200
20
77.100600
11
49.888200
21
77.100600
 0 
ENDSEC
 0 
EOF