%TF.GenerationSoftware,KiCad,Pcbnew,8.0.1*%
%TF.CreationDate,2025-01-13T07:12:32-05:00*%
%TF.ProjectId,glove-v3,676c6f76-652d-4763-932e-6b696361645f,rev?*%
%TF.SameCoordinates,Original*%
%TF.FileFunction,Soldermask,Top*%
%TF.FilePolarity,Negative*%
%FSLAX46Y46*%
G04 Gerber Fmt 4.6, Leading zero omitted, Abs format (unit mm)*
G04 Created by KiCad (PCBNEW 8.0.1) date 2025-01-13 07:12:32*
%MOMM*%
%LPD*%
G01*
G04 APERTURE LIST*
G04 Aperture macros list*
%AMRoundRect*
0 Rectangle with rounded corners*
0 $1 Rounding radius*
0 $2 $3 $4 $5 $6 $7 $8 $9 X,Y pos of 4 corners*
0 Add a 4 corners polygon primitive as box body*
4,1,4,$2,$3,$4,$5,$6,$7,$8,$9,$2,$3,0*
0 Add four circle primitives for the rounded corners*
1,1,$1+$1,$2,$3*
1,1,$1+$1,$4,$5*
1,1,$1+$1,$6,$7*
1,1,$1+$1,$8,$9*
0 Add four rect primitives between the rounded corners*
20,1,$1+$1,$2,$3,$4,$5,0*
20,1,$1+$1,$4,$5,$6,$7,0*
20,1,$1+$1,$6,$7,$8,$9,0*
20,1,$1+$1,$8,$9,$2,$3,0*%
G04 Aperture macros list end*
%ADD10C,0.000000*%
%ADD11C,3.800000*%
%ADD12RoundRect,1.000000X-0.000010X0.375000X-0.000010X-0.375000X0.000010X-0.375000X0.000010X0.375000X0*%
%ADD13C,1.524000*%
%ADD14R,1.000000X1.800000*%
%ADD15R,0.600000X0.600000*%
%ADD16O,0.570000X2.390000*%
%ADD17R,0.600000X1.550000*%
%ADD18R,1.500000X2.000000*%
%ADD19R,1.550000X0.600000*%
%ADD20R,2.000000X1.500000*%
G04 APERTURE END LIST*
D10*
%TO.C,G\u002A\u002A\u002A*%
G36*
X135746649Y-44358890D02*
G01*
X135820868Y-44399732D01*
X135881388Y-44460343D01*
X135922107Y-44534620D01*
X135936920Y-44616005D01*
X135922177Y-44696504D01*
X135882101Y-44772111D01*
X135822922Y-44832605D01*
X135793515Y-44851235D01*
X135706615Y-44882505D01*
X135621474Y-44882213D01*
X135536155Y-44851235D01*
X135470745Y-44800258D01*
X135421790Y-44729825D01*
X135395519Y-44650156D01*
X135392749Y-44616005D01*
X135400535Y-44565127D01*
X135420098Y-44507304D01*
X135429605Y-44487325D01*
X135480581Y-44421915D01*
X135551014Y-44372960D01*
X135630683Y-44346690D01*
X135664835Y-44343919D01*
X135746649Y-44358890D01*
G37*
G36*
X131825414Y-44358890D02*
G01*
X131899633Y-44399732D01*
X131960153Y-44460343D01*
X132000872Y-44534620D01*
X132015685Y-44616005D01*
X132007899Y-44666883D01*
X131988337Y-44724705D01*
X131978830Y-44744685D01*
X131927853Y-44810095D01*
X131857420Y-44859050D01*
X131777751Y-44885320D01*
X131743600Y-44888091D01*
X131692722Y-44880304D01*
X131634899Y-44860742D01*
X131614920Y-44851235D01*
X131549510Y-44800258D01*
X131500555Y-44729825D01*
X131474284Y-44650156D01*
X131471514Y-44616005D01*
X131479300Y-44565127D01*
X131498863Y-44507304D01*
X131508369Y-44487325D01*
X131559346Y-44421915D01*
X131629779Y-44372960D01*
X131709448Y-44346690D01*
X131743600Y-44343919D01*
X131825414Y-44358890D01*
G37*
G36*
X134883162Y-43926193D02*
G01*
X134982047Y-43966699D01*
X135064559Y-44029550D01*
X135127877Y-44110840D01*
X135169181Y-44206663D01*
X135185648Y-44313111D01*
X135174457Y-44426280D01*
X135165861Y-44459046D01*
X135138540Y-44516953D01*
X135093390Y-44580879D01*
X135039612Y-44639725D01*
X134986408Y-44682392D01*
X134975580Y-44688564D01*
X134942090Y-44705442D01*
X134923544Y-44709710D01*
X134906014Y-44702576D01*
X134894147Y-44695618D01*
X134870963Y-44674781D01*
X134837940Y-44636573D01*
X134809793Y-44599583D01*
X134762462Y-44539792D01*
X134720770Y-44505872D01*
X134676339Y-44494919D01*
X134620790Y-44504025D01*
X134576498Y-44518688D01*
X134520012Y-44536567D01*
X134470911Y-44547407D01*
X134443939Y-44549030D01*
X134406635Y-44528344D01*
X134377688Y-44481106D01*
X134359083Y-44412132D01*
X134352798Y-44327914D01*
X134367225Y-44209356D01*
X134408000Y-44107077D01*
X134472542Y-44023641D01*
X134558275Y-43961615D01*
X134662621Y-43923565D01*
X134770726Y-43911939D01*
X134883162Y-43926193D01*
G37*
G36*
X132769102Y-43924883D02*
G01*
X132868069Y-43964419D01*
X132950067Y-44031018D01*
X133015863Y-44125152D01*
X133023518Y-44139940D01*
X133062752Y-44249140D01*
X133071723Y-44357030D01*
X133050258Y-44460082D01*
X133040439Y-44483963D01*
X133016562Y-44525845D01*
X132988089Y-44547731D01*
X132948585Y-44550778D01*
X132891618Y-44536143D01*
X132845489Y-44519005D01*
X132792606Y-44502040D01*
X132746808Y-44493947D01*
X132727022Y-44494760D01*
X132700878Y-44510395D01*
X132661571Y-44544426D01*
X132616220Y-44590485D01*
X132600680Y-44607764D01*
X132556922Y-44654948D01*
X132519041Y-44691007D01*
X132493165Y-44710286D01*
X132487725Y-44712035D01*
X132463693Y-44702912D01*
X132425087Y-44679501D01*
X132397049Y-44659450D01*
X132317271Y-44579533D01*
X132262724Y-44482358D01*
X132236102Y-44373395D01*
X132233874Y-44327914D01*
X132243107Y-44226501D01*
X132272308Y-44141680D01*
X132325650Y-44062201D01*
X132337669Y-44048127D01*
X132420656Y-43977224D01*
X132521182Y-43931237D01*
X132634293Y-43912312D01*
X132652400Y-43911939D01*
X132769102Y-43924883D01*
G37*
G36*
X134763677Y-45297570D02*
G01*
X134782817Y-45317060D01*
X134783994Y-45319174D01*
X134797123Y-45367938D01*
X134799734Y-45439639D01*
X134792837Y-45527351D01*
X134777443Y-45624150D01*
X134754564Y-45723110D01*
X134725208Y-45817306D01*
X134703264Y-45872401D01*
X134612442Y-46041441D01*
X134500067Y-46187367D01*
X134367274Y-46309206D01*
X134215198Y-46405982D01*
X134044972Y-46476722D01*
X133976942Y-46496274D01*
X133886367Y-46511811D01*
X133776049Y-46519261D01*
X133657176Y-46518782D01*
X133540934Y-46510531D01*
X133438511Y-46494667D01*
X133411574Y-46488296D01*
X133242025Y-46427950D01*
X133088699Y-46340960D01*
X132953271Y-46229193D01*
X132837417Y-46094520D01*
X132742811Y-45938807D01*
X132671129Y-45763925D01*
X132633145Y-45619989D01*
X132613844Y-45504429D01*
X132609407Y-45415339D01*
X132619842Y-45350837D01*
X132634058Y-45321973D01*
X132653355Y-45302330D01*
X132679567Y-45292716D01*
X132716377Y-45294009D01*
X132767470Y-45307086D01*
X132836526Y-45332826D01*
X132927229Y-45372106D01*
X133016000Y-45413001D01*
X133192209Y-45491064D01*
X133350000Y-45550000D01*
X133494663Y-45589755D01*
X133631488Y-45610274D01*
X133765763Y-45611504D01*
X133902779Y-45593390D01*
X134047825Y-45555878D01*
X134206191Y-45498914D01*
X134383165Y-45422443D01*
X134434832Y-45398440D01*
X134542767Y-45349308D01*
X134626295Y-45315410D01*
X134688740Y-45295990D01*
X134733426Y-45290295D01*
X134763677Y-45297570D01*
G37*
G36*
X133808250Y-42044146D02*
G01*
X134129938Y-42071319D01*
X134443143Y-42128286D01*
X134746168Y-42213834D01*
X135037315Y-42326746D01*
X135314889Y-42465808D01*
X135577191Y-42629804D01*
X135822525Y-42817519D01*
X136049195Y-43027738D01*
X136255502Y-43259245D01*
X136439751Y-43510826D01*
X136600244Y-43781265D01*
X136735284Y-44069348D01*
X136773892Y-44167864D01*
X136844448Y-44375429D01*
X136897613Y-44576714D01*
X136934822Y-44780135D01*
X136957508Y-44994106D01*
X136967108Y-45227043D01*
X136967651Y-45304222D01*
X136966133Y-45464217D01*
X136960941Y-45600547D01*
X136951115Y-45721444D01*
X136935694Y-45835138D01*
X136913719Y-45949858D01*
X136884231Y-46073835D01*
X136872760Y-46117904D01*
X136855844Y-46182244D01*
X136842539Y-46233650D01*
X136834624Y-46265202D01*
X136833203Y-46271724D01*
X136847524Y-46275909D01*
X136884107Y-46281815D01*
X136912133Y-46285419D01*
X137020896Y-46313329D01*
X137116496Y-46366871D01*
X137196222Y-46441418D01*
X137257363Y-46532345D01*
X137297206Y-46635027D01*
X137313042Y-46744838D01*
X137302157Y-46857154D01*
X137283547Y-46918983D01*
X137250697Y-47005262D01*
X137306394Y-47070331D01*
X137365391Y-47162933D01*
X137399251Y-47269769D01*
X137407081Y-47384178D01*
X137387989Y-47499496D01*
X137370527Y-47549547D01*
X137350132Y-47601622D01*
X137341707Y-47635312D01*
X137344320Y-47661528D01*
X137357044Y-47691179D01*
X137358253Y-47693593D01*
X137373527Y-47738243D01*
X137385656Y-47799100D01*
X137390499Y-47843561D01*
X137385859Y-47954905D01*
X137356018Y-48058181D01*
X137299741Y-48154872D01*
X137215795Y-48246456D01*
X137102947Y-48334414D01*
X136959965Y-48420227D01*
X136873215Y-48464532D01*
X136608670Y-48580563D01*
X136330770Y-48678899D01*
X136046138Y-48757923D01*
X135761396Y-48816019D01*
X135483164Y-48851571D01*
X135240701Y-48862972D01*
X135023147Y-48854887D01*
X134829818Y-48828304D01*
X134658321Y-48782502D01*
X134506264Y-48716764D01*
X134371252Y-48630370D01*
X134316150Y-48585204D01*
X134240390Y-48518518D01*
X134092341Y-48538081D01*
X133988951Y-48548002D01*
X133863486Y-48554221D01*
X133725666Y-48556745D01*
X133585209Y-48555581D01*
X133451837Y-48550739D01*
X133335268Y-48542224D01*
X133292822Y-48537447D01*
X133137507Y-48517467D01*
X133052746Y-48592343D01*
X132954875Y-48664599D01*
X132835011Y-48730575D01*
X132703134Y-48785490D01*
X132569226Y-48824566D01*
X132566396Y-48825198D01*
X132460147Y-48843347D01*
X132333201Y-48856568D01*
X132196568Y-48864330D01*
X132061259Y-48866101D01*
X131938283Y-48861351D01*
X131895648Y-48857573D01*
X131589332Y-48812197D01*
X131274902Y-48741506D01*
X130960580Y-48647716D01*
X130654587Y-48533038D01*
X130592814Y-48506795D01*
X130436146Y-48430905D01*
X130298999Y-48348355D01*
X130184060Y-48261332D01*
X130094014Y-48172023D01*
X130031550Y-48082617D01*
X130008942Y-48031358D01*
X129987837Y-47935207D01*
X129985592Y-47834796D01*
X130001986Y-47742700D01*
X130014565Y-47709111D01*
X130032126Y-47667733D01*
X130037197Y-47638554D01*
X130029566Y-47607133D01*
X130012498Y-47566881D01*
X129978815Y-47456108D01*
X129971160Y-47341067D01*
X129971227Y-47340639D01*
X130309616Y-47340639D01*
X130313087Y-47402342D01*
X130344449Y-47463574D01*
X130360768Y-47482582D01*
X130415883Y-47527107D01*
X130500337Y-47576972D01*
X130612097Y-47631146D01*
X130749135Y-47688594D01*
X130817096Y-47714710D01*
X130944835Y-47763987D01*
X131044805Y-47806120D01*
X131119957Y-47842957D01*
X131173244Y-47876344D01*
X131207619Y-47908128D01*
X131226032Y-47940154D01*
X131231438Y-47973862D01*
X131226984Y-48015382D01*
X131211903Y-48042308D01*
X131183619Y-48054280D01*
X131139554Y-48050941D01*
X131077131Y-48031932D01*
X130993774Y-47996895D01*
X130886905Y-47945469D01*
X130833615Y-47918502D01*
X130730820Y-47866709D01*
X130650970Y-47828549D01*
X130589089Y-47801999D01*
X130540201Y-47785035D01*
X130499330Y-47775636D01*
X130474720Y-47772626D01*
X130419870Y-47770309D01*
X130385099Y-47776405D01*
X130359027Y-47793394D01*
X130352991Y-47799178D01*
X130323623Y-47842060D01*
X130321527Y-47887434D01*
X130347475Y-47938634D01*
X130398508Y-47995417D01*
X130473925Y-48054820D01*
X130576727Y-48115876D01*
X130702446Y-48177042D01*
X130846616Y-48236775D01*
X131004770Y-48293530D01*
X131172443Y-48345765D01*
X131345169Y-48391935D01*
X131518479Y-48430497D01*
X131687910Y-48459908D01*
X131775610Y-48471371D01*
X131875919Y-48480001D01*
X131991005Y-48485315D01*
X132113186Y-48487388D01*
X132234781Y-48486298D01*
X132348108Y-48482120D01*
X132445488Y-48474931D01*
X132519238Y-48464808D01*
X132523574Y-48463939D01*
X132660129Y-48424709D01*
X132774706Y-48366376D01*
X132871397Y-48285699D01*
X132954296Y-48179436D01*
X133011647Y-48077448D01*
X133044089Y-48009005D01*
X133063827Y-47956664D01*
X133073994Y-47908713D01*
X133077725Y-47853437D01*
X133078100Y-47829090D01*
X133073499Y-47748090D01*
X133056615Y-47672221D01*
X133024854Y-47596399D01*
X132975625Y-47515538D01*
X132906335Y-47424555D01*
X132821935Y-47326754D01*
X132658322Y-47128820D01*
X132516054Y-46924499D01*
X132398352Y-46718849D01*
X132312100Y-46526531D01*
X132266697Y-46429602D01*
X132216377Y-46359568D01*
X132163007Y-46317390D01*
X132108456Y-46304031D01*
X132054591Y-46320452D01*
X132003334Y-46367547D01*
X131972234Y-46424867D01*
X131950018Y-46499922D01*
X131939789Y-46578962D01*
X131942517Y-46637085D01*
X131962709Y-46720190D01*
X131997649Y-46796088D01*
X132051602Y-46871800D01*
X132128834Y-46954349D01*
X132144357Y-46969349D01*
X132201380Y-47024969D01*
X132238532Y-47065101D01*
X132259913Y-47095477D01*
X132269621Y-47121825D01*
X132271766Y-47147464D01*
X132259303Y-47206750D01*
X132222659Y-47245460D01*
X132162954Y-47262629D01*
X132137357Y-47263383D01*
X132083045Y-47255551D01*
X132034703Y-47238088D01*
X132027457Y-47233827D01*
X132003196Y-47209295D01*
X131968138Y-47162633D01*
X131926543Y-47099958D01*
X131882671Y-47027388D01*
X131877976Y-47019215D01*
X131771576Y-46838867D01*
X131669023Y-46676496D01*
X131571747Y-46534002D01*
X131481178Y-46413286D01*
X131398745Y-46316249D01*
X131325878Y-46244791D01*
X131264008Y-46200815D01*
X131261390Y-46199454D01*
X131184985Y-46171361D01*
X131123057Y-46171307D01*
X131077146Y-46198401D01*
X131048794Y-46251753D01*
X131039528Y-46327561D01*
X131043017Y-46377693D01*
X131054853Y-46426652D01*
X131077352Y-46477898D01*
X131112831Y-46534886D01*
X131163605Y-46601077D01*
X131231991Y-46679928D01*
X131320306Y-46774897D01*
X131382646Y-46839837D01*
X131489411Y-46950977D01*
X131575120Y-47042253D01*
X131641713Y-47116070D01*
X131691129Y-47174831D01*
X131725306Y-47220941D01*
X131746185Y-47256805D01*
X131755703Y-47284827D01*
X131756427Y-47303330D01*
X131744582Y-47335856D01*
X131713019Y-47349185D01*
X131706918Y-47349993D01*
X131662790Y-47345136D01*
X131607311Y-47320547D01*
X131538054Y-47274724D01*
X131452588Y-47206163D01*
X131399491Y-47159737D01*
X131315948Y-47088035D01*
X131218368Y-47009084D01*
X131114057Y-46928397D01*
X131010324Y-46851487D01*
X130914474Y-46783868D01*
X130833814Y-46731052D01*
X130821071Y-46723303D01*
X130707835Y-46662962D01*
X130611680Y-46627560D01*
X130533279Y-46617226D01*
X130473302Y-46632086D01*
X130447196Y-46652328D01*
X130414832Y-46695714D01*
X130400572Y-46739128D01*
X130405863Y-46784263D01*
X130432155Y-46832812D01*
X130480895Y-46886468D01*
X130553531Y-46946923D01*
X130651511Y-47015871D01*
X130776284Y-47095005D01*
X130878079Y-47156032D01*
X131032548Y-47248810D01*
X131159884Y-47329331D01*
X131261880Y-47399045D01*
X131340330Y-47459401D01*
X131397026Y-47511851D01*
X131433762Y-47557845D01*
X131452331Y-47598833D01*
X131455509Y-47623039D01*
X131448103Y-47663166D01*
X131432900Y-47687812D01*
X131418538Y-47695189D01*
X131398247Y-47695617D01*
X131368784Y-47687610D01*
X131326903Y-47669685D01*
X131269359Y-47640356D01*
X131192909Y-47598139D01*
X131094307Y-47541549D01*
X131025110Y-47501217D01*
X130869415Y-47412680D01*
X130737089Y-47343219D01*
X130626248Y-47292245D01*
X130535005Y-47259166D01*
X130461476Y-47243391D01*
X130403775Y-47244329D01*
X130360016Y-47261390D01*
X130334872Y-47284840D01*
X130309616Y-47340639D01*
X129971227Y-47340639D01*
X129988670Y-47229026D01*
X130030482Y-47127252D01*
X130071675Y-47068410D01*
X130124233Y-47007008D01*
X130091937Y-46911853D01*
X130068044Y-46796876D01*
X130072142Y-46683444D01*
X130101543Y-46575978D01*
X130153559Y-46478899D01*
X130225498Y-46396630D01*
X130314673Y-46333591D01*
X130418395Y-46294203D01*
X130473241Y-46284925D01*
X130520728Y-46279668D01*
X130551956Y-46275526D01*
X130559227Y-46273922D01*
X130555575Y-46258567D01*
X130545746Y-46218951D01*
X130531424Y-46161841D01*
X130520900Y-46120112D01*
X130487973Y-45983741D01*
X130463231Y-45864473D01*
X130445586Y-45753236D01*
X130433952Y-45640957D01*
X130427240Y-45518564D01*
X130424363Y-45376986D01*
X130424040Y-45312224D01*
X130424826Y-45224049D01*
X130739698Y-45224049D01*
X130744019Y-45506689D01*
X130774579Y-45778413D01*
X130788744Y-45862355D01*
X130799947Y-45918438D01*
X130810557Y-45950368D01*
X130822941Y-45961852D01*
X130839466Y-45956593D01*
X130862500Y-45938298D01*
X130871621Y-45930305D01*
X130960694Y-45872386D01*
X131062578Y-45840857D01*
X131173104Y-45834973D01*
X131288101Y-45853991D01*
X131403398Y-45897165D01*
X131514825Y-45963753D01*
X131618212Y-46053009D01*
X131630345Y-46065704D01*
X131728939Y-46171102D01*
X131759067Y-46132801D01*
X131835375Y-46060466D01*
X131930238Y-46009052D01*
X132036920Y-45979856D01*
X132148685Y-45974174D01*
X132258799Y-45993305D01*
X132331901Y-46022466D01*
X132395703Y-46066028D01*
X132462842Y-46129940D01*
X132524831Y-46204805D01*
X132573181Y-46281229D01*
X132582146Y-46299485D01*
X132652657Y-46451388D01*
X132714042Y-46578324D01*
X132769169Y-46685003D01*
X132820907Y-46776136D01*
X132872128Y-46856431D01*
X132925699Y-46930600D01*
X132984491Y-47003353D01*
X133051373Y-47079399D01*
X133069179Y-47098917D01*
X133180991Y-47227583D01*
X133267901Y-47344271D01*
X133332221Y-47453858D01*
X133376261Y-47561222D01*
X133402334Y-47671240D01*
X133412749Y-47788791D01*
X133413171Y-47825016D01*
X133404806Y-47952841D01*
X133378506Y-48073293D01*
X133336877Y-48187857D01*
X133336595Y-48210464D01*
X133362886Y-48222140D01*
X133391426Y-48224684D01*
X133443989Y-48226435D01*
X133514754Y-48227444D01*
X133597900Y-48227764D01*
X133687603Y-48227445D01*
X133778042Y-48226539D01*
X133863395Y-48225097D01*
X133937839Y-48223170D01*
X133995552Y-48220810D01*
X134030713Y-48218068D01*
X134038646Y-48216185D01*
X134038470Y-48197475D01*
X134028420Y-48159091D01*
X134017663Y-48128157D01*
X133973678Y-47969151D01*
X133961385Y-47809785D01*
X133963830Y-47789490D01*
X134297496Y-47789490D01*
X134303770Y-47893932D01*
X134334258Y-48004807D01*
X134367981Y-48085165D01*
X134439045Y-48204104D01*
X134530691Y-48305527D01*
X134637949Y-48385331D01*
X134755852Y-48439417D01*
X134816568Y-48455401D01*
X134871754Y-48466363D01*
X134918038Y-48475539D01*
X134936605Y-48479208D01*
X134975752Y-48483248D01*
X135039911Y-48485835D01*
X135122119Y-48487037D01*
X135215416Y-48486922D01*
X135312838Y-48485557D01*
X135407424Y-48483009D01*
X135492211Y-48479348D01*
X135560238Y-48474639D01*
X135576807Y-48472981D01*
X135834657Y-48435007D01*
X136089111Y-48377755D01*
X136330823Y-48305712D01*
X136522298Y-48238261D01*
X136685404Y-48171709D01*
X136819196Y-48106505D01*
X136922727Y-48043099D01*
X136979255Y-47997645D01*
X137031414Y-47940711D01*
X137055480Y-47891211D01*
X137052810Y-47844041D01*
X137031120Y-47802801D01*
X137012855Y-47781844D01*
X136989576Y-47771731D01*
X136951359Y-47769945D01*
X136910785Y-47772273D01*
X136872629Y-47776785D01*
X136833077Y-47786036D01*
X136786900Y-47802106D01*
X136728875Y-47827078D01*
X136653773Y-47863030D01*
X136556369Y-47912045D01*
X136544531Y-47918087D01*
X136426510Y-47976715D01*
X136333107Y-48018796D01*
X136261763Y-48044691D01*
X136209915Y-48054763D01*
X136175003Y-48049372D01*
X136154466Y-48028880D01*
X136145743Y-47993649D01*
X136144986Y-47974486D01*
X136151808Y-47938487D01*
X136174139Y-47904110D01*
X136214771Y-47869581D01*
X136276499Y-47833128D01*
X136362118Y-47792977D01*
X136474421Y-47747355D01*
X136545112Y-47720576D01*
X136708314Y-47655964D01*
X136840519Y-47594846D01*
X136942468Y-47536567D01*
X137014902Y-47480468D01*
X137058565Y-47425896D01*
X137074198Y-47372194D01*
X137062543Y-47318706D01*
X137040107Y-47283003D01*
X137003586Y-47253924D01*
X136952262Y-47242392D01*
X136884547Y-47248890D01*
X136798854Y-47273900D01*
X136693594Y-47317903D01*
X136567180Y-47381381D01*
X136418023Y-47464817D01*
X136393064Y-47479392D01*
X136269170Y-47551312D01*
X136169595Y-47607181D01*
X136091712Y-47648224D01*
X136032894Y-47675668D01*
X135990512Y-47690738D01*
X135961940Y-47694661D01*
X135944575Y-47688684D01*
X135922997Y-47651804D01*
X135925303Y-47602378D01*
X135950357Y-47547826D01*
X135970067Y-47522070D01*
X136009045Y-47482728D01*
X136061719Y-47438749D01*
X136131001Y-47388114D01*
X136219802Y-47328801D01*
X136331035Y-47258788D01*
X136467609Y-47176055D01*
X136473680Y-47172429D01*
X136610147Y-47089661D01*
X136720455Y-47019706D01*
X136806960Y-46960831D01*
X136872017Y-46911307D01*
X136917985Y-46869401D01*
X136947217Y-46833382D01*
X136955774Y-46818144D01*
X136972575Y-46752988D01*
X136962228Y-46694262D01*
X136928436Y-46648234D01*
X136874901Y-46621172D01*
X136836752Y-46616635D01*
X136769654Y-46627984D01*
X136683471Y-46660815D01*
X136581064Y-46713305D01*
X136465290Y-46783632D01*
X136339009Y-46869971D01*
X136205080Y-46970501D01*
X136066363Y-47083399D01*
X135960928Y-47175068D01*
X135864668Y-47256079D01*
X135785238Y-47311684D01*
X135721188Y-47342753D01*
X135671068Y-47350157D01*
X135669507Y-47349993D01*
X135634641Y-47338493D01*
X135620773Y-47309003D01*
X135619997Y-47303330D01*
X135621275Y-47281114D01*
X135631255Y-47254013D01*
X135651972Y-47219497D01*
X135685458Y-47175034D01*
X135733750Y-47118093D01*
X135798880Y-47046143D01*
X135882883Y-46956653D01*
X135980818Y-46854333D01*
X136056263Y-46774777D01*
X136127730Y-46697200D01*
X136190851Y-46626513D01*
X136241260Y-46567627D01*
X136274590Y-46525452D01*
X136279510Y-46518441D01*
X136312376Y-46465565D01*
X136329714Y-46422072D01*
X136336287Y-46372584D01*
X136337046Y-46332759D01*
X136328642Y-46252100D01*
X136303214Y-46198494D01*
X136260442Y-46171742D01*
X136200005Y-46171646D01*
X136121580Y-46198006D01*
X136120425Y-46198529D01*
X136057432Y-46239521D01*
X135983347Y-46310184D01*
X135898380Y-46410243D01*
X135802742Y-46539421D01*
X135696643Y-46697441D01*
X135580294Y-46884028D01*
X135513646Y-46995936D01*
X135467381Y-47071936D01*
X135423123Y-47139595D01*
X135384817Y-47193237D01*
X135356405Y-47227186D01*
X135347855Y-47234556D01*
X135304242Y-47252776D01*
X135249880Y-47262833D01*
X135239067Y-47263383D01*
X135171743Y-47253803D01*
X135127007Y-47222382D01*
X135106110Y-47170191D01*
X135104658Y-47148021D01*
X135107364Y-47120317D01*
X135118205Y-47093542D01*
X135141266Y-47061950D01*
X135180633Y-47019797D01*
X135230927Y-46970445D01*
X135287086Y-46913087D01*
X135337557Y-46855761D01*
X135375561Y-46806468D01*
X135390698Y-46781871D01*
X135425104Y-46685587D01*
X135436865Y-46585104D01*
X135426502Y-46488252D01*
X135394535Y-46402862D01*
X135362458Y-46357260D01*
X135310612Y-46316452D01*
X135257007Y-46306771D01*
X135202761Y-46327464D01*
X135148997Y-46377777D01*
X135096833Y-46456956D01*
X135047391Y-46564249D01*
X135044809Y-46570858D01*
X135006250Y-46658642D01*
X134953532Y-46762482D01*
X134891998Y-46873051D01*
X134826989Y-46981018D01*
X134763846Y-47077055D01*
X134722721Y-47133343D01*
X134684230Y-47180760D01*
X134631832Y-47242499D01*
X134573380Y-47309404D01*
X134532942Y-47354548D01*
X134433159Y-47474009D01*
X134361270Y-47583603D01*
X134316356Y-47687405D01*
X134297496Y-47789490D01*
X133963830Y-47789490D01*
X133980497Y-47651172D01*
X134030731Y-47494423D01*
X134111800Y-47340651D01*
X134223420Y-47190967D01*
X134271616Y-47137674D01*
X134450530Y-46928147D01*
X134599196Y-46708802D01*
X134717429Y-46479922D01*
X134742793Y-46419804D01*
X134811166Y-46274038D01*
X134887196Y-46158469D01*
X134972289Y-46071901D01*
X135067851Y-46013139D01*
X135175288Y-45980986D01*
X135267161Y-45973609D01*
X135388668Y-45988310D01*
X135497558Y-46031714D01*
X135591283Y-46102775D01*
X135597793Y-46109358D01*
X135650389Y-46163624D01*
X135760113Y-46053899D01*
X135876050Y-45954232D01*
X135994513Y-45885369D01*
X136117892Y-45846103D01*
X136190585Y-45836553D01*
X136302302Y-45841464D01*
X136406500Y-45870006D01*
X136495114Y-45919561D01*
X136524657Y-45944943D01*
X136574256Y-45993434D01*
X136591611Y-45912510D01*
X136612780Y-45806928D01*
X136628169Y-45711159D01*
X136638569Y-45616427D01*
X136644771Y-45513960D01*
X136647567Y-45394983D01*
X136647900Y-45288217D01*
X136646779Y-45162769D01*
X136643766Y-45061201D01*
X136638276Y-44975408D01*
X136629721Y-44897284D01*
X136617515Y-44818727D01*
X136611527Y-44785624D01*
X136552474Y-44536443D01*
X136469084Y-44284413D01*
X136364887Y-44037944D01*
X136243415Y-43805444D01*
X136117016Y-43607687D01*
X136054289Y-43526102D01*
X135973447Y-43431384D01*
X135880354Y-43329537D01*
X135780875Y-43226564D01*
X135680873Y-43128469D01*
X135586212Y-43041256D01*
X135502756Y-42970927D01*
X135472774Y-42948100D01*
X135208490Y-42774333D01*
X134932580Y-42630383D01*
X134645103Y-42516275D01*
X134346117Y-42432032D01*
X134168363Y-42397018D01*
X134053220Y-42382458D01*
X133916748Y-42372740D01*
X133767633Y-42367853D01*
X133614560Y-42367787D01*
X133466214Y-42372532D01*
X133331280Y-42382079D01*
X133218444Y-42396417D01*
X133208706Y-42398115D01*
X132900003Y-42469410D01*
X132602646Y-42570020D01*
X132318527Y-42699157D01*
X132049544Y-42856032D01*
X131959668Y-42917106D01*
X131882858Y-42976666D01*
X131791922Y-43055734D01*
X131692490Y-43148632D01*
X131590192Y-43249682D01*
X131490659Y-43353209D01*
X131399523Y-43453533D01*
X131322413Y-43544977D01*
X131274776Y-43607687D01*
X131210632Y-43705916D01*
X131141210Y-43825207D01*
X131070835Y-43956971D01*
X131003835Y-44092622D01*
X130944536Y-44223573D01*
X130897264Y-44341237D01*
X130879642Y-44391934D01*
X130808074Y-44659218D01*
X130761238Y-44939074D01*
X130739698Y-45224049D01*
X130424826Y-45224049D01*
X130425504Y-45148085D01*
X130431263Y-45006813D01*
X130442396Y-44879427D01*
X130459983Y-44756946D01*
X130485107Y-44630388D01*
X130518846Y-44490773D01*
X130526318Y-44462034D01*
X130621138Y-44161915D01*
X130743388Y-43876267D01*
X130891336Y-43606367D01*
X131063248Y-43353491D01*
X131257389Y-43118917D01*
X131472027Y-42903923D01*
X131705427Y-42709785D01*
X131955855Y-42537782D01*
X132221579Y-42389190D01*
X132500863Y-42265286D01*
X132791975Y-42167348D01*
X133093181Y-42096654D01*
X133402746Y-42054480D01*
X133718938Y-42042104D01*
X133808250Y-42044146D01*
G37*
%TD*%
D11*
%TO.C,REF\u002A\u002A*%
X114050000Y-34550000D03*
%TD*%
D12*
%TO.C,U1*%
X176134400Y-37765800D03*
D13*
X176150000Y-38150000D03*
D12*
X173594400Y-37765800D03*
D13*
X173610000Y-38150000D03*
D12*
X171054400Y-37765800D03*
D13*
X171070000Y-38150000D03*
D12*
X168514400Y-37765800D03*
D13*
X168530000Y-38150000D03*
D12*
X165974400Y-37765800D03*
D13*
X165990000Y-38150000D03*
D12*
X163434400Y-37765800D03*
D13*
X163450000Y-38150000D03*
D12*
X160894400Y-37765800D03*
D13*
X160910000Y-38150000D03*
X160910000Y-53542400D03*
D12*
X160894400Y-53930800D03*
D13*
X163450000Y-53542400D03*
D12*
X163434400Y-53930800D03*
D13*
X165990000Y-53542400D03*
D12*
X165974400Y-53930800D03*
D13*
X168530000Y-53542400D03*
D12*
X168514400Y-53930800D03*
D13*
X171070000Y-53542400D03*
D12*
X171054400Y-53930800D03*
D13*
X173610000Y-53542400D03*
D12*
X173594400Y-53930800D03*
D13*
X176150000Y-53542400D03*
D12*
X176134400Y-53930800D03*
%TD*%
D14*
%TO.C,U3*%
X153050000Y-53450000D03*
X149350000Y-53450000D03*
%TD*%
D15*
%TO.C,C16*%
X139650000Y-38550000D03*
X138650000Y-38550000D03*
%TD*%
D11*
%TO.C,REF\u002A\u002A*%
X114050000Y-57050000D03*
%TD*%
D16*
%TO.C,U2*%
X140810000Y-48040000D03*
X142080000Y-48040000D03*
X143350000Y-48040000D03*
X144620000Y-48040000D03*
X145890000Y-48040000D03*
X147170000Y-48040000D03*
X148430000Y-48040000D03*
X149700000Y-48040000D03*
X150970000Y-48040000D03*
X152240000Y-48040000D03*
X153510000Y-48040000D03*
X154790000Y-48040000D03*
X154790000Y-38560000D03*
X153510000Y-38560000D03*
X152240000Y-38560000D03*
X150970000Y-38560000D03*
X149700000Y-38560000D03*
X148430000Y-38560000D03*
X147170000Y-38560000D03*
X145890000Y-38560000D03*
X144620000Y-38560000D03*
X143350000Y-38560000D03*
X142080000Y-38560000D03*
X140810000Y-38560000D03*
%TD*%
D11*
%TO.C,REF\u002A\u002A*%
X178050000Y-57050000D03*
%TD*%
%TO.C,REF\u002A\u002A*%
X178050000Y-34550000D03*
%TD*%
D15*
%TO.C,C11*%
X150700000Y-31900000D03*
X149700000Y-31900000D03*
%TD*%
%TO.C,C14*%
X170200000Y-31900000D03*
X169200000Y-31900000D03*
%TD*%
%TO.C,C15*%
X176700000Y-31900000D03*
X175700000Y-31900000D03*
%TD*%
D17*
%TO.C,H13*%
X164700000Y-30380000D03*
X163700000Y-30380000D03*
X162700000Y-30380000D03*
D18*
X161400000Y-26500000D03*
X166000000Y-26500000D03*
%TD*%
D17*
%TO.C,H9*%
X138700000Y-30380000D03*
X137700000Y-30380000D03*
X136700000Y-30380000D03*
D18*
X135400000Y-26500000D03*
X140000000Y-26500000D03*
%TD*%
D17*
%TO.C,H14*%
X171200000Y-30380000D03*
X170200000Y-30380000D03*
X169200000Y-30380000D03*
D18*
X167900000Y-26500000D03*
X172500000Y-26500000D03*
%TD*%
D19*
%TO.C,H2*%
X107040000Y-41700000D03*
X107040000Y-42700000D03*
X107040000Y-43700000D03*
D20*
X103160000Y-45000000D03*
X103160000Y-40400000D03*
%TD*%
D15*
%TO.C,C3*%
X108600000Y-36200000D03*
X108600000Y-37200000D03*
%TD*%
%TO.C,C5*%
X111700000Y-31900000D03*
X110700000Y-31900000D03*
%TD*%
D19*
%TO.C,H3*%
X107040000Y-35200000D03*
X107040000Y-36200000D03*
X107040000Y-37200000D03*
D20*
X103160000Y-38500000D03*
X103160000Y-33900000D03*
%TD*%
D15*
%TO.C,C0*%
X108600000Y-55700000D03*
X108600000Y-56700000D03*
%TD*%
%TO.C,C9*%
X137700000Y-31900000D03*
X136700000Y-31900000D03*
%TD*%
%TO.C,C4*%
X105200000Y-31900000D03*
X104200000Y-31900000D03*
%TD*%
D17*
%TO.C,H10*%
X145200000Y-30380000D03*
X144200000Y-30380000D03*
X143200000Y-30380000D03*
D18*
X141900000Y-26500000D03*
X146500000Y-26500000D03*
%TD*%
D17*
%TO.C,H12*%
X158200000Y-30380000D03*
X157200000Y-30380000D03*
X156200000Y-30380000D03*
D18*
X154900000Y-26500000D03*
X159500000Y-26500000D03*
%TD*%
D15*
%TO.C,C12*%
X157200000Y-31900000D03*
X156200000Y-31900000D03*
%TD*%
D19*
%TO.C,H1*%
X107040000Y-48200000D03*
X107040000Y-49200000D03*
X107040000Y-50200000D03*
D20*
X103160000Y-51500000D03*
X103160000Y-46900000D03*
%TD*%
D15*
%TO.C,C8*%
X131200000Y-31900000D03*
X130200000Y-31900000D03*
%TD*%
%TO.C,C1*%
X108600000Y-49200000D03*
X108600000Y-50200000D03*
%TD*%
%TO.C,C2*%
X108600000Y-42700000D03*
X108600000Y-43700000D03*
%TD*%
%TO.C,C13*%
X163700000Y-31900000D03*
X162700000Y-31900000D03*
%TD*%
%TO.C,C6*%
X118200000Y-31900000D03*
X117200000Y-31900000D03*
%TD*%
D17*
%TO.C,H11*%
X151700000Y-30380000D03*
X150700000Y-30380000D03*
X149700000Y-30380000D03*
D18*
X148400000Y-26500000D03*
X153000000Y-26500000D03*
%TD*%
D17*
%TO.C,H6*%
X119200000Y-30380000D03*
X118200000Y-30380000D03*
X117200000Y-30380000D03*
D18*
X115900000Y-26500000D03*
X120500000Y-26500000D03*
%TD*%
D17*
%TO.C,H7*%
X125700000Y-30380000D03*
X124700000Y-30380000D03*
X123700000Y-30380000D03*
D18*
X122400000Y-26500000D03*
X127000000Y-26500000D03*
%TD*%
D17*
%TO.C,H5*%
X112700000Y-30380000D03*
X111700000Y-30380000D03*
X110700000Y-30380000D03*
D18*
X109400000Y-26500000D03*
X114000000Y-26500000D03*
%TD*%
D17*
%TO.C,H4*%
X106200000Y-30380000D03*
X105200000Y-30380000D03*
X104200000Y-30380000D03*
D18*
X102900000Y-26500000D03*
X107500000Y-26500000D03*
%TD*%
D19*
%TO.C,H0*%
X107052500Y-54700000D03*
X107052500Y-55700000D03*
X107052500Y-56700000D03*
D20*
X103172500Y-58000000D03*
X103172500Y-53400000D03*
%TD*%
D17*
%TO.C,H8*%
X132200000Y-30380000D03*
X131200000Y-30380000D03*
X130200000Y-30380000D03*
D18*
X128900000Y-26500000D03*
X133500000Y-26500000D03*
%TD*%
D15*
%TO.C,C10*%
X144200000Y-31900000D03*
X143200000Y-31900000D03*
%TD*%
D17*
%TO.C,H15*%
X177700000Y-30380000D03*
X176700000Y-30380000D03*
X175700000Y-30380000D03*
D18*
X174400000Y-26500000D03*
X179000000Y-26500000D03*
%TD*%
D15*
%TO.C,C7*%
X124700000Y-31900000D03*
X123700000Y-31900000D03*
%TD*%
M02*
