%TF.GenerationSoftware,KiCad,Pcbnew,8.0.1*%
%TF.CreationDate,2025-01-13T07:12:32-05:00*%
%TF.ProjectId,glove-v3,676c6f76-652d-4763-932e-6b696361645f,rev?*%
%TF.SameCoordinates,Original*%
%TF.FileFunction,Paste,Bot*%
%TF.FilePolarity,Positive*%
%FSLAX46Y46*%
G04 Gerber Fmt 4.6, Leading zero omitted, Abs format (unit mm)*
G04 Created by KiCad (PCBNEW 8.0.1) date 2025-01-13 07:12:32*
%MOMM*%
%LPD*%
G01*
G04 APERTURE LIST*
%ADD10C,0.000000*%
G04 APERTURE END LIST*
D10*
%TO.C,G\u002A\u002A\u002A*%
G36*
X125768063Y-35869398D02*
G01*
X125794747Y-35892802D01*
X125849117Y-35944016D01*
X125928031Y-36019924D01*
X126028347Y-36117405D01*
X126146922Y-36233341D01*
X126280616Y-36364613D01*
X126426285Y-36508101D01*
X126580787Y-36660688D01*
X126740981Y-36819253D01*
X126903724Y-36980679D01*
X127065875Y-37141845D01*
X127224291Y-37299634D01*
X127375830Y-37450925D01*
X127517350Y-37592601D01*
X127645709Y-37721542D01*
X127757765Y-37834629D01*
X127850376Y-37928743D01*
X127920399Y-38000766D01*
X127964693Y-38047578D01*
X127980115Y-38066060D01*
X127974807Y-38076322D01*
X127945185Y-38115704D01*
X127894426Y-38177492D01*
X127828109Y-38255398D01*
X127751811Y-38343133D01*
X127671111Y-38434408D01*
X127591585Y-38522935D01*
X127518812Y-38602423D01*
X127458369Y-38666585D01*
X127415834Y-38709131D01*
X127396785Y-38723772D01*
X127395679Y-38723295D01*
X127368549Y-38705460D01*
X127310050Y-38664271D01*
X127224248Y-38602677D01*
X127115208Y-38523622D01*
X126986999Y-38430054D01*
X126843687Y-38324919D01*
X126689338Y-38211165D01*
X126663346Y-38191980D01*
X126511193Y-38080240D01*
X126371125Y-37978312D01*
X126247125Y-37889028D01*
X126143178Y-37815222D01*
X126063268Y-37759725D01*
X126011379Y-37725371D01*
X125991495Y-37714993D01*
X125990508Y-37718989D01*
X125984385Y-37758844D01*
X125973383Y-37838828D01*
X125957890Y-37955806D01*
X125938293Y-38106643D01*
X125914981Y-38288203D01*
X125888343Y-38497350D01*
X125858766Y-38730950D01*
X125826638Y-38985867D01*
X125792349Y-39258966D01*
X125756286Y-39547111D01*
X125718837Y-39847167D01*
X125680390Y-40155999D01*
X125641335Y-40470471D01*
X125602058Y-40787448D01*
X125562949Y-41103795D01*
X125524396Y-41416376D01*
X125486786Y-41722055D01*
X125450508Y-42017699D01*
X125415951Y-42300171D01*
X125383502Y-42566336D01*
X125353549Y-42813058D01*
X125326482Y-43037202D01*
X125302688Y-43235634D01*
X125282555Y-43405216D01*
X125266471Y-43542815D01*
X125254826Y-43645295D01*
X125248007Y-43709520D01*
X125246402Y-43732356D01*
X125266800Y-43733412D01*
X125325016Y-43732892D01*
X125413500Y-43730926D01*
X125524740Y-43727787D01*
X125651222Y-43723747D01*
X125785434Y-43719076D01*
X125919864Y-43714049D01*
X126046998Y-43708935D01*
X126159325Y-43704007D01*
X126249331Y-43699537D01*
X126309504Y-43695797D01*
X126332332Y-43693058D01*
X126332399Y-43692913D01*
X126341124Y-43668632D01*
X126363842Y-43604335D01*
X126399785Y-43502212D01*
X126448186Y-43364454D01*
X126508278Y-43193249D01*
X126579292Y-42990788D01*
X126660461Y-42759261D01*
X126751018Y-42500859D01*
X126850195Y-42217770D01*
X126957225Y-41912186D01*
X127071340Y-41586296D01*
X127191773Y-41242290D01*
X127317756Y-40882358D01*
X127448522Y-40508690D01*
X127583303Y-40123477D01*
X127592534Y-40097090D01*
X127727133Y-39712483D01*
X127857731Y-39339521D01*
X127983557Y-38980398D01*
X128103837Y-38637307D01*
X128217802Y-38312444D01*
X128324679Y-38008002D01*
X128423697Y-37726176D01*
X128514083Y-37469160D01*
X128595067Y-37239148D01*
X128665877Y-37038335D01*
X128725741Y-36868915D01*
X128773887Y-36733082D01*
X128809544Y-36633030D01*
X128831940Y-36570953D01*
X128840303Y-36549047D01*
X128842029Y-36548142D01*
X128874903Y-36541976D01*
X128941791Y-36533612D01*
X129033955Y-36523809D01*
X129142655Y-36513324D01*
X129259152Y-36502916D01*
X129374708Y-36493344D01*
X129480583Y-36485364D01*
X129568037Y-36479736D01*
X129628333Y-36477217D01*
X129652731Y-36478566D01*
X129660718Y-36491963D01*
X129687028Y-36542045D01*
X129729309Y-36625129D01*
X129785570Y-36737147D01*
X129853815Y-36874032D01*
X129932051Y-37031716D01*
X130018284Y-37206132D01*
X130110521Y-37393212D01*
X130206767Y-37588888D01*
X130305029Y-37789093D01*
X130403313Y-37989760D01*
X130499626Y-38186819D01*
X130591973Y-38376205D01*
X130678360Y-38553849D01*
X130756795Y-38715683D01*
X130825282Y-38857641D01*
X130881829Y-38975654D01*
X130924441Y-39065655D01*
X130951125Y-39123576D01*
X130959888Y-39145350D01*
X130959862Y-39145417D01*
X130943409Y-39167493D01*
X130902136Y-39217641D01*
X130840767Y-39290268D01*
X130764030Y-39379780D01*
X130676652Y-39480581D01*
X130399904Y-39798201D01*
X129880411Y-39068134D01*
X129840300Y-39011873D01*
X129729025Y-38856965D01*
X129626601Y-38716067D01*
X129535859Y-38592961D01*
X129459626Y-38491428D01*
X129400732Y-38415250D01*
X129362005Y-38368209D01*
X129346275Y-38354087D01*
X129345602Y-38355456D01*
X129333913Y-38386642D01*
X129308881Y-38456443D01*
X129271586Y-38561747D01*
X129223110Y-38699439D01*
X129164534Y-38866406D01*
X129096939Y-39059535D01*
X129021407Y-39275711D01*
X128939019Y-39511821D01*
X128850857Y-39764752D01*
X128758001Y-40031389D01*
X128661533Y-40308619D01*
X128562535Y-40593329D01*
X128462086Y-40882404D01*
X128361270Y-41172732D01*
X128261167Y-41461198D01*
X128162858Y-41744688D01*
X128067425Y-42020090D01*
X127975949Y-42284289D01*
X127889511Y-42534172D01*
X127809193Y-42766625D01*
X127736075Y-42978534D01*
X127671240Y-43166787D01*
X127615768Y-43328268D01*
X127570742Y-43459866D01*
X127537241Y-43558464D01*
X127516347Y-43620952D01*
X127509143Y-43644213D01*
X127522103Y-43647490D01*
X127571638Y-43651010D01*
X127649605Y-43653408D01*
X127746774Y-43654295D01*
X127984406Y-43654295D01*
X127970817Y-44321830D01*
X127970507Y-44338030D01*
X127969017Y-44441494D01*
X127967515Y-44586468D01*
X127966012Y-44770171D01*
X127964518Y-44989820D01*
X127963045Y-45242635D01*
X127961605Y-45525833D01*
X127960209Y-45836633D01*
X127958867Y-46172252D01*
X127957591Y-46529911D01*
X127956393Y-46906826D01*
X127955284Y-47300216D01*
X127954274Y-47707299D01*
X127953376Y-48125294D01*
X127952600Y-48551419D01*
X127951957Y-48982892D01*
X127946687Y-52976418D01*
X128227164Y-53014450D01*
X128341987Y-53029297D01*
X128448692Y-53041782D01*
X128534770Y-53050513D01*
X128588324Y-53054184D01*
X128614497Y-53050379D01*
X128662557Y-53035813D01*
X128733237Y-53009304D01*
X128829068Y-52969749D01*
X128952583Y-52916045D01*
X129106312Y-52847089D01*
X129292787Y-52761780D01*
X129514539Y-52659014D01*
X129774099Y-52537688D01*
X129955439Y-52452670D01*
X130167371Y-52353458D01*
X130344680Y-52270830D01*
X130490816Y-52203365D01*
X130609226Y-52149641D01*
X130703362Y-52108236D01*
X130776673Y-52077731D01*
X130832609Y-52056702D01*
X130874618Y-52043730D01*
X130906152Y-52037392D01*
X130930659Y-52036267D01*
X130951589Y-52038935D01*
X130972391Y-52043973D01*
X130978468Y-52045667D01*
X131026681Y-52060317D01*
X131112636Y-52087264D01*
X131232451Y-52125266D01*
X131382246Y-52173081D01*
X131558143Y-52229464D01*
X131756261Y-52293173D01*
X131972720Y-52362964D01*
X132203639Y-52437595D01*
X132445140Y-52515822D01*
X132527040Y-52542367D01*
X132761594Y-52618226D01*
X132982065Y-52689293D01*
X133184879Y-52754432D01*
X133366462Y-52812502D01*
X133523241Y-52862368D01*
X133651644Y-52902892D01*
X133748095Y-52932935D01*
X133809022Y-52951359D01*
X133830850Y-52957028D01*
X133829566Y-52954777D01*
X133807550Y-52925715D01*
X133759800Y-52865043D01*
X133688248Y-52775159D01*
X133594825Y-52658465D01*
X133481465Y-52517359D01*
X133350098Y-52354242D01*
X133202656Y-52171512D01*
X133041072Y-51971570D01*
X132867277Y-51756815D01*
X132683203Y-51529647D01*
X132490783Y-51292465D01*
X131144553Y-49634065D01*
X131883239Y-49269476D01*
X132621925Y-48904887D01*
X133375163Y-49288136D01*
X133398788Y-49300150D01*
X133566242Y-49384943D01*
X133719876Y-49462117D01*
X133855338Y-49529532D01*
X133968274Y-49585045D01*
X134054331Y-49626514D01*
X134109158Y-49651798D01*
X134128400Y-49658755D01*
X134122958Y-49639775D01*
X134104862Y-49581927D01*
X134075410Y-49489521D01*
X134035979Y-49366823D01*
X133987944Y-49218100D01*
X133932680Y-49047619D01*
X133871563Y-48859647D01*
X133805967Y-48658451D01*
X133483534Y-47670777D01*
X133553538Y-47628799D01*
X133571428Y-47618151D01*
X133649130Y-47572944D01*
X133748353Y-47516335D01*
X133863036Y-47451670D01*
X133987118Y-47382294D01*
X134114539Y-47311552D01*
X134239238Y-47242789D01*
X134355156Y-47179351D01*
X134456230Y-47124584D01*
X134536401Y-47081832D01*
X134589609Y-47054441D01*
X134609793Y-47045756D01*
X134610896Y-47048440D01*
X134622244Y-47083869D01*
X134644684Y-47157288D01*
X134677082Y-47264845D01*
X134718303Y-47402687D01*
X134767215Y-47566963D01*
X134822683Y-47753818D01*
X134883573Y-47959402D01*
X134948752Y-48179861D01*
X135017086Y-48411342D01*
X135087441Y-48649994D01*
X135158683Y-48891964D01*
X135229678Y-49133398D01*
X135299293Y-49370445D01*
X135366394Y-49599252D01*
X135429847Y-49815966D01*
X135488518Y-50016736D01*
X135541274Y-50197707D01*
X135586980Y-50355029D01*
X135624503Y-50484847D01*
X135652708Y-50583310D01*
X135670463Y-50646566D01*
X135676634Y-50670761D01*
X135675298Y-50673349D01*
X135647771Y-50696517D01*
X135588978Y-50738019D01*
X135504600Y-50794060D01*
X135400317Y-50860846D01*
X135281809Y-50934579D01*
X134886985Y-51176919D01*
X134804998Y-51131702D01*
X134791132Y-51124086D01*
X134734997Y-51093392D01*
X134647527Y-51045657D01*
X134534244Y-50983894D01*
X134400671Y-50911110D01*
X134252330Y-50830318D01*
X134094743Y-50744527D01*
X134010353Y-50698589D01*
X133862739Y-50618210D01*
X133730334Y-50546078D01*
X133617981Y-50484835D01*
X133530520Y-50437120D01*
X133472794Y-50405572D01*
X133449646Y-50392832D01*
X133446857Y-50391356D01*
X133432817Y-50393037D01*
X133443832Y-50407925D01*
X133481188Y-50455355D01*
X133543031Y-50532864D01*
X133627338Y-50637945D01*
X133732089Y-50768092D01*
X133855261Y-50920799D01*
X133994832Y-51093560D01*
X134148782Y-51283868D01*
X134315088Y-51489217D01*
X134491729Y-51707101D01*
X134676682Y-51935014D01*
X135920547Y-53467049D01*
X135674123Y-53940221D01*
X135642490Y-54001003D01*
X135566324Y-54147652D01*
X135493026Y-54289169D01*
X135427072Y-54416891D01*
X135372936Y-54522157D01*
X135335096Y-54596305D01*
X135313085Y-54638278D01*
X135271826Y-54708968D01*
X135238351Y-54756140D01*
X135218353Y-54771263D01*
X135188058Y-54761965D01*
X135116854Y-54740934D01*
X135010400Y-54709898D01*
X134872257Y-54669875D01*
X134705990Y-54621882D01*
X134515160Y-54566937D01*
X134303331Y-54506058D01*
X134074066Y-54440263D01*
X133830927Y-54370570D01*
X133577478Y-54297996D01*
X133317281Y-54223560D01*
X133053899Y-54148279D01*
X132790896Y-54073171D01*
X132531833Y-53999255D01*
X132280274Y-53927547D01*
X132039782Y-53859066D01*
X131813919Y-53794830D01*
X131606250Y-53735856D01*
X131420335Y-53683163D01*
X131259739Y-53637767D01*
X131128024Y-53600688D01*
X131028753Y-53572942D01*
X130965489Y-53555549D01*
X130941795Y-53549525D01*
X130935740Y-53551212D01*
X130894208Y-53567909D01*
X130817524Y-53601053D01*
X130709567Y-53648897D01*
X130574219Y-53709692D01*
X130415362Y-53781690D01*
X130236877Y-53863141D01*
X130042645Y-53952298D01*
X129836548Y-54047413D01*
X128760526Y-54545301D01*
X127638085Y-54451930D01*
X127588326Y-54447780D01*
X127371231Y-54429432D01*
X127168879Y-54411940D01*
X126985552Y-54395701D01*
X126825535Y-54381112D01*
X126693112Y-54368566D01*
X126592566Y-54358462D01*
X126528182Y-54351194D01*
X126504243Y-54347158D01*
X126503528Y-54337473D01*
X126502790Y-54287010D01*
X126502519Y-54195581D01*
X126502697Y-54065582D01*
X126503308Y-53899408D01*
X126504334Y-53699452D01*
X126505759Y-53468110D01*
X126507566Y-53207776D01*
X126509737Y-52920845D01*
X126512257Y-52609711D01*
X126515108Y-52276769D01*
X126518273Y-51924414D01*
X126521735Y-51555039D01*
X126525477Y-51171040D01*
X126529483Y-50774812D01*
X126532044Y-50523019D01*
X126535880Y-50134234D01*
X126539437Y-49759189D01*
X126542700Y-49400278D01*
X126545651Y-49059897D01*
X126548273Y-48740441D01*
X126550551Y-48444303D01*
X126552467Y-48173880D01*
X126554004Y-47931567D01*
X126555146Y-47719757D01*
X126555877Y-47540846D01*
X126556179Y-47397229D01*
X126556036Y-47291302D01*
X126555431Y-47225457D01*
X126554348Y-47202092D01*
X126541052Y-47201694D01*
X126486116Y-47202098D01*
X126391200Y-47203506D01*
X126259086Y-47205851D01*
X126092556Y-47209067D01*
X125894393Y-47213090D01*
X125667377Y-47217853D01*
X125414292Y-47223291D01*
X125137918Y-47229339D01*
X124841039Y-47235930D01*
X124526437Y-47243000D01*
X124196893Y-47250483D01*
X123855189Y-47258313D01*
X123504108Y-47266425D01*
X123146431Y-47274753D01*
X122784941Y-47283232D01*
X122422420Y-47291796D01*
X122061650Y-47300380D01*
X121705412Y-47308917D01*
X121356490Y-47317343D01*
X121017664Y-47325592D01*
X120691717Y-47333598D01*
X120381432Y-47341297D01*
X120089589Y-47348621D01*
X119818972Y-47355506D01*
X119572362Y-47361887D01*
X119352541Y-47367697D01*
X119162292Y-47372871D01*
X119004396Y-47377344D01*
X118881636Y-47381050D01*
X118796793Y-47383923D01*
X118752650Y-47385899D01*
X118668506Y-47391435D01*
X118668672Y-47166460D01*
X118668859Y-47149322D01*
X118671163Y-47072968D01*
X118675909Y-46957841D01*
X118682869Y-46808368D01*
X118691812Y-46628975D01*
X118702511Y-46424089D01*
X118714734Y-46198134D01*
X118728252Y-45955539D01*
X118742837Y-45700728D01*
X118758259Y-45438129D01*
X118766073Y-45306709D01*
X118780876Y-45057514D01*
X118794760Y-44823459D01*
X118807507Y-44608252D01*
X118818897Y-44415599D01*
X118828712Y-44249207D01*
X118836733Y-44112784D01*
X118842742Y-44010036D01*
X118846519Y-43944671D01*
X118847846Y-43920396D01*
X118863735Y-43914321D01*
X118916229Y-43906057D01*
X118996699Y-43897517D01*
X119096123Y-43889811D01*
X119344234Y-43873603D01*
X119329236Y-43152509D01*
X119314238Y-42431415D01*
X118508701Y-40515073D01*
X118487132Y-40463754D01*
X118371320Y-40187971D01*
X118260920Y-39924685D01*
X118157133Y-39676784D01*
X118061160Y-39447152D01*
X117974201Y-39238675D01*
X117897459Y-39054240D01*
X117832133Y-38896732D01*
X117779426Y-38769036D01*
X117740538Y-38674040D01*
X117716670Y-38614627D01*
X117709024Y-38593686D01*
X117720934Y-38586083D01*
X117765704Y-38558473D01*
X117837606Y-38514487D01*
X117930218Y-38458055D01*
X118037117Y-38393102D01*
X118359350Y-38197562D01*
X119752943Y-38724907D01*
X119863281Y-38766720D01*
X120095916Y-38855279D01*
X120314354Y-38938974D01*
X120515118Y-39016441D01*
X120694731Y-39086317D01*
X120849715Y-39147239D01*
X120976594Y-39197843D01*
X121071890Y-39236767D01*
X121132126Y-39262646D01*
X121153825Y-39274119D01*
X121153215Y-39280966D01*
X121140825Y-39323681D01*
X121114995Y-39398970D01*
X121078000Y-39500529D01*
X121032113Y-39622056D01*
X120979606Y-39757244D01*
X120798098Y-40218502D01*
X120009946Y-39950029D01*
X119997801Y-39945894D01*
X119819622Y-39885534D01*
X119655189Y-39830400D01*
X119509286Y-39782053D01*
X119386693Y-39742055D01*
X119292192Y-39711965D01*
X119230566Y-39693346D01*
X119206595Y-39687758D01*
X119206528Y-39689617D01*
X119217257Y-39721450D01*
X119244081Y-39789986D01*
X119285542Y-39891756D01*
X119340185Y-40023292D01*
X119406553Y-40181125D01*
X119483189Y-40361788D01*
X119568636Y-40561810D01*
X119661440Y-40777724D01*
X119760143Y-41006062D01*
X120328889Y-42318164D01*
X120293004Y-43077474D01*
X120286707Y-43214234D01*
X120279400Y-43383604D01*
X120273453Y-43534367D01*
X120269045Y-43661280D01*
X120266353Y-43759101D01*
X120265556Y-43822587D01*
X120266832Y-43846496D01*
X120277703Y-43847668D01*
X120327220Y-43848072D01*
X120410711Y-43846997D01*
X120521614Y-43844658D01*
X120653363Y-43841271D01*
X120799396Y-43837054D01*
X120953149Y-43832223D01*
X121108057Y-43826995D01*
X121257557Y-43821586D01*
X121395085Y-43816212D01*
X121514077Y-43811090D01*
X121607970Y-43806438D01*
X121670200Y-43802470D01*
X121694202Y-43799404D01*
X121694285Y-43799274D01*
X121695030Y-43773996D01*
X121693927Y-43709124D01*
X121691144Y-43609660D01*
X121686846Y-43480604D01*
X121681200Y-43326959D01*
X121674372Y-43153727D01*
X121666527Y-42965908D01*
X121662473Y-42865113D01*
X121656559Y-42699548D01*
X121650223Y-42503435D01*
X121643526Y-42279791D01*
X121636530Y-42031631D01*
X121629297Y-41761972D01*
X121621890Y-41473830D01*
X121614370Y-41170223D01*
X121606800Y-40854166D01*
X121599242Y-40528675D01*
X121591758Y-40196767D01*
X121584410Y-39861459D01*
X121577260Y-39525767D01*
X121570371Y-39192707D01*
X121563805Y-38865296D01*
X121557623Y-38546550D01*
X121551889Y-38239486D01*
X121546663Y-37947120D01*
X121542009Y-37672468D01*
X121537988Y-37418546D01*
X121534662Y-37188372D01*
X121532094Y-36984962D01*
X121530346Y-36811332D01*
X121529480Y-36670498D01*
X121529558Y-36565477D01*
X121530642Y-36499285D01*
X121532795Y-36474939D01*
X121537503Y-36472720D01*
X121578349Y-36462435D01*
X121654454Y-36447288D01*
X121759043Y-36428513D01*
X121885342Y-36407342D01*
X122026576Y-36385011D01*
X122501342Y-36312063D01*
X123563590Y-37125980D01*
X123746588Y-37266225D01*
X123928225Y-37405486D01*
X124096373Y-37534465D01*
X124247869Y-37650733D01*
X124379551Y-37751860D01*
X124488255Y-37835419D01*
X124570819Y-37898979D01*
X124624080Y-37940112D01*
X124644875Y-37956388D01*
X124646512Y-37964570D01*
X124642715Y-38010317D01*
X124630638Y-38090091D01*
X124611395Y-38197467D01*
X124586100Y-38326023D01*
X124555868Y-38469334D01*
X124526937Y-38600310D01*
X124494388Y-38740514D01*
X124468252Y-38842593D01*
X124447556Y-38909996D01*
X124431322Y-38946170D01*
X124418576Y-38954564D01*
X124396310Y-38941656D01*
X124339777Y-38906588D01*
X124253063Y-38851887D01*
X124140001Y-38779997D01*
X124004423Y-38693363D01*
X123850164Y-38594430D01*
X123681056Y-38485640D01*
X123500933Y-38369440D01*
X123326109Y-38256765D01*
X123158351Y-38149167D01*
X123005961Y-38051954D01*
X122872650Y-37967469D01*
X122762129Y-37898053D01*
X122678112Y-37846049D01*
X122624308Y-37813800D01*
X122604430Y-37803648D01*
X122604280Y-37805526D01*
X122604694Y-37839906D01*
X122606540Y-37915096D01*
X122609711Y-38027925D01*
X122614099Y-38175219D01*
X122619598Y-38353810D01*
X122626101Y-38560524D01*
X122633501Y-38792190D01*
X122641691Y-39045638D01*
X122650564Y-39317695D01*
X122660014Y-39605191D01*
X122669933Y-39904953D01*
X122680214Y-40213811D01*
X122690750Y-40528593D01*
X122701435Y-40846127D01*
X122712162Y-41163243D01*
X122722824Y-41476768D01*
X122733313Y-41783532D01*
X122743523Y-42080363D01*
X122753347Y-42364089D01*
X122762678Y-42631540D01*
X122771409Y-42879544D01*
X122779433Y-43104928D01*
X122786644Y-43304523D01*
X122792934Y-43475156D01*
X122798196Y-43613657D01*
X122802324Y-43716853D01*
X122805210Y-43781573D01*
X122806748Y-43804647D01*
X122826201Y-43805772D01*
X122884084Y-43804297D01*
X122973487Y-43800412D01*
X123087486Y-43794552D01*
X123219162Y-43787154D01*
X123361592Y-43778651D01*
X123507855Y-43769478D01*
X123651030Y-43760071D01*
X123784194Y-43750864D01*
X123900426Y-43742293D01*
X123992805Y-43734792D01*
X124054410Y-43728796D01*
X124078317Y-43724741D01*
X124078377Y-43724650D01*
X124082622Y-43699536D01*
X124091826Y-43632259D01*
X124105706Y-43525132D01*
X124123981Y-43380473D01*
X124146370Y-43200598D01*
X124172590Y-42987821D01*
X124202360Y-42744460D01*
X124235397Y-42472831D01*
X124271421Y-42175248D01*
X124310150Y-41854029D01*
X124351302Y-41511488D01*
X124394595Y-41149943D01*
X124439747Y-40771708D01*
X124486477Y-40379101D01*
X124534504Y-39974436D01*
X124535477Y-39966220D01*
X124583554Y-39561057D01*
X124630358Y-39167576D01*
X124675605Y-38788126D01*
X124719010Y-38425056D01*
X124760289Y-38080715D01*
X124799157Y-37757452D01*
X124835330Y-37457615D01*
X124868524Y-37183554D01*
X124898453Y-36937618D01*
X124924833Y-36722156D01*
X124947381Y-36539516D01*
X124965811Y-36392047D01*
X124979839Y-36282100D01*
X124989180Y-36212022D01*
X124993550Y-36184162D01*
X124993806Y-36183329D01*
X125005485Y-36161441D01*
X125030120Y-36139843D01*
X125073644Y-36115671D01*
X125141991Y-36086057D01*
X125241095Y-36048138D01*
X125376889Y-35999047D01*
X125476250Y-35963930D01*
X125586352Y-35925767D01*
X125676232Y-35895457D01*
X125738562Y-35875464D01*
X125766014Y-35868253D01*
X125768063Y-35869398D01*
G37*
%TD*%
M02*
