M48
; DRILL file {KiCad 8.0.1} date 2025-01-13T07:12:32-0500
; FORMAT={-:-/ absolute / inch / decimal}
; #@! TF.CreationDate,2025-01-13T07:12:32-05:00
; #@! TF.GenerationSoftware,Kicad,Pcbnew,8.0.1
; #@! TF.FileFunction,Plated,1,4,PTH
FMAT,2
INCH
; #@! TA.AperFunction,Plated,PTH,ViaDrill
T1C0.0118
; #@! TA.AperFunction,Plated,PTH,ComponentDrill
T2C0.0300
; #@! TA.AperFunction,Plated,PTH,ComponentDrill
T3C0.0866
%
G90
G05
T1
X4.1024Y-1.1961
X4.1417Y-1.1961
X4.2142Y-1.4252
X4.2142Y-1.4646
X4.2142Y-1.6811
X4.2142Y-1.7205
X4.2142Y-1.937
X4.2142Y-1.9764
X4.2147Y-2.1929
X4.2147Y-2.2323
X4.3583Y-1.1961
X4.3976Y-1.1961
X4.6142Y-1.1961
X4.6535Y-1.1961
X4.8701Y-1.1961
X4.9094Y-1.1961
X5.126Y-1.1961
X5.1654Y-1.1961
X5.3819Y-1.1961
X5.4213Y-1.1961
X5.4587Y-1.5177
X5.5437Y-1.5181
X5.6378Y-1.1961
X5.6772Y-1.1961
X5.8937Y-1.1961
X5.9331Y-1.1961
X5.9937Y-1.5181
X6.0941Y-1.8913
X6.1496Y-1.1961
X6.189Y-1.1961
X6.4055Y-1.1961
X6.4449Y-1.1961
X6.6614Y-1.1961
X6.7008Y-1.1961
X6.9173Y-1.1961
X6.9567Y-1.1961
T2
X6.335Y-1.502
X6.335Y-2.108
X6.435Y-1.502
X6.435Y-2.108
X6.535Y-1.502
X6.535Y-2.108
X6.635Y-1.502
X6.635Y-2.108
X6.735Y-1.502
X6.735Y-2.108
X6.835Y-1.502
X6.835Y-2.108
X6.935Y-1.502
X6.935Y-2.108
T3
X4.4902Y-1.3602
X4.4902Y-2.2461
X7.0098Y-1.3602
X7.0098Y-2.2461
M30
